<svg width="10" height="10" viewBox="0 0 10 10" fill="none" xmlns="http://www.w3.org/2000/svg">
<path d="M3.97109 1.65415L7.09609 4.77915C7.12515 4.80817 7.1482 4.84264 7.16393 4.88057C7.17965 4.91851 7.18775 4.95917 7.18775 5.00024C7.18775 5.04131 7.17965 5.08197 7.16393 5.11991C7.1482 5.15785 7.12515 5.19231 7.09609 5.22134L3.97109 8.34634C3.92739 8.39009 3.87168 8.41989 3.81103 8.43197C3.75038 8.44405 3.68751 8.43786 3.63038 8.41419C3.57325 8.39051 3.52442 8.35042 3.49009 8.29899C3.45575 8.24755 3.43745 8.18708 3.4375 8.12524L3.4375 1.87524C3.43745 1.8134 3.45575 1.75293 3.49009 1.7015C3.52442 1.65006 3.57325 1.60997 3.63038 1.5863C3.68751 1.56263 3.75038 1.55644 3.81103 1.56851C3.87168 1.58059 3.92739 1.61039 3.97109 1.65415Z" fill="#050505"/>
</svg>
