<svg width="20" height="20" viewBox="0 0 20 20" fill="none" xmlns="http://www.w3.org/2000/svg">
<path d="M14.1405 11.3597L10.3905 7.60969C10.3557 7.57482 10.3144 7.54716 10.2688 7.52829C10.2233 7.50942 10.1745 7.49971 10.1252 7.49971C10.076 7.49971 10.0272 7.50942 9.98163 7.52829C9.93611 7.54716 9.89475 7.57482 9.85992 7.60969L6.10992 11.3597C6.05742 11.4121 6.02165 11.479 6.00716 11.5518C5.99267 11.6245 6.00009 11.7 6.0285 11.7685C6.05691 11.8371 6.10502 11.8957 6.16674 11.9369C6.22846 11.9781 6.30102 12.0001 6.37523 12H13.8752C13.9494 12.0001 14.022 11.9781 14.0837 11.9369C14.1454 11.8957 14.1936 11.8371 14.222 11.7685C14.2504 11.7 14.2578 11.6245 14.2433 11.5518C14.2288 11.479 14.1931 11.4121 14.1405 11.3597Z" fill="#050505"/>
</svg>
