<svg width="10" height="10" viewBox="0 0 10 10" fill="none" xmlns="http://www.w3.org/2000/svg">
<path d="M3.97109 1.6539L7.09609 4.7789C7.12515 4.80793 7.1482 4.84239 7.16393 4.88033C7.17965 4.91827 7.18775 4.95893 7.18775 5C7.18775 5.04107 7.17965 5.08173 7.16393 5.11967C7.1482 5.1576 7.12515 5.19207 7.09609 5.22109L3.97109 8.34609C3.92739 8.38985 3.87168 8.41965 3.81103 8.43173C3.75038 8.4438 3.68751 8.43762 3.63038 8.41394C3.57325 8.39027 3.52442 8.35018 3.49009 8.29874C3.45575 8.24731 3.43745 8.18684 3.4375 8.125L3.4375 1.875C3.43745 1.81316 3.45575 1.75269 3.49009 1.70125C3.52442 1.64982 3.57325 1.60973 3.63038 1.58605C3.68751 1.56238 3.75038 1.55619 3.81103 1.56827C3.87168 1.58035 3.92739 1.61015 3.97109 1.6539Z" fill="#817e7e44"/>
</svg>
