<svg width="30" height="30" viewBox="0 0 30 30" fill="none" xmlns="http://www.w3.org/2000/svg">
<path d="M23.9344 17.3719L15.4969 25.8094C15.3651 25.941 15.1864 26.015 15 26.015C14.8137 26.015 14.635 25.941 14.5032 25.8094L6.06566 17.3719C5.94146 17.2386 5.87385 17.0623 5.87706 16.8801C5.88028 16.698 5.95407 16.5242 6.08289 16.3954C6.21172 16.2665 6.38552 16.1927 6.56767 16.1895C6.74983 16.1863 6.92613 16.2539 7.05941 16.3781L14.2969 23.6145V4.6875C14.2969 4.50102 14.371 4.32218 14.5029 4.19032C14.6347 4.05845 14.8136 3.98438 15 3.98438C15.1865 3.98438 15.3654 4.05845 15.4972 4.19032C15.6291 4.32218 15.7032 4.50102 15.7032 4.6875V23.6145L22.9407 16.3781C23.074 16.2539 23.2502 16.1863 23.4324 16.1895C23.6146 16.1927 23.7884 16.2665 23.9172 16.3954C24.046 16.5242 24.1198 16.698 24.123 16.8801C24.1262 17.0623 24.0586 17.2386 23.9344 17.3719Z" fill="#050505"/>
</svg>
