<svg width="12" height="12" viewBox="0 0 12 12" fill="none" xmlns="http://www.w3.org/2000/svg">
<path d="M4.64031 1.85939L8.39031 5.60939C8.42518 5.64422 8.45284 5.68558 8.47171 5.7311C8.49058 5.77663 8.50029 5.82542 8.50029 5.8747C8.50029 5.92399 8.49058 5.97278 8.47171 6.01831C8.45284 6.06383 8.42518 6.10519 8.39031 6.14002L4.64031 9.89002C4.58787 9.94252 4.52102 9.97828 4.44824 9.99278C4.37546 10.0073 4.30001 9.99985 4.23145 9.97144C4.16289 9.94303 4.10431 9.89492 4.0631 9.8332C4.0219 9.77148 3.99994 9.69892 4 9.6247L4 2.12471C3.99994 2.05049 4.0219 1.97793 4.0631 1.91621C4.10431 1.85449 4.16289 1.80638 4.23145 1.77797C4.30001 1.74957 4.37546 1.74214 4.44824 1.75663C4.52102 1.77113 4.58787 1.80689 4.64031 1.85939Z" fill="#757575"/>
</svg>
