<svg width="24" height="22" viewBox="0 0 24 22" fill="none" xmlns="http://www.w3.org/2000/svg">
<path d="M22.3125 0.921875H1.6875C1.25238 0.921875 0.83508 1.09473 0.527403 1.4024C0.219726 1.71008 0.046875 2.12738 0.046875 2.5625V19.4375C0.046875 19.8726 0.219726 20.2899 0.527403 20.5976C0.83508 20.9053 1.25238 21.0781 1.6875 21.0781H22.3125C22.7476 21.0781 23.1649 20.9053 23.4726 20.5976C23.7803 20.2899 23.9531 19.8726 23.9531 19.4375V2.5625C23.9531 2.12738 23.7803 1.71008 23.4726 1.4024C23.1649 1.09473 22.7476 0.921875 22.3125 0.921875ZM22.5469 19.4375C22.5469 19.4997 22.5222 19.5593 22.4782 19.6032C22.4343 19.6472 22.3747 19.6719 22.3125 19.6719H1.6875C1.62534 19.6719 1.56573 19.6472 1.52177 19.6032C1.47782 19.5593 1.45312 19.4997 1.45312 19.4375V2.5625C1.45312 2.50034 1.47782 2.44073 1.52177 2.39677C1.56573 2.35282 1.62534 2.32812 1.6875 2.32812H22.3125C22.3747 2.32812 22.4343 2.35282 22.4782 2.39677C22.5222 2.44073 22.5469 2.50034 22.5469 2.5625V19.4375ZM17.3906 6.3125C17.3906 7.74218 16.8227 9.11331 15.8117 10.1242C14.8008 11.1352 13.4297 11.7031 12 11.7031C10.5703 11.7031 9.19919 11.1352 8.18825 10.1242C7.17731 9.11331 6.60938 7.74218 6.60938 6.3125C6.60938 6.12602 6.68345 5.94718 6.81532 5.81532C6.94718 5.68345 7.12602 5.60938 7.3125 5.60938C7.49898 5.60938 7.67782 5.68345 7.80968 5.81532C7.94155 5.94718 8.01562 6.12602 8.01562 6.3125C8.01562 7.36922 8.43541 8.38266 9.18262 9.12988C9.92984 9.87709 10.9433 10.2969 12 10.2969C13.0567 10.2969 14.0702 9.87709 14.8174 9.12988C15.5646 8.38266 15.9844 7.36922 15.9844 6.3125C15.9844 6.12602 16.0585 5.94718 16.1903 5.81532C16.3222 5.68345 16.501 5.60938 16.6875 5.60938C16.874 5.60938 17.0528 5.68345 17.1847 5.81532C17.3165 5.94718 17.3906 6.12602 17.3906 6.3125Z" fill="black"/>
</svg>
