<svg width="30" height="30" viewBox="0 0 30 30" fill="none" xmlns="http://www.w3.org/2000/svg">
<path d="M19.3373 12.2314C19.4474 12.3417 19.5093 12.4912 19.5093 12.6471C19.5093 12.8029 19.4474 12.9524 19.3373 13.0627L13.8471 18.5529C13.7368 18.6631 13.5873 18.725 13.4314 18.725C13.2755 18.725 13.126 18.6631 13.0157 18.5529L10.6627 16.2C10.5588 16.0885 10.5023 15.941 10.505 15.7886C10.5077 15.6362 10.5694 15.4908 10.6772 15.383C10.7849 15.2753 10.9303 15.2135 11.0827 15.2108C11.2351 15.2082 11.3826 15.2647 11.4941 15.3686L13.4314 17.3049L18.5059 12.2314C18.6162 12.1212 18.7657 12.0593 18.9216 12.0593C19.0775 12.0593 19.227 12.1212 19.3373 12.2314ZM25 15C25 16.9778 24.4135 18.9112 23.3147 20.5557C22.2159 22.2002 20.6541 23.4819 18.8268 24.2388C16.9996 24.9957 14.9889 25.1937 13.0491 24.8078C11.1093 24.422 9.32746 23.4696 7.92894 22.0711C6.53041 20.6725 5.578 18.8907 5.19215 16.9509C4.8063 15.0111 5.00433 13.0004 5.76121 11.1732C6.51809 9.3459 7.79981 7.78412 9.4443 6.6853C11.0888 5.58649 13.0222 5 15 5C17.6512 5.00311 20.1929 6.05768 22.0676 7.93237C23.9423 9.80706 24.9969 12.3488 25 15ZM23.8235 15C23.8235 13.2549 23.306 11.5489 22.3365 10.0979C21.367 8.64689 19.9889 7.51595 18.3766 6.84812C16.7643 6.18029 14.9902 6.00555 13.2786 6.34601C11.567 6.68647 9.99482 7.52683 8.76083 8.76082C7.52683 9.99481 6.68647 11.567 6.34602 13.2786C6.00556 14.9902 6.18029 16.7643 6.84813 18.3766C7.51596 19.9889 8.64689 21.367 10.0979 22.3365C11.5489 23.306 13.2549 23.8235 15 23.8235C17.3394 23.8209 19.5821 22.8905 21.2363 21.2363C22.8905 19.5821 23.8209 17.3393 23.8235 15Z" fill="#103a44"/>
</svg>
