<svg width="70" height="30" viewBox="0 0 70 30" fill="none" xmlns="http://www.w3.org/2000/svg">
<g opacity="0.4">
<g clip-path="url(#clip0_1_917)">
<path fill-rule="evenodd" clip-rule="evenodd" d="M2.10883 2.10883C0 4.21766 0 7.61175 0 14.4V15.6C0 22.3883 0 25.7823 2.10883 27.8912C4.21766 30 7.61175 30 14.4 30H15.6C22.3883 30 25.7823 30 27.8912 27.8912C30 25.7823 30 22.3883 30 15.6V14.4C30 7.61175 30 4.21766 27.8912 2.10883C25.7823 0 22.3883 0 15.6 0H14.4C7.61175 0 4.21766 0 2.10883 2.10883ZM5.06257 9.12506C5.22507 16.9251 9.12506 21.6126 15.9626 21.6126H16.3501V17.1501C18.8626 17.4001 20.7625 19.2376 21.525 21.6126H25.0751C24.1001 18.0626 21.5374 16.1001 19.9374 15.3501C21.5374 14.4251 23.7874 12.1751 24.3249 9.12506H21.0999C20.3999 11.6001 18.3251 13.8501 16.3501 14.0626V9.12506H13.125V17.7751C11.125 17.2751 8.60006 14.8501 8.48756 9.12506H5.06257Z" fill="white"/>
</g>
<g clip-path="url(#clip1_1_917)">
<path fill-rule="evenodd" clip-rule="evenodd" d="M70 15C70 23.2843 63.2843 30 55 30C46.7157 30 40 23.2843 40 15C40 6.71573 46.7157 0 55 0C63.2843 0 70 6.71573 70 15ZM55.5375 11.0737C54.0786 11.6805 51.1627 12.9365 46.7899 14.8417C46.0798 15.124 45.7078 15.4003 45.674 15.6704C45.6167 16.1269 46.1884 16.3066 46.9668 16.5514C47.0727 16.5847 47.1824 16.6192 47.2949 16.6558C48.0608 16.9047 49.091 17.196 49.6266 17.2075C50.1124 17.218 50.6547 17.0177 51.2533 16.6067C55.3389 13.8488 57.448 12.4548 57.5804 12.4247C57.6738 12.4035 57.8032 12.3769 57.891 12.4548C57.9787 12.5328 57.97 12.6804 57.9608 12.72C57.9041 12.9614 55.6602 15.0476 54.4989 16.1272C54.1369 16.4638 53.8801 16.7025 53.8276 16.757C53.71 16.8792 53.5902 16.9947 53.475 17.1058C52.7635 17.7917 52.2299 18.306 53.5045 19.146C54.1171 19.5496 54.6072 19.8834 55.0962 20.2164C55.6302 20.5801 56.1629 20.9428 56.852 21.3946C57.0276 21.5097 57.1953 21.6292 57.3586 21.7457C57.9801 22.1887 58.5384 22.5868 59.2282 22.5233C59.6291 22.4864 60.0431 22.1095 60.2533 20.9854C60.7503 18.3289 61.727 12.5731 61.9528 10.2012C61.9726 9.99341 61.9477 9.72746 61.9277 9.61072C61.9077 9.49397 61.866 9.32763 61.7142 9.2045C61.5345 9.05867 61.257 9.02792 61.133 9.0301C60.5688 9.04004 59.7032 9.34102 55.5375 11.0737Z" fill="white"/>
</g>
</g>
<defs>
<clipPath id="clip0_1_917">
<rect width="30" height="30" fill="white"/>
</clipPath>
<clipPath id="clip1_1_917">
<rect width="30" height="30" fill="white" transform="translate(40)"/>
</clipPath>
</defs>
</svg>
