<svg width="30" height="30" viewBox="0 0 30 30" fill="none" xmlns="http://www.w3.org/2000/svg">
<g opacity="0.2">
<path d="M25.3125 5.85938H4.6875C4.50102 5.85938 4.32218 5.93345 4.19032 6.06532C4.05845 6.19718 3.98438 6.37602 3.98438 6.5625C3.98438 6.74898 4.05845 6.92782 4.19032 7.05968C4.32218 7.19155 4.50102 7.26562 4.6875 7.26562H5.85938V24.375C5.85938 24.8101 6.03223 25.2274 6.3399 25.5351C6.64758 25.8428 7.06488 26.0156 7.5 26.0156H22.5C22.9351 26.0156 23.3524 25.8428 23.6601 25.5351C23.9678 25.2274 24.1406 24.8101 24.1406 24.375V7.26562H25.3125C25.499 7.26562 25.6778 7.19155 25.8097 7.05968C25.9415 6.92782 26.0156 6.74898 26.0156 6.5625C26.0156 6.37602 25.9415 6.19718 25.8097 6.06532C25.6778 5.93345 25.499 5.85938 25.3125 5.85938ZM22.7344 24.375C22.7344 24.4372 22.7097 24.4968 22.6657 24.5407C22.6218 24.5847 22.5622 24.6094 22.5 24.6094H7.5C7.43784 24.6094 7.37823 24.5847 7.33427 24.5407C7.29032 24.4968 7.26562 24.4372 7.26562 24.375V7.26562H22.7344V24.375ZM9.60938 2.8125C9.60938 2.62602 9.68345 2.44718 9.81532 2.31532C9.94718 2.18345 10.126 2.10938 10.3125 2.10938H19.6875C19.874 2.10938 20.0528 2.18345 20.1847 2.31532C20.3165 2.44718 20.3906 2.62602 20.3906 2.8125C20.3906 2.99898 20.3165 3.17782 20.1847 3.30968C20.0528 3.44155 19.874 3.51562 19.6875 3.51562H10.3125C10.126 3.51562 9.94718 3.44155 9.81532 3.30968C9.68345 3.17782 9.60938 2.99898 9.60938 2.8125Z" fill="#050505"/>
</g>
</svg>
