<svg width="28" height="28" viewBox="0 0 28 28" fill="none" xmlns="http://www.w3.org/2000/svg">
<path d="M19.5 4C17.2031 4 15.2059 5.03578 14.0312 6.77156C12.8566 5.03578 10.8594 4 8.5625 4C6.82264 4.00203 5.15462 4.69408 3.92435 5.92435C2.69408 7.15462 2.00203 8.82264 2 10.5625C2 13.7562 3.99062 17.0802 7.91719 20.4402C9.71646 21.9733 11.66 23.3286 13.7206 24.487C13.8161 24.5383 13.9228 24.5652 14.0312 24.5652C14.1397 24.5652 14.2464 24.5383 14.3419 24.487C16.4025 23.3286 18.346 21.9733 20.1453 20.4402C24.0719 17.0802 26.0625 13.7562 26.0625 10.5625C26.0605 8.82264 25.3684 7.15462 24.1381 5.92435C22.9079 4.69408 21.2399 4.00203 19.5 4ZM14.0312 23.1527C12.2364 22.1169 3.3125 16.6569 3.3125 10.5625C3.31395 9.17056 3.86754 7.83604 4.85179 6.85179C5.83604 5.86754 7.17056 5.31395 8.5625 5.3125C10.7806 5.3125 12.6433 6.49703 13.4242 8.40453C13.4737 8.52489 13.5578 8.62784 13.6659 8.70029C13.7739 8.77274 13.9011 8.81143 14.0312 8.81143C14.1614 8.81143 14.2886 8.77274 14.3966 8.70029C14.5047 8.62784 14.5888 8.52489 14.6383 8.40453C15.4192 6.49703 17.2819 5.3125 19.5 5.3125C20.8919 5.31395 22.2265 5.86754 23.2107 6.85179C24.195 7.83604 24.7486 9.17056 24.75 10.5625C24.75 16.6569 15.8261 22.1169 14.0312 23.1527Z" fill="white"/>
</svg>
