<svg width="30" height="30" viewBox="0 0 30 30" fill="none" xmlns="http://www.w3.org/2000/svg">
<path d="M20.8594 4.92188C18.3984 4.92188 16.2586 6.03164 15 7.89141C13.7414 6.03164 11.6016 4.92188 9.14062 4.92188C7.27649 4.92405 5.48932 5.66553 4.17118 6.98368C2.85303 8.30182 2.11155 10.089 2.10938 11.9531C2.10937 15.375 4.24219 18.9363 8.44922 22.5363C10.377 24.179 12.4594 25.6311 14.6672 26.8723C14.7695 26.9272 14.8838 26.956 15 26.956C15.1162 26.956 15.2305 26.9272 15.3328 26.8723C17.5406 25.6311 19.623 24.179 21.5508 22.5363C25.7578 18.9363 27.8906 15.375 27.8906 11.9531C27.8885 10.089 27.147 8.30182 25.8288 6.98368C24.5107 5.66553 22.7235 4.92405 20.8594 4.92188ZM15 25.4426C13.077 24.3328 3.51562 18.4828 3.51562 11.9531C3.51718 10.4618 4.11031 9.03192 5.16486 7.97736C6.21942 6.92281 7.64926 6.32968 9.14062 6.32812C11.5172 6.32812 13.5129 7.59727 14.3496 9.64102C14.4026 9.76998 14.4927 9.88028 14.6085 9.9579C14.7243 10.0355 14.8606 10.077 15 10.077C15.1394 10.077 15.2757 10.0355 15.3915 9.9579C15.5073 9.88028 15.5974 9.76998 15.6504 9.64102C16.4871 7.59727 18.4828 6.32812 20.8594 6.32812C22.3507 6.32968 23.7806 6.92281 24.8351 7.97736C25.8897 9.03192 26.4828 10.4618 26.4844 11.9531C26.4844 18.4828 16.923 24.3328 15 25.4426Z" fill="#050505"/>
</svg>
