<svg width="30" height="30" viewBox="0 0 30 30" fill="none" xmlns="http://www.w3.org/2000/svg">
<g opacity="0.4">
<path d="M16.3726 19.7059C16.3726 19.8619 16.3106 20.0115 16.2003 20.1218C16.0899 20.2321 15.9403 20.2941 15.7843 20.2941C15.4203 20.2941 15.0712 20.1495 14.8138 19.8921C14.5564 19.6347 14.4118 19.2856 14.4118 18.9216V15C14.4118 14.948 14.3911 14.8981 14.3543 14.8613C14.3176 14.8246 14.2677 14.8039 14.2157 14.8039C14.0597 14.8039 13.9101 14.7419 13.7997 14.6316C13.6894 14.5213 13.6275 14.3717 13.6275 14.2157C13.6275 14.0597 13.6894 13.9101 13.7997 13.7997C13.9101 13.6894 14.0597 13.6274 14.2157 13.6274C14.5797 13.6274 14.9288 13.7721 15.1862 14.0295C15.4436 14.2869 15.5882 14.636 15.5882 15V18.9216C15.5882 18.9736 15.6089 19.0234 15.6457 19.0602C15.6824 19.097 15.7323 19.1176 15.7843 19.1176C15.9403 19.1176 16.0899 19.1796 16.2003 19.2899C16.3106 19.4002 16.3726 19.5499 16.3726 19.7059ZM14.6078 11.6667C14.8017 11.6667 14.9913 11.6092 15.1525 11.5014C15.3137 11.3937 15.4394 11.2406 15.5136 11.0615C15.5878 10.8823 15.6072 10.6852 15.5694 10.495C15.5316 10.3048 15.4382 10.1301 15.3011 9.99303C15.164 9.85592 14.9893 9.76255 14.7991 9.72472C14.6089 9.68689 14.4118 9.70631 14.2327 9.78051C14.0535 9.85471 13.9004 9.98037 13.7927 10.1416C13.685 10.3028 13.6275 10.4924 13.6275 10.6863C13.6275 10.9463 13.7307 11.1957 13.9146 11.3795C14.0985 11.5634 14.3478 11.6667 14.6078 11.6667ZM25 15C25 16.9778 24.4135 18.9112 23.3147 20.5557C22.2159 22.2002 20.6541 23.4819 18.8268 24.2388C16.9996 24.9957 14.9889 25.1937 13.0491 24.8078C11.1093 24.422 9.32746 23.4696 7.92894 22.0711C6.53041 20.6725 5.578 18.8907 5.19215 16.9509C4.8063 15.0111 5.00433 13.0004 5.76121 11.1732C6.51809 9.3459 7.79981 7.78412 9.4443 6.6853C11.0888 5.58649 13.0222 5 15 5C17.6512 5.00311 20.1929 6.05768 22.0676 7.93237C23.9423 9.80706 24.9969 12.3488 25 15ZM23.8235 15C23.8235 13.2549 23.306 11.5489 22.3365 10.0979C21.367 8.64689 19.9889 7.51595 18.3766 6.84812C16.7643 6.18029 14.9902 6.00555 13.2786 6.34601C11.567 6.68647 9.99482 7.52683 8.76083 8.76082C7.52683 9.99481 6.68647 11.567 6.34602 13.2786C6.00556 14.9902 6.18029 16.7643 6.84813 18.3766C7.51596 19.9889 8.64689 21.367 10.0979 22.3365C11.5489 23.306 13.2549 23.8235 15 23.8235C17.3394 23.8209 19.5821 22.8905 21.2363 21.2363C22.8905 19.5821 23.8209 17.3393 23.8235 15Z" fill="#050505"/>
</g>
</svg>
