<svg width="20" height="20" viewBox="0 0 20 20" fill="none" xmlns="http://www.w3.org/2000/svg">
<path d="M15.9563 15.2938C16.0023 15.3367 16.0393 15.3884 16.0649 15.4459C16.0905 15.5034 16.1043 15.5655 16.1054 15.6284C16.1065 15.6914 16.0949 15.7539 16.0714 15.8123C16.0478 15.8706 16.0127 15.9236 15.9682 15.9682C15.9237 16.0127 15.8706 16.0478 15.8123 16.0713C15.7539 16.0949 15.6914 16.1065 15.6285 16.1054C15.5655 16.1043 15.5034 16.0905 15.4459 16.0649C15.3884 16.0392 15.3367 16.0023 15.2938 15.9563L10 10.6633L4.70628 15.9563C4.61742 16.0391 4.49989 16.0841 4.37845 16.082C4.25701 16.0798 4.14115 16.0307 4.05526 15.9448C3.96938 15.8589 3.92018 15.743 3.91804 15.6216C3.9159 15.5001 3.96098 15.3826 4.04378 15.2938L9.33675 10L4.04378 4.70625C3.96098 4.61739 3.9159 4.49986 3.91804 4.37843C3.92018 4.25699 3.96938 4.14112 4.05526 4.05524C4.14115 3.96936 4.25701 3.92016 4.37845 3.91802C4.49989 3.91588 4.61742 3.96095 4.70628 4.04375L10 9.33672L15.2938 4.04375C15.3826 3.96095 15.5002 3.91588 15.6216 3.91802C15.743 3.92016 15.8589 3.96936 15.9448 4.05524C16.0307 4.14112 16.0799 4.25699 16.082 4.37843C16.0842 4.49986 16.0391 4.61739 15.9563 4.70625L10.6633 10L15.9563 15.2938Z" fill="white"/>
</svg>
