<svg width="30" height="30" viewBox="0 0 30 30" fill="none" xmlns="http://www.w3.org/2000/svg">
<g opacity="0.4">
<path d="M15.5 5.5C13.5222 5.5 11.5888 6.08649 9.9443 7.1853C8.29981 8.28412 7.01809 9.8459 6.26121 11.6732C5.50433 13.5004 5.3063 15.5111 5.69215 17.4509C6.078 19.3907 7.03041 21.1725 8.42894 22.5711C9.82746 23.9696 11.6093 24.922 13.5491 25.3078C15.4889 25.6937 17.4996 25.4957 19.3268 24.7388C21.1541 23.9819 22.7159 22.7002 23.8147 21.0557C24.9135 19.4112 25.5 17.4778 25.5 15.5C25.4969 12.8488 24.4423 10.3071 22.5676 8.43237C20.6929 6.55768 18.1512 5.50311 15.5 5.5ZM15.5 24.3235C13.7549 24.3235 12.0489 23.806 10.5979 22.8365C9.14689 21.867 8.01596 20.4889 7.34813 18.8766C6.68029 17.2643 6.50556 15.4902 6.84602 13.7786C7.18647 12.067 8.02683 10.4948 9.26083 9.26082C10.4948 8.02683 12.067 7.18647 13.7786 6.84601C15.4902 6.50555 17.2643 6.68029 18.8766 7.34812C20.4889 8.01595 21.867 9.14689 22.8365 10.5979C23.806 12.0489 24.3235 13.7549 24.3235 15.5C24.3209 17.8393 23.3905 20.0821 21.7363 21.7363C20.0821 23.3905 17.8394 24.3209 15.5 24.3235ZM19.8373 13.5157C19.9474 13.626 20.0093 13.7755 20.0093 13.9314C20.0093 14.0873 19.9474 14.2368 19.8373 14.3471L15.9157 18.2686C15.8054 18.3788 15.6559 18.4407 15.5 18.4407C15.3441 18.4407 15.1946 18.3788 15.0843 18.2686L11.1627 14.3471C11.0588 14.2355 11.0023 14.0881 11.005 13.9357C11.0077 13.7833 11.0694 13.6379 11.1772 13.5301C11.2849 13.4223 11.4303 13.3606 11.5827 13.3579C11.7351 13.3552 11.8826 13.4118 11.9941 13.5157L15.5 17.0206L19.0059 13.5157C19.1162 13.4055 19.2657 13.3437 19.4216 13.3437C19.5775 13.3437 19.727 13.4055 19.8373 13.5157Z" fill="black"/>
</g>
</svg>
