<svg width="30" height="30" viewBox="0 0 30 30" fill="none" xmlns="http://www.w3.org/2000/svg">
<path d="M20.625 2.10938H9.375C8.69124 2.10938 8.03548 2.381 7.55199 2.86449C7.0685 3.34798 6.79688 4.00374 6.79688 4.6875V25.3125C6.79688 25.9963 7.0685 26.652 7.55199 27.1355C8.03548 27.619 8.69124 27.8906 9.375 27.8906H20.625C21.3088 27.8906 21.9645 27.619 22.448 27.1355C22.9315 26.652 23.2031 25.9963 23.2031 25.3125V4.6875C23.2031 4.00374 22.9315 3.34798 22.448 2.86449C21.9645 2.381 21.3088 2.10938 20.625 2.10938ZM21.7969 25.3125C21.7969 25.6233 21.6734 25.9214 21.4536 26.1411C21.2339 26.3609 20.9358 26.4844 20.625 26.4844H9.375C9.0642 26.4844 8.76613 26.3609 8.54636 26.1411C8.32659 25.9214 8.20312 25.6233 8.20312 25.3125V4.6875C8.20312 4.3767 8.32659 4.07863 8.54636 3.85886C8.76613 3.63909 9.0642 3.51562 9.375 3.51562H20.625C20.9358 3.51562 21.2339 3.63909 21.4536 3.85886C21.6734 4.07863 21.7969 4.3767 21.7969 4.6875V25.3125ZM19.4531 6.5625C19.4531 6.74898 19.379 6.92782 19.2472 7.05968C19.1153 7.19155 18.9365 7.26562 18.75 7.26562H11.25C11.0635 7.26562 10.8847 7.19155 10.7528 7.05968C10.621 6.92782 10.5469 6.74898 10.5469 6.5625C10.5469 6.37602 10.621 6.19718 10.7528 6.06532C10.8847 5.93345 11.0635 5.85938 11.25 5.85938H18.75C18.9365 5.85938 19.1153 5.93345 19.2472 6.06532C19.379 6.19718 19.4531 6.37602 19.4531 6.5625Z" fill="white"/>
</svg>
