<svg width="26" height="22" viewBox="0 0 26 22" fill="none" xmlns="http://www.w3.org/2000/svg">
<path d="M23.3125 0.6875H2.6875C2.19022 0.6875 1.71331 0.885044 1.36167 1.23667C1.01004 1.58831 0.8125 2.06522 0.8125 2.5625V19.4375C0.8125 19.9348 1.01004 20.4117 1.36167 20.7633C1.71331 21.115 2.19022 21.3125 2.6875 21.3125H23.3125C23.8098 21.3125 24.2867 21.115 24.6383 20.7633C24.99 20.4117 25.1875 19.9348 25.1875 19.4375V2.5625C25.1875 2.06522 24.99 1.58831 24.6383 1.23667C24.2867 0.885044 23.8098 0.6875 23.3125 0.6875ZM13 11.9375C11.5086 11.9359 10.0788 11.3428 9.02424 10.2883C7.96968 9.23371 7.37655 7.80387 7.375 6.3125C7.375 6.06386 7.47377 5.8254 7.64959 5.64959C7.8254 5.47377 8.06386 5.375 8.3125 5.375C8.56114 5.375 8.7996 5.47377 8.97541 5.64959C9.15123 5.8254 9.25 6.06386 9.25 6.3125C9.25 7.30706 9.64509 8.26089 10.3483 8.96415C11.0516 9.66741 12.0054 10.0625 13 10.0625C13.9946 10.0625 14.9484 9.66741 15.6516 8.96415C16.3549 8.26089 16.75 7.30706 16.75 6.3125C16.75 6.06386 16.8488 5.8254 17.0246 5.64959C17.2004 5.47377 17.4389 5.375 17.6875 5.375C17.9361 5.375 18.1746 5.47377 18.3504 5.64959C18.5262 5.8254 18.625 6.06386 18.625 6.3125C18.6234 7.80387 18.0303 9.23371 16.9758 10.2883C15.9212 11.3428 14.4914 11.9359 13 11.9375Z" fill="white"/>
</svg>
