<svg width="28" height="28" viewBox="0 0 28 28" fill="none" xmlns="http://www.w3.org/2000/svg">
<path d="M23.7812 5H4.53125C4.12514 5 3.73566 5.16133 3.44849 5.44849C3.16133 5.73566 3 6.12514 3 6.53125V22.2812C3 22.6874 3.16133 23.0768 3.44849 23.364C3.73566 23.6512 4.12514 23.8125 4.53125 23.8125H23.7812C24.1874 23.8125 24.5768 23.6512 24.864 23.364C25.1512 23.0768 25.3125 22.6874 25.3125 22.2812V6.53125C25.3125 6.12514 25.1512 5.73566 24.864 5.44849C24.5768 5.16133 24.1874 5 23.7812 5ZM24 22.2812C24 22.3393 23.977 22.3949 23.9359 22.4359C23.8949 22.477 23.8393 22.5 23.7812 22.5H4.53125C4.47323 22.5 4.41759 22.477 4.37657 22.4359C4.33555 22.3949 4.3125 22.3393 4.3125 22.2812V6.53125C4.3125 6.47323 4.33555 6.41759 4.37657 6.37657C4.41759 6.33555 4.47323 6.3125 4.53125 6.3125H23.7812C23.8393 6.3125 23.8949 6.33555 23.9359 6.37657C23.977 6.41759 24 6.47323 24 6.53125V22.2812ZM19.1875 10.0312C19.1875 11.3656 18.6574 12.6453 17.7139 13.5889C16.7703 14.5324 15.4906 15.0625 14.1562 15.0625C12.8219 15.0625 11.5422 14.5324 10.5986 13.5889C9.65508 12.6453 9.125 11.3656 9.125 10.0312C9.125 9.8572 9.19414 9.69028 9.31721 9.56721C9.44028 9.44414 9.6072 9.375 9.78125 9.375C9.9553 9.375 10.1222 9.44414 10.2453 9.56721C10.3684 9.69028 10.4375 9.8572 10.4375 10.0312C10.4375 11.0175 10.8293 11.9634 11.5267 12.6608C12.2241 13.3582 13.17 13.75 14.1562 13.75C15.1425 13.75 16.0884 13.3582 16.7858 12.6608C17.4832 11.9634 17.875 11.0175 17.875 10.0312C17.875 9.8572 17.9441 9.69028 18.0672 9.56721C18.1903 9.44414 18.3572 9.375 18.5312 9.375C18.7053 9.375 18.8722 9.44414 18.9953 9.56721C19.1184 9.69028 19.1875 9.8572 19.1875 10.0312Z" fill="white"/>
</svg>
