<svg width="26" height="16" viewBox="0 0 26 16" fill="none" xmlns="http://www.w3.org/2000/svg">
<path d="M24.25 0.734375H1.75C1.31488 0.734375 0.89758 0.907226 0.589903 1.2149C0.282226 1.52258 0.109375 1.93988 0.109375 2.375V13.625C0.109375 14.0601 0.282226 14.4774 0.589903 14.7851C0.89758 15.0928 1.31488 15.2656 1.75 15.2656H24.25C24.6851 15.2656 25.1024 15.0928 25.4101 14.7851C25.7178 14.4774 25.8906 14.0601 25.8906 13.625V2.375C25.8906 1.93988 25.7178 1.52258 25.4101 1.2149C25.1024 0.907226 24.6851 0.734375 24.25 0.734375ZM24.4844 13.625C24.4844 13.6872 24.4597 13.7468 24.4157 13.7907C24.3718 13.8347 24.3122 13.8594 24.25 13.8594H1.75C1.68784 13.8594 1.62823 13.8347 1.58427 13.7907C1.54032 13.7468 1.51562 13.6872 1.51562 13.625V2.375C1.51562 2.31284 1.54032 2.25323 1.58427 2.20927C1.62823 2.16532 1.68784 2.14062 1.75 2.14062H24.25C24.3122 2.14062 24.3718 2.16532 24.4157 2.20927C24.4597 2.25323 24.4844 2.31284 24.4844 2.375V13.625ZM21.2031 8C21.2031 8.23177 21.1344 8.45835 21.0056 8.65106C20.8769 8.84377 20.6938 8.99398 20.4797 9.08267C20.2656 9.17137 20.03 9.19457 19.8026 9.14936C19.5753 9.10414 19.3665 8.99253 19.2026 8.82864C19.0387 8.66475 18.9271 8.45594 18.8819 8.22862C18.8367 8.0013 18.8599 7.76568 18.9486 7.55154C19.0373 7.33741 19.1875 7.15439 19.3802 7.02562C19.5729 6.89685 19.7995 6.82812 20.0312 6.82812C20.3421 6.82812 20.6401 6.95159 20.8599 7.17136C21.0797 7.39113 21.2031 7.6892 21.2031 8Z" fill="#a4a2a26e"/>
</svg>
