<svg width="30" height="30" viewBox="0 0 30 30" fill="none" xmlns="http://www.w3.org/2000/svg">
<path d="M16.2891 18.5449C17.8124 17.7344 19.021 16.4378 19.7226 14.8613C20.4241 13.2848 20.5783 11.519 20.1606 9.84472C19.743 8.17048 18.7774 6.68399 17.4176 5.62172C16.0578 4.55945 14.3818 3.98242 12.6562 3.98242C10.9307 3.98242 9.2547 4.55945 7.89488 5.62172C6.53506 6.68399 5.56952 8.17048 5.15186 9.84472C4.73419 11.519 4.8884 13.2848 5.58994 14.8613C6.29149 16.4378 7.50007 17.7344 9.02344 18.5449C6.44531 19.275 4.11562 20.7902 2.27226 22.9852C2.15883 23.1285 2.10572 23.3105 2.12418 23.4924C2.14264 23.6743 2.23123 23.8418 2.37116 23.9595C2.51109 24.0772 2.69136 24.1357 2.87373 24.1227C3.0561 24.1097 3.22623 24.0262 3.34804 23.8898C5.75508 21.0281 9.05976 19.4531 12.6562 19.4531C16.2527 19.4531 19.5586 21.0281 21.9621 23.8898C22.0205 23.9636 22.0931 24.025 22.1756 24.0702C22.2582 24.1154 22.3489 24.1436 22.4426 24.1531C22.5362 24.1626 22.6308 24.1533 22.7207 24.1255C22.8106 24.0978 22.8941 24.0523 22.9661 23.9917C23.0381 23.9312 23.0973 23.8568 23.14 23.7729C23.1827 23.6891 23.2082 23.5975 23.2149 23.5036C23.2216 23.4098 23.2094 23.3155 23.179 23.2264C23.1486 23.1374 23.1006 23.0553 23.0379 22.9852C21.1945 20.7902 18.8672 19.275 16.2891 18.5449ZM6.32812 11.7187C6.32812 10.4672 6.69926 9.24368 7.3946 8.20303C8.08995 7.16237 9.07827 6.35128 10.2346 5.87232C11.3909 5.39336 12.6633 5.26804 13.8908 5.51221C15.1183 5.75639 16.2459 6.35908 17.1309 7.24409C18.0159 8.12909 18.6186 9.25665 18.8628 10.4842C19.107 11.7117 18.9816 12.9841 18.5027 14.1404C18.0237 15.2967 17.2126 16.285 16.172 16.9804C15.1313 17.6757 13.9078 18.0469 12.6562 18.0469C10.9785 18.045 9.36999 17.3777 8.18364 16.1913C6.99729 15.005 6.32998 13.3965 6.32812 11.7187ZM29.5594 15.4969L25.8094 19.2469C25.6775 19.3785 25.4988 19.4525 25.3125 19.4525C25.1262 19.4525 24.9475 19.3785 24.8156 19.2469L22.9406 17.3719C22.8164 17.2386 22.7488 17.0623 22.752 16.8801C22.7552 16.698 22.829 16.5242 22.9579 16.3954C23.0867 16.2665 23.2605 16.1927 23.4426 16.1895C23.6248 16.1863 23.8011 16.2539 23.9344 16.3781L25.3125 17.7551L28.5656 14.5031C28.63 14.434 28.7076 14.3786 28.7939 14.3402C28.8801 14.3018 28.9732 14.2811 29.0676 14.2794C29.162 14.2778 29.2558 14.2951 29.3434 14.3305C29.4309 14.3659 29.5105 14.4185 29.5772 14.4853C29.644 14.552 29.6966 14.6316 29.732 14.7191C29.7674 14.8067 29.7847 14.9005 29.7831 14.9949C29.7814 15.0893 29.7607 15.1824 29.7223 15.2686C29.6839 15.3549 29.6285 15.4325 29.5594 15.4969Z" fill="#050505"/>
</svg>
