<svg width="24" height="24" viewBox="0 0 24 24" fill="none" xmlns="http://www.w3.org/2000/svg">
<path d="M23.8584 21.9604C22.0056 18.7589 19.0971 16.5124 15.7174 15.5596C17.3605 14.7244 18.6745 13.3601 19.4473 11.6867C20.2202 10.0133 20.407 8.1284 19.9776 6.33588C19.5481 4.54336 18.5275 2.94771 17.0802 1.80623C15.633 0.664739 13.8434 0.0439453 12.0002 0.0439453C10.1569 0.0439453 8.3674 0.664739 6.92014 1.80623C5.47288 2.94771 4.45224 4.54336 4.02279 6.33588C3.59335 8.1284 3.78013 10.0133 4.55302 11.6867C5.3259 13.3601 6.63985 14.7244 8.28299 15.5596C4.9033 16.5112 1.99471 18.7577 0.141973 21.9604C0.0910994 22.0405 0.0569396 22.1299 0.0415488 22.2235C0.0261581 22.3171 0.0298545 22.4128 0.0524156 22.5049C0.0749766 22.597 0.115936 22.6836 0.17283 22.7595C0.229724 22.8354 0.301376 22.8989 0.383477 22.9464C0.465577 22.9938 0.556429 23.0242 0.650567 23.0356C0.744704 23.0471 0.840182 23.0393 0.931257 23.0129C1.02233 22.9865 1.10712 22.9419 1.18052 22.8819C1.25392 22.8218 1.31442 22.7476 1.35838 22.6636C3.60955 18.7741 7.58689 16.4526 12.0002 16.4526C16.4135 16.4526 20.3908 18.7741 22.642 22.6636C22.6859 22.7476 22.7464 22.8218 22.8198 22.8819C22.8932 22.9419 22.978 22.9865 23.0691 23.0129C23.1602 23.0393 23.2556 23.0471 23.3498 23.0356C23.4439 23.0242 23.5348 22.9938 23.6169 22.9464C23.699 22.8989 23.7706 22.8354 23.8275 22.7595C23.8844 22.6836 23.9254 22.597 23.9479 22.5049C23.9705 22.4128 23.9742 22.3171 23.9588 22.2235C23.9434 22.1299 23.9093 22.0405 23.8584 21.9604ZM5.2033 8.24949C5.2033 6.9052 5.60193 5.59109 6.34878 4.47335C7.09563 3.35561 8.15716 2.48444 9.39912 1.97C10.6411 1.45556 12.0077 1.32096 13.3262 1.58322C14.6446 1.84547 15.8557 2.49281 16.8063 3.44337C17.7569 4.39393 18.4042 5.60502 18.6665 6.92349C18.9287 8.24195 18.7941 9.60858 18.2797 10.8505C17.7652 12.0925 16.8941 13.154 15.7763 13.9009C14.6586 14.6477 13.3445 15.0464 12.0002 15.0464C10.1982 15.0442 8.47065 14.3274 7.19646 13.0532C5.92227 11.779 5.20547 10.0515 5.2033 8.24949Z" fill="white"/>
</svg>
