<?xml version="1.0" standalone="no"?>
<!DOCTYPE svg PUBLIC "-//W3C//DTD SVG 1.1//EN" "http://www.w3.org/Graphics/SVG/1.1/DTD/svg11.dtd" >
<svg xmlns="http://www.w3.org/2000/svg" xmlns:xlink="http://www.w3.org/1999/xlink" version="1.1">
<metadata>
Created by FontForge 20201107 at Thu Jun  6 08:54:13 2024
 By 
(c) 2023 grinfleim
</metadata>
<defs>
<font id="RAYDIS-Bold" horiz-adv-x="1638" >
  <font-face 
    font-family="RAYDIS"
    font-weight="700"
    font-stretch="normal"
    units-per-em="2048"
    panose-1="0 0 0 0 0 0 0 0 0 0"
    ascent="1536"
    descent="-512"
    x-height="1434"
    cap-height="1434"
    bbox="22.8784 -340 2884 2034"
    underline-thickness="102"
    underline-position="-255"
    unicode-range="U+000D-2212"
  />
<missing-glyph horiz-adv-x="512" 
 />
    <glyph glyph-name=".notdef" horiz-adv-x="512" 
 />
    <glyph glyph-name="uni0000" horiz-adv-x="0" 
 />
    <glyph glyph-name="uni0000" horiz-adv-x="0" 
 />
    <glyph glyph-name="uni000D" unicode="&#xd;" horiz-adv-x="681" 
 />
    <glyph glyph-name="space" unicode=" " horiz-adv-x="532" 
 />
    <glyph glyph-name="exclam" unicode="!" horiz-adv-x="645" 
d="M561 1229q-4 -34 -15.5 -93.5t-30.5 -142t-35 -151.5t-39.5 -168.5t-34.5 -145.5h-177q-126 540 -145 701q-10 93 65 164t175 71t174.5 -71t62.5 -164zM84 209q0 98 70 167.5t170 69.5q98 0 167.5 -69.5t69.5 -167.5q0 -100 -69.5 -170t-167.5 -70q-100 0 -170 70
t-70 170z" />
    <glyph glyph-name="quotedbl" unicode="&#x22;" horiz-adv-x="1126" 
d="M63 1421q-3 98 68.5 168t171.5 70q99 0 170 -70t68 -168q-1 -85 -63.5 -193t-174.5 -251q-114 145 -176.5 252.5t-63.5 191.5zM586 1421q-3 98 68 168t171 70q99 0 170 -70t68 -168q-1 -85 -63.5 -193t-174.5 -251q-113 144 -175.5 251.5t-63.5 192.5z" />
    <glyph glyph-name="numbersign" unicode="#" horiz-adv-x="2041" 
d="M1298 942h-448l-148 -450h451zM682 1178l172 532h244l-172 -532h450l172 532h244l-172 -532h340l-78 -236h-338l-147 -450h336l-78 -236h-334l-172 -532h-246l174 532h-450l-172 -532h-246l174 532h-301l78 236h299l145 450h-295l78 236h295z" />
    <glyph glyph-name="dollar" unicode="$" horiz-adv-x="1607" 
d="M922 598v-395h122q41 0 77 10.5t68.5 32.5t51.5 63.5t19 98.5q0 84 -59 137t-154 53h-125zM561 834h125v395h-123q-41 0 -77 -10t-68 -32.5t-51 -64t-19 -98.5q0 -83 59.5 -136.5t153.5 -53.5zM1491 958h-234v17q0 19 -5 45.5t-20 64.5t-38.5 69t-65.5 53t-96 22h-110
v-395h125q127 0 230.5 -53t164.5 -151t61 -222q0 -188 -132 -314.5t-324 -126.5h-125v-108h-236v108h-111q-126 0 -232 62t-167 168t-61 231q0 29 2 45h233v-16q0 -19 5 -45.5t20 -64.5t38.5 -69t65.5 -53t96 -22h111v395h-125q-127 0 -231 53t-165 151t-61 222
q0 189 132.5 314.5t324.5 125.5h125v111h236v-111h110q126 0 232 -61.5t167.5 -167.5t61.5 -231q0 -30 -2 -46z" />
    <glyph glyph-name="percent" unicode="%" horiz-adv-x="1665" 
d="M434 1464q146 0 249 -103t103 -249t-103 -250t-249 -104t-249 104t-103 250t103 249t249 103zM475 0h-256l969 1434h256zM434 991q47 0 82 34.5t35 86.5q0 51 -35 85t-82 34t-82 -34t-35 -85q0 -52 35 -86.5t82 -34.5zM1231 676q146 0 249 -103t103 -249
q0 -147 -103 -251t-249 -104t-249 104t-103 251q0 146 103 249t249 103zM1231 203q47 0 82 34.5t35 86.5q0 51 -35 84.5t-82 33.5t-82 -33.5t-35 -84.5q0 -52 35 -86.5t82 -34.5z" />
    <glyph glyph-name="ampersand" unicode="&#x26;" horiz-adv-x="1976" 
d="M971 371l-174 174h-166q-37 0 -62.5 -25.5t-25.5 -60.5q0 -36 26 -62t62 -26h340zM915 1063h-284q-36 0 -62 -26t-26 -62q0 -35 25.5 -59.5t62.5 -24.5h284q37 0 63 24.5t26 59.5t-26 61.5t-63 26.5zM1677 217l215 -217h-551l-18 18q-148 -49 -319 -49h-461
q-191 0 -325 134.5t-134 324.5q0 158 100 289q-100 131 -100 289q0 190 134 324t325 134h461q190 0 324 -134t134 -324q0 -117 -51.5 -216t-142.5 -163l123 -123q77 62 135 141l286 -289q-64 -80 -135 -139z" />
    <glyph glyph-name="quotesingle" unicode="'" horiz-adv-x="522" 
d="M23 1421q-3 98 68 168t171 70q99 0 170 -70t68 -168q-1 -85 -63.5 -193t-174.5 -251q-113 144 -175.5 251.5t-63.5 192.5z" />
    <glyph glyph-name="parenleft" unicode="(" horiz-adv-x="579" 
d="M496 -276h-238q-31 76 -58 165t-55.5 215t-45.5 285.5t-17 327.5t17 327.5t45.5 285.5t55.5 215t58 165h238q-71 -172 -125 -424t-54 -569t54 -569t125 -424z" />
    <glyph glyph-name="parenright" unicode=")" horiz-adv-x="614" 
d="M326 -276h-238q71 171 124.5 423.5t53.5 569.5t-53.5 569.5t-124.5 423.5h238q31 -76 58 -165t55.5 -215t45.5 -285.5t17 -327.5t-17 -327.5t-45.5 -285.5t-55.5 -215t-58 -165z" />
    <glyph glyph-name="asterisk" unicode="*" horiz-adv-x="1187" 
d="M489 725l-305 176l105 180h-207v353h205l-103 178l305 176l105 -178l102 178l305 -176l-102 -178h207v-353h-209l104 -180l-305 -176l-102 180z" />
    <glyph glyph-name="plus" unicode="+" horiz-adv-x="1187" 
d="M82 541v352h336v336h352v-336h336v-352h-336v-336h-352v336h-336z" />
    <glyph glyph-name="comma" unicode="," horiz-adv-x="643" 
d="M322 446q97 0 164.5 -69t72.5 -170q6 -133 -86.5 -258t-212.5 -185l62 205q-104 0 -172 67t-68 171q0 100 70 169.5t170 69.5z" />
    <glyph glyph-name="hyphen" unicode="-" horiz-adv-x="1024" 
d="M82 541v352h860v-352h-860z" />
    <glyph glyph-name="period" unicode="." horiz-adv-x="645" 
d="M84 209q0 98 70 167.5t170 69.5q98 0 167.5 -69.5t69.5 -167.5q0 -100 -69.5 -170t-167.5 -70q-100 0 -170 70t-70 170z" />
    <glyph glyph-name="slash" unicode="/" horiz-adv-x="1054" 
d="M727 1710h244l-643 -1986h-246z" />
    <glyph glyph-name="zero" unicode="0" horiz-adv-x="1601" 
d="M922 -31h-242q-161 0 -299 80t-218.5 218t-80.5 300v299q0 162 80.5 300t218.5 218t299 80h242q122 0 233 -47.5t191 -127.5t127 -190.5t47 -232.5v-299q0 -122 -47 -232.5t-127 -190.5t-191 -127.5t-233 -47.5zM680 446h242q50 0 84 35t34 86v299q0 51 -34 86t-84 35
h-242q-50 0 -84.5 -35t-34.5 -86v-299q0 -51 34.5 -86t84.5 -35z" />
    <glyph glyph-name="one" unicode="1" horiz-adv-x="921" 
d="M102 1434h717v-1434h-477v956h-240v478z" />
    <glyph glyph-name="two" unicode="2" horiz-adv-x="1636" 
d="M104 231q0 299 158 433q121 101 292.5 148.5t414.5 55.5q37 2 62.5 27.5t25.5 60.5q0 37 -26.5 64t-61.5 27h-299q-34 0 -61 -26.5t-27 -64.5h-478v31q0 130 64 240t174 173.5t240 63.5h475q198 0 337.5 -139.5t139.5 -337.5q0 -115 -35 -202t-99.5 -139.5t-150 -78.5
t-192.5 -26q-215 0 -283 -9q-97 -13 -162 -55h863v-477h-1371v231z" />
    <glyph glyph-name="three" unicode="3" horiz-adv-x="1601" 
d="M561 956h-479v31q0 98 38.5 186.5t102.5 152t152.5 101t185.5 37.5h479q198 0 338 -130.5t140 -313.5q0 -170 -123 -303q123 -133 123 -303q0 -183 -140 -314t-338 -131h-479q-97 0 -185.5 37.5t-152.5 101t-102.5 152t-38.5 186.5v31h479q0 -37 26.5 -63.5t63.5 -26.5
h299q38 0 64 27.5t26 64.5t-26 62.5t-64 25.5h-270v299h270q38 0 64 25.5t26 62.5t-26 65t-64 28h-299q-37 0 -63.5 -27t-26.5 -64z" />
    <glyph glyph-name="four" unicode="4" horiz-adv-x="1517" 
d="M102 1434h478v-777h358v537h477v-1194h-477v240h-836v1194z" />
    <glyph glyph-name="five" unicode="5" horiz-adv-x="1595" 
d="M84 1434h1370v-478h-883q33 -23 74.5 -36.5t105.5 -19t107.5 -6.5t137.5 -1h40q220 0 348.5 -110t128.5 -337q0 -198 -139.5 -337.5t-337.5 -139.5h-475q-198 0 -337.5 139.5t-139.5 337.5v31h477q0 -38 27 -64t61 -26h299q35 0 61.5 26.5t26.5 63.5q0 35 -25.5 61
t-62.5 27q-249 11 -342 25q-216 34 -352 151q-94 82 -170 215v478z" />
    <glyph glyph-name="six" unicode="6" horiz-adv-x="1617" 
d="M969 565h-320q-37 0 -62.5 -26.5t-25.5 -63.5q0 -36 26 -62t62 -26h320q37 0 63.5 26.5t26.5 61.5q0 37 -26.5 63.5t-63.5 26.5zM565 1434h553l-289 -510h230q130 0 240 -64t173.5 -174t63.5 -240q0 -198 -139.5 -337.5t-337.5 -139.5h-498q-198 0 -337.5 139.5
t-139.5 337.5q0 128 63 236q5 9 418 752z" />
    <glyph glyph-name="seven" unicode="7" 
d="M1536 1434l-815 -1434h-547l535 956h-607v478h1434z" />
    <glyph glyph-name="eight" unicode="8" horiz-adv-x="1597" 
d="M649 387h299q37 0 63.5 26.5t26.5 63.5t-26.5 62.5t-63.5 25.5h-299q-37 0 -63.5 -25.5t-26.5 -62.5t26.5 -63.5t63.5 -26.5zM948 1047h-299q-37 0 -63.5 -27t-26.5 -64t26.5 -62.5t63.5 -25.5h299q37 0 63.5 25.5t26.5 62.5t-26.5 64t-63.5 27zM176 717q-94 113 -94 270
q0 198 139.5 337.5t337.5 139.5h479q130 0 240 -63.5t174 -173.5t64 -240q0 -155 -95 -270q95 -115 95 -271q0 -130 -64 -240t-174 -173.5t-240 -63.5h-479q-198 0 -337.5 139.5t-139.5 337.5q0 158 94 271z" />
    <glyph glyph-name="nine" unicode="9" horiz-adv-x="1617" 
d="M649 868h320q37 0 63.5 26.5t26.5 63.5q0 36 -26.5 62.5t-63.5 26.5h-320q-37 0 -63.5 -26.5t-26.5 -62.5q0 -37 26.5 -63.5t63.5 -26.5zM1053 0h-553l291 510h-232q-198 0 -337.5 139.5t-139.5 337.5t139.5 337.5t337.5 139.5h500q97 0 184.5 -37.5t151.5 -101.5
t101.5 -152.5t37.5 -185.5q0 -126 -64 -235q-49 -90 -417 -752z" />
    <glyph glyph-name="colon" unicode=":" horiz-adv-x="645" 
d="M84 1227q0 98 70 167.5t170 69.5q98 0 167.5 -69.5t69.5 -167.5q0 -100 -69.5 -170t-167.5 -70q-100 0 -170 70t-70 170zM84 209q0 98 70 167.5t170 69.5q98 0 167.5 -69.5t69.5 -167.5q0 -100 -69.5 -170t-167.5 -70q-100 0 -170 70t-70 170z" />
    <glyph glyph-name="semicolon" unicode=";" horiz-adv-x="645" 
d="M84 1227q0 98 70 167.5t170 69.5q98 0 167.5 -69.5t69.5 -167.5q0 -100 -69.5 -170t-167.5 -70q-100 0 -170 70t-70 170zM322 446q97 0 164.5 -69t72.5 -170q6 -133 -86.5 -258t-212.5 -185l62 205q-104 0 -172 67t-68 171q0 100 70 169.5t170 69.5z" />
    <glyph glyph-name="less" unicode="&#x3c;" horiz-adv-x="899" 
d="M817 479l-250 -250l-485 488l485 485l250 -248l-237 -237z" />
    <glyph glyph-name="equal" unicode="=" horiz-adv-x="1024" 
d="M82 788v353h860v-353h-860zM82 293v352h860v-352h-860z" />
    <glyph glyph-name="greater" unicode="&#x3e;" horiz-adv-x="899" 
d="M332 229l-250 250l237 238l-237 237l250 248l485 -485z" />
    <glyph glyph-name="question" unicode="?" horiz-adv-x="1566" 
d="M920 889q88 29 88 88q0 37 -25.5 61.5t-62.5 24.5h-271q-37 0 -71.5 -26.5t-34.5 -61.5v-19h-461v33q0 200 134 337.5t327 137.5h481q190 0 325.5 -119t135.5 -280q0 -96 -34.5 -165t-90.5 -106.5t-124 -62.5t-138 -41.5t-129.5 -34t-102 -49t-51.5 -78.5h-233
q0 64 17.5 115.5t45 87t74 66t91.5 50.5t110 42zM459 209q0 98 69.5 167.5t169.5 69.5q98 0 168 -69.5t70 -167.5q0 -100 -70 -170t-168 -70q-100 0 -169.5 70t-69.5 170z" />
    <glyph glyph-name="at" unicode="@" horiz-adv-x="2277" 
d="M1251 891h-153q-56 0 -94.5 -38t-38.5 -95v-84q0 -57 38.5 -95t94.5 -38h84q57 0 96 38t39 95v149q0 28 -19 48t-47 20zM84 592v248q0 190 73.5 362.5t198.5 297.5t297.5 198.5t362.5 73.5h383q162 0 309.5 -63.5t254 -170.5t169.5 -255t63 -310v-361
q0 -175 -124.5 -299.5t-301.5 -124.5h-149q-62 0 -108.5 39t-55.5 99l-14 86q-34 -88 -146 -156t-286 -68q-168 0 -283 116.5t-115 281.5v260q0 164 117 280.5t281 116.5h325q138 0 235 -97t97 -235v-391q0 -28 20.5 -47.5t49.5 -19.5h32q32 0 54 21.5t22 51.5v428
q0 192 -137 328.5t-330 136.5h-344q-122 0 -232.5 -47.5t-190.5 -127.5t-127.5 -190.5t-47.5 -232.5v-211q0 -122 47.5 -232.5t127.5 -190.5t190.5 -127.5t232.5 -47.5h985v-352h-1003q-190 0 -362.5 73.5t-297.5 198.5t-198.5 297.5t-73.5 362.5z" />
    <glyph glyph-name="A" unicode="A" horiz-adv-x="1822" 
d="M1061 477l-150 447l-147 -447h297zM102 0l478 1434h663l477 -1434h-501l-39 119h-537l-39 -119h-502z" />
    <glyph glyph-name="B" unicode="B" horiz-adv-x="1640" 
d="M967 539h-383v-181h383q37 0 63.5 27.5t26.5 65.5q0 37 -26.5 62.5t-63.5 25.5zM967 1075h-383v-178h383q37 0 63.5 26t26.5 64q0 37 -26.5 62.5t-63.5 25.5zM1087 0h-985v1434h985q203 0 327 -123.5t124 -296.5q0 -88 -33.5 -166t-89.5 -129q54 -50 85.5 -128t31.5 -167
q0 -114 -51.5 -209.5t-154.5 -155t-239 -59.5z" />
    <glyph glyph-name="C" unicode="C" horiz-adv-x="1681" 
d="M860 -61q-158 0 -302 61.5t-248 165.5t-166 248.5t-62 302.5t62 301.5t166 247.5t248 165.5t302 61.5q253 0 457 -148.5t282 -388.5l-493 -65q-43 59 -109 94t-137 35q-123 0 -211 -88.5t-88 -214.5q0 -125 88 -215t211 -90q71 0 137 35t109 94l493 -66
q-78 -240 -282 -388t-457 -148z" />
    <glyph glyph-name="D" unicode="D" horiz-adv-x="1617" 
d="M799 0h-717v1434h717q145 0 278 -57t229 -153t153 -229t57 -278t-57 -278t-153 -229t-229 -153t-278 -57zM559 956v-479h240q98 0 168.5 71t70.5 169t-70.5 168.5t-168.5 70.5h-240z" />
    <glyph glyph-name="E" unicode="E" horiz-adv-x="1398" 
d="M1296 0h-1194v1434h1194v-359h-716v-178h598v-358h-598v-181h716v-358z" />
    <glyph glyph-name="F" unicode="F" horiz-adv-x="1400" 
d="M102 1434h1196v-359h-716v-180h598v-358h-598v-537h-480v1434z" />
    <glyph glyph-name="G" unicode="G" horiz-adv-x="1724" 
d="M862 1497q254 0 459 -149t283 -390l-500 -63q-41 58 -106 90.5t-136 32.5q-124 0 -212.5 -88t-88.5 -211q0 -125 88.5 -213t212.5 -88q69 0 133 32t105 89h-238v239h776q2 -20 2 -59q0 -158 -61.5 -302.5t-165.5 -249t-248.5 -166.5t-302.5 -62t-302.5 62t-249 166.5
t-166.5 249t-62 302.5t62 302.5t166.5 248.5t249 165.5t302.5 61.5z" />
    <glyph glyph-name="H" unicode="H" 
d="M102 1434h478v-478h479v478h477v-1434h-477v477h-479v-477h-478v1434z" />
    <glyph glyph-name="I" unicode="I" horiz-adv-x="681" 
d="M102 0v1434h478v-1434h-478z" />
    <glyph glyph-name="J" unicode="J" horiz-adv-x="1640" 
d="M1059 1436h479v-779q0 -146 -57 -279t-153.5 -229t-229.5 -153t-279 -57t-279 57t-229 153t-152.5 229t-56.5 279h480q0 -100 68.5 -172.5t166.5 -72.5q99 0 170.5 72.5t71.5 172.5v779z" />
    <glyph glyph-name="K" unicode="K" horiz-adv-x="1642" 
d="M582 0h-480v1432h480v-619l413 621h545l-477 -717l477 -717h-545l-413 621v-621z" />
    <glyph glyph-name="L" unicode="L" horiz-adv-x="1419" 
d="M1317 0h-1215v1434h498v-957h717v-477z" />
    <glyph glyph-name="M" unicode="M" horiz-adv-x="2273" 
d="M102 1434h478l557 -566l557 566h477v-1434h-477v774l-557 -534l-557 534v-774h-478v1434z" />
    <glyph glyph-name="N" unicode="N" 
d="M580 0h-478v1434h478l479 -680v680h477v-1434h-477l-479 680v-680z" />
    <glyph glyph-name="O" unicode="O" horiz-adv-x="1718" 
d="M860 -61q-158 0 -302 61.5t-248 165.5t-166 247.5t-62 301.5t62 302t166 248t248 166t302 62t301.5 -62t247.5 -166t165.5 -248t61.5 -302t-61.5 -301.5t-165.5 -247.5t-247.5 -165.5t-301.5 -61.5zM860 412q123 0 211 88.5t88 214.5q0 127 -88 216t-211 89
q-125 0 -213 -89t-88 -216q0 -126 88 -214.5t213 -88.5z" />
    <glyph glyph-name="P" unicode="P" 
d="M938 956h-358v-239h358q51 0 86 34.5t35 84.5q0 51 -35 85.5t-86 34.5zM580 240v-240h-478v1434h836q122 0 232.5 -47.5t190.5 -127.5t127.5 -190.5t47.5 -232.5t-47.5 -232t-127.5 -190t-190.5 -127t-232.5 -47h-358z" />
    <glyph glyph-name="Q" unicode="Q" horiz-adv-x="1722" 
d="M860 -61q-158 0 -302.5 61.5t-248.5 165.5t-165.5 247.5t-61.5 301.5t61.5 302t165.5 248t248.5 166t302.5 62t301.5 -62t247.5 -166t165.5 -248t61.5 -302q0 -136 -45.5 -261.5t-128.5 -226.5l176 -227h-452l-6 8q-150 -69 -320 -69zM700 621l285 219l162 -209
q12 41 12 84q0 127 -88 216t-211 89q-125 0 -213 -89t-88 -216q0 -126 88 -214.5t213 -88.5h4z" />
    <glyph glyph-name="R" unicode="R" horiz-adv-x="1576" 
d="M938 956h-358v-239h358q51 0 86 34.5t35 84.5q0 51 -35 85.5t-86 34.5zM102 0v1434h836q122 0 232.5 -47.5t190.5 -127.5t127.5 -190.5t47.5 -232.5q0 -176 -95 -323t-249 -218l225 -295h-526l-170 240h-141v-240h-478z" />
    <glyph glyph-name="S" unicode="S" horiz-adv-x="1630" 
d="M1505 956h-461v19q0 35 -34.5 61.5t-71.5 26.5h-270q-37 0 -62.5 -26.5t-25.5 -63.5q0 -35 25.5 -59.5t62.5 -24.5h399q191 1 326 -134t135 -325q0 -125 -61.5 -231t-167.5 -168t-232 -62h-481q-126 0 -232 62t-167.5 168t-61.5 231v47h461v-18q0 -35 34.5 -61.5
t71.5 -26.5h271q37 0 62.5 26.5t25.5 63.5q0 35 -25.5 59.5t-62.5 24.5h-400q-191 -1 -326 134t-135 325q0 125 61.5 231t167.5 167.5t232 61.5h481q126 0 232 -61.5t167.5 -167.5t61.5 -231v-48z" />
    <glyph glyph-name="T" unicode="T" 
d="M102 1434h1434v-478h-477v-956h-479v956h-478v478z" />
    <glyph glyph-name="U" unicode="U" horiz-adv-x="1636" 
d="M102 1434h478v-781q0 -103 66.5 -177.5t170.5 -74.5q106 0 173 74.5t67 177.5v781h477v-781q0 -145 -57 -277.5t-153 -228t-228.5 -152t-278.5 -56.5t-278 56.5t-228 152t-152.5 227.5t-56.5 278v781z" />
    <glyph glyph-name="V" unicode="V" horiz-adv-x="1822" 
d="M1243 0h-663l-478 1434h502l307 -924l308 924h501z" />
    <glyph glyph-name="W" unicode="W" horiz-adv-x="2985" 
d="M1720 0l-227 680l-227 -680h-684l-480 1434h525l307 -924l309 924h500l309 -924l307 924h525l-480 -1434h-684z" />
    <glyph glyph-name="X" unicode="X" horiz-adv-x="1875" 
d="M102 1434h574l262 -342l262 342h574l-549 -717l549 -717h-574l-262 342l-262 -342h-574l549 717z" />
    <glyph glyph-name="Y" unicode="Y" horiz-adv-x="1822" 
d="M102 1434h502l240 -717h137l238 717h501l-477 -1434h-502l80 240h-321z" />
    <glyph glyph-name="Z" unicode="Z" 
d="M102 956v478h1434v-478l-680 -479h680v-477h-1434v477l680 479h-680z" />
    <glyph glyph-name="bracketleft" unicode="[" horiz-adv-x="636" 
d="M555 -276h-473v1984h473v-233h-238v-1518h238v-233z" />
    <glyph glyph-name="backslash" unicode="\" horiz-adv-x="1054" 
d="M84 1710h244l645 -1986h-246z" />
    <glyph glyph-name="bracketright" unicode="]" horiz-adv-x="673" 
d="M555 -276h-473v233h237v1518h-237v233h473v-1984z" />
    <glyph glyph-name="asciicircum" unicode="^" horiz-adv-x="1136" 
d="M1055 1225l-250 -250l-238 237l-237 -237l-248 250l485 485z" />
    <glyph glyph-name="underscore" unicode="_" horiz-adv-x="1597" 
d="M82 -297v236h1434v-236h-1434z" />
    <glyph glyph-name="a" unicode="a" horiz-adv-x="1822" 
d="M1061 477l-150 447l-147 -447h297zM102 0l478 1434h663l477 -1434h-501l-39 119h-537l-39 -119h-502z" />
    <glyph glyph-name="b" unicode="b" horiz-adv-x="1640" 
d="M967 539h-383v-181h383q37 0 63.5 27.5t26.5 65.5q0 37 -26.5 62.5t-63.5 25.5zM967 1075h-383v-178h383q37 0 63.5 26t26.5 64q0 37 -26.5 62.5t-63.5 25.5zM1087 0h-985v1434h985q203 0 327 -123.5t124 -296.5q0 -88 -33.5 -166t-89.5 -129q54 -50 85.5 -128t31.5 -167
q0 -114 -51.5 -209.5t-154.5 -155t-239 -59.5z" />
    <glyph glyph-name="c" unicode="c" horiz-adv-x="1681" 
d="M860 -61q-158 0 -302 61.5t-248 165.5t-166 248.5t-62 302.5t62 301.5t166 247.5t248 165.5t302 61.5q253 0 457 -148.5t282 -388.5l-493 -65q-43 59 -109 94t-137 35q-123 0 -211 -88.5t-88 -214.5q0 -125 88 -215t211 -90q71 0 137 35t109 94l493 -66
q-78 -240 -282 -388t-457 -148z" />
    <glyph glyph-name="d" unicode="d" horiz-adv-x="1617" 
d="M799 0h-717v1434h717q145 0 278 -57t229 -153t153 -229t57 -278t-57 -278t-153 -229t-229 -153t-278 -57zM559 956v-479h240q98 0 168.5 71t70.5 169t-70.5 168.5t-168.5 70.5h-240z" />
    <glyph glyph-name="e" unicode="e" horiz-adv-x="1398" 
d="M1296 0h-1194v1434h1194v-359h-716v-178h598v-358h-598v-181h716v-358z" />
    <glyph glyph-name="f" unicode="f" horiz-adv-x="1400" 
d="M102 1434h1196v-359h-716v-180h598v-358h-598v-537h-480v1434z" />
    <glyph glyph-name="g" unicode="g" horiz-adv-x="1724" 
d="M862 1497q254 0 459 -149t283 -390l-500 -63q-41 58 -106 90.5t-136 32.5q-124 0 -212.5 -88t-88.5 -211q0 -125 88.5 -213t212.5 -88q69 0 133 32t105 89h-238v239h776q2 -20 2 -59q0 -158 -61.5 -302.5t-165.5 -249t-248.5 -166.5t-302.5 -62t-302.5 62t-249 166.5
t-166.5 249t-62 302.5t62 302.5t166.5 248.5t249 165.5t302.5 61.5z" />
    <glyph glyph-name="h" unicode="h" 
d="M102 1434h478v-478h479v478h477v-1434h-477v477h-479v-477h-478v1434z" />
    <glyph glyph-name="i" unicode="i" horiz-adv-x="681" 
d="M102 0v1434h478v-1434h-478z" />
    <glyph glyph-name="j" unicode="j" horiz-adv-x="1640" 
d="M1059 1436h479v-779q0 -146 -57 -279t-153.5 -229t-229.5 -153t-279 -57t-279 57t-229 153t-152.5 229t-56.5 279h480q0 -100 68.5 -172.5t166.5 -72.5q99 0 170.5 72.5t71.5 172.5v779z" />
    <glyph glyph-name="k" unicode="k" horiz-adv-x="1642" 
d="M582 0h-480v1432h480v-619l413 621h545l-477 -717l477 -717h-545l-413 621v-621z" />
    <glyph glyph-name="l" unicode="l" horiz-adv-x="1419" 
d="M1317 0h-1215v1434h498v-957h717v-477z" />
    <glyph glyph-name="m" unicode="m" horiz-adv-x="2273" 
d="M102 1434h478l557 -566l557 566h477v-1434h-477v774l-557 -534l-557 534v-774h-478v1434z" />
    <glyph glyph-name="n" unicode="n" 
d="M580 0h-478v1434h478l479 -680v680h477v-1434h-477l-479 680v-680z" />
    <glyph glyph-name="o" unicode="o" horiz-adv-x="1718" 
d="M860 -61q-158 0 -302 61.5t-248 165.5t-166 247.5t-62 301.5t62 302t166 248t248 166t302 62t301.5 -62t247.5 -166t165.5 -248t61.5 -302t-61.5 -301.5t-165.5 -247.5t-247.5 -165.5t-301.5 -61.5zM860 412q123 0 211 88.5t88 214.5q0 127 -88 216t-211 89
q-125 0 -213 -89t-88 -216q0 -126 88 -214.5t213 -88.5z" />
    <glyph glyph-name="p" unicode="p" 
d="M938 956h-358v-239h358q51 0 86 34.5t35 84.5q0 51 -35 85.5t-86 34.5zM580 240v-240h-478v1434h836q122 0 232.5 -47.5t190.5 -127.5t127.5 -190.5t47.5 -232.5t-47.5 -232t-127.5 -190t-190.5 -127t-232.5 -47h-358z" />
    <glyph glyph-name="q" unicode="q" horiz-adv-x="1722" 
d="M860 -61q-158 0 -302.5 61.5t-248.5 165.5t-165.5 247.5t-61.5 301.5t61.5 302t165.5 248t248.5 166t302.5 62t301.5 -62t247.5 -166t165.5 -248t61.5 -302q0 -136 -45.5 -261.5t-128.5 -226.5l176 -227h-452l-6 8q-150 -69 -320 -69zM700 621l285 219l162 -209
q12 41 12 84q0 127 -88 216t-211 89q-125 0 -213 -89t-88 -216q0 -126 88 -214.5t213 -88.5h4z" />
    <glyph glyph-name="r" unicode="r" horiz-adv-x="1576" 
d="M938 956h-358v-239h358q51 0 86 34.5t35 84.5q0 51 -35 85.5t-86 34.5zM102 0v1434h836q122 0 232.5 -47.5t190.5 -127.5t127.5 -190.5t47.5 -232.5q0 -176 -95 -323t-249 -218l225 -295h-526l-170 240h-141v-240h-478z" />
    <glyph glyph-name="s" unicode="s" horiz-adv-x="1630" 
d="M1505 956h-461v19q0 35 -34.5 61.5t-71.5 26.5h-270q-37 0 -62.5 -26.5t-25.5 -63.5q0 -35 25.5 -59.5t62.5 -24.5h399q191 1 326 -134t135 -325q0 -125 -61.5 -231t-167.5 -168t-232 -62h-481q-126 0 -232 62t-167.5 168t-61.5 231v47h461v-18q0 -35 34.5 -61.5
t71.5 -26.5h271q37 0 62.5 26.5t25.5 63.5q0 35 -25.5 59.5t-62.5 24.5h-400q-191 -1 -326 134t-135 325q0 125 61.5 231t167.5 167.5t232 61.5h481q126 0 232 -61.5t167.5 -167.5t61.5 -231v-48z" />
    <glyph glyph-name="t" unicode="t" 
d="M102 1434h1434v-478h-477v-956h-479v956h-478v478z" />
    <glyph glyph-name="u" unicode="u" horiz-adv-x="1636" 
d="M102 1434h478v-781q0 -103 66.5 -177.5t170.5 -74.5q106 0 173 74.5t67 177.5v781h477v-781q0 -145 -57 -277.5t-153 -228t-228.5 -152t-278.5 -56.5t-278 56.5t-228 152t-152.5 227.5t-56.5 278v781z" />
    <glyph glyph-name="v" unicode="v" horiz-adv-x="1822" 
d="M1243 0h-663l-478 1434h502l307 -924l308 924h501z" />
    <glyph glyph-name="w" unicode="w" horiz-adv-x="2985" 
d="M1720 0l-227 680l-227 -680h-684l-480 1434h525l307 -924l309 924h500l309 -924l307 924h525l-480 -1434h-684z" />
    <glyph glyph-name="x" unicode="x" horiz-adv-x="1875" 
d="M102 1434h574l262 -342l262 342h574l-549 -717l549 -717h-574l-262 342l-262 -342h-574l549 717z" />
    <glyph glyph-name="y" unicode="y" horiz-adv-x="1822" 
d="M102 1434h502l240 -717h137l238 717h501l-477 -1434h-502l80 240h-321z" />
    <glyph glyph-name="z" unicode="z" 
d="M102 956v478h1434v-478l-680 -479h680v-477h-1434v477l680 479h-680z" />
    <glyph glyph-name="braceleft" unicode="{" horiz-adv-x="796" 
d="M246 33v430q0 86 -62 151l-102 103l102 104q62 62 62 150v428q0 127 91 218t218 91h160v-231h-146q-35 0 -61.5 -26.5t-26.5 -61.5v-330q0 -175 -125 -303l-41 -39l41 -41q125 -125 125 -301v-332q0 -35 26.5 -60.5t61.5 -25.5h146v-233h-160q-127 0 -218 91t-91 218z
" />
    <glyph glyph-name="bar" unicode="|" horiz-adv-x="401" 
d="M317 1710v-1986h-235v1986h235z" />
    <glyph glyph-name="braceright" unicode="}" horiz-adv-x="778" 
d="M551 463v-430q0 -127 -90.5 -218t-218.5 -91h-160v233h145q35 0 61.5 25.5t26.5 60.5v334q0 85 32.5 163t92.5 136l41 41l-41 39q-125 128 -125 303v330q0 35 -26.5 61.5t-61.5 26.5h-145v231h160q128 0 218.5 -91t90.5 -218v-428q0 -89 61 -150l103 -104l-103 -103
q-61 -64 -61 -151z" />
    <glyph glyph-name="asciitilde" unicode="~" horiz-adv-x="1536" 
d="M84 797q74 80 167.5 124t197.5 44q69 0 154.5 -19t142 -38.5t157.5 -57.5q5 -2 30 -11t36.5 -12.5t32.5 -7.5t40 -4q101 0 187 90l225 -284q-158 -168 -371 -168q-51 0 -103.5 8t-124 30t-102.5 33t-120 43q-5 2 -23 9t-27.5 10t-26 7.5t-31.5 6.5t-31 2q-105 0 -185 -90
z" />
    <glyph glyph-name="cent" unicode="&#xa2;" horiz-adv-x="1222" 
d="M729 -180h-235v137q-179 43 -295.5 190t-116.5 336q0 188 117 335t295 190v139h235v-133q143 -28 253.5 -126t156.5 -239l-230 -20q-28 49 -66 83.5t-78.5 51t-73.5 23t-66 6.5q-132 0 -220 -83.5t-88 -228.5q0 -143 88 -226t220 -83q34 0 67.5 6.5t73.5 23t77.5 51
t65.5 83.5l230 -21q-46 -140 -156.5 -238t-253.5 -126v-131z" />
    <glyph glyph-name="sterling" unicode="&#xa3;" horiz-adv-x="1722" 
d="M1640 2h-1435v317h-123v226h123v233q0 117 36.5 227t103 198t155 154.5t198 103t226.5 36.5q195 0 360 -96.5t260.5 -262t95.5 -360.5h-235q0 35 -11.5 82t-34.5 102.5t-62.5 108.5t-90 96.5t-123.5 70t-157 26.5t-157 -24t-125 -64t-92 -90t-64 -105.5t-36 -106.5
t-12 -96v-233h965v-226h-965v-81h1200v-236z" />
    <glyph glyph-name="yen" unicode="&#xa5;" horiz-adv-x="1822" 
d="M102 1434h248l240 -717h643l237 717h250l-344 -1035h140l-78 -235h-140l-55 -164h-250l56 164h-531l-78 235h688l27 82h-735z" />
    <glyph glyph-name="brokenbar" unicode="&#xa6;" horiz-adv-x="399" 
d="M317 1022h-235v688h235v-688zM317 -276h-235v688h235v-688z" />
    <glyph glyph-name="section" unicode="&#xa7;" horiz-adv-x="1566" 
d="M651 643h279q27 0 46.5 7.5t29 16t14.5 21t5.5 18t0.5 11.5t-0.5 11.5t-5.5 18t-14.5 21t-29 16t-46.5 7.5h-279q-26 0 -45.5 -7.5t-28.5 -16t-14 -21t-5.5 -18t-0.5 -11.5t0.5 -11.5t5.5 -18t14 -21t28.5 -16t45.5 -7.5zM1485 1249v-47h-461v19q0 35 -34.5 61.5
t-71.5 26.5h-271q-37 0 -62.5 -26.5t-25.5 -63.5q0 -32 21.5 -55.5t54.5 -28.5h391q67 0 123.5 -11.5t97.5 -29.5t74.5 -45.5t54.5 -55t37 -61.5t24 -62t12.5 -60.5t5.5 -51.5t1 -41q0 -213 -119 -320q148 -103 148 -276q0 -123 -62.5 -214.5t-165.5 -137t-233 -45.5h-481
q-126 0 -232 61.5t-167.5 167.5t-61.5 231v47h461v-18q0 -35 34.5 -61.5t71.5 -26.5h271q37 0 62.5 26.5t25.5 63.5q0 32 -21.5 55.5t-54.5 28.5h-375q-86 0 -155 18.5t-112.5 46.5t-76 69t-48.5 77t-25.5 81t-11 71t-1.5 55q0 204 113 313q-158 103 -158 283
q0 123 62.5 214.5t165.5 137t233 45.5h481q126 0 232 -62t167.5 -168t61.5 -231z" />
    <glyph glyph-name="copyright" unicode="&#xa9;" horiz-adv-x="1658" 
d="M317 717q0 -139 68 -257t186 -187.5t258 -69.5q141 0 259 69.5t185.5 187.5t67.5 257q0 213 -149 363.5t-363 150.5q-140 0 -258 -69t-186 -187.5t-68 -257.5zM838 379q-140 0 -239 99.5t-99 238.5t99 238.5t239 99.5q110 0 198.5 -65t122.5 -169l-215 -28
q-41 57 -106 57q-54 0 -92.5 -39t-38.5 -94q0 -54 38.5 -92.5t92.5 -38.5q67 0 106 55l215 -29q-34 -104 -122.5 -168.5t-198.5 -64.5zM82 717q0 152 59 290t159.5 238.5t238.5 159.5t290 59t290.5 -59t238.5 -159.5t159.5 -238.5t59.5 -290q0 -203 -100.5 -375
t-272.5 -272.5t-375 -100.5q-152 0 -290 59.5t-238.5 159.5t-159.5 238.5t-59 290.5z" />
    <glyph glyph-name="guillemotleft" unicode="&#xab;" horiz-adv-x="1277" 
d="M567 229l-485 488l485 485l168 -168l-317 -317l317 -320zM1026 229l-485 488l485 485l168 -168l-317 -317l317 -320z" />
    <glyph glyph-name="registered" unicode="&#xae;" horiz-adv-x="1658" 
d="M317 717q0 -139 68 -257t186 -187.5t258 -69.5q141 0 259 69.5t185.5 187.5t67.5 257q0 213 -149 363.5t-363 150.5q-140 0 -258 -69t-186 -187.5t-68 -257.5zM909 815h-153v-102h153q22 0 37 14.5t15 34.5q0 22 -15 37.5t-37 15.5zM82 717q0 152 59 290t159.5 238.5
t238.5 159.5t290 59t290.5 -59t238.5 -159.5t159.5 -238.5t59.5 -290q0 -203 -100.5 -375t-272.5 -272.5t-375 -100.5q-152 0 -290 59.5t-238.5 159.5t-159.5 238.5t-59 290.5zM551 406v612h358q104 0 179 -75t75 -181q0 -75 -40 -138t-105 -92l96 -126h-225l-72 102h-61
v-102h-205z" />
    <glyph glyph-name="plusminus" unicode="&#xb1;" horiz-adv-x="1187" 
d="M82 745v353h336v336h352v-336h336v-353h-336v-335h-352v335h-336zM164 0v352h860v-352h-860z" />
    <glyph glyph-name="paragraph" unicode="&#xb6;" horiz-adv-x="1474" 
d="M389 1710h1002v-1986h-236v1751h-235v-1751h-236v880h-295q-307 0 -307 307v492q0 307 307 307z" />
    <glyph glyph-name="guillemotright" unicode="&#xbb;" horiz-adv-x="1277" 
d="M1196 717l-485 -488l-168 168l317 320l-317 317l168 168zM737 717l-485 -488l-168 168l317 320l-317 317l168 168z" />
    <glyph glyph-name="multiply" unicode="&#xd7;" horiz-adv-x="1138" 
d="M332 229l-250 250l237 238l-237 235l250 250l237 -237l238 237l248 -250l-238 -235l238 -238l-248 -250l-238 238z" />
    <glyph glyph-name="divide" unicode="&#xf7;" horiz-adv-x="1024" 
d="M274 1227q0 98 70 167.5t170 69.5q98 0 168 -69.5t70 -167.5q0 -100 -70 -170t-168 -70q-100 0 -170 70t-70 170zM82 541v352h860v-352h-860zM274 209q0 98 70 167.5t170 69.5q98 0 168 -69.5t70 -167.5q0 -100 -70 -170t-168 -70q-100 0 -170 70t-70 170z" />
    <glyph glyph-name="tilde" unicode="&#x2dc;" horiz-adv-x="915" 
 />
    <glyph glyph-name="uni0306" unicode="&#x306;" horiz-adv-x="1163" 
d="M82 1997h352q0 -65 40.5 -109.5t107.5 -44.5t107 44.5t40 109.5h352q-5 -71 -41 -143.5t-97 -135t-156 -102t-205 -39.5t-205 39.5t-156.5 102t-97.5 135t-41 143.5z" />
    <glyph glyph-name="uni0401" unicode="&#x401;" horiz-adv-x="1398" 
d="M1296 0h-1194v1434h1194v-359h-716v-178h598v-358h-598v-181h716v-358zM162 1796q0 98 70 168t169 70q100 0 170 -70t70 -168q0 -100 -70 -170t-170 -70t-169.5 70t-69.5 170zM758 1796q0 98 70 168t169 70q100 0 170 -70t70 -168q0 -100 -70 -170t-170 -70t-169.5 70
t-69.5 170z" />
    <glyph glyph-name="uni0410" unicode="&#x410;" horiz-adv-x="1822" 
d="M1061 477l-150 447l-147 -447h297zM102 0l478 1434h663l477 -1434h-501l-39 119h-537l-39 -119h-502z" />
    <glyph glyph-name="uni0411" unicode="&#x411;" horiz-adv-x="1617" 
d="M969 539h-389v-181h389q37 0 63.5 27t26.5 64t-26.5 63.5t-63.5 26.5zM1087 0h-985v1434h1315v-359h-837v-178h507q186 -2 317.5 -132t131.5 -316t-131.5 -317.5t-317.5 -131.5z" />
    <glyph glyph-name="uni0412" unicode="&#x412;" horiz-adv-x="1640" 
d="M967 539h-383v-181h383q37 0 63.5 27.5t26.5 65.5q0 37 -26.5 62.5t-63.5 25.5zM967 1075h-383v-178h383q37 0 63.5 26t26.5 64q0 37 -26.5 62.5t-63.5 25.5zM1087 0h-985v1434h985q203 0 327 -123.5t124 -296.5q0 -88 -33.5 -166t-89.5 -129q54 -50 85.5 -128t31.5 -167
q0 -114 -51.5 -209.5t-154.5 -155t-239 -59.5z" />
    <glyph glyph-name="uni0413" unicode="&#x413;" horiz-adv-x="1398" 
d="M102 0v1434h1194v-478h-716v-956h-478z" />
    <glyph glyph-name="uni0414" unicode="&#x414;" horiz-adv-x="1835" 
d="M680 780v-303h477v303q0 103 -66.5 177.5t-172.5 74.5q-104 0 -171 -74.5t-67 -177.5zM1253 -119v119h-671v-119h-480l4 596h97v303q0 146 56.5 278t152.5 228t228 152.5t278 56.5t278.5 -56.5t228 -152.5t152.5 -228.5t57 -277.5v-303h95l4 -596h-480z" />
    <glyph glyph-name="uni0415" unicode="&#x415;" horiz-adv-x="1398" 
d="M1296 0h-1194v1434h1194v-359h-716v-178h598v-358h-598v-181h716v-358z" />
    <glyph glyph-name="uni0416" unicode="&#x416;" horiz-adv-x="2598" 
d="M647 0h-545l478 717l-478 717h545l414 -621v619h477v-619l414 621h545l-478 -717l478 -717h-545l-414 621v-621h-477v621z" />
    <glyph glyph-name="uni0417" unicode="&#x417;" horiz-adv-x="1439" 
d="M82 1075v359h829q102 0 187.5 -34.5t141.5 -92.5t87 -133t31 -158q0 -182 -139 -297q139 -115 139 -299q0 -112 -52 -206.5t-155.5 -154t-239.5 -59.5h-829v358h709q37 0 63.5 27.5t26.5 65.5q0 37 -26.5 62.5t-63.5 25.5h-590v358h590q37 0 63.5 26t26.5 64
q0 37 -26.5 62.5t-63.5 25.5h-709z" />
    <glyph glyph-name="uni0418" unicode="&#x418;" 
d="M1536 0h-477v680l-479 -680h-478v1434h478v-680l479 680h477v-1434z" />
    <glyph glyph-name="uni0419" unicode="&#x419;" 
d="M1536 0h-477v680l-479 -680h-478v1434h478v-680l479 680h477v-1434zM319 1997h353q0 -65 40 -109.5t107 -44.5t107.5 44.5t40.5 109.5h352q-5 -71 -41 -143.5t-97.5 -135t-156.5 -102t-205 -39.5t-205 39.5t-156.5 102t-97.5 135t-41 143.5z" />
    <glyph glyph-name="uni041A" unicode="&#x41a;" horiz-adv-x="1642" 
d="M582 0h-480v1432h480v-619l413 621h545l-477 -717l477 -717h-545l-413 621v-621z" />
    <glyph glyph-name="uni041B" unicode="&#x41b;" horiz-adv-x="1826" 
d="M580 1434h667l477 -1434h-503l-308 924l-307 -924h-504z" />
    <glyph glyph-name="uni041C" unicode="&#x41c;" horiz-adv-x="2273" 
d="M102 1434h478l557 -566l557 566h477v-1434h-477v774l-557 -534l-557 534v-774h-478v1434z" />
    <glyph glyph-name="uni041D" unicode="&#x41d;" 
d="M102 1434h478v-478h479v478h477v-1434h-477v477h-479v-477h-478v1434z" />
    <glyph glyph-name="uni041E" unicode="&#x41e;" horiz-adv-x="1718" 
d="M860 -61q-158 0 -302 61.5t-248 165.5t-166 247.5t-62 301.5t62 302t166 248t248 166t302 62t301.5 -62t247.5 -166t165.5 -248t61.5 -302t-61.5 -301.5t-165.5 -247.5t-247.5 -165.5t-301.5 -61.5zM860 412q123 0 211 88.5t88 214.5q0 127 -88 216t-211 89
q-125 0 -213 -89t-88 -216q0 -126 88 -214.5t213 -88.5z" />
    <glyph glyph-name="uni041F" unicode="&#x41f;" 
d="M102 1434h1434v-1434h-477v956h-479v-956h-478v1434z" />
    <glyph glyph-name="uni0420" unicode="&#x420;" 
d="M938 956h-358v-239h358q51 0 86 34.5t35 84.5q0 51 -35 85.5t-86 34.5zM580 240v-240h-478v1434h836q122 0 232.5 -47.5t190.5 -127.5t127.5 -190.5t47.5 -232.5t-47.5 -232t-127.5 -190t-190.5 -127t-232.5 -47h-358z" />
    <glyph glyph-name="uni0421" unicode="&#x421;" horiz-adv-x="1681" 
d="M860 -61q-158 0 -302 61.5t-248 165.5t-166 248.5t-62 302.5t62 301.5t166 247.5t248 165.5t302 61.5q253 0 457 -148.5t282 -388.5l-493 -65q-43 59 -109 94t-137 35q-123 0 -211 -88.5t-88 -214.5q0 -125 88 -215t211 -90q71 0 137 35t109 94l493 -66
q-78 -240 -282 -388t-457 -148z" />
    <glyph glyph-name="uni0422" unicode="&#x422;" 
d="M102 1434h1434v-478h-477v-956h-479v956h-478v478z" />
    <glyph glyph-name="uni0423" unicode="&#x423;" horiz-adv-x="1822" 
d="M102 1434h502l240 -717h137l238 717h501l-477 -1434h-502l80 240h-321z" />
    <glyph glyph-name="uni0424" unicode="&#x424;" horiz-adv-x="2555" 
d="M680 596h358v242h-358q-51 0 -86 -35.5t-35 -85.5t35 -85.5t86 -35.5zM1518 838v-242h360q49 0 84 35.5t35 85.5t-35 85.5t-84 35.5h-360zM1518 119v-119h-480v119h-358q-122 0 -232.5 47.5t-190.5 127.5t-127.5 190.5t-47.5 232.5t47.5 232.5t127.5 190.5t190.5 127.5
t232.5 47.5h358v119h480v-119h358q122 0 232.5 -47.5t190.5 -127.5t127.5 -190.5t47.5 -232.5t-47.5 -232.5t-127.5 -190.5t-190.5 -127.5t-232.5 -47.5h-358z" />
    <glyph glyph-name="uni0425" unicode="&#x425;" horiz-adv-x="1875" 
d="M102 1434h574l262 -342l262 342h574l-549 -717l549 -717h-574l-262 342l-262 -342h-574l549 717z" />
    <glyph glyph-name="uni0426" unicode="&#x426;" horiz-adv-x="1761" 
d="M102 1434h480v-957h479v957h477v-957h121v-598h-477v121h-1080v1434z" />
    <glyph glyph-name="uni0427" unicode="&#x427;" horiz-adv-x="1640" 
d="M104 1434h478v-316q0 -99 70 -169t169 -70t169.5 70t70.5 169v316h477v-1434h-477v586q-59 -51 -148.5 -80t-189.5 -29q-91 0 -177 23t-168 76t-143 130.5t-97 195.5t-34 263v269z" />
    <glyph glyph-name="uni0428" unicode="&#x428;" horiz-adv-x="2115" 
d="M102 1434h478v-957h239v957h477v-957h240v957h477v-1434h-1911v1434z" />
    <glyph glyph-name="uni0429" unicode="&#x429;" horiz-adv-x="2234" 
d="M102 2v1432h478v-957h239v957h477v-957h240v957h479v-957h117v-596h-477v121h-1553z" />
    <glyph glyph-name="uni042A" unicode="&#x42a;" horiz-adv-x="1857" 
d="M1180 717h-361v-240h361q50 0 84 35t34 86q0 50 -34.5 84.5t-83.5 34.5zM102 956v478h717v-240h359q122 0 232.5 -47t190.5 -127t127.5 -190t47.5 -232t-47.5 -232.5t-127.5 -190.5t-190.5 -127.5t-232.5 -47.5h-836v956h-240z" />
    <glyph glyph-name="uni042B" unicode="&#x42b;" horiz-adv-x="2234" 
d="M938 717h-358v-240h358q51 0 86 35t35 86q0 50 -35 84.5t-86 34.5zM102 0v1434h478v-240h358q122 0 232.5 -47t190.5 -127t127.5 -190t47.5 -232t-47.5 -232.5t-127.5 -190.5t-190.5 -127.5t-232.5 -47.5h-836zM1655 0v1434h477v-1434h-477z" />
    <glyph glyph-name="uni042C" unicode="&#x42c;" horiz-adv-x="1617" 
d="M938 717h-358v-240h358q51 0 86 35t35 86q0 50 -35 84.5t-86 34.5zM938 0h-836v1434h478v-240h358q122 0 232.5 -47t190.5 -127t127.5 -190t47.5 -232t-47.5 -232.5t-127.5 -190.5t-190.5 -127.5t-232.5 -47.5z" />
    <glyph glyph-name="uni042D" unicode="&#x42d;" horiz-adv-x="1681" 
d="M821 -61q-253 0 -457 148t-282 388l493 66q43 -59 109 -94t137 -35q89 0 164 50.5t111 131.5h-521v246h521q-36 81 -110.5 130.5t-164.5 49.5q-71 0 -137 -35t-109 -94l-493 65q78 240 282 388.5t457 148.5q158 0 302 -61.5t248 -165.5t166 -247.5t62 -301.5t-62 -302.5
t-166 -248.5t-248 -165.5t-302 -61.5z" />
    <glyph glyph-name="uni042E" unicode="&#x42e;" horiz-adv-x="2332" 
d="M1475 412q123 0 211 88.5t88 214.5q0 127 -88 216t-211 89q-125 0 -213 -89t-88 -216q0 -126 88 -214.5t213 -88.5zM580 0h-478v1434h478v-547h137q59 262 271 434t487 172q158 0 301.5 -62t247.5 -166t165.5 -248t61.5 -302t-61.5 -301.5t-165.5 -247.5t-247.5 -165.5
t-301.5 -61.5q-276 0 -488.5 172.5t-271.5 435.5h-135v-547z" />
    <glyph glyph-name="uni042F" unicode="&#x42f;" horiz-adv-x="1617" 
d="M1038 717v239h-358q-51 0 -86 -34.5t-35 -85.5q0 -50 35 -84.5t86 -34.5h358zM680 1434h836v-1434h-478v240h-143l-168 -240h-526l211 301q-149 75 -239.5 219t-90.5 316q0 122 47.5 232.5t127.5 190.5t190.5 127.5t232.5 47.5z" />
    <glyph glyph-name="uni0430" unicode="&#x430;" horiz-adv-x="1822" 
d="M1061 477l-150 447l-147 -447h297zM102 0l478 1434h663l477 -1434h-501l-39 119h-537l-39 -119h-502z" />
    <glyph glyph-name="uni0431" unicode="&#x431;" horiz-adv-x="1617" 
d="M969 539h-389v-181h389q37 0 63.5 27t26.5 64t-26.5 63.5t-63.5 26.5zM1087 0h-985v1434h1315v-359h-837v-178h507q186 -2 317.5 -132t131.5 -316t-131.5 -317.5t-317.5 -131.5z" />
    <glyph glyph-name="uni0432" unicode="&#x432;" horiz-adv-x="1640" 
d="M967 539h-383v-181h383q37 0 63.5 27.5t26.5 65.5q0 37 -26.5 62.5t-63.5 25.5zM967 1075h-383v-178h383q37 0 63.5 26t26.5 64q0 37 -26.5 62.5t-63.5 25.5zM1087 0h-985v1434h985q203 0 327 -123.5t124 -296.5q0 -88 -33.5 -166t-89.5 -129q54 -50 85.5 -128t31.5 -167
q0 -114 -51.5 -209.5t-154.5 -155t-239 -59.5z" />
    <glyph glyph-name="uni0433" unicode="&#x433;" horiz-adv-x="1398" 
d="M102 0v1434h1194v-478h-716v-956h-478z" />
    <glyph glyph-name="uni0434" unicode="&#x434;" horiz-adv-x="1835" 
d="M680 780v-303h477v303q0 103 -66.5 177.5t-172.5 74.5q-104 0 -171 -74.5t-67 -177.5zM1253 -119v119h-671v-119h-480l4 596h97v303q0 146 56.5 278t152.5 228t228 152.5t278 56.5t278.5 -56.5t228 -152.5t152.5 -228.5t57 -277.5v-303h95l4 -596h-480z" />
    <glyph glyph-name="uni0435" unicode="&#x435;" horiz-adv-x="1398" 
d="M1296 0h-1194v1434h1194v-359h-716v-178h598v-358h-598v-181h716v-358z" />
    <glyph glyph-name="uni0436" unicode="&#x436;" horiz-adv-x="2598" 
d="M647 0h-545l478 717l-478 717h545l414 -621v619h477v-619l414 621h545l-478 -717l478 -717h-545l-414 621v-621h-477v621z" />
    <glyph glyph-name="uni0437" unicode="&#x437;" horiz-adv-x="1439" 
d="M82 1075v359h829q102 0 187.5 -34.5t141.5 -92.5t87 -133t31 -158q0 -182 -139 -297q139 -115 139 -299q0 -112 -52 -206.5t-155.5 -154t-239.5 -59.5h-829v358h709q37 0 63.5 27.5t26.5 65.5q0 37 -26.5 62.5t-63.5 25.5h-590v358h590q37 0 63.5 26t26.5 64
q0 37 -26.5 62.5t-63.5 25.5h-709z" />
    <glyph glyph-name="uni0438" unicode="&#x438;" 
d="M1536 0h-477v680l-479 -680h-478v1434h478v-680l479 680h477v-1434z" />
    <glyph glyph-name="uni0439" unicode="&#x439;" 
d="M1536 0h-477v680l-479 -680h-478v1434h478v-680l479 680h477v-1434zM319 1997h353q0 -65 40 -109.5t107 -44.5t107.5 44.5t40.5 109.5h352q-5 -71 -41 -143.5t-97.5 -135t-156.5 -102t-205 -39.5t-205 39.5t-156.5 102t-97.5 135t-41 143.5z" />
    <glyph glyph-name="uni043A" unicode="&#x43a;" horiz-adv-x="1642" 
d="M582 0h-480v1432h480v-619l413 621h545l-477 -717l477 -717h-545l-413 621v-621z" />
    <glyph glyph-name="uni043B" unicode="&#x43b;" horiz-adv-x="1826" 
d="M580 1434h667l477 -1434h-503l-308 924l-307 -924h-504z" />
    <glyph glyph-name="uni043C" unicode="&#x43c;" horiz-adv-x="2273" 
d="M102 1434h478l557 -566l557 566h477v-1434h-477v774l-557 -534l-557 534v-774h-478v1434z" />
    <glyph glyph-name="uni043D" unicode="&#x43d;" 
d="M102 1434h478v-478h479v478h477v-1434h-477v477h-479v-477h-478v1434z" />
    <glyph glyph-name="uni043E" unicode="&#x43e;" horiz-adv-x="1718" 
d="M860 -61q-158 0 -302 61.5t-248 165.5t-166 247.5t-62 301.5t62 302t166 248t248 166t302 62t301.5 -62t247.5 -166t165.5 -248t61.5 -302t-61.5 -301.5t-165.5 -247.5t-247.5 -165.5t-301.5 -61.5zM860 412q123 0 211 88.5t88 214.5q0 127 -88 216t-211 89
q-125 0 -213 -89t-88 -216q0 -126 88 -214.5t213 -88.5z" />
    <glyph glyph-name="uni043F" unicode="&#x43f;" 
d="M102 1434h1434v-1434h-477v956h-479v-956h-478v1434z" />
    <glyph glyph-name="uni0440" unicode="&#x440;" 
d="M938 956h-358v-239h358q51 0 86 34.5t35 84.5q0 51 -35 85.5t-86 34.5zM580 240v-240h-478v1434h836q122 0 232.5 -47.5t190.5 -127.5t127.5 -190.5t47.5 -232.5t-47.5 -232t-127.5 -190t-190.5 -127t-232.5 -47h-358z" />
    <glyph glyph-name="uni0441" unicode="&#x441;" horiz-adv-x="1681" 
d="M860 -61q-158 0 -302 61.5t-248 165.5t-166 248.5t-62 302.5t62 301.5t166 247.5t248 165.5t302 61.5q253 0 457 -148.5t282 -388.5l-493 -65q-43 59 -109 94t-137 35q-123 0 -211 -88.5t-88 -214.5q0 -125 88 -215t211 -90q71 0 137 35t109 94l493 -66
q-78 -240 -282 -388t-457 -148z" />
    <glyph glyph-name="uni0442" unicode="&#x442;" 
d="M102 1434h1434v-478h-477v-956h-479v956h-478v478z" />
    <glyph glyph-name="uni0443" unicode="&#x443;" horiz-adv-x="1822" 
d="M102 1434h502l240 -717h137l238 717h501l-477 -1434h-502l80 240h-321z" />
    <glyph glyph-name="uni0444" unicode="&#x444;" horiz-adv-x="2555" 
d="M680 596h358v242h-358q-51 0 -86 -35.5t-35 -85.5t35 -85.5t86 -35.5zM1518 838v-242h360q49 0 84 35.5t35 85.5t-35 85.5t-84 35.5h-360zM1518 119v-119h-480v119h-358q-122 0 -232.5 47.5t-190.5 127.5t-127.5 190.5t-47.5 232.5t47.5 232.5t127.5 190.5t190.5 127.5
t232.5 47.5h358v119h480v-119h358q122 0 232.5 -47.5t190.5 -127.5t127.5 -190.5t47.5 -232.5t-47.5 -232.5t-127.5 -190.5t-190.5 -127.5t-232.5 -47.5h-358z" />
    <glyph glyph-name="uni0445" unicode="&#x445;" horiz-adv-x="1875" 
d="M102 1434h574l262 -342l262 342h574l-549 -717l549 -717h-574l-262 342l-262 -342h-574l549 717z" />
    <glyph glyph-name="uni0446" unicode="&#x446;" horiz-adv-x="1761" 
d="M102 1434h480v-957h479v957h477v-957h121v-598h-477v121h-1080v1434z" />
    <glyph glyph-name="uni0447" unicode="&#x447;" horiz-adv-x="1640" 
d="M104 1434h478v-316q0 -99 70 -169t169 -70t169.5 70t70.5 169v316h477v-1434h-477v586q-59 -51 -148.5 -80t-189.5 -29q-91 0 -177 23t-168 76t-143 130.5t-97 195.5t-34 263v269z" />
    <glyph glyph-name="uni0448" unicode="&#x448;" horiz-adv-x="2115" 
d="M102 1434h478v-957h239v957h477v-957h240v957h477v-1434h-1911v1434z" />
    <glyph glyph-name="uni0449" unicode="&#x449;" horiz-adv-x="2234" 
d="M102 2v1432h478v-957h239v957h477v-957h240v957h479v-957h117v-596h-477v121h-1553z" />
    <glyph glyph-name="uni044A" unicode="&#x44a;" horiz-adv-x="1857" 
d="M1180 717h-361v-240h361q50 0 84 35t34 86q0 50 -34.5 84.5t-83.5 34.5zM102 956v478h717v-240h359q122 0 232.5 -47t190.5 -127t127.5 -190t47.5 -232t-47.5 -232.5t-127.5 -190.5t-190.5 -127.5t-232.5 -47.5h-836v956h-240z" />
    <glyph glyph-name="uni044B" unicode="&#x44b;" horiz-adv-x="2234" 
d="M938 717h-358v-240h358q51 0 86 35t35 86q0 50 -35 84.5t-86 34.5zM102 0v1434h478v-240h358q122 0 232.5 -47t190.5 -127t127.5 -190t47.5 -232t-47.5 -232.5t-127.5 -190.5t-190.5 -127.5t-232.5 -47.5h-836zM1655 0v1434h477v-1434h-477z" />
    <glyph glyph-name="uni044C" unicode="&#x44c;" horiz-adv-x="1617" 
d="M938 717h-358v-240h358q51 0 86 35t35 86q0 50 -35 84.5t-86 34.5zM938 0h-836v1434h478v-240h358q122 0 232.5 -47t190.5 -127t127.5 -190t47.5 -232t-47.5 -232.5t-127.5 -190.5t-190.5 -127.5t-232.5 -47.5z" />
    <glyph glyph-name="uni044D" unicode="&#x44d;" horiz-adv-x="1681" 
d="M821 -61q-253 0 -457 148t-282 388l493 66q43 -59 109 -94t137 -35q89 0 164 50.5t111 131.5h-521v246h521q-36 81 -110.5 130.5t-164.5 49.5q-71 0 -137 -35t-109 -94l-493 65q78 240 282 388.5t457 148.5q158 0 302 -61.5t248 -165.5t166 -247.5t62 -301.5t-62 -302.5
t-166 -248.5t-248 -165.5t-302 -61.5z" />
    <glyph glyph-name="uni044E" unicode="&#x44e;" horiz-adv-x="2332" 
d="M1475 412q123 0 211 88.5t88 214.5q0 127 -88 216t-211 89q-125 0 -213 -89t-88 -216q0 -126 88 -214.5t213 -88.5zM580 0h-478v1434h478v-547h137q59 262 271 434t487 172q158 0 301.5 -62t247.5 -166t165.5 -248t61.5 -302t-61.5 -301.5t-165.5 -247.5t-247.5 -165.5
t-301.5 -61.5q-276 0 -488.5 172.5t-271.5 435.5h-135v-547z" />
    <glyph glyph-name="uni044F" unicode="&#x44f;" horiz-adv-x="1617" 
d="M1038 717v239h-358q-51 0 -86 -34.5t-35 -85.5q0 -50 35 -84.5t86 -34.5h358zM680 1434h836v-1434h-478v240h-143l-168 -240h-526l211 301q-149 75 -239.5 219t-90.5 316q0 122 47.5 232.5t127.5 190.5t190.5 127.5t232.5 47.5z" />
    <glyph glyph-name="uni0451" unicode="&#x451;" horiz-adv-x="1398" 
d="M1296 0h-1194v1434h1194v-359h-716v-178h598v-358h-598v-181h716v-358zM162 1796q0 98 70 168t169 70q100 0 170 -70t70 -168q0 -100 -70 -170t-170 -70t-169.5 70t-69.5 170zM758 1796q0 98 70 168t169 70q100 0 170 -70t70 -168q0 -100 -70 -170t-170 -70t-169.5 70
t-69.5 170z" />
    <glyph glyph-name="endash" unicode="&#x2013;" horiz-adv-x="1024" 
d="M82 541v352h860v-352h-860z" />
    <glyph glyph-name="emdash" unicode="&#x2014;" horiz-adv-x="1597" 
d="M82 541v352h1434v-352h-1434z" />
    <glyph glyph-name="quoteleft" unicode="&#x2018;" horiz-adv-x="643" 
d="M322 977q-97 0 -165 69.5t-73 170.5q-6 133 86.5 257.5t212.5 184.5l-61 -205q104 0 171.5 -66.5t67.5 -170.5q0 -100 -69.5 -170t-169.5 -70z" />
    <glyph glyph-name="quoteright" unicode="&#x2019;" horiz-adv-x="643" 
d="M322 1659q97 0 164.5 -69.5t72.5 -170.5q6 -133 -86.5 -257.5t-212.5 -184.5l62 205q-105 0 -172.5 66.5t-67.5 170.5q0 100 70 170t170 70z" />
    <glyph glyph-name="quotesinglbase" unicode="&#x201a;" horiz-adv-x="643" 
d="M322 446q97 0 164.5 -69t72.5 -170q6 -133 -86.5 -258t-212.5 -185l62 205q-104 0 -172 67t-68 171q0 100 70 169.5t170 69.5z" />
    <glyph glyph-name="quotedblleft" unicode="&#x201c;" horiz-adv-x="1155" 
d="M834 979q-97 0 -165 69.5t-73 170.5q-6 133 86.5 257.5t212.5 184.5l-61 -205q104 0 171.5 -66.5t67.5 -170.5q0 -100 -69.5 -170t-169.5 -70zM322 977q-97 0 -165 69.5t-73 170.5q-6 133 86.5 257.5t212.5 184.5l-61 -205q104 0 171.5 -66.5t67.5 -170.5
q0 -100 -69.5 -170t-169.5 -70z" />
    <glyph glyph-name="quotedblright" unicode="&#x201d;" horiz-adv-x="1155" 
d="M834 1661q97 0 164.5 -69.5t72.5 -170.5q6 -133 -86.5 -257.5t-212.5 -184.5l62 205q-105 0 -172.5 66.5t-67.5 170.5q0 100 70 170t170 70zM322 1659q97 0 164.5 -69.5t72.5 -170.5q6 -133 -86.5 -257.5t-212.5 -184.5l62 205q-105 0 -172.5 66.5t-67.5 170.5
q0 100 70 170t170 70z" />
    <glyph glyph-name="quotedblbase" unicode="&#x201e;" horiz-adv-x="1155" 
d="M834 446q97 0 164.5 -69t72.5 -170q6 -133 -86.5 -258t-212.5 -185l62 205q-104 0 -172 67t-68 171q0 100 70 169.5t170 69.5zM322 444q97 0 164.5 -69t72.5 -170q6 -133 -86.5 -258t-212.5 -185l62 205q-104 0 -172 67t-68 171q0 100 70 169.5t170 69.5z" />
    <glyph glyph-name="uni201F" unicode="&#x201f;" horiz-adv-x="1155" 
d="M322 1661q100 0 169.5 -70t69.5 -170q0 -104 -67.5 -170.5t-171.5 -66.5l61 -205q-120 60 -212.5 184.5t-86.5 257.5q5 101 73 170.5t165 69.5zM834 1659q100 0 169.5 -70t69.5 -170q0 -104 -67.5 -170.5t-171.5 -66.5l61 -205q-120 60 -212.5 184.5t-86.5 257.5
q5 101 73 170.5t165 69.5z" />
    <glyph glyph-name="ellipsis" unicode="&#x2026;" horiz-adv-x="1845" 
d="M84 209q0 98 70 167.5t170 69.5q98 0 167.5 -69.5t69.5 -167.5q0 -100 -69.5 -170t-167.5 -70q-100 0 -170 70t-70 170zM684 209q0 98 70 167.5t170 69.5q98 0 167.5 -69.5t69.5 -167.5q0 -100 -69.5 -170t-167.5 -70q-100 0 -170 70t-70 170zM1284 209q0 98 70 167.5
t170 69.5q98 0 167.5 -69.5t69.5 -167.5q0 -100 -69.5 -170t-167.5 -70q-100 0 -170 70t-70 170z" />
    <glyph glyph-name="perthousand" unicode="&#x2030;" horiz-adv-x="2443" 
d="M434 1464q146 0 249 -103t103 -249t-103 -250t-249 -104t-249 104t-103 250t103 249t249 103zM475 0h-256l969 1434h256zM434 991q47 0 82 34.5t35 86.5q0 51 -35 85t-82 34t-82 -34t-35 -85q0 -52 35 -86.5t82 -34.5zM1231 676q146 0 249 -103t103 -249
q0 -147 -103 -251t-249 -104t-249 104t-103 251q0 146 103 249t249 103zM2009 676q146 0 249 -103t103 -249q0 -147 -103 -251t-249 -104t-249 104t-103 251q0 146 103 249t249 103zM1231 203q47 0 82 34.5t35 86.5q0 51 -35 84.5t-82 33.5t-82 -33.5t-35 -84.5
q0 -52 35 -86.5t82 -34.5zM2009 203q47 0 82 34.5t35 86.5q0 51 -35 84.5t-82 33.5t-82 -33.5t-35 -84.5q0 -52 35 -86.5t82 -34.5z" />
    <glyph glyph-name="guilsinglleft" unicode="&#x2039;" horiz-adv-x="819" 
d="M567 229l-485 488l485 485l168 -168l-317 -317l317 -320z" />
    <glyph glyph-name="guilsinglright" unicode="&#x203a;" horiz-adv-x="819" 
d="M737 717l-485 -488l-168 168l317 320l-317 317l168 168z" />
    <glyph glyph-name="Euro" unicode="&#x20ac;" horiz-adv-x="1802" 
d="M82 758v235h172q84 223 282.5 362.5t444.5 139.5q253 0 457 -148.5t282 -388.5l-221 -32q-71 152 -211.5 245t-306.5 93q-154 0 -276.5 -73.5t-190.5 -197.5h649v-235h-719v-82h719v-236h-649q69 -123 191.5 -195.5t275.5 -72.5q168 0 308 92.5t210 245.5l221 -33
q-78 -240 -282 -388t-457 -148q-246 0 -443.5 138t-283.5 361h-172v236h123v82h-123z" />
    <glyph glyph-name="uni20BD" unicode="&#x20bd;" horiz-adv-x="1730" 
d="M430 1198v-481h655q75 0 131.5 17t87.5 42.5t50 59.5t24.5 62t5.5 58t-5.5 58.5t-24.5 63.5t-50 60t-87.5 42.5t-131.5 17.5h-655zM430 0h-235v174h-113v225h113v82h-113v236h113v717h890q248 0 395.5 -128.5t147.5 -349.5t-147.5 -348t-395.5 -127h-655v-82h961v-225
h-961v-174z" />
    <glyph glyph-name="uni2116" unicode="&#x2116;" horiz-adv-x="2445" 
d="M1991 991q47 0 81.5 34t34.5 87q0 51 -34.5 85t-81.5 34t-82 -34t-35 -85q0 -52 35 -86.5t82 -34.5zM580 680v-680h-478v1434h478l479 -680v680h477v-1434h-477zM2343 461h-705v235h705v-235zM1991 1464q146 0 249 -103t103 -249t-103 -250t-249 -104t-249.5 104
t-103.5 250t103.5 249t249.5 103z" />
    <glyph glyph-name="trademark" unicode="&#x2122;" horiz-adv-x="2039" 
d="M104 1669h709v-235h-235v-473h-238v473h-236v235zM913 1669h236l276 -278l275 278h235v-708h-235v382l-275 -264l-276 264v-382h-236v708z" />
    <glyph glyph-name="minus" unicode="&#x2212;" horiz-adv-x="1024" 
d="M82 541v352h860v-352h-860z" />
    <glyph glyph-name="dieresis.case" horiz-adv-x="1241" 
d="M84 1796q0 98 70 168t170 70q98 0 167.5 -70t69.5 -168q0 -100 -69.5 -170t-167.5 -70q-100 0 -170 70t-70 170zM680 1796q0 98 70 168t170 70q98 0 167.5 -70t69.5 -168q0 -100 -69.5 -170t-167.5 -70q-100 0 -170 70t-70 170z" />
    </font>
</defs>
</svg>
