<?xml version="1.0" standalone="no"?>
<!DOCTYPE svg PUBLIC "-//W3C//DTD SVG 1.1//EN" "http://www.w3.org/Graphics/SVG/1.1/DTD/svg11.dtd" >
<svg xmlns="http://www.w3.org/2000/svg" xmlns:xlink="http://www.w3.org/1999/xlink" version="1.1">
<metadata>
Created by FontForge 20201107 at Mon May 20 21:28:03 2024
 By 
(c) 2023 grinfleim
</metadata>
<defs>
<font id="AKONY-Bold" horiz-adv-x="2887" >
  <font-face 
    font-family="AKONY"
    font-weight="700"
    font-stretch="normal"
    units-per-em="2048"
    panose-1="0 0 0 0 0 0 0 0 0 0"
    ascent="1536"
    descent="-512"
    x-height="1434"
    cap-height="1434"
    bbox="-455 -778 7178 2165"
    underline-thickness="102"
    underline-position="-255"
    unicode-range="U+000D-2E42"
  />
<missing-glyph horiz-adv-x="512" 
 />
    <glyph glyph-name=".notdef" horiz-adv-x="512" 
 />
    <glyph glyph-name="uni0000" horiz-adv-x="0" 
 />
    <glyph glyph-name="uni0000" horiz-adv-x="0" 
 />
    <glyph glyph-name="uni000D" unicode="&#xd;" horiz-adv-x="512" 
 />
    <glyph glyph-name="space" unicode=" " horiz-adv-x="1228" 
 />
    <glyph glyph-name="exclam" unicode="!" horiz-adv-x="901" 
d="M205 635l-78 799h647l-78 -799h-491zM82 225q0 101 72.5 173.5t173.5 72.5h245q101 0 173.5 -72.5t72.5 -173.5t-72.5 -173t-173.5 -72h-245q-101 0 -173.5 72t-72.5 173z" />
    <glyph glyph-name="quotedbl" unicode="&#x22;" horiz-adv-x="1540" 
d="M160 745l-78 689h647l-78 -689h-491zM889 745l-78 689h647l-78 -689h-491z" />
    <glyph glyph-name="numbersign" unicode="#" horiz-adv-x="2621" 
d="M1016 819v-205h590v205h-590zM2253 1311h287v-492h-287v-205h287v-491h-287v-123h-647v123h-590v-123h-647v123h-287v491h287v205h-287v492h287v123h647v-123h590v123h647v-123z" />
    <glyph glyph-name="dollar" unicode="$" horiz-adv-x="2908" 
d="M797 819h452v123h-452q-33 0 -50.5 -19.5t-17.5 -41.5q0 -23 17.5 -42.5t50.5 -19.5zM1659 614v-122h452q33 0 50.5 19.5t17.5 41.5t-17.5 41.5t-50.5 19.5h-452zM1659 -164h-410v164h-1085v492h1085v122h-721q-206 0 -326 110t-120 290q0 182 121 301t325 119h721v163
h410v-163h1085v-492h-1085v-123h721q207 0 326.5 -110t119.5 -289q0 -182 -121 -301t-325 -119h-721v-164z" />
    <glyph glyph-name="percent" unicode="%" horiz-adv-x="5068" 
d="M4250 512h-635q-43 0 -66.5 -22t-23.5 -60t23.5 -60t66.5 -22h635q43 0 66.5 22t23.5 60t-23.5 60t-66.5 22zM1454 1085h-635q-43 0 -66.5 -21.5t-23.5 -59.5t23.5 -60t66.5 -22h635q43 0 66.5 22t23.5 60t-23.5 59.5t-66.5 21.5zM82 1004q0 200 140.5 325t371.5 125
h1085q231 0 371.5 -125t140.5 -325q0 -201 -140.5 -326t-371.5 -125h-1085q-231 0 -371.5 125t-140.5 326zM2832 1434h566l-1162 -1434h-565zM2877 430q0 201 140.5 326t371.5 125h1086q231 0 371.5 -125t140.5 -326q0 -200 -140.5 -325t-371.5 -125h-1086
q-231 0 -371.5 125t-140.5 325z" />
    <glyph glyph-name="ampersand" unicode="&#x26;" 
d="M819 369h539l-158 163h-381q-43 0 -66.5 -21.5t-23.5 -59.5t23.5 -60t66.5 -22zM2068 1065h-571l158 -164h413q43 0 67 22t24 60t-24 60t-67 22zM594 901h250l-514 533h1964q226 0 369 -126t143 -325q0 -201 -140.5 -326t-371.5 -125h-283l158 -163h596v-369h-240
l158 -164h-811l-158 164h-1120q-226 0 -369 126t-143 325q0 200 140.5 325t371.5 125z" />
    <glyph glyph-name="quotesingle" unicode="'" horiz-adv-x="811" 
d="M160 745l-78 689h647l-78 -689h-491z" />
    <glyph glyph-name="parenleft" unicode="(" horiz-adv-x="872" 
d="M82 717q0 232 73 448.5t173 350.5h463q-115 -153 -191 -365.5t-76 -433.5t76 -433.5t191 -365.5h-463q-100 134 -173 350.5t-73 448.5z" />
    <glyph glyph-name="parenright" unicode=")" horiz-adv-x="872" 
d="M791 717q0 -232 -73 -448.5t-173 -350.5h-463q115 153 190.5 365t75.5 434t-75.5 434t-190.5 365h463q100 -134 173 -350.5t73 -448.5z" />
    <glyph glyph-name="asterisk" unicode="*" horiz-adv-x="1212" 
d="M436 1339l-14 258h369l-15 -258l242 95l112 -351l-249 -67l161 -197l-299 -217l-137 211l-137 -211l-299 217l162 197l-250 67l113 351z" />
    <glyph glyph-name="plus" unicode="+" horiz-adv-x="1576" 
d="M82 512v410h502v360h409v-360h502v-410h-502v-360h-409v360h-502z" />
    <glyph glyph-name="comma" unicode="," horiz-adv-x="901" 
d="M410 -20h-82q-101 0 -173.5 72t-72.5 173t72.5 173.5t173.5 72.5h245q101 0 173.5 -72.5t72.5 -173.5q0 -65 -32 -120.5t-85 -88.5l-292 -200v164z" />
    <glyph glyph-name="hyphen" unicode="-" horiz-adv-x="1105" 
d="M82 512v410h942v-410h-942z" />
    <glyph glyph-name="period" unicode="." horiz-adv-x="901" 
d="M82 225q0 101 72.5 173.5t173.5 72.5h245q101 0 173.5 -72.5t72.5 -173.5t-72.5 -173t-173.5 -72h-245q-101 0 -173.5 72t-72.5 173z" />
    <glyph glyph-name="slash" unicode="/" horiz-adv-x="2021" 
d="M1939 1516l-1292 -1598h-565l1292 1598h565z" />
    <glyph glyph-name="zero" unicode="0" horiz-adv-x="3092" 
d="M799 1454h1495q193 0 359 -101.5t262 -271t96 -364.5t-96 -364.5t-262 -271t-359 -101.5h-1495q-193 0 -359 101.5t-262 271t-96 364.5t96 364.5t262 271t359 101.5zM2161 922h-1229q-85 0 -145 -60t-60 -145t60 -145t145 -60h1229q85 0 144.5 60t59.5 145t-59.5 145
t-144.5 60z" />
    <glyph glyph-name="one" unicode="1" horiz-adv-x="1378" 
d="M1296 1436v-1434h-647v926l-313 -314l-254 254l567 568h647z" />
    <glyph glyph-name="two" unicode="2" 
d="M82 0v287q0 309 152.5 461.5t461.5 152.5h1372q43 0 67 22t24 60t-24 60t-67 22h-1904v369h2130q226 0 369 -126t143 -325t-143 -325t-369 -126h-1442q-123 0 -123 -122v-41h1995v-369h-2642z" />
    <glyph glyph-name="three" unicode="3" horiz-adv-x="2826" 
d="M2007 1065h-1925v369h2150q232 0 372 -107.5t140 -302.5q0 -202 -176 -307q176 -100 176 -305q0 -195 -140 -302.5t-372 -107.5h-2150v369h1925q43 0 66.5 22t23.5 60t-23.5 60t-66.5 22h-1761v366h1761q43 0 66.5 22t23.5 60t-23.5 60t-66.5 22z" />
    <glyph glyph-name="four" unicode="4" horiz-adv-x="2990" 
d="M2908 614v-409h-164v-205h-647v205h-2015l1231 1229h803l-822 -820h803v410h647v-410h164z" />
    <glyph glyph-name="five" unicode="5" 
d="M82 532v902h2642v-369h-1995v-164h1565q226 0 369 -125.5t143 -324.5t-143 -325t-369 -126h-2212v369h1986q43 0 67 22t24 60t-24 59.5t-67 21.5h-1986z" />
    <glyph glyph-name="six" unicode="6" 
d="M819 492h1249q43 0 67 21.5t24 59.5t-24 60t-67 22h-1249q-43 0 -66.5 -22t-23.5 -60t23.5 -59.5t66.5 -21.5zM82 573q0 123 52 245.5t140 203.5l412 412h721l-266 -267h1071q119 0 219.5 -36.5t168 -96t115.5 -137.5t69.5 -160t21.5 -164t-21.5 -164t-69.5 -159.5
t-115.5 -137.5t-168 -96t-219.5 -36h-1516q-119 0 -221.5 36t-173 96t-121 137.5t-74.5 160t-24 163.5z" />
    <glyph glyph-name="seven" unicode="7" horiz-adv-x="2826" 
d="M82 942v492h2662l-1435 -1434h-803l944 942h-1368z" />
    <glyph glyph-name="eight" unicode="8" 
d="M819 369h1249q43 0 67 22t24 60t-24 59.5t-67 21.5h-1249q-43 0 -66.5 -21.5t-23.5 -59.5t23.5 -60t66.5 -22zM2068 1065h-1249q-43 0 -66.5 -22t-23.5 -60t23.5 -60t66.5 -22h1249q43 0 67 22t24 60t-24 60t-67 22zM82 1024q0 197 141.5 313.5t370.5 116.5h1700
q229 0 370.5 -116.5t141.5 -313.5q0 -208 -178 -307q178 -99 178 -307q0 -197 -141.5 -313.5t-370.5 -116.5h-1700q-229 0 -370.5 116.5t-141.5 313.5q0 208 178 307q-178 99 -178 307z" />
    <glyph glyph-name="nine" unicode="9" 
d="M2068 942h-1249q-43 0 -66.5 -22t-23.5 -60t23.5 -60t66.5 -22h1249q43 0 67 22t24 60t-24 60t-67 22zM2806 860q0 -122 -52 -244.5t-141 -203.5l-411 -412h-721l266 266h-1071q-119 0 -219.5 36.5t-168 96t-115.5 137.5t-69.5 160t-21.5 164t21.5 164t69.5 160
t115.5 137.5t168 96t219.5 36.5h1515q119 0 221.5 -36.5t173.5 -96t121.5 -137.5t74.5 -160.5t24 -163.5z" />
    <glyph glyph-name="colon" unicode=":" horiz-adv-x="901" 
d="M82 1208q0 101 72.5 173.5t173.5 72.5h245q101 0 173.5 -72.5t72.5 -173.5t-72.5 -173t-173.5 -72h-245q-101 0 -173.5 72t-72.5 173zM82 225q0 101 72.5 173.5t173.5 72.5h245q101 0 173.5 -72.5t72.5 -173.5t-72.5 -173t-173.5 -72h-245q-101 0 -173.5 72t-72.5 173z
" />
    <glyph glyph-name="semicolon" unicode=";" horiz-adv-x="901" 
d="M82 1208q0 101 72.5 173.5t173.5 72.5h245q101 0 173.5 -72.5t72.5 -173.5t-72.5 -173t-173.5 -72h-245q-101 0 -173.5 72t-72.5 173zM410 -20h-82q-101 0 -173.5 72t-72.5 173t72.5 173.5t173.5 72.5h245q101 0 173.5 -72.5t72.5 -173.5q0 -65 -32 -120.5t-85 -88.5
l-292 -200v164z" />
    <glyph glyph-name="less" unicode="&#x3c;" horiz-adv-x="1214" 
d="M82 512v410l1051 428v-410l-549 -223l549 -223v-410z" />
    <glyph glyph-name="equal" unicode="=" horiz-adv-x="1576" 
d="M82 799v409h1413v-409h-1413zM82 225v410h1413v-410h-1413z" />
    <glyph glyph-name="greater" unicode="&#x3e;" horiz-adv-x="1214" 
d="M1133 922v-410l-1051 -428v410l549 223l-549 223v410z" />
    <glyph glyph-name="question" unicode="?" 
d="M2068 1085h-1249q-41 0 -65.5 -30.5t-24.5 -71.5v-41h-647v41q0 201 144 336t368 135h1700q233 0 372.5 -116t139.5 -314q0 -119 -66 -214t-173.5 -145.5t-231.5 -50.5h-1137v308h870q43 0 67 22t24 60t-24 59.5t-67 21.5zM1075 225q0 101 72.5 173.5t173.5 72.5h246
q101 0 173 -72.5t72 -173.5t-72 -173t-173 -72h-246q-101 0 -173.5 72t-72.5 173z" />
    <glyph glyph-name="at" unicode="@" horiz-adv-x="4136" 
d="M2195 799h-565q-43 0 -66.5 -22t-23.5 -60t23.5 -60t66.5 -22h565q43 0 67 22t24 60t-24 60t-67 22zM893 717q0 79 31 157t88 144.5t149 107.5t203 41h942q167 0 291 -92v92h647v-450q0 -82 82 -82t82 82v614h-2056q-101 0 -187.5 -23.5t-149 -62t-113 -91t-82 -108.5
t-53 -116.5t-30 -113t-8.5 -99.5t8.5 -99.5t30 -113t53 -116.5t82 -109t113 -91.5t149 -62t187.5 -23.5h2539v-368h-2744q-230 0 -426 68t-337.5 192.5t-221.5 310.5t-80 412t80 412t221.5 310.5t337.5 192.5t426 68h2908v-1065q0 -186 -91.5 -277.5t-277.5 -91.5h-557
q-313 0 -442 185q-62 -84 -159 -134.5t-222 -50.5h-942q-111 0 -203 41.5t-149 107.5t-88 144.5t-31 157.5z" />
    <glyph glyph-name="A" unicode="A" horiz-adv-x="3215" 
d="M1608 983l-299 -369h598zM1243 1434h729l1161 -1434h-729l-166 205h-1261l-166 -205h-729z" />
    <glyph glyph-name="B" unicode="B" 
d="M729 532v-163h1339q43 0 67 22t24 60t-24 59.5t-67 21.5h-1339zM2068 1065h-1339v-164h1339q43 0 67 22t24 60t-24 60t-67 22zM2294 0h-2212v1434h2212q232 0 372 -107.5t140 -302.5q0 -208 -178 -307q178 -99 178 -307q0 -195 -140 -302.5t-372 -107.5z" />
    <glyph glyph-name="C" unicode="C" horiz-adv-x="2826" 
d="M2744 532v-532h-1945q-145 0 -278 57t-229 153t-153 229t-57 278t57 278t153 229t229 153t278 57h1945v-533h-1812q-87 0 -146 -50.5t-59 -133.5t59 -134t146 -51h1812z" />
    <glyph glyph-name="D" unicode="D" horiz-adv-x="2949" 
d="M2150 0h-2068v1434h2068q145 0 278 -57t229 -153t153 -229t57 -278t-57 -278t-153 -229t-229 -153t-278 -57zM727 922v-410h1280q95 0 155 57.5t60 147.5t-60 147.5t-155 57.5h-1280z" />
    <glyph glyph-name="E" unicode="E" horiz-adv-x="2826" 
d="M82 0v1434h2662v-369h-2015v-164h2015v-369h-2015v-163h2015v-369h-2662z" />
    <glyph glyph-name="F" unicode="F" horiz-adv-x="2826" 
d="M82 0v1434h2662v-369h-2015v-164h1933v-369h-1933v-532h-647z" />
    <glyph glyph-name="G" unicode="G" horiz-adv-x="2826" 
d="M2097 532v185h647v-717h-1945q-145 0 -278 57t-229 153t-153 229t-57 278t57 278t153 229t229 153t278 57h1945v-533h-1812q-87 0 -146 -50.5t-59 -133.5t59 -134t146 -51h1165z" />
    <glyph glyph-name="H" unicode="H" 
d="M82 0v1434h647v-471h1430v471h647v-1434h-647v471h-1430v-471h-647z" />
    <glyph glyph-name="I" unicode="I" horiz-adv-x="811" 
d="M82 0v1434h647v-1434h-647z" />
    <glyph glyph-name="J" unicode="J" horiz-adv-x="2682" 
d="M1954 737v697h647v-697q0 -195 -96 -364.5t-262 -271t-359 -101.5h-1802v717h647v-185h1020q85 0 145 60t60 145z" />
    <glyph glyph-name="K" unicode="K" 
d="M82 0v1434h647v-787l1139 787h938l-1039 -717l1039 -717h-938l-570 393l-569 -393h-647z" />
    <glyph glyph-name="L" unicode="L" horiz-adv-x="2621" 
d="M82 0v1434h647v-942h1811v-492h-2458z" />
    <glyph glyph-name="M" unicode="M" horiz-adv-x="3518" 
d="M82 0v1434h864l797 -983l797 983h897v-1434h-648v842l-682 -842h-729l-649 801v-801h-647z" />
    <glyph glyph-name="N" unicode="N" 
d="M82 0v1434h647l1430 -820v820h647v-1434h-647l-1430 819v-819h-647z" />
    <glyph glyph-name="O" unicode="O" horiz-adv-x="3092" 
d="M799 1454h1495q193 0 359 -101.5t262 -271t96 -364.5t-96 -364.5t-262 -271t-359 -101.5h-1495q-193 0 -359 101.5t-262 271t-96 364.5t96 364.5t262 271t359 101.5zM2161 922h-1229q-85 0 -145 -60t-60 -145t60 -145t145 -60h1229q85 0 144.5 60t59.5 145t-59.5 145
t-144.5 60z" />
    <glyph glyph-name="P" unicode="P" 
d="M2068 942h-1339v-164h1339q43 0 67 22t24 60t-24 60t-67 22zM729 0h-647v1434h2150q130 0 240 -49t182 -130.5t112 -184t40 -210.5t-40 -210.5t-112 -183.5t-182 -130t-240 -49h-1503v-287z" />
    <glyph glyph-name="Q" unicode="Q" horiz-adv-x="3092" 
d="M2161 922h-1229q-85 0 -145 -60t-60 -145t60 -145t145 -60h465l-170 209l565 -2l168 -207h201q85 0 144.5 60t59.5 145t-59.5 145t-144.5 60zM799 1454h1495q193 0 359 -101.5t262 -271t96 -364.5q0 -180 -82 -339t-225 -263.5t-316 -128.5l121 -150h-565l-117 144h-1028
q-193 0 -359 101.5t-262 271t-96 364.5t96 364.5t262 271t359 101.5z" />
    <glyph glyph-name="R" unicode="R" 
d="M2068 942h-1339v-164h1339q43 0 67 22t24 60t-24 60t-67 22zM729 0h-647v1434h2150q130 0 240 -49t182 -130.5t112 -184t40 -210.5q0 -193 -118.5 -353t-317.5 -206l436 -301h-836l-416 287h-825v-287z" />
    <glyph glyph-name="S" unicode="S" horiz-adv-x="2908" 
d="M528 614q-206 0 -326 110t-120 290q0 182 121 301t325 119h2216v-492h-1947q-33 0 -50.5 -19.5t-17.5 -41.5q0 -23 17.5 -42.5t50.5 -19.5h1583q207 0 326.5 -110t119.5 -289q0 -182 -121 -301t-325 -119h-2216v492h1947q33 0 50.5 19.5t17.5 41.5t-17.5 41.5t-50.5 19.5
h-1583z" />
    <glyph glyph-name="T" unicode="T" 
d="M1118 0v942h-1036v492h2724v-492h-1041v-942h-647z" />
    <glyph glyph-name="U" unicode="U" 
d="M2806 1434v-717q0 -195 -96 -364.5t-262 -271t-359 -101.5h-1290q-193 0 -359 101.5t-262 271t-96 364.5v717h647v-717q0 -85 60 -145t145 -60h1020q85 0 145 60t60 145v717h647z" />
    <glyph glyph-name="V" unicode="V" horiz-adv-x="3215" 
d="M3133 1434l-1161 -1434h-729l-1161 1434h729l797 -983l796 983h729z" />
    <glyph glyph-name="W" unicode="W" horiz-adv-x="4272" 
d="M2136 203l-164 -203h-729l-1161 1434h729l797 -983l164 202l-633 781h729l268 -332l268 332h729l-632 -781l163 -202l797 983h729l-1161 -1434h-729z" />
    <glyph glyph-name="X" unicode="X" horiz-adv-x="3104" 
d="M111 1434h913l528 -379l529 379h913l-985 -707l1014 -727h-914l-557 399l-557 -399h-913l1014 727z" />
    <glyph glyph-name="Y" unicode="Y" horiz-adv-x="3215" 
d="M1284 0v492l-1202 942h854l672 -529l671 529h854l-1202 -942v-492h-647z" />
    <glyph glyph-name="Z" unicode="Z" horiz-adv-x="2723" 
d="M82 492l1429 450h-1429v492h2560v-492l-1430 -450h1430v-492h-2560v492z" />
    <glyph glyph-name="bracketleft" unicode="[" horiz-adv-x="862" 
d="M82 -82v1598h698l-2 -205h-246v-1188h246l2 -205h-698z" />
    <glyph glyph-name="backslash" unicode="\" horiz-adv-x="2021" 
d="M1374 -82l-1292 1598h565l1292 -1598h-565z" />
    <glyph glyph-name="bracketright" unicode="]" horiz-adv-x="862" 
d="M780 1516v-1598h-698l2 205h246v1188h-246l-2 205h698z" />
    <glyph glyph-name="asciicircum" unicode="^" horiz-adv-x="1265" 
d="M82 1047l551 550l551 -550l-291 -289l-260 260l-260 -260z" />
    <glyph glyph-name="underscore" unicode="_" horiz-adv-x="2048" 
d="M82 -410v410h1884v-410h-1884z" />
    <glyph glyph-name="grave" unicode="`" horiz-adv-x="1019" 
d="M729 2089l209 -492h-451l-405 492h647z" />
    <glyph glyph-name="a" unicode="a" horiz-adv-x="3215" 
d="M1608 983l-299 -369h598zM1243 1434h729l1161 -1434h-729l-166 205h-1261l-166 -205h-729z" />
    <glyph glyph-name="b" unicode="b" 
d="M729 532v-163h1339q43 0 67 22t24 60t-24 59.5t-67 21.5h-1339zM2068 1065h-1339v-164h1339q43 0 67 22t24 60t-24 60t-67 22zM2294 0h-2212v1434h2212q232 0 372 -107.5t140 -302.5q0 -208 -178 -307q178 -99 178 -307q0 -195 -140 -302.5t-372 -107.5z" />
    <glyph glyph-name="c" unicode="c" horiz-adv-x="2826" 
d="M2744 532v-532h-1945q-145 0 -278 57t-229 153t-153 229t-57 278t57 278t153 229t229 153t278 57h1945v-533h-1812q-87 0 -146 -50.5t-59 -133.5t59 -134t146 -51h1812z" />
    <glyph glyph-name="d" unicode="d" horiz-adv-x="2949" 
d="M2150 0h-2068v1434h2068q145 0 278 -57t229 -153t153 -229t57 -278t-57 -278t-153 -229t-229 -153t-278 -57zM727 922v-410h1280q95 0 155 57.5t60 147.5t-60 147.5t-155 57.5h-1280z" />
    <glyph glyph-name="e" unicode="e" horiz-adv-x="2826" 
d="M82 0v1434h2662v-369h-2015v-164h2015v-369h-2015v-163h2015v-369h-2662z" />
    <glyph glyph-name="f" unicode="f" horiz-adv-x="2826" 
d="M82 0v1434h2662v-369h-2015v-164h1933v-369h-1933v-532h-647z" />
    <glyph glyph-name="g" unicode="g" horiz-adv-x="2826" 
d="M2097 532v185h647v-717h-1945q-145 0 -278 57t-229 153t-153 229t-57 278t57 278t153 229t229 153t278 57h1945v-533h-1812q-87 0 -146 -50.5t-59 -133.5t59 -134t146 -51h1165z" />
    <glyph glyph-name="h" unicode="h" 
d="M82 0v1434h647v-471h1430v471h647v-1434h-647v471h-1430v-471h-647z" />
    <glyph glyph-name="i" unicode="i" horiz-adv-x="811" 
d="M82 0v1434h647v-1434h-647z" />
    <glyph glyph-name="j" unicode="j" horiz-adv-x="2682" 
d="M1954 737v697h647v-697q0 -195 -96 -364.5t-262 -271t-359 -101.5h-1802v717h647v-185h1020q85 0 145 60t60 145z" />
    <glyph glyph-name="k" unicode="k" 
d="M82 0v1434h647v-787l1139 787h938l-1039 -717l1039 -717h-938l-570 393l-569 -393h-647z" />
    <glyph glyph-name="l" unicode="l" horiz-adv-x="2621" 
d="M82 0v1434h647v-942h1811v-492h-2458z" />
    <glyph glyph-name="m" unicode="m" horiz-adv-x="3518" 
d="M82 0v1434h864l797 -983l797 983h897v-1434h-648v842l-682 -842h-729l-649 801v-801h-647z" />
    <glyph glyph-name="n" unicode="n" 
d="M82 0v1434h647l1430 -820v820h647v-1434h-647l-1430 819v-819h-647z" />
    <glyph glyph-name="o" unicode="o" horiz-adv-x="3092" 
d="M799 1454h1495q193 0 359 -101.5t262 -271t96 -364.5t-96 -364.5t-262 -271t-359 -101.5h-1495q-193 0 -359 101.5t-262 271t-96 364.5t96 364.5t262 271t359 101.5zM2161 922h-1229q-85 0 -145 -60t-60 -145t60 -145t145 -60h1229q85 0 144.5 60t59.5 145t-59.5 145
t-144.5 60z" />
    <glyph glyph-name="p" unicode="p" 
d="M2068 942h-1339v-164h1339q43 0 67 22t24 60t-24 60t-67 22zM729 0h-647v1434h2150q130 0 240 -49t182 -130.5t112 -184t40 -210.5t-40 -210.5t-112 -183.5t-182 -130t-240 -49h-1503v-287z" />
    <glyph glyph-name="q" unicode="q" horiz-adv-x="3092" 
d="M2161 922h-1229q-85 0 -145 -60t-60 -145t60 -145t145 -60h465l-170 209l565 -2l168 -207h201q85 0 144.5 60t59.5 145t-59.5 145t-144.5 60zM799 1454h1495q193 0 359 -101.5t262 -271t96 -364.5q0 -180 -82 -339t-225 -263.5t-316 -128.5l121 -150h-565l-117 144h-1028
q-193 0 -359 101.5t-262 271t-96 364.5t96 364.5t262 271t359 101.5z" />
    <glyph glyph-name="r" unicode="r" 
d="M2068 942h-1339v-164h1339q43 0 67 22t24 60t-24 60t-67 22zM729 0h-647v1434h2150q130 0 240 -49t182 -130.5t112 -184t40 -210.5q0 -193 -118.5 -353t-317.5 -206l436 -301h-836l-416 287h-825v-287z" />
    <glyph glyph-name="s" unicode="s" horiz-adv-x="2908" 
d="M528 614q-206 0 -326 110t-120 290q0 182 121 301t325 119h2216v-492h-1947q-33 0 -50.5 -19.5t-17.5 -41.5q0 -23 17.5 -42.5t50.5 -19.5h1583q207 0 326.5 -110t119.5 -289q0 -182 -121 -301t-325 -119h-2216v492h1947q33 0 50.5 19.5t17.5 41.5t-17.5 41.5t-50.5 19.5
h-1583z" />
    <glyph glyph-name="t" unicode="t" 
d="M1118 0v942h-1036v492h2724v-492h-1041v-942h-647z" />
    <glyph glyph-name="u" unicode="u" 
d="M2806 1434v-717q0 -195 -96 -364.5t-262 -271t-359 -101.5h-1290q-193 0 -359 101.5t-262 271t-96 364.5v717h647v-717q0 -85 60 -145t145 -60h1020q85 0 145 60t60 145v717h647z" />
    <glyph glyph-name="v" unicode="v" horiz-adv-x="3215" 
d="M3133 1434l-1161 -1434h-729l-1161 1434h729l797 -983l796 983h729z" />
    <glyph glyph-name="w" unicode="w" horiz-adv-x="4272" 
d="M2136 203l-164 -203h-729l-1161 1434h729l797 -983l164 202l-633 781h729l268 -332l268 332h729l-632 -781l163 -202l797 983h729l-1161 -1434h-729z" />
    <glyph glyph-name="x" unicode="x" horiz-adv-x="3104" 
d="M111 1434h913l528 -379l529 379h913l-985 -707l1014 -727h-914l-557 399l-557 -399h-913l1014 727z" />
    <glyph glyph-name="y" unicode="y" horiz-adv-x="3215" 
d="M1284 0v492l-1202 942h854l672 -529l671 529h854l-1202 -942v-492h-647z" />
    <glyph glyph-name="z" unicode="z" horiz-adv-x="2723" 
d="M82 492l1429 450h-1429v492h2560v-492l-1430 -450h1430v-492h-2560v492z" />
    <glyph glyph-name="braceleft" unicode="{" horiz-adv-x="964" 
d="M883 -82h-371q-328 0 -328 328v184q0 123 -86 209l-78 78l78 78q86 86 86 209v184q0 328 328 328h371l-2 -205h-164q-82 0 -82 -82v-144q0 -205 -170 -317l-76 -51l76 -51q170 -112 170 -318v-143q0 -82 82 -82h164z" />
    <glyph glyph-name="bar" unicode="|" horiz-adv-x="573" 
d="M82 -102v1638h410v-1638h-410z" />
    <glyph glyph-name="braceright" unicode="}" horiz-adv-x="964" 
d="M453 -82h-371l2 205h164q82 0 82 82v143q0 206 170 318l75 51l-75 51q-170 112 -170 317v144q0 82 -82 82h-164l-2 205h371q327 0 327 -328v-184q0 -123 86 -209l78 -78l-78 -78q-86 -86 -86 -209v-184q0 -328 -327 -328z" />
    <glyph glyph-name="asciitilde" unicode="~" horiz-adv-x="1675" 
d="M326 494l-43 -25l-201 346l82 51q178 111 371 111q105 0 221 -35l82 -27l178 -51q65 -18 123 -18q107 0 211 61l43 25l200 -346l-82 -51q-179 -111 -370 -111q-105 0 -221 35l-82 26l-179 52q-64 18 -122 18q-107 0 -211 -61z" />
    <glyph glyph-name="exclamdown" unicode="&#xa1;" horiz-adv-x="901" 
d="M82 1208q0 101 72.5 173.5t173.5 72.5h245q101 0 173.5 -72.5t72.5 -173.5t-72.5 -173t-173.5 -72h-245q-101 0 -173.5 72t-72.5 173zM127 0l78 799h491l78 -799h-647z" />
    <glyph glyph-name="cent" unicode="&#xa2;" horiz-adv-x="2826" 
d="M2744 532v-532h-917v-164h-410v164h-618q-145 0 -278 57t-229 153t-153 229t-57 278t57 278t153 229t229 153t278 57h618v163h410v-163h917v-533h-1812q-87 0 -146 -50.5t-59 -133.5t59 -134t146 -51h1812z" />
    <glyph glyph-name="sterling" unicode="&#xa3;" horiz-adv-x="3051" 
d="M86 0v369h160v163h-164v369h166q30 533 594 533h1575q125 0 230 -39.5t175 -107t109 -156.5t39 -189h-648q0 46 -32 84.5t-99 38.5h-1134q-164 0 -164 -164h1266v-369h-1266v-163h1913v-369h-2720z" />
    <glyph glyph-name="currency" unicode="&#xa4;" horiz-adv-x="1597" 
d="M594 717q0 -85 60 -145t145 -60q86 0 145.5 60t59.5 145q0 86 -59.5 145.5t-145.5 59.5q-85 0 -145 -59.5t-60 -145.5zM225 715q0 141 68 268l-203 182l260 262l187 -208q122 61 262 61q139 0 264 -61l192 215l261 -260l-211 -191q67 -125 67 -268q0 -140 -65 -264
l202 -183l-262 -260l-186 207q-122 -61 -262 -61t-262 61l-195 -215l-260 260l211 189q-68 123 -68 266z" />
    <glyph glyph-name="yen" unicode="&#xa5;" horiz-adv-x="3215" 
d="M1284 0v205h-618v409h460l-1044 820h854l672 -529l671 529h854l-1044 -820h461v-409h-619v-205h-647z" />
    <glyph glyph-name="brokenbar" unicode="&#xa6;" horiz-adv-x="573" 
d="M82 860v676h410v-676h-410zM82 -102v675h410v-675h-410z" />
    <glyph glyph-name="section" unicode="&#xa7;" 
d="M2068 799h-1249q-43 0 -66.5 -22t-23.5 -60t23.5 -60t66.5 -22h1249q43 0 67 22t24 60t-24 60t-67 22zM82 717q0 115 66 192t194 111q-186 102 -178 291q6 137 125.5 232t320.5 95h2032v-491h-1763q-34 0 -51 -15t-17 -36t17 -36.5t51 -15.5h1456q229 0 350 -85.5
t121 -241.5q0 -115 -66 -192t-194 -111q186 -102 178 -291q-6 -137 -126 -232.5t-321 -95.5h-2031v492h1763q34 0 51 15t17 36t-17 36t-51 15h-1456q-229 0 -350 86t-121 242z" />
    <glyph glyph-name="dieresis" unicode="&#xa8;" horiz-adv-x="1884" 
d="M82 1823q0 101 72.5 173t173.5 72h245q101 0 173.5 -72t72.5 -173t-72.5 -173.5t-173.5 -72.5h-245q-101 0 -173.5 72.5t-72.5 173.5zM1065 1823q0 101 72.5 173t173.5 72h245q101 0 173.5 -72t72.5 -173t-72.5 -173.5t-173.5 -72.5h-245q-101 0 -173.5 72.5t-72.5 173.5
z" />
    <glyph glyph-name="copyright" unicode="&#xa9;" horiz-adv-x="2969" 
d="M1004 266h962q88 0 162 30.5t122.5 78t82 108.5t48.5 120t15 114t-15 114t-48.5 119.5t-82 108.5t-122.5 78t-162 30h-962q-88 0 -162 -30t-122.5 -78t-82.5 -108.5t-49 -119.5t-15 -114t15 -114t49 -120t82.5 -108.5t122.5 -78t162 -30.5zM1212 633h836v-246h-897
q-137 0 -234.5 97t-97.5 233q0 137 97.5 234.5t234.5 97.5h897v-246h-836q-41 0 -67.5 -23.5t-26.5 -62.5q0 -38 27 -61t67 -23zM2109 -102h-1249q-133 0 -256 47t-216 128t-163 185t-106.5 222.5t-36.5 236.5t36.5 236.5t106.5 222.5t163 185t216 128t256 47h1249
q133 0 256 -47t216.5 -128t163.5 -185t106.5 -222.5t36.5 -236.5t-36.5 -236.5t-106.5 -222.5t-163.5 -185t-216.5 -128t-256 -47z" />
    <glyph glyph-name="guillemotleft" unicode="&#xab;" horiz-adv-x="1474" 
d="M819 152h-409l-328 565l328 565h409l-327 -565zM1393 152h-410l-328 565l328 565h410l-328 -565z" />
    <glyph glyph-name="registered" unicode="&#xae;" horiz-adv-x="2969" 
d="M1004 266h962q88 0 162 30.5t122.5 78t82 108.5t48.5 120t15 114t-15 114t-48.5 119.5t-82 108.5t-122.5 78t-162 30h-962q-88 0 -162 -30t-122.5 -78t-82.5 -108.5t-49 -119.5t-15 -114t15 -114t49 -120t82.5 -108.5t122.5 -78t162 -30.5zM1802 815h-592v-72h592
q41 0 41 35q0 37 -41 37zM2109 -102h-1249q-133 0 -256 47t-216 128t-163 185t-106.5 222.5t-36.5 236.5t36.5 236.5t106.5 222.5t163 185t216 128t256 47h1249q133 0 256 -47t216.5 -128t163.5 -185t106.5 -222.5t36.5 -236.5t-36.5 -236.5t-106.5 -222.5t-163.5 -185
t-216.5 -128t-256 -47zM1210 399h-286v635h286v-2h666q113 0 183.5 -76.5t70.5 -177.5q0 -85 -52.5 -156t-140.5 -92l193 -131h-365l-180 125h-375v-125z" />
    <glyph glyph-name="macron" unicode="&#xaf;" horiz-adv-x="1597" 
d="M82 1597v410h1434v-410h-1434z" />
    <glyph glyph-name="degree" unicode="&#xb0;" horiz-adv-x="1966" 
d="M82 1208q0 101 72.5 173.5t173.5 72.5h1310q101 0 173.5 -72.5t72.5 -173.5t-72.5 -173t-173.5 -72h-1310q-101 0 -173.5 72t-72.5 173zM655 1208q0 -34 24 -58t58 -24h492q34 0 58 24t24 58t-24 58t-58 24h-492q-34 0 -58 -24t-24 -58z" />
    <glyph glyph-name="acute" unicode="&#xb4;" horiz-adv-x="1019" 
d="M82 1597l209 492h647l-406 -492h-450z" />
    <glyph glyph-name="paragraph" unicode="&#xb6;" horiz-adv-x="1740" 
d="M1085 0h-409v492h-174q-74 0 -149.5 37t-135.5 98.5t-97.5 150.5t-37.5 185t37.5 185t97.5 150.5t135.5 98.5t149.5 37h1157v-1434h-410v1065h-164v-1065z" />
    <glyph glyph-name="periodcentered" unicode="&#xb7;" horiz-adv-x="901" 
d="M82 717q0 101 72.5 173.5t173.5 72.5h245q101 0 173.5 -72.5t72.5 -173.5t-72.5 -173.5t-173.5 -72.5h-245q-101 0 -173.5 72.5t-72.5 173.5z" />
    <glyph glyph-name="cedilla" unicode="&#xb8;" horiz-adv-x="901" 
d="M82 -778v368h410q34 0 57.5 24t23.5 58t-23.5 58t-57.5 24h-410l283 348h299l-162 -184q68 -5 123.5 -28.5t90.5 -57.5t59 -77t34 -84.5t10 -82.5q0 -44 -10 -90t-36.5 -96.5t-66.5 -89.5t-106 -64.5t-149 -25.5h-369z" />
    <glyph glyph-name="guillemotright" unicode="&#xbb;" horiz-adv-x="1474" 
d="M492 152h-410l328 565l-328 565h410l327 -565zM1065 152h-410l328 565l-328 565h410l328 -565z" />
    <glyph glyph-name="questiondown" unicode="&#xbf;" 
d="M1812 1208q0 -101 -72 -173t-173 -72h-246q-101 0 -173.5 72t-72.5 173t72.5 173.5t173.5 72.5h246q101 0 173 -72.5t72 -173.5zM819 348h1249q41 0 66 31t25 72v41h647v-41q0 -201 -144 -336t-368 -135h-1700q-233 0 -372.5 116t-139.5 314q0 119 66 214t173 145t232 50
h1137v-307h-871q-43 0 -66.5 -22t-23.5 -60t23.5 -60t66.5 -22z" />
    <glyph glyph-name="Agrave" unicode="&#xc0;" horiz-adv-x="3215" 
d="M1608 983l-299 -369h598zM1243 1434h729l1161 -1434h-729l-166 205h-1261l-166 -205h-729zM975 2089h647l209 -492h-451z" />
    <glyph glyph-name="Aacute" unicode="&#xc1;" horiz-adv-x="3215" 
d="M1608 983l-299 -369h598zM1243 1434h729l1161 -1434h-729l-166 205h-1261l-166 -205h-729zM1835 1597h-451l209 492h648z" />
    <glyph glyph-name="Acircumflex" unicode="&#xc2;" horiz-adv-x="3215" 
d="M1608 983l-299 -369h598zM1243 1434h729l1161 -1434h-729l-166 205h-1261l-166 -205h-729zM1362 1597h-574l533 492h573l533 -492h-574l-245 228z" />
    <glyph glyph-name="Atilde" unicode="&#xc3;" horiz-adv-x="3215" 
d="M1608 983l-299 -369h598zM1243 1434h729l1161 -1434h-729l-166 205h-1261l-166 -205h-729zM1096 1638l-43 -24l-201 346l82 51q179 111 371 111q105 0 221 -35l82 -27l178 -51q64 -18 123 -18q107 0 211 61l43 25l200 -346l-82 -52q-177 -110 -370 -110q-105 0 -221 35
l-82 26l-178 51q-68 19 -123 19q-105 0 -211 -62z" />
    <glyph glyph-name="Adieresis" unicode="&#xc4;" horiz-adv-x="3215" 
d="M1608 983l-299 -369h598zM1243 1434h729l1161 -1434h-729l-166 205h-1261l-166 -205h-729zM748 1823q0 101 72 173t173 72h246q101 0 173.5 -72t72.5 -173t-72.5 -173.5t-173.5 -72.5h-246q-101 0 -173 72.5t-72 173.5zM1731 1823q0 101 72 173t173 72h246
q101 0 173.5 -72t72.5 -173t-72.5 -173.5t-173.5 -72.5h-246q-101 0 -173 72.5t-72 173.5z" />
    <glyph glyph-name="Aring" unicode="&#xc5;" horiz-adv-x="3215" 
d="M1608 983l-299 -369h598zM1280 1823q0 -34 24 -58t58 -24h491q34 0 58 24t24 58t-24 58t-58 24h-491q-34 0 -58 -24t-24 -58zM1243 1434h729l1161 -1434h-729l-166 205h-1261l-166 -205h-729zM707 1823q0 101 72 173t173 72h1311q101 0 173.5 -72t72.5 -173t-72.5 -173.5
t-173.5 -72.5h-1311q-101 0 -173 72.5t-72 173.5z" />
    <glyph glyph-name="AE" unicode="&#xc6;" horiz-adv-x="5148" 
d="M1608 983l-299 -369h598zM1243 1434h729l432 -533v533h2663v-369h-2015v-164h2015v-369h-2015v-163h2015v-369h-2663l-166 205h-1261l-166 -205h-729z" />
    <glyph glyph-name="Ccedilla" unicode="&#xc7;" horiz-adv-x="2826" 
d="M1628 -778h-368v368h409q34 0 58 24t24 58t-24 58t-58 24h-409l198 246h-659q-145 0 -278 57t-229 153t-153 229t-57 278t57 278t153 229t229 153t278 57h1945v-533h-1812q-87 0 -146 -50.5t-59 -133.5t59 -134t146 -51h1812v-532h-993l-72 -82q68 -5 123.5 -28.5
t91 -57.5t59.5 -77t34 -84.5t10 -82.5q0 -44 -10 -90t-37 -96.5t-67 -89.5t-106 -64.5t-149 -25.5z" />
    <glyph glyph-name="Egrave" unicode="&#xc8;" horiz-adv-x="2826" 
d="M82 0v1434h2662v-369h-2015v-164h2015v-369h-2015v-163h2015v-369h-2662zM1468 2089l209 -492h-450l-406 492h647z" />
    <glyph glyph-name="Eacute" unicode="&#xc9;" horiz-adv-x="2826" 
d="M82 0v1434h2662v-369h-2015v-164h2015v-369h-2015v-163h2015v-369h-2662zM1231 1597l209 492h647l-406 -492h-450z" />
    <glyph glyph-name="Ecircumflex" unicode="&#xca;" horiz-adv-x="2826" 
d="M82 0v1434h2662v-369h-2015v-164h2015v-369h-2015v-163h2015v-369h-2662zM635 1597l532 492h574l532 -492h-573l-246 228l-246 -228h-573z" />
    <glyph glyph-name="Edieresis" unicode="&#xcb;" horiz-adv-x="2826" 
d="M82 0v1434h2662v-369h-2015v-164h2015v-369h-2015v-163h2015v-369h-2662zM594 1823q0 101 72.5 173t173.5 72h245q101 0 173.5 -72t72.5 -173t-72.5 -173.5t-173.5 -72.5h-245q-101 0 -173.5 72.5t-72.5 173.5zM1577 1823q0 101 72.5 173t173.5 72h245q101 0 173.5 -72
t72.5 -173t-72.5 -173.5t-173.5 -72.5h-245q-101 0 -173.5 72.5t-72.5 173.5z" />
    <glyph glyph-name="Igrave" unicode="&#xcc;" horiz-adv-x="811" 
d="M82 0v1434h647v-1434h-647zM420 2089l209 -492h-451l-405 492h647z" />
    <glyph glyph-name="Iacute" unicode="&#xcd;" horiz-adv-x="811" 
d="M82 0v1434h647v-1434h-647zM182 1597l209 492h647l-405 -492h-451z" />
    <glyph glyph-name="Icircumflex" unicode="&#xce;" horiz-adv-x="811" 
d="M82 0v1434h647v-1434h-647zM-414 1597l533 492h573l533 -492h-574l-245 228l-246 -228h-574z" />
    <glyph glyph-name="Idieresis" unicode="&#xcf;" horiz-adv-x="811" 
d="M82 0v1434h647v-1434h-647zM-455 1823q0 101 72.5 173t173.5 72h246q101 0 173.5 -72t72.5 -173t-72.5 -173.5t-173.5 -72.5h-246q-101 0 -173.5 72.5t-72.5 173.5zM528 1823q0 101 72.5 173t173.5 72h246q101 0 173.5 -72t72.5 -173t-72.5 -173.5t-173.5 -72.5h-246
q-101 0 -173.5 72.5t-72.5 173.5z" />
    <glyph glyph-name="Eth" unicode="&#xd0;" horiz-adv-x="3115" 
d="M893 922v-410h1280q95 0 155 57.5t60 147.5t-60 147.5t-155 57.5h-1280zM248 512h-166v410h166v512h2068q145 0 278 -57t229 -153t153 -229t57 -278t-57 -278t-153 -229t-229 -153t-278 -57h-2068v512z" />
    <glyph glyph-name="Ntilde" unicode="&#xd1;" 
d="M82 0v1434h647l1430 -820v820h647v-1434h-647l-1430 819v-819h-647zM932 1638l-43 -24l-201 346l82 51q178 111 371 111q105 0 221 -35l82 -27l178 -51q64 -18 123 -18q107 0 211 61l43 25l201 -346l-82 -52q-177 -110 -371 -110q-105 0 -221 35l-82 26l-178 51
q-68 19 -123 19q-105 0 -211 -62z" />
    <glyph glyph-name="Ograve" unicode="&#xd2;" horiz-adv-x="3092" 
d="M2161 922h-1229q-85 0 -145 -60t-60 -145t60 -145t145 -60h1229q85 0 144.5 60t59.5 145t-59.5 145t-144.5 60zM799 1454h1495q193 0 359 -101.5t262 -271t96 -364.5t-96 -364.5t-262 -271t-359 -101.5h-1495q-193 0 -359 101.5t-262 271t-96 364.5t96 364.5t262 271
t359 101.5zM913 2089h648l208 -492h-450z" />
    <glyph glyph-name="Oacute" unicode="&#xd3;" horiz-adv-x="3092" 
d="M2161 922h-1229q-85 0 -145 -60t-60 -145t60 -145t145 -60h1229q85 0 144.5 60t59.5 145t-59.5 145t-144.5 60zM799 1454h1495q193 0 359 -101.5t262 -271t96 -364.5t-96 -364.5t-262 -271t-359 -101.5h-1495q-193 0 -359 101.5t-262 271t-96 364.5t96 364.5t262 271
t359 101.5zM1774 1597h-451l209 492h647z" />
    <glyph glyph-name="Ocircumflex" unicode="&#xd4;" horiz-adv-x="3092" 
d="M2161 922h-1229q-85 0 -145 -60t-60 -145t60 -145t145 -60h1229q85 0 144.5 60t59.5 145t-59.5 145t-144.5 60zM799 1454h1495q193 0 359 -101.5t262 -271t96 -364.5t-96 -364.5t-262 -271t-359 -101.5h-1495q-193 0 -359 101.5t-262 271t-96 364.5t96 364.5t262 271
t359 101.5zM1300 1597h-573l533 492h573l532 -492h-573l-246 228z" />
    <glyph glyph-name="Otilde" unicode="&#xd5;" horiz-adv-x="3092" 
d="M2161 922h-1229q-85 0 -145 -60t-60 -145t60 -145t145 -60h1229q85 0 144.5 60t59.5 145t-59.5 145t-144.5 60zM799 1454h1495q193 0 359 -101.5t262 -271t96 -364.5t-96 -364.5t-262 -271t-359 -101.5h-1495q-193 0 -359 101.5t-262 271t-96 364.5t96 364.5t262 271
t359 101.5zM1034 1638l-43 -24l-200 346l81 51q178 111 371 111q105 0 221 -35l82 -27l178 -51q64 -18 123 -18q107 0 211 61l43 25l201 -346l-82 -52q-177 -110 -371 -110q-105 0 -221 35l-82 26l-178 51q-68 19 -123 19q-105 0 -211 -62z" />
    <glyph glyph-name="Odieresis" unicode="&#xd6;" horiz-adv-x="3092" 
d="M799 1454h1495q193 0 359 -101.5t262 -271t96 -364.5t-96 -364.5t-262 -271t-359 -101.5h-1495q-193 0 -359 101.5t-262 271t-96 364.5t96 364.5t262 271t359 101.5zM2161 922h-1229q-85 0 -145 -60t-60 -145t60 -145t145 -60h1229q85 0 144.5 60t59.5 145t-59.5 145
t-144.5 60zM686 1823q0 101 72.5 173t173.5 72h246q101 0 173 -72t72 -173t-72 -173.5t-173 -72.5h-246q-101 0 -173.5 72.5t-72.5 173.5zM1669 1823q0 101 72.5 173t173.5 72h246q101 0 173 -72t72 -173t-72 -173.5t-173 -72.5h-246q-101 0 -173.5 72.5t-72.5 173.5z" />
    <glyph glyph-name="multiply" unicode="&#xd7;" horiz-adv-x="1255" 
d="M1174 459l-289 -289l-256 256l-258 -258l-289 289l256 258l-254 254l291 288l254 -253l252 253l288 -290l-251 -252z" />
    <glyph glyph-name="Oslash" unicode="&#xd8;" horiz-adv-x="3092" 
d="M1096 512l334 410h-498q-85 0 -145 -60t-60 -145t60 -145t145 -60h164zM1993 922l-332 -410h500q85 0 144.5 60t59.5 145t-59.5 145t-144.5 60h-168zM1860 1454l116 143l566 2l-127 -155q167 -30 303.5 -135t214.5 -261.5t78 -330.5q0 -195 -96 -364.5t-262 -271
t-359 -101.5h-1063l-117 -144h-565l125 156q-166 30 -301.5 135t-213 261t-77.5 329q0 195 96 364.5t262 271t359 101.5h1061z" />
    <glyph glyph-name="Ugrave" unicode="&#xd9;" 
d="M2806 1434v-717q0 -195 -96 -364.5t-262 -271t-359 -101.5h-1290q-193 0 -359 101.5t-262 271t-96 364.5v717h647v-717q0 -85 60 -145t145 -60h1020q85 0 145 60t60 145v717h647zM1458 2089l209 -492h-450l-406 492h647z" />
    <glyph glyph-name="Uacute" unicode="&#xda;" 
d="M2806 1434v-717q0 -195 -96 -364.5t-262 -271t-359 -101.5h-1290q-193 0 -359 101.5t-262 271t-96 364.5v717h647v-717q0 -85 60 -145t145 -60h1020q85 0 145 60t60 145v717h647zM1221 1597l209 492h647l-406 -492h-450z" />
    <glyph glyph-name="Ucircumflex" unicode="&#xdb;" 
d="M2806 1434v-717q0 -195 -96 -364.5t-262 -271t-359 -101.5h-1290q-193 0 -359 101.5t-262 271t-96 364.5v717h647v-717q0 -85 60 -145t145 -60h1020q85 0 145 60t60 145v717h647zM625 1597l532 492h574l532 -492h-573l-246 228l-246 -228h-573z" />
    <glyph glyph-name="Udieresis" unicode="&#xdc;" 
d="M2806 1434v-717q0 -195 -96 -364.5t-262 -271t-359 -101.5h-1290q-193 0 -359 101.5t-262 271t-96 364.5v717h647v-717q0 -85 60 -145t145 -60h1020q85 0 145 60t60 145v717h647zM584 1823q0 101 72 173t173 72h246q101 0 173.5 -72t72.5 -173t-72.5 -173.5t-173.5 -72.5
h-246q-101 0 -173 72.5t-72 173.5zM1567 1823q0 101 72 173t173 72h246q101 0 173.5 -72t72.5 -173t-72.5 -173.5t-173.5 -72.5h-246q-101 0 -173 72.5t-72 173.5z" />
    <glyph glyph-name="Yacute" unicode="&#xdd;" horiz-adv-x="3215" 
d="M1284 0v492l-1202 942h854l672 -529l671 529h854l-1202 -942v-492h-647zM1384 1597l209 492h648l-406 -492h-451z" />
    <glyph glyph-name="Thorn" unicode="&#xde;" 
d="M2068 799h-1339v-164h1339q43 0 67 22t24 60t-24 60t-67 22zM729 0h-647v1434h647v-144h1503q130 0 240 -49t182 -130t112 -183.5t40 -210.5t-40 -210.5t-112 -184t-182 -130.5t-240 -49h-1503v-143z" />
    <glyph glyph-name="germandbls" unicode="&#xdf;" 
d="M729 983v-983h-647v1024q0 197 141.5 313.5t370.5 116.5h1700q229 0 370.5 -116.5t141.5 -313.5q0 -208 -178 -307q178 -99 178 -307q0 -195 -140 -302.5t-372 -107.5h-1401l-2 369h1177q43 0 67 22t24 60t-24 59.5t-67 21.5h-1177l-2 369h1179q43 0 67 22t24 60t-24 60
t-67 22h-1249q-43 0 -66.5 -22t-23.5 -60z" />
    <glyph glyph-name="agrave" unicode="&#xe0;" horiz-adv-x="3215" 
d="M1608 983l-299 -369h598zM1243 1434h729l1161 -1434h-729l-166 205h-1261l-166 -205h-729zM975 2089h647l209 -492h-451z" />
    <glyph glyph-name="aacute" unicode="&#xe1;" horiz-adv-x="3215" 
d="M1608 983l-299 -369h598zM1243 1434h729l1161 -1434h-729l-166 205h-1261l-166 -205h-729zM1835 1597h-451l209 492h648z" />
    <glyph glyph-name="acircumflex" unicode="&#xe2;" horiz-adv-x="3215" 
d="M1608 983l-299 -369h598zM1243 1434h729l1161 -1434h-729l-166 205h-1261l-166 -205h-729zM1362 1597h-574l533 492h573l533 -492h-574l-245 228z" />
    <glyph glyph-name="atilde" unicode="&#xe3;" horiz-adv-x="3215" 
d="M1608 983l-299 -369h598zM1243 1434h729l1161 -1434h-729l-166 205h-1261l-166 -205h-729zM1096 1638l-43 -24l-201 346l82 51q179 111 371 111q105 0 221 -35l82 -27l178 -51q64 -18 123 -18q107 0 211 61l43 25l200 -346l-82 -52q-177 -110 -370 -110q-105 0 -221 35
l-82 26l-178 51q-68 19 -123 19q-105 0 -211 -62z" />
    <glyph glyph-name="adieresis" unicode="&#xe4;" horiz-adv-x="3215" 
d="M1608 983l-299 -369h598zM1243 1434h729l1161 -1434h-729l-166 205h-1261l-166 -205h-729zM748 1823q0 101 72 173t173 72h246q101 0 173.5 -72t72.5 -173t-72.5 -173.5t-173.5 -72.5h-246q-101 0 -173 72.5t-72 173.5zM1731 1823q0 101 72 173t173 72h246
q101 0 173.5 -72t72.5 -173t-72.5 -173.5t-173.5 -72.5h-246q-101 0 -173 72.5t-72 173.5z" />
    <glyph glyph-name="aring" unicode="&#xe5;" horiz-adv-x="3215" 
d="M1608 983l-299 -369h598zM1280 1823q0 -34 24 -58t58 -24h491q34 0 58 24t24 58t-24 58t-58 24h-491q-34 0 -58 -24t-24 -58zM1243 1434h729l1161 -1434h-729l-166 205h-1261l-166 -205h-729zM707 1823q0 101 72 173t173 72h1311q101 0 173.5 -72t72.5 -173t-72.5 -173.5
t-173.5 -72.5h-1311q-101 0 -173 72.5t-72 173.5z" />
    <glyph glyph-name="ae" unicode="&#xe6;" horiz-adv-x="5148" 
d="M1608 983l-299 -369h598zM1243 1434h729l432 -533v533h2663v-369h-2015v-164h2015v-369h-2015v-163h2015v-369h-2663l-166 205h-1261l-166 -205h-729z" />
    <glyph glyph-name="ccedilla" unicode="&#xe7;" horiz-adv-x="2826" 
d="M1628 -778h-368v368h409q34 0 58 24t24 58t-24 58t-58 24h-409l198 246h-659q-145 0 -278 57t-229 153t-153 229t-57 278t57 278t153 229t229 153t278 57h1945v-533h-1812q-87 0 -146 -50.5t-59 -133.5t59 -134t146 -51h1812v-532h-993l-72 -82q68 -5 123.5 -28.5
t91 -57.5t59.5 -77t34 -84.5t10 -82.5q0 -44 -10 -90t-37 -96.5t-67 -89.5t-106 -64.5t-149 -25.5z" />
    <glyph glyph-name="egrave" unicode="&#xe8;" horiz-adv-x="2826" 
d="M82 0v1434h2662v-369h-2015v-164h2015v-369h-2015v-163h2015v-369h-2662zM1468 2089l209 -492h-450l-406 492h647z" />
    <glyph glyph-name="eacute" unicode="&#xe9;" horiz-adv-x="2826" 
d="M82 0v1434h2662v-369h-2015v-164h2015v-369h-2015v-163h2015v-369h-2662zM1231 1597l209 492h647l-406 -492h-450z" />
    <glyph glyph-name="ecircumflex" unicode="&#xea;" horiz-adv-x="2826" 
d="M82 0v1434h2662v-369h-2015v-164h2015v-369h-2015v-163h2015v-369h-2662zM635 1597l532 492h574l532 -492h-573l-246 228l-246 -228h-573z" />
    <glyph glyph-name="edieresis" unicode="&#xeb;" horiz-adv-x="2826" 
d="M82 0v1434h2662v-369h-2015v-164h2015v-369h-2015v-163h2015v-369h-2662zM594 1823q0 101 72.5 173t173.5 72h245q101 0 173.5 -72t72.5 -173t-72.5 -173.5t-173.5 -72.5h-245q-101 0 -173.5 72.5t-72.5 173.5zM1577 1823q0 101 72.5 173t173.5 72h245q101 0 173.5 -72
t72.5 -173t-72.5 -173.5t-173.5 -72.5h-245q-101 0 -173.5 72.5t-72.5 173.5z" />
    <glyph glyph-name="igrave" unicode="&#xec;" horiz-adv-x="811" 
d="M82 0v1434h647v-1434h-647zM420 2089l209 -492h-451l-405 492h647z" />
    <glyph glyph-name="iacute" unicode="&#xed;" horiz-adv-x="811" 
d="M82 0v1434h647v-1434h-647zM182 1597l209 492h647l-405 -492h-451z" />
    <glyph glyph-name="icircumflex" unicode="&#xee;" horiz-adv-x="811" 
d="M82 0v1434h647v-1434h-647zM-414 1597l533 492h573l533 -492h-574l-245 228l-246 -228h-574z" />
    <glyph glyph-name="idieresis" unicode="&#xef;" horiz-adv-x="811" 
d="M82 0v1434h647v-1434h-647zM-455 1823q0 101 72.5 173t173.5 72h246q101 0 173.5 -72t72.5 -173t-72.5 -173.5t-173.5 -72.5h-246q-101 0 -173.5 72.5t-72.5 173.5zM528 1823q0 101 72.5 173t173.5 72h246q101 0 173.5 -72t72.5 -173t-72.5 -173.5t-173.5 -72.5h-246
q-101 0 -173.5 72.5t-72.5 173.5z" />
    <glyph glyph-name="eth" unicode="&#xf0;" horiz-adv-x="3115" 
d="M893 922v-410h1280q95 0 155 57.5t60 147.5t-60 147.5t-155 57.5h-1280zM248 512h-166v410h166v512h2068q145 0 278 -57t229 -153t153 -229t57 -278t-57 -278t-153 -229t-229 -153t-278 -57h-2068v512z" />
    <glyph glyph-name="ntilde" unicode="&#xf1;" 
d="M82 0v1434h647l1430 -820v820h647v-1434h-647l-1430 819v-819h-647zM932 1638l-43 -24l-201 346l82 51q178 111 371 111q105 0 221 -35l82 -27l178 -51q64 -18 123 -18q107 0 211 61l43 25l201 -346l-82 -52q-177 -110 -371 -110q-105 0 -221 35l-82 26l-178 51
q-68 19 -123 19q-105 0 -211 -62z" />
    <glyph glyph-name="ograve" unicode="&#xf2;" horiz-adv-x="3092" 
d="M2161 922h-1229q-85 0 -145 -60t-60 -145t60 -145t145 -60h1229q85 0 144.5 60t59.5 145t-59.5 145t-144.5 60zM799 1454h1495q193 0 359 -101.5t262 -271t96 -364.5t-96 -364.5t-262 -271t-359 -101.5h-1495q-193 0 -359 101.5t-262 271t-96 364.5t96 364.5t262 271
t359 101.5zM913 2089h648l208 -492h-450z" />
    <glyph glyph-name="oacute" unicode="&#xf3;" horiz-adv-x="3092" 
d="M2161 922h-1229q-85 0 -145 -60t-60 -145t60 -145t145 -60h1229q85 0 144.5 60t59.5 145t-59.5 145t-144.5 60zM799 1454h1495q193 0 359 -101.5t262 -271t96 -364.5t-96 -364.5t-262 -271t-359 -101.5h-1495q-193 0 -359 101.5t-262 271t-96 364.5t96 364.5t262 271
t359 101.5zM1774 1597h-451l209 492h647z" />
    <glyph glyph-name="ocircumflex" unicode="&#xf4;" horiz-adv-x="3092" 
d="M2161 922h-1229q-85 0 -145 -60t-60 -145t60 -145t145 -60h1229q85 0 144.5 60t59.5 145t-59.5 145t-144.5 60zM799 1454h1495q193 0 359 -101.5t262 -271t96 -364.5t-96 -364.5t-262 -271t-359 -101.5h-1495q-193 0 -359 101.5t-262 271t-96 364.5t96 364.5t262 271
t359 101.5zM1300 1597h-573l533 492h573l532 -492h-573l-246 228z" />
    <glyph glyph-name="otilde" unicode="&#xf5;" horiz-adv-x="3092" 
d="M2161 922h-1229q-85 0 -145 -60t-60 -145t60 -145t145 -60h1229q85 0 144.5 60t59.5 145t-59.5 145t-144.5 60zM799 1454h1495q193 0 359 -101.5t262 -271t96 -364.5t-96 -364.5t-262 -271t-359 -101.5h-1495q-193 0 -359 101.5t-262 271t-96 364.5t96 364.5t262 271
t359 101.5zM1034 1638l-43 -24l-200 346l81 51q178 111 371 111q105 0 221 -35l82 -27l178 -51q64 -18 123 -18q107 0 211 61l43 25l201 -346l-82 -52q-177 -110 -371 -110q-105 0 -221 35l-82 26l-178 51q-68 19 -123 19q-105 0 -211 -62z" />
    <glyph glyph-name="odieresis" unicode="&#xf6;" horiz-adv-x="3092" 
d="M799 1454h1495q193 0 359 -101.5t262 -271t96 -364.5t-96 -364.5t-262 -271t-359 -101.5h-1495q-193 0 -359 101.5t-262 271t-96 364.5t96 364.5t262 271t359 101.5zM2161 922h-1229q-85 0 -145 -60t-60 -145t60 -145t145 -60h1229q85 0 144.5 60t59.5 145t-59.5 145
t-144.5 60zM686 1823q0 101 72.5 173t173.5 72h246q101 0 173 -72t72 -173t-72 -173.5t-173 -72.5h-246q-101 0 -173.5 72.5t-72.5 173.5zM1669 1823q0 101 72.5 173t173.5 72h246q101 0 173 -72t72 -173t-72 -173.5t-173 -72.5h-246q-101 0 -173.5 72.5t-72.5 173.5z" />
    <glyph glyph-name="divide" unicode="&#xf7;" horiz-adv-x="1576" 
d="M420 1208q0 101 72.5 173.5t173.5 72.5h245q101 0 173.5 -72.5t72.5 -173.5t-72.5 -173t-173.5 -72h-245q-101 0 -173.5 72t-72.5 173zM82 512v410h1413v-410h-1413zM420 225q0 101 72.5 173.5t173.5 72.5h245q101 0 173.5 -72.5t72.5 -173.5t-72.5 -173t-173.5 -72h-245
q-101 0 -173.5 72t-72.5 173z" />
    <glyph glyph-name="oslash" unicode="&#xf8;" horiz-adv-x="3092" 
d="M1096 512l334 410h-498q-85 0 -145 -60t-60 -145t60 -145t145 -60h164zM1993 922l-332 -410h500q85 0 144.5 60t59.5 145t-59.5 145t-144.5 60h-168zM1860 1454l116 143l566 2l-127 -155q167 -30 303.5 -135t214.5 -261.5t78 -330.5q0 -195 -96 -364.5t-262 -271
t-359 -101.5h-1063l-117 -144h-565l125 156q-166 30 -301.5 135t-213 261t-77.5 329q0 195 96 364.5t262 271t359 101.5h1061z" />
    <glyph glyph-name="ugrave" unicode="&#xf9;" 
d="M2806 1434v-717q0 -195 -96 -364.5t-262 -271t-359 -101.5h-1290q-193 0 -359 101.5t-262 271t-96 364.5v717h647v-717q0 -85 60 -145t145 -60h1020q85 0 145 60t60 145v717h647zM1458 2089l209 -492h-450l-406 492h647z" />
    <glyph glyph-name="uacute" unicode="&#xfa;" 
d="M2806 1434v-717q0 -195 -96 -364.5t-262 -271t-359 -101.5h-1290q-193 0 -359 101.5t-262 271t-96 364.5v717h647v-717q0 -85 60 -145t145 -60h1020q85 0 145 60t60 145v717h647zM1221 1597l209 492h647l-406 -492h-450z" />
    <glyph glyph-name="ucircumflex" unicode="&#xfb;" 
d="M2806 1434v-717q0 -195 -96 -364.5t-262 -271t-359 -101.5h-1290q-193 0 -359 101.5t-262 271t-96 364.5v717h647v-717q0 -85 60 -145t145 -60h1020q85 0 145 60t60 145v717h647zM625 1597l532 492h574l532 -492h-573l-246 228l-246 -228h-573z" />
    <glyph glyph-name="udieresis" unicode="&#xfc;" 
d="M2806 1434v-717q0 -195 -96 -364.5t-262 -271t-359 -101.5h-1290q-193 0 -359 101.5t-262 271t-96 364.5v717h647v-717q0 -85 60 -145t145 -60h1020q85 0 145 60t60 145v717h647zM584 1823q0 101 72 173t173 72h246q101 0 173.5 -72t72.5 -173t-72.5 -173.5t-173.5 -72.5
h-246q-101 0 -173 72.5t-72 173.5zM1567 1823q0 101 72 173t173 72h246q101 0 173.5 -72t72.5 -173t-72.5 -173.5t-173.5 -72.5h-246q-101 0 -173 72.5t-72 173.5z" />
    <glyph glyph-name="yacute" unicode="&#xfd;" horiz-adv-x="3215" 
d="M1284 0v492l-1202 942h854l672 -529l671 529h854l-1202 -942v-492h-647zM1384 1597l209 492h648l-406 -492h-451z" />
    <glyph glyph-name="thorn" unicode="&#xfe;" 
d="M2068 799h-1339v-164h1339q43 0 67 22t24 60t-24 60t-67 22zM729 0h-647v1434h647v-144h1503q130 0 240 -49t182 -130t112 -183.5t40 -210.5t-40 -210.5t-112 -184t-182 -130.5t-240 -49h-1503v-143z" />
    <glyph glyph-name="ydieresis" unicode="&#xff;" horiz-adv-x="3215" 
d="M1284 0v492l-1202 942h854l672 -529l671 529h854l-1202 -942v-492h-647zM748 1823q0 101 72 173t173 72h246q101 0 173.5 -72t72.5 -173t-72.5 -173.5t-173.5 -72.5h-246q-101 0 -173 72.5t-72 173.5zM1731 1823q0 101 72 173t173 72h246q101 0 173.5 -72t72.5 -173
t-72.5 -173.5t-173.5 -72.5h-246q-101 0 -173 72.5t-72 173.5z" />
    <glyph glyph-name="Amacron" unicode="&#x100;" horiz-adv-x="3215" 
d="M1608 983l-299 -369h598zM1243 1434h729l1161 -1434h-729l-166 205h-1261l-166 -205h-729zM2324 1597h-1433v410h1433v-410z" />
    <glyph glyph-name="amacron" unicode="&#x101;" horiz-adv-x="3215" 
d="M1608 983l-299 -369h598zM1243 1434h729l1161 -1434h-729l-166 205h-1261l-166 -205h-729zM2324 1597h-1433v410h1433v-410z" />
    <glyph glyph-name="Abreve" unicode="&#x102;" horiz-adv-x="3215" 
d="M1608 983l-299 -369h598zM1243 1434h729l1161 -1434h-729l-166 205h-1261l-166 -205h-729zM1608 1980q191 0 342.5 48t290.5 137l225 -332q-74 -49 -141 -85t-175 -79.5t-246.5 -67.5t-295.5 -24t-295.5 24t-246.5 67.5t-175 79.5t-141 85l225 332q139 -89 290.5 -137
t342.5 -48z" />
    <glyph glyph-name="abreve" unicode="&#x103;" horiz-adv-x="3215" 
d="M1608 983l-299 -369h598zM1243 1434h729l1161 -1434h-729l-166 205h-1261l-166 -205h-729zM1608 1980q191 0 342.5 48t290.5 137l225 -332q-74 -49 -141 -85t-175 -79.5t-246.5 -67.5t-295.5 -24t-295.5 24t-246.5 67.5t-175 79.5t-141 85l225 332q139 -89 290.5 -137
t342.5 -48z" />
    <glyph glyph-name="Aogonek" unicode="&#x104;" horiz-adv-x="3215" 
d="M1608 983l-299 -369h598zM2447 0h-43l-166 205h-1261l-166 -205h-729l1161 1434h729l1161 -1434h-399q-31 -31 -31 -74q0 -34 24 -58t58 -24h348v-368h-389q-79 0 -146 31t-110.5 81t-67.5 111.5t-24 124.5q0 95 51 176z" />
    <glyph glyph-name="aogonek" unicode="&#x105;" horiz-adv-x="3215" 
d="M1608 983l-299 -369h598zM2447 0h-43l-166 205h-1261l-166 -205h-729l1161 1434h729l1161 -1434h-399q-31 -31 -31 -74q0 -34 24 -58t58 -24h348v-368h-389q-79 0 -146 31t-110.5 81t-67.5 111.5t-24 124.5q0 95 51 176z" />
    <glyph glyph-name="Cacute" unicode="&#x106;" horiz-adv-x="2826" 
d="M2744 532v-532h-1945q-145 0 -278 57t-229 153t-153 229t-57 278t57 278t153 229t229 153t278 57h1945v-533h-1812q-87 0 -146 -50.5t-59 -133.5t59 -134t146 -51h1812zM1354 1597l209 492h647l-406 -492h-450z" />
    <glyph glyph-name="cacute" unicode="&#x107;" horiz-adv-x="2826" 
d="M2744 532v-532h-1945q-145 0 -278 57t-229 153t-153 229t-57 278t57 278t153 229t229 153t278 57h1945v-533h-1812q-87 0 -146 -50.5t-59 -133.5t59 -134t146 -51h1812zM1354 1597l209 492h647l-406 -492h-450z" />
    <glyph glyph-name="Ccircumflex" unicode="&#x108;" horiz-adv-x="2826" 
d="M2744 532v-532h-1945q-145 0 -278 57t-229 153t-153 229t-57 278t57 278t153 229t229 153t278 57h1945v-533h-1812q-87 0 -146 -50.5t-59 -133.5t59 -134t146 -51h1812zM758 1597l532 492h574l532 -492h-573l-246 228l-246 -228h-573z" />
    <glyph glyph-name="ccircumflex" unicode="&#x109;" horiz-adv-x="2826" 
d="M2744 532v-532h-1945q-145 0 -278 57t-229 153t-153 229t-57 278t57 278t153 229t229 153t278 57h1945v-533h-1812q-87 0 -146 -50.5t-59 -133.5t59 -134t146 -51h1812zM758 1597l532 492h574l532 -492h-573l-246 228l-246 -228h-573z" />
    <glyph glyph-name="Cdotaccent" unicode="&#x10a;" horiz-adv-x="2826" 
d="M2744 532v-532h-1945q-145 0 -278 57t-229 153t-153 229t-57 278t57 278t153 229t229 153t278 57h1945v-533h-1812q-87 0 -146 -50.5t-59 -133.5t59 -134t146 -51h1812zM1208 1823q0 101 72.5 173t173.5 72h246q101 0 173.5 -72t72.5 -173t-72.5 -173.5t-173.5 -72.5
h-246q-101 0 -173.5 72.5t-72.5 173.5z" />
    <glyph glyph-name="cdotaccent" unicode="&#x10b;" horiz-adv-x="2826" 
d="M2744 532v-532h-1945q-145 0 -278 57t-229 153t-153 229t-57 278t57 278t153 229t229 153t278 57h1945v-533h-1812q-87 0 -146 -50.5t-59 -133.5t59 -134t146 -51h1812zM1208 1823q0 101 72.5 173t173.5 72h246q101 0 173.5 -72t72.5 -173t-72.5 -173.5t-173.5 -72.5
h-246q-101 0 -173.5 72.5t-72.5 173.5z" />
    <glyph glyph-name="Ccaron" unicode="&#x10c;" horiz-adv-x="2826" 
d="M2744 532v-532h-1945q-145 0 -278 57t-229 153t-153 229t-57 278t57 278t153 229t229 153t278 57h1945v-533h-1812q-87 0 -146 -50.5t-59 -133.5t59 -134t146 -51h1812zM1290 1597l-532 492h573l246 -227l246 227h573l-532 -492h-574z" />
    <glyph glyph-name="ccaron" unicode="&#x10d;" horiz-adv-x="2826" 
d="M2744 532v-532h-1945q-145 0 -278 57t-229 153t-153 229t-57 278t57 278t153 229t229 153t278 57h1945v-533h-1812q-87 0 -146 -50.5t-59 -133.5t59 -134t146 -51h1812zM1290 1597l-532 492h573l246 -227l246 227h573l-532 -492h-574z" />
    <glyph glyph-name="Dcaron" unicode="&#x10e;" horiz-adv-x="2949" 
d="M2007 922h-1280v-410h1280q95 0 155 57.5t60 147.5t-60 147.5t-155 57.5zM2150 0h-2068v1434h2068q145 0 278 -57t229 -153t153 -229t57 -278t-57 -278t-153 -229t-229 -153t-278 -57zM1700 1597h-574l-532 492h573l246 -227l246 227h573z" />
    <glyph glyph-name="dcaron" unicode="&#x10f;" horiz-adv-x="2949" 
d="M2007 922h-1280v-410h1280q95 0 155 57.5t60 147.5t-60 147.5t-155 57.5zM2150 0h-2068v1434h2068q145 0 278 -57t229 -153t153 -229t57 -278t-57 -278t-153 -229t-229 -153t-278 -57zM1700 1597h-574l-532 492h573l246 -227l246 227h573z" />
    <glyph glyph-name="Dcroat" unicode="&#x110;" horiz-adv-x="3115" 
d="M893 922v-410h1280q95 0 155 57.5t60 147.5t-60 147.5t-155 57.5h-1280zM248 512h-166v410h166v512h2068q145 0 278 -57t229 -153t153 -229t57 -278t-57 -278t-153 -229t-229 -153t-278 -57h-2068v512z" />
    <glyph glyph-name="dcroat" unicode="&#x111;" horiz-adv-x="3115" 
d="M893 922v-410h1280q95 0 155 57.5t60 147.5t-60 147.5t-155 57.5h-1280zM248 512h-166v410h166v512h2068q145 0 278 -57t229 -153t153 -229t57 -278t-57 -278t-153 -229t-229 -153t-278 -57h-2068v512z" />
    <glyph glyph-name="Emacron" unicode="&#x112;" horiz-adv-x="2826" 
d="M82 0v1434h2662v-369h-2015v-164h2015v-369h-2015v-163h2015v-369h-2662zM737 1597v410h1434v-410h-1434z" />
    <glyph glyph-name="emacron" unicode="&#x113;" horiz-adv-x="2826" 
d="M82 0v1434h2662v-369h-2015v-164h2015v-369h-2015v-163h2015v-369h-2662zM737 1597v410h1434v-410h-1434z" />
    <glyph glyph-name="Ebreve" unicode="&#x114;" horiz-adv-x="2826" 
d="M82 0v1434h2662v-369h-2015v-164h2015v-369h-2015v-163h2015v-369h-2662zM1454 1980q191 0 342.5 48t290.5 137l225 -332q-74 -49 -141 -85t-175 -79.5t-246.5 -67.5t-295.5 -24t-295.5 24t-246.5 67.5t-175 79.5t-141 85l225 332q139 -89 290.5 -137t342.5 -48z" />
    <glyph glyph-name="ebreve" unicode="&#x115;" horiz-adv-x="2826" 
d="M82 0v1434h2662v-369h-2015v-164h2015v-369h-2015v-163h2015v-369h-2662zM1454 1980q191 0 342.5 48t290.5 137l225 -332q-74 -49 -141 -85t-175 -79.5t-246.5 -67.5t-295.5 -24t-295.5 24t-246.5 67.5t-175 79.5t-141 85l225 332q139 -89 290.5 -137t342.5 -48z" />
    <glyph glyph-name="Edotaccent" unicode="&#x116;" horiz-adv-x="2826" 
d="M82 0v1434h2662v-369h-2015v-164h2015v-369h-2015v-163h2015v-369h-2662zM1085 1823q0 101 72.5 173t173.5 72h246q101 0 173.5 -72t72.5 -173t-72.5 -173.5t-173.5 -72.5h-246q-101 0 -173.5 72.5t-72.5 173.5z" />
    <glyph glyph-name="edotaccent" unicode="&#x117;" horiz-adv-x="2826" 
d="M82 0v1434h2662v-369h-2015v-164h2015v-369h-2015v-163h2015v-369h-2662zM1085 1823q0 101 72.5 173t173.5 72h246q101 0 173.5 -72t72.5 -173t-72.5 -173.5t-173.5 -72.5h-246q-101 0 -173.5 72.5t-72.5 173.5z" />
    <glyph glyph-name="Eogonek" unicode="&#x118;" horiz-adv-x="2826" 
d="M2064 0h-1982v1434h2662v-369h-2015v-164h2015v-369h-2015v-163h2015v-369h-391q-39 -36 -39 -82q0 -34 24 -58t58 -24h348v-368h-389q-79 0 -146 31t-110.5 81t-67.5 111.5t-24 124.5q0 101 57 184z" />
    <glyph glyph-name="eogonek" unicode="&#x119;" horiz-adv-x="2826" 
d="M2064 0h-1982v1434h2662v-369h-2015v-164h2015v-369h-2015v-163h2015v-369h-391q-39 -36 -39 -82q0 -34 24 -58t58 -24h348v-368h-389q-79 0 -146 31t-110.5 81t-67.5 111.5t-24 124.5q0 101 57 184z" />
    <glyph glyph-name="Ecaron" unicode="&#x11a;" horiz-adv-x="2826" 
d="M82 0v1434h2662v-369h-2015v-164h2015v-369h-2015v-163h2015v-369h-2662zM1167 1597l-532 492h573l246 -227l246 227h573l-532 -492h-574z" />
    <glyph glyph-name="ecaron" unicode="&#x11b;" horiz-adv-x="2826" 
d="M82 0v1434h2662v-369h-2015v-164h2015v-369h-2015v-163h2015v-369h-2662zM1167 1597l-532 492h573l246 -227l246 227h573l-532 -492h-574z" />
    <glyph glyph-name="Gcircumflex" unicode="&#x11c;" horiz-adv-x="2826" 
d="M2097 532v185h647v-717h-1945q-145 0 -278 57t-229 153t-153 229t-57 278t57 278t153 229t229 153t278 57h1945v-533h-1812q-87 0 -146 -50.5t-59 -133.5t59 -134t146 -51h1165zM696 1597l533 492h573l533 -492h-574l-245 228l-246 -228h-574z" />
    <glyph glyph-name="gcircumflex" unicode="&#x11d;" horiz-adv-x="2826" 
d="M2097 532v185h647v-717h-1945q-145 0 -278 57t-229 153t-153 229t-57 278t57 278t153 229t229 153t278 57h1945v-533h-1812q-87 0 -146 -50.5t-59 -133.5t59 -134t146 -51h1165zM696 1597l533 492h573l533 -492h-574l-245 228l-246 -228h-574z" />
    <glyph glyph-name="Gbreve" unicode="&#x11e;" horiz-adv-x="2826" 
d="M2097 532v185h647v-717h-1945q-145 0 -278 57t-229 153t-153 229t-57 278t57 278t153 229t229 153t278 57h1945v-533h-1812q-87 0 -146 -50.5t-59 -133.5t59 -134t146 -51h1165zM1516 1980q191 0 342 48t290 137l226 -332q-74 -49 -141 -85t-175 -79.5t-246.5 -67.5
t-295.5 -24t-295.5 24t-247 67.5t-175.5 79.5t-141 85l226 332q139 -89 290.5 -137t342.5 -48z" />
    <glyph glyph-name="gbreve" unicode="&#x11f;" horiz-adv-x="2826" 
d="M2097 532v185h647v-717h-1945q-145 0 -278 57t-229 153t-153 229t-57 278t57 278t153 229t229 153t278 57h1945v-533h-1812q-87 0 -146 -50.5t-59 -133.5t59 -134t146 -51h1165zM1516 1980q191 0 342 48t290 137l226 -332q-74 -49 -141 -85t-175 -79.5t-246.5 -67.5
t-295.5 -24t-295.5 24t-247 67.5t-175.5 79.5t-141 85l226 332q139 -89 290.5 -137t342.5 -48z" />
    <glyph glyph-name="Gdotaccent" unicode="&#x120;" horiz-adv-x="2826" 
d="M2097 532v185h647v-717h-1945q-145 0 -278 57t-229 153t-153 229t-57 278t57 278t153 229t229 153t278 57h1945v-533h-1812q-87 0 -146 -50.5t-59 -133.5t59 -134t146 -51h1165zM1147 1823q0 101 72.5 173t173.5 72h245q101 0 173.5 -72t72.5 -173t-72.5 -173.5
t-173.5 -72.5h-245q-101 0 -173.5 72.5t-72.5 173.5z" />
    <glyph glyph-name="gdotaccent" unicode="&#x121;" horiz-adv-x="2826" 
d="M2097 532v185h647v-717h-1945q-145 0 -278 57t-229 153t-153 229t-57 278t57 278t153 229t229 153t278 57h1945v-533h-1812q-87 0 -146 -50.5t-59 -133.5t59 -134t146 -51h1165zM1147 1823q0 101 72.5 173t173.5 72h245q101 0 173.5 -72t72.5 -173t-72.5 -173.5
t-173.5 -72.5h-245q-101 0 -173.5 72.5t-72.5 173.5z" />
    <glyph glyph-name="uni0122" unicode="&#x122;" horiz-adv-x="2826" 
d="M2097 532v185h647v-717h-1945q-145 0 -278 57t-229 153t-153 229t-57 278t57 278t153 229t229 153t278 57h1945v-533h-1812q-87 0 -146 -50.5t-59 -133.5t59 -134t146 -51h1165zM983 -655l209 491h647l-405 -491h-451z" />
    <glyph glyph-name="uni0123" unicode="&#x123;" horiz-adv-x="2826" 
d="M2097 532v185h647v-717h-1945q-145 0 -278 57t-229 153t-153 229t-57 278t57 278t153 229t229 153t278 57h1945v-533h-1812q-87 0 -146 -50.5t-59 -133.5t59 -134t146 -51h1165zM983 -655l209 491h647l-405 -491h-451z" />
    <glyph glyph-name="Hcircumflex" unicode="&#x124;" 
d="M82 0v1434h647v-471h1430v471h647v-1434h-647v471h-1430v-471h-647zM625 1597l532 492h574l532 -492h-573l-246 228l-246 -228h-573z" />
    <glyph glyph-name="hcircumflex" unicode="&#x125;" 
d="M82 0v1434h647v-471h1430v471h647v-1434h-647v471h-1430v-471h-647zM625 1597l532 492h574l532 -492h-573l-246 228l-246 -228h-573z" />
    <glyph glyph-name="Hbar" unicode="&#x126;" horiz-adv-x="3215" 
d="M246 844h-164v409h164v181h647v-471h1429v471h648v-181h163v-409h-163v-844h-648v471h-1429v-471h-647v844z" />
    <glyph glyph-name="hbar" unicode="&#x127;" horiz-adv-x="3215" 
d="M246 844h-164v409h164v181h647v-471h1429v471h648v-181h163v-409h-163v-844h-648v471h-1429v-471h-647v844z" />
    <glyph glyph-name="Itilde" unicode="&#x128;" horiz-adv-x="811" 
d="M82 0v1434h647v-1434h-647zM-106 1638l-44 -24l-200 346l82 51q178 111 370 111q106 0 222 -35l82 -27l178 -51q65 -18 123 -18q107 0 211 61l43 25l200 -346l-82 -52q-177 -110 -370 -110q-106 0 -222 35l-81 26l-179 51q-68 19 -123 19q-104 0 -210 -62z" />
    <glyph glyph-name="itilde" unicode="&#x129;" horiz-adv-x="811" 
d="M82 0v1434h647v-1434h-647zM-106 1638l-44 -24l-200 346l82 51q178 111 370 111q106 0 222 -35l82 -27l178 -51q65 -18 123 -18q107 0 211 61l43 25l200 -346l-82 -52q-177 -110 -370 -110q-106 0 -222 35l-81 26l-179 51q-68 19 -123 19q-104 0 -210 -62z" />
    <glyph glyph-name="Imacron" unicode="&#x12a;" horiz-adv-x="811" 
d="M82 0v1434h647v-1434h-647zM-311 1597v410h1433v-410h-1433z" />
    <glyph glyph-name="imacron" unicode="&#x12b;" horiz-adv-x="811" 
d="M82 0v1434h647v-1434h-647zM-311 1597v410h1433v-410h-1433z" />
    <glyph glyph-name="Ibreve" unicode="&#x12c;" horiz-adv-x="811" 
d="M82 0v1434h647v-1434h-647zM406 1980q191 0 342 48t290 137l226 -332q-74 -49 -141 -85t-175 -79.5t-246.5 -67.5t-295.5 -24t-295.5 24t-247 67.5t-175.5 79.5t-141 85l226 332q139 -89 290.5 -137t342.5 -48z" />
    <glyph glyph-name="ibreve" unicode="&#x12d;" horiz-adv-x="811" 
d="M82 0v1434h647v-1434h-647zM406 1980q191 0 342 48t290 137l226 -332q-74 -49 -141 -85t-175 -79.5t-246.5 -67.5t-295.5 -24t-295.5 24t-247 67.5t-175.5 79.5t-141 85l226 332q139 -89 290.5 -137t342.5 -48z" />
    <glyph glyph-name="Iogonek" unicode="&#x12e;" horiz-adv-x="811" 
d="M268 0h-186v1434h647v-1434h-172q-39 -36 -39 -82q0 -34 24 -58t58 -24h348v-368h-389q-79 0 -146 31t-110.5 81t-67.5 111.5t-24 124.5q0 101 57 184z" />
    <glyph glyph-name="iogonek" unicode="&#x12f;" horiz-adv-x="811" 
d="M268 0h-186v1434h647v-1434h-172q-39 -36 -39 -82q0 -34 24 -58t58 -24h348v-368h-389q-79 0 -146 31t-110.5 81t-67.5 111.5t-24 124.5q0 101 57 184z" />
    <glyph glyph-name="Idotaccent" unicode="&#x130;" horiz-adv-x="811" 
d="M82 0v1434h647v-1434h-647zM37 1823q0 101 72.5 173t173.5 72h245q101 0 173.5 -72t72.5 -173t-72.5 -173.5t-173.5 -72.5h-245q-101 0 -173.5 72.5t-72.5 173.5z" />
    <glyph glyph-name="dotlessi" unicode="&#x131;" horiz-adv-x="811" 
d="M82 0v1434h647v-1434h-647z" />
    <glyph glyph-name="IJ" unicode="&#x132;" horiz-adv-x="3493" 
d="M82 0v1434h647v-1434h-647zM893 0v717h647v-185h1020q85 0 145 60t60 145v697h647v-697q0 -195 -96 -364.5t-262 -271t-359 -101.5h-1802z" />
    <glyph glyph-name="ij" unicode="&#x133;" horiz-adv-x="3493" 
d="M82 0v1434h647v-1434h-647zM893 0v717h647v-185h1020q85 0 145 60t60 145v697h647v-697q0 -195 -96 -364.5t-262 -271t-359 -101.5h-1802z" />
    <glyph glyph-name="Jcircumflex" unicode="&#x134;" horiz-adv-x="2682" 
d="M1954 737v697h647v-697q0 -195 -96 -364.5t-262 -271t-359 -101.5h-1802v717h647v-185h1020q85 0 145 60t60 145zM1458 1597l533 492h573l533 -492h-574l-246 228l-245 -228h-574z" />
    <glyph glyph-name="jcircumflex" unicode="&#x135;" horiz-adv-x="2682" 
d="M1954 737v697h647v-697q0 -195 -96 -364.5t-262 -271t-359 -101.5h-1802v717h647v-185h1020q85 0 145 60t60 145zM1458 1597l533 492h573l533 -492h-574l-246 228l-245 -228h-574z" />
    <glyph glyph-name="uni0136" unicode="&#x136;" 
d="M82 0v1434h647v-787l1139 787h938l-1039 -717l1039 -717h-938l-570 393l-569 -393h-647zM748 -655l208 491h648l-406 -491h-450z" />
    <glyph glyph-name="uni0137" unicode="&#x137;" 
d="M82 0v1434h647v-787l1139 787h938l-1039 -717l1039 -717h-938l-570 393l-569 -393h-647zM748 -655l208 491h648l-406 -491h-450z" />
    <glyph glyph-name="kgreenlandic" unicode="&#x138;" 
d="M82 0v1434h647v-787l1139 787h938l-1039 -717l1039 -717h-938l-570 393l-569 -393h-647z" />
    <glyph glyph-name="Lacute" unicode="&#x139;" horiz-adv-x="2621" 
d="M82 0v1434h647v-942h1811v-492h-2458zM182 1597l209 492h647l-405 -492h-451z" />
    <glyph glyph-name="lacute" unicode="&#x13a;" horiz-adv-x="2621" 
d="M82 0v1434h647v-942h1811v-492h-2458zM182 1597l209 492h647l-405 -492h-451z" />
    <glyph glyph-name="uni013B" unicode="&#x13b;" horiz-adv-x="2621" 
d="M82 0v1434h647v-942h1811v-492h-2458zM778 -655l209 491h647l-405 -491h-451z" />
    <glyph glyph-name="uni013C" unicode="&#x13c;" horiz-adv-x="2621" 
d="M82 0v1434h647v-942h1811v-492h-2458zM778 -655l209 491h647l-405 -491h-451z" />
    <glyph glyph-name="Lcaron" unicode="&#x13d;" horiz-adv-x="2621" 
d="M82 0v1434h647v-942h1811v-492h-2458zM1683 942l209 492h648l-406 -492h-451z" />
    <glyph glyph-name="lcaron" unicode="&#x13e;" horiz-adv-x="2621" 
d="M82 0v1434h647v-942h1811v-492h-2458zM1683 942l209 492h648l-406 -492h-451z" />
    <glyph glyph-name="Ldot" unicode="&#x13f;" horiz-adv-x="2621" 
d="M82 0v1434h647v-942h1811v-492h-2458zM1147 942q0 101 72.5 173.5t173.5 72.5h245q101 0 173.5 -72.5t72.5 -173.5t-72.5 -173.5t-173.5 -72.5h-245q-101 0 -173.5 72.5t-72.5 173.5z" />
    <glyph glyph-name="ldot" unicode="&#x140;" horiz-adv-x="2621" 
d="M82 0v1434h647v-942h1811v-492h-2458zM1147 942q0 101 72.5 173.5t173.5 72.5h245q101 0 173.5 -72.5t72.5 -173.5t-72.5 -173.5t-173.5 -72.5h-245q-101 0 -173.5 72.5t-72.5 173.5z" />
    <glyph glyph-name="Lslash" unicode="&#x141;" horiz-adv-x="2779" 
d="M887 1229l155 90v-524l-155 -90v-213h1810v-492h-2457v330l-158 -90v524l158 90v580h647v-205z" />
    <glyph glyph-name="lslash" unicode="&#x142;" horiz-adv-x="2779" 
d="M887 1229l155 90v-524l-155 -90v-213h1810v-492h-2457v330l-158 -90v524l158 90v580h647v-205z" />
    <glyph glyph-name="Nacute" unicode="&#x143;" 
d="M82 0v1434h647l1430 -820v820h647v-1434h-647l-1430 819v-819h-647zM1221 1597l209 492h647l-406 -492h-450z" />
    <glyph glyph-name="nacute" unicode="&#x144;" 
d="M82 0v1434h647l1430 -820v820h647v-1434h-647l-1430 819v-819h-647zM1221 1597l209 492h647l-406 -492h-450z" />
    <glyph glyph-name="uni0145" unicode="&#x145;" 
d="M82 0v1434h647l1430 -820v820h647v-1434h-647l-1430 819v-819h-647zM911 -655l209 491h647l-405 -491h-451z" />
    <glyph glyph-name="uni0146" unicode="&#x146;" 
d="M82 0v1434h647l1430 -820v820h647v-1434h-647l-1430 819v-819h-647zM911 -655l209 491h647l-405 -491h-451z" />
    <glyph glyph-name="Ncaron" unicode="&#x147;" 
d="M82 0v1434h647l1430 -820v820h647v-1434h-647l-1430 819v-819h-647zM1157 1597l-532 492h573l246 -227l246 227h573l-532 -492h-574z" />
    <glyph glyph-name="ncaron" unicode="&#x148;" 
d="M82 0v1434h647l1430 -820v820h647v-1434h-647l-1430 819v-819h-647zM1157 1597l-532 492h573l246 -227l246 227h573l-532 -492h-574z" />
    <glyph glyph-name="napostrophe" unicode="&#x149;" horiz-adv-x="3807" 
d="M1001 0v1434h648l1429 -820v820h647v-1434h-647l-1429 819v-819h-648zM82 942l209 492h647l-406 -492h-450z" />
    <glyph glyph-name="Eng" unicode="&#x14a;" 
d="M82 0v1434h647l1430 -820v820h647v-1434q0 -294 -147.5 -433.5t-446.5 -139.5h-758v368h500q85 0 145 60t60 145l-1430 819v-819h-647z" />
    <glyph glyph-name="eng" unicode="&#x14b;" 
d="M82 0v1434h647l1430 -820v820h647v-1434q0 -294 -147.5 -433.5t-446.5 -139.5h-758v368h500q85 0 145 60t60 145l-1430 819v-819h-647z" />
    <glyph glyph-name="Omacron" unicode="&#x14c;" horiz-adv-x="3092" 
d="M2161 922h-1229q-85 0 -145 -60t-60 -145t60 -145t145 -60h1229q85 0 144.5 60t59.5 145t-59.5 145t-144.5 60zM799 1454h1495q193 0 359 -101.5t262 -271t96 -364.5t-96 -364.5t-262 -271t-359 -101.5h-1495q-193 0 -359 101.5t-262 271t-96 364.5t96 364.5t262 271
t359 101.5zM2263 1597h-1434v410h1434v-410z" />
    <glyph glyph-name="omacron" unicode="&#x14d;" horiz-adv-x="3092" 
d="M2161 922h-1229q-85 0 -145 -60t-60 -145t60 -145t145 -60h1229q85 0 144.5 60t59.5 145t-59.5 145t-144.5 60zM799 1454h1495q193 0 359 -101.5t262 -271t96 -364.5t-96 -364.5t-262 -271t-359 -101.5h-1495q-193 0 -359 101.5t-262 271t-96 364.5t96 364.5t262 271
t359 101.5zM2263 1597h-1434v410h1434v-410z" />
    <glyph glyph-name="Obreve" unicode="&#x14e;" horiz-adv-x="3092" 
d="M799 1454h1495q193 0 359 -101.5t262 -271t96 -364.5t-96 -364.5t-262 -271t-359 -101.5h-1495q-193 0 -359 101.5t-262 271t-96 364.5t96 364.5t262 271t359 101.5zM2161 922h-1229q-85 0 -145 -60t-60 -145t60 -145t145 -60h1229q85 0 144.5 60t59.5 145t-59.5 145
t-144.5 60zM1546 1980q191 0 342.5 48t290.5 137l225 -332q-74 -49 -141 -85t-175 -79.5t-246.5 -67.5t-295.5 -24t-295.5 24t-246.5 67.5t-175 79.5t-141 85l225 332q139 -89 290.5 -137t342.5 -48z" />
    <glyph glyph-name="obreve" unicode="&#x14f;" horiz-adv-x="3092" 
d="M799 1454h1495q193 0 359 -101.5t262 -271t96 -364.5t-96 -364.5t-262 -271t-359 -101.5h-1495q-193 0 -359 101.5t-262 271t-96 364.5t96 364.5t262 271t359 101.5zM2161 922h-1229q-85 0 -145 -60t-60 -145t60 -145t145 -60h1229q85 0 144.5 60t59.5 145t-59.5 145
t-144.5 60zM1546 1980q191 0 342.5 48t290.5 137l225 -332q-74 -49 -141 -85t-175 -79.5t-246.5 -67.5t-295.5 -24t-295.5 24t-246.5 67.5t-175 79.5t-141 85l225 332q139 -89 290.5 -137t342.5 -48z" />
    <glyph glyph-name="Ohungarumlaut" unicode="&#x150;" horiz-adv-x="3092" 
d="M2161 922h-1229q-85 0 -145 -60t-60 -145t60 -145t145 -60h1229q85 0 144.5 60t59.5 145t-59.5 145t-144.5 60zM799 1454h1495q193 0 359 -101.5t262 -271t96 -364.5t-96 -364.5t-262 -271t-359 -101.5h-1495q-193 0 -359 101.5t-262 271t-96 364.5t96 364.5t262 271
t359 101.5zM1409 1597h-451l209 492h648zM2138 1597h-450l208 492h648z" />
    <glyph glyph-name="ohungarumlaut" unicode="&#x151;" horiz-adv-x="3092" 
d="M2161 922h-1229q-85 0 -145 -60t-60 -145t60 -145t145 -60h1229q85 0 144.5 60t59.5 145t-59.5 145t-144.5 60zM799 1454h1495q193 0 359 -101.5t262 -271t96 -364.5t-96 -364.5t-262 -271t-359 -101.5h-1495q-193 0 -359 101.5t-262 271t-96 364.5t96 364.5t262 271
t359 101.5zM1409 1597h-451l209 492h648zM2138 1597h-450l208 492h648z" />
    <glyph glyph-name="OE" unicode="&#x152;" horiz-adv-x="5085" 
d="M2161 922h-1229q-85 0 -145 -60t-60 -145t60 -145t145 -60h1229q85 0 144.5 60t59.5 145t-59.5 145t-144.5 60zM5003 532h-2015v-163h2015v-369h-4204q-145 0 -278 57t-229 153t-153 229t-57 278t57 278t153 229t229 153t278 57h4204v-369h-2015v-164h2015v-369z" />
    <glyph glyph-name="oe" unicode="&#x153;" horiz-adv-x="5085" 
d="M2161 922h-1229q-85 0 -145 -60t-60 -145t60 -145t145 -60h1229q85 0 144.5 60t59.5 145t-59.5 145t-144.5 60zM5003 532h-2015v-163h2015v-369h-4204q-145 0 -278 57t-229 153t-153 229t-57 278t57 278t153 229t229 153t278 57h4204v-369h-2015v-164h2015v-369z" />
    <glyph glyph-name="Racute" unicode="&#x154;" 
d="M2068 942h-1339v-164h1339q43 0 67 22t24 60t-24 60t-67 22zM729 0h-647v1434h2150q130 0 240 -49t182 -130.5t112 -184t40 -210.5q0 -193 -118.5 -353t-317.5 -206l436 -301h-836l-416 287h-825v-287zM1569 1597h-451l209 492h647z" />
    <glyph glyph-name="racute" unicode="&#x155;" 
d="M2068 942h-1339v-164h1339q43 0 67 22t24 60t-24 60t-67 22zM729 0h-647v1434h2150q130 0 240 -49t182 -130.5t112 -184t40 -210.5q0 -193 -118.5 -353t-317.5 -206l436 -301h-836l-416 287h-825v-287zM1569 1597h-451l209 492h647z" />
    <glyph glyph-name="uni0156" unicode="&#x156;" 
d="M2068 942h-1339v-164h1339q43 0 67 22t24 60t-24 60t-67 22zM729 0h-647v1434h2150q130 0 240 -49t182 -130.5t112 -184t40 -210.5q0 -193 -118.5 -353t-317.5 -206l436 -301h-836l-416 287h-825v-287zM1260 -655h-451l209 491h647z" />
    <glyph glyph-name="uni0157" unicode="&#x157;" 
d="M2068 942h-1339v-164h1339q43 0 67 22t24 60t-24 60t-67 22zM729 0h-647v1434h2150q130 0 240 -49t182 -130.5t112 -184t40 -210.5q0 -193 -118.5 -353t-317.5 -206l436 -301h-836l-416 287h-825v-287zM1260 -655h-451l209 491h647z" />
    <glyph glyph-name="Rcaron" unicode="&#x158;" 
d="M2068 942h-1339v-164h1339q43 0 67 22t24 60t-24 60t-67 22zM729 0h-647v1434h2150q130 0 240 -49t182 -130.5t112 -184t40 -210.5q0 -193 -118.5 -353t-317.5 -206l436 -301h-836l-416 287h-825v-287zM1628 1597h-573l-533 492h574l245 -227l246 227h574z" />
    <glyph glyph-name="rcaron" unicode="&#x159;" 
d="M2068 942h-1339v-164h1339q43 0 67 22t24 60t-24 60t-67 22zM729 0h-647v1434h2150q130 0 240 -49t182 -130.5t112 -184t40 -210.5q0 -193 -118.5 -353t-317.5 -206l436 -301h-836l-416 287h-825v-287zM1628 1597h-573l-533 492h574l245 -227l246 227h574z" />
    <glyph glyph-name="Sacute" unicode="&#x15a;" horiz-adv-x="2908" 
d="M528 614q-206 0 -326 110t-120 290q0 182 121 301t325 119h2216v-492h-1947q-33 0 -50.5 -19.5t-17.5 -41.5q0 -23 17.5 -42.5t50.5 -19.5h1583q207 0 326.5 -110t119.5 -289q0 -182 -121 -301t-325 -119h-2216v492h1947q33 0 50.5 19.5t17.5 41.5t-17.5 41.5t-50.5 19.5
h-1583zM1231 1597l209 492h647l-406 -492h-450z" />
    <glyph glyph-name="sacute" unicode="&#x15b;" horiz-adv-x="2908" 
d="M528 614q-206 0 -326 110t-120 290q0 182 121 301t325 119h2216v-492h-1947q-33 0 -50.5 -19.5t-17.5 -41.5q0 -23 17.5 -42.5t50.5 -19.5h1583q207 0 326.5 -110t119.5 -289q0 -182 -121 -301t-325 -119h-2216v492h1947q33 0 50.5 19.5t17.5 41.5t-17.5 41.5t-50.5 19.5
h-1583zM1231 1597l209 492h647l-406 -492h-450z" />
    <glyph glyph-name="Scircumflex" unicode="&#x15c;" horiz-adv-x="2908" 
d="M528 614q-206 0 -326 110t-120 290q0 182 121 301t325 119h2216v-492h-1947q-33 0 -50.5 -19.5t-17.5 -41.5q0 -23 17.5 -42.5t50.5 -19.5h1583q207 0 326.5 -110t119.5 -289q0 -182 -121 -301t-325 -119h-2216v492h1947q33 0 50.5 19.5t17.5 41.5t-17.5 41.5t-50.5 19.5
h-1583zM635 1597l532 492h574l532 -492h-573l-246 228l-246 -228h-573z" />
    <glyph glyph-name="scircumflex" unicode="&#x15d;" horiz-adv-x="2908" 
d="M528 614q-206 0 -326 110t-120 290q0 182 121 301t325 119h2216v-492h-1947q-33 0 -50.5 -19.5t-17.5 -41.5q0 -23 17.5 -42.5t50.5 -19.5h1583q207 0 326.5 -110t119.5 -289q0 -182 -121 -301t-325 -119h-2216v492h1947q33 0 50.5 19.5t17.5 41.5t-17.5 41.5t-50.5 19.5
h-1583zM635 1597l532 492h574l532 -492h-573l-246 228l-246 -228h-573z" />
    <glyph glyph-name="Scedilla" unicode="&#x15e;" horiz-adv-x="2908" 
d="M1485 -778h-369v368h410q34 0 58 24t24 58t-24 58t-58 24h-410l199 246h-1151v492h1947q33 0 50.5 19.5t17.5 41.5t-17.5 41.5t-50.5 19.5h-1583q-206 0 -326 110t-120 290q0 182 121 301t325 119h2216v-492h-1947q-33 0 -50.5 -19.5t-17.5 -41.5q0 -23 17.5 -42.5
t50.5 -19.5h1583q207 0 326.5 -110t119.5 -289q0 -182 -121 -301t-325 -119h-772l-72 -82q68 -5 123.5 -28.5t90.5 -57.5t59 -77t34 -84.5t10 -82.5q0 -44 -10 -90t-36.5 -96.5t-66.5 -89.5t-106 -64.5t-149 -25.5z" />
    <glyph glyph-name="scedilla" unicode="&#x15f;" horiz-adv-x="2908" 
d="M1485 -778h-369v368h410q34 0 58 24t24 58t-24 58t-58 24h-410l199 246h-1151v492h1947q33 0 50.5 19.5t17.5 41.5t-17.5 41.5t-50.5 19.5h-1583q-206 0 -326 110t-120 290q0 182 121 301t325 119h2216v-492h-1947q-33 0 -50.5 -19.5t-17.5 -41.5q0 -23 17.5 -42.5
t50.5 -19.5h1583q207 0 326.5 -110t119.5 -289q0 -182 -121 -301t-325 -119h-772l-72 -82q68 -5 123.5 -28.5t90.5 -57.5t59 -77t34 -84.5t10 -82.5q0 -44 -10 -90t-36.5 -96.5t-66.5 -89.5t-106 -64.5t-149 -25.5z" />
    <glyph glyph-name="Scaron" unicode="&#x160;" horiz-adv-x="2908" 
d="M528 614q-206 0 -326 110t-120 290q0 182 121 301t325 119h2216v-492h-1947q-33 0 -50.5 -19.5t-17.5 -41.5q0 -23 17.5 -42.5t50.5 -19.5h1583q207 0 326.5 -110t119.5 -289q0 -182 -121 -301t-325 -119h-2216v492h1947q33 0 50.5 19.5t17.5 41.5t-17.5 41.5t-50.5 19.5
h-1583zM1167 1597l-532 492h573l246 -227l246 227h573l-532 -492h-574z" />
    <glyph glyph-name="scaron" unicode="&#x161;" horiz-adv-x="2908" 
d="M528 614q-206 0 -326 110t-120 290q0 182 121 301t325 119h2216v-492h-1947q-33 0 -50.5 -19.5t-17.5 -41.5q0 -23 17.5 -42.5t50.5 -19.5h1583q207 0 326.5 -110t119.5 -289q0 -182 -121 -301t-325 -119h-2216v492h1947q33 0 50.5 19.5t17.5 41.5t-17.5 41.5t-50.5 19.5
h-1583zM1167 1597l-532 492h573l246 -227l246 227h573l-532 -492h-574z" />
    <glyph glyph-name="uni0162" unicode="&#x162;" 
d="M1470 -778h-368v368h409q34 0 58 24t24 58t-24 58t-58 24h-409l198 246h-182v942h-1036v492h2724v-492h-1041v-942h-172l-71 -82q68 -5 123.5 -28.5t90.5 -57.5t59 -77t34 -84.5t10 -82.5q0 -44 -10 -90t-37 -96.5t-67 -89.5t-106 -64.5t-149 -25.5z" />
    <glyph glyph-name="uni0163" unicode="&#x163;" 
d="M1470 -778h-368v368h409q34 0 58 24t24 58t-24 58t-58 24h-409l198 246h-182v942h-1036v492h2724v-492h-1041v-942h-172l-71 -82q68 -5 123.5 -28.5t90.5 -57.5t59 -77t34 -84.5t10 -82.5q0 -44 -10 -90t-37 -96.5t-67 -89.5t-106 -64.5t-149 -25.5z" />
    <glyph glyph-name="Tcaron" unicode="&#x164;" 
d="M1118 0v942h-1036v492h2724v-492h-1041v-942h-647zM1157 1597l-532 492h573l246 -227l246 227h573l-532 -492h-574z" />
    <glyph glyph-name="tcaron" unicode="&#x165;" 
d="M1118 0v942h-1036v492h2724v-492h-1041v-942h-647zM1157 1597l-532 492h573l246 -227l246 227h573l-532 -492h-574z" />
    <glyph glyph-name="Tbar" unicode="&#x166;" 
d="M1118 289h-162v409h162v244h-1036v492h2724v-492h-1041v-244h166v-409h-166v-289h-647v289z" />
    <glyph glyph-name="tbar" unicode="&#x167;" 
d="M1118 289h-162v409h162v244h-1036v492h2724v-492h-1041v-244h166v-409h-166v-289h-647v289z" />
    <glyph glyph-name="Utilde" unicode="&#x168;" 
d="M2806 1434v-717q0 -195 -96 -364.5t-262 -271t-359 -101.5h-1290q-193 0 -359 101.5t-262 271t-96 364.5v717h647v-717q0 -85 60 -145t145 -60h1020q85 0 145 60t60 145v717h647zM932 1638l-43 -24l-201 346l82 51q178 111 371 111q105 0 221 -35l82 -27l178 -51
q64 -18 123 -18q107 0 211 61l43 25l201 -346l-82 -52q-177 -110 -371 -110q-105 0 -221 35l-82 26l-178 51q-68 19 -123 19q-105 0 -211 -62z" />
    <glyph glyph-name="utilde" unicode="&#x169;" 
d="M956 1638l-43 -24l-200 346l82 51q178 111 370 111q105 0 221 -35l82 -27l179 -51q65 -18 122 -18q107 0 211 61l43 25l201 -346l-82 -52q-177 -110 -370 -110q-106 0 -222 35l-82 26l-178 51q-68 19 -123 19q-105 0 -211 -62zM2806 1434v-717q0 -195 -96 -364.5
t-262 -271t-359 -101.5h-1290q-193 0 -359 101.5t-262 271t-96 364.5v717h647v-717q0 -85 60 -145t145 -60h1020q85 0 145 60t60 145v717h647z" />
    <glyph glyph-name="Umacron" unicode="&#x16a;" 
d="M2806 1434v-717q0 -195 -96 -364.5t-262 -271t-359 -101.5h-1290q-193 0 -359 101.5t-262 271t-96 364.5v717h647v-717q0 -85 60 -145t145 -60h1020q85 0 145 60t60 145v717h647zM727 1597v410h1434v-410h-1434z" />
    <glyph glyph-name="umacron" unicode="&#x16b;" 
d="M2806 1434v-717q0 -195 -96 -364.5t-262 -271t-359 -101.5h-1290q-193 0 -359 101.5t-262 271t-96 364.5v717h647v-717q0 -85 60 -145t145 -60h1020q85 0 145 60t60 145v717h647zM727 1597v410h1434v-410h-1434z" />
    <glyph glyph-name="Ubreve" unicode="&#x16c;" 
d="M2806 1434v-717q0 -195 -96 -364.5t-262 -271t-359 -101.5h-1290q-193 0 -359 101.5t-262 271t-96 364.5v717h647v-717q0 -85 60 -145t145 -60h1020q85 0 145 60t60 145v717h647zM1444 1980q191 0 342.5 48t290.5 137l225 -332q-74 -49 -141 -85t-175 -79.5t-246.5 -67.5
t-295.5 -24t-295.5 24t-246.5 67.5t-175 79.5t-141 85l225 332q139 -89 290.5 -137t342.5 -48z" />
    <glyph glyph-name="ubreve" unicode="&#x16d;" 
d="M2806 1434v-717q0 -195 -96 -364.5t-262 -271t-359 -101.5h-1290q-193 0 -359 101.5t-262 271t-96 364.5v717h647v-717q0 -85 60 -145t145 -60h1020q85 0 145 60t60 145v717h647zM1444 1980q191 0 342.5 48t290.5 137l225 -332q-74 -49 -141 -85t-175 -79.5t-246.5 -67.5
t-295.5 -24t-295.5 24t-246.5 67.5t-175 79.5t-141 85l225 332q139 -89 290.5 -137t342.5 -48z" />
    <glyph glyph-name="Uring" unicode="&#x16e;" 
d="M1116 1823q0 -34 24 -58t58 -24h492q34 0 58 24t24 58t-24 58t-58 24h-492q-34 0 -58 -24t-24 -58zM2159 1434h647v-717q0 -195 -96 -364.5t-262 -271t-359 -101.5h-1290q-193 0 -359 101.5t-262 271t-96 364.5v717h647v-717q0 -85 60 -145t145 -60h1020q85 0 145 60
t60 145v717zM543 1823q0 101 72 173t173 72h1311q101 0 173.5 -72t72.5 -173t-72.5 -173.5t-173.5 -72.5h-1311q-101 0 -173 72.5t-72 173.5z" />
    <glyph glyph-name="uring" unicode="&#x16f;" 
d="M1116 1823q0 -34 24 -58t58 -24h492q34 0 58 24t24 58t-24 58t-58 24h-492q-34 0 -58 -24t-24 -58zM2159 1434h647v-717q0 -195 -96 -364.5t-262 -271t-359 -101.5h-1290q-193 0 -359 101.5t-262 271t-96 364.5v717h647v-717q0 -85 60 -145t145 -60h1020q85 0 145 60
t60 145v717zM543 1823q0 101 72 173t173 72h1311q101 0 173.5 -72t72.5 -173t-72.5 -173.5t-173.5 -72.5h-1311q-101 0 -173 72.5t-72 173.5z" />
    <glyph glyph-name="Uhungarumlaut" unicode="&#x170;" 
d="M2806 1434v-717q0 -195 -96 -364.5t-262 -271t-359 -101.5h-1290q-193 0 -359 101.5t-262 271t-96 364.5v717h647v-717q0 -85 60 -145t145 -60h1020q85 0 145 60t60 145v717h647zM856 1597l209 492h647l-405 -492h-451zM1585 1597l209 492h647l-405 -492h-451z" />
    <glyph glyph-name="uhungarumlaut" unicode="&#x171;" 
d="M2806 1434v-717q0 -195 -96 -364.5t-262 -271t-359 -101.5h-1290q-193 0 -359 101.5t-262 271t-96 364.5v717h647v-717q0 -85 60 -145t145 -60h1020q85 0 145 60t60 145v717h647zM856 1597l209 492h647l-405 -492h-451zM1585 1597l209 492h647l-405 -492h-451z" />
    <glyph glyph-name="Uogonek" unicode="&#x172;" 
d="M1292 -20h-493q-193 0 -359 101.5t-262 271t-96 364.5v717h647v-717q0 -85 60 -145t145 -60h1020q85 0 145 60t60 145v717h647v-717q0 -195 -96 -364.5t-262 -271t-359 -101.5h-512q-21 -27 -21 -62q0 -34 24 -58t58 -24h349v-368h-390q-79 0 -146 31t-110.5 81
t-67.5 111.5t-24 124.5q0 89 43 164z" />
    <glyph glyph-name="uogonek" unicode="&#x173;" 
d="M1292 -20h-493q-193 0 -359 101.5t-262 271t-96 364.5v717h647v-717q0 -85 60 -145t145 -60h1020q85 0 145 60t60 145v717h647v-717q0 -195 -96 -364.5t-262 -271t-359 -101.5h-512q-21 -27 -21 -62q0 -34 24 -58t58 -24h349v-368h-390q-79 0 -146 31t-110.5 81
t-67.5 111.5t-24 124.5q0 89 43 164z" />
    <glyph glyph-name="Wcircumflex" unicode="&#x174;" horiz-adv-x="4272" 
d="M2136 203l-164 -203h-729l-1161 1434h729l797 -983l164 202l-633 781h729l268 -332l268 332h729l-632 -781l163 -202l797 983h729l-1161 -1434h-729zM1317 1597l532 492h574l532 -492h-573l-246 228l-246 -228h-573z" />
    <glyph glyph-name="wcircumflex" unicode="&#x175;" horiz-adv-x="4272" 
d="M2136 203l-164 -203h-729l-1161 1434h729l797 -983l164 202l-633 781h729l268 -332l268 332h729l-632 -781l163 -202l797 983h729l-1161 -1434h-729zM1317 1597l532 492h574l532 -492h-573l-246 228l-246 -228h-573z" />
    <glyph glyph-name="Ycircumflex" unicode="&#x176;" horiz-adv-x="3215" 
d="M1284 0v492l-1202 942h854l672 -529l671 529h854l-1202 -942v-492h-647zM788 1597l533 492h573l533 -492h-574l-245 228l-246 -228h-574z" />
    <glyph glyph-name="ycircumflex" unicode="&#x177;" horiz-adv-x="3215" 
d="M1284 0v492l-1202 942h854l672 -529l671 529h854l-1202 -942v-492h-647zM788 1597l533 492h573l533 -492h-574l-245 228l-246 -228h-574z" />
    <glyph glyph-name="Ydieresis" unicode="&#x178;" horiz-adv-x="3215" 
d="M1284 0v492l-1202 942h854l672 -529l671 529h854l-1202 -942v-492h-647zM748 1823q0 101 72 173t173 72h246q101 0 173.5 -72t72.5 -173t-72.5 -173.5t-173.5 -72.5h-246q-101 0 -173 72.5t-72 173.5zM1731 1823q0 101 72 173t173 72h246q101 0 173.5 -72t72.5 -173
t-72.5 -173.5t-173.5 -72.5h-246q-101 0 -173 72.5t-72 173.5z" />
    <glyph glyph-name="Zacute" unicode="&#x179;" horiz-adv-x="2723" 
d="M82 492l1429 450h-1429v492h2560v-492l-1430 -450h1430v-492h-2560v492zM1139 1597l209 492h647l-406 -492h-450z" />
    <glyph glyph-name="zacute" unicode="&#x17a;" horiz-adv-x="2723" 
d="M82 492l1429 450h-1429v492h2560v-492l-1430 -450h1430v-492h-2560v492zM1139 1597l209 492h647l-406 -492h-450z" />
    <glyph glyph-name="Zdotaccent" unicode="&#x17b;" horiz-adv-x="2723" 
d="M82 492l1429 450h-1429v492h2560v-492l-1430 -450h1430v-492h-2560v492zM993 1823q0 101 72.5 173t173.5 72h246q101 0 173.5 -72t72.5 -173t-72.5 -173.5t-173.5 -72.5h-246q-101 0 -173.5 72.5t-72.5 173.5z" />
    <glyph glyph-name="zdotaccent" unicode="&#x17c;" horiz-adv-x="2723" 
d="M82 492l1429 450h-1429v492h2560v-492l-1430 -450h1430v-492h-2560v492zM993 1823q0 101 72.5 173t173.5 72h246q101 0 173.5 -72t72.5 -173t-72.5 -173.5t-173.5 -72.5h-246q-101 0 -173.5 72.5t-72.5 173.5z" />
    <glyph glyph-name="Zcaron" unicode="&#x17d;" horiz-adv-x="2723" 
d="M82 492l1429 450h-1429v492h2560v-492l-1430 -450h1430v-492h-2560v492zM1075 1597l-532 492h573l246 -227l246 227h573l-532 -492h-574z" />
    <glyph glyph-name="zcaron" unicode="&#x17e;" horiz-adv-x="2723" 
d="M82 492l1429 450h-1429v492h2560v-492l-1430 -450h1430v-492h-2560v492zM1075 1597l-532 492h573l246 -227l246 227h573l-532 -492h-574z" />
    <glyph glyph-name="uni0218" unicode="&#x218;" horiz-adv-x="2908" 
d="M528 614q-206 0 -326 110t-120 290q0 182 121 301t325 119h2216v-492h-1947q-33 0 -50.5 -19.5t-17.5 -41.5q0 -23 17.5 -42.5t50.5 -19.5h1583q207 0 326.5 -110t119.5 -289q0 -182 -121 -301t-325 -119h-2216v492h1947q33 0 50.5 19.5t17.5 41.5t-17.5 41.5t-50.5 19.5
h-1583zM819 -655l209 491h647l-405 -491h-451z" />
    <glyph glyph-name="uni0219" unicode="&#x219;" horiz-adv-x="2908" 
d="M528 614q-206 0 -326 110t-120 290q0 182 121 301t325 119h2216v-492h-1947q-33 0 -50.5 -19.5t-17.5 -41.5q0 -23 17.5 -42.5t50.5 -19.5h1583q207 0 326.5 -110t119.5 -289q0 -182 -121 -301t-325 -119h-2216v492h1947q33 0 50.5 19.5t17.5 41.5t-17.5 41.5t-50.5 19.5
h-1583zM819 -655l209 491h647l-405 -491h-451z" />
    <glyph glyph-name="uni021A" unicode="&#x21a;" 
d="M1118 0v942h-1036v492h2724v-492h-1041v-942h-647zM907 -655l209 491h647l-405 -491h-451z" />
    <glyph glyph-name="uni021B" unicode="&#x21b;" 
d="M1118 0v942h-1036v492h2724v-492h-1041v-942h-647zM907 -655l209 491h647l-405 -491h-451z" />
    <glyph glyph-name="circumflex" unicode="&#x2c6;" horiz-adv-x="1802" 
d="M82 1597l532 492h574l532 -492h-573l-246 228l-246 -228h-573z" />
    <glyph glyph-name="caron" unicode="&#x2c7;" horiz-adv-x="1802" 
d="M614 1597l-532 492h573l246 -227l246 227h573l-532 -492h-574z" />
    <glyph glyph-name="breve" unicode="&#x2d8;" horiz-adv-x="1880" 
d="M940 1980q191 0 342.5 48t290.5 137l225 -332q-74 -49 -141 -85t-175 -79.5t-246.5 -67.5t-295.5 -24t-295.5 24t-246.5 67.5t-175 79.5t-141 85l225 332q139 -89 290.5 -137t342.5 -48z" />
    <glyph glyph-name="dotaccent" unicode="&#x2d9;" horiz-adv-x="901" 
d="M82 1823q0 101 72.5 173t173.5 72h245q101 0 173.5 -72t72.5 -173t-72.5 -173.5t-173.5 -72.5h-245q-101 0 -173.5 72.5t-72.5 173.5z" />
    <glyph glyph-name="ring" unicode="&#x2da;" horiz-adv-x="1966" 
d="M82 1823q0 101 72.5 173t173.5 72h1310q101 0 173.5 -72t72.5 -173t-72.5 -173.5t-173.5 -72.5h-1310q-101 0 -173.5 72.5t-72.5 173.5zM655 1823q0 -34 24 -58t58 -24h492q34 0 58 24t24 58t-24 58t-58 24h-492q-34 0 -58 -24t-24 -58z" />
    <glyph glyph-name="ogonek" unicode="&#x2db;" horiz-adv-x="901" 
d="M154 20h301q-66 -43 -66 -102q0 -34 24 -58t58 -24h348v-368h-389q-79 0 -146 31t-110.5 81t-67.5 111.5t-24 124.5q0 112 72 204z" />
    <glyph glyph-name="tilde" unicode="&#x2dc;" horiz-adv-x="1675" 
d="M326 1638l-43 -24l-201 346l82 51q178 111 371 111q105 0 221 -35l82 -27l178 -51q65 -18 123 -18q107 0 211 61l43 25l200 -346l-82 -52q-177 -110 -370 -110q-105 0 -221 35l-82 26l-179 51q-68 19 -122 19q-105 0 -211 -62z" />
    <glyph glyph-name="hungarumlaut" unicode="&#x2dd;" horiz-adv-x="1748" 
d="M82 1597l209 492h647l-406 -492h-450zM811 1597l209 492h647l-405 -492h-451z" />
    <glyph glyph-name="acutecomb" unicode="&#x301;" horiz-adv-x="1019" 
d="M82 942l209 492h647l-406 -492h-450z" />
    <glyph glyph-name="uni0326" unicode="&#x326;" horiz-adv-x="1019" 
d="M82 -655l209 491h647l-406 -491h-450z" />
    <glyph glyph-name="uni0335" unicode="&#x335;" horiz-adv-x="1138" 
d="M82 512v410h975v-410h-975z" />
    <glyph glyph-name="uni0336" unicode="&#x336;" horiz-adv-x="3215" 
d="M2478 1253h655v-409h-655v409zM82 844v409h655v-409h-655z" />
    <glyph glyph-name="uni0337" unicode="&#x337;" horiz-adv-x="1124" 
d="M1042 1231v-524l-960 -555v524z" />
    <glyph glyph-name="uni0338" unicode="&#x338;" horiz-adv-x="2156" 
d="M1509 1597l566 2l-1428 -1763h-565z" />
    <glyph glyph-name="uni0401" unicode="&#x401;" horiz-adv-x="2826" 
d="M82 0v1434h2662v-369h-2015v-164h2015v-369h-2015v-163h2015v-369h-2662zM594 1823q0 101 72.5 173t173.5 72h245q101 0 173.5 -72t72.5 -173t-72.5 -173.5t-173.5 -72.5h-245q-101 0 -173.5 72.5t-72.5 173.5zM1577 1823q0 101 72.5 173t173.5 72h245q101 0 173.5 -72
t72.5 -173t-72.5 -173.5t-173.5 -72.5h-245q-101 0 -173.5 72.5t-72.5 173.5z" />
    <glyph glyph-name="uni0410" unicode="&#x410;" horiz-adv-x="3215" 
d="M1608 983l-299 -369h598zM1243 1434h729l1161 -1434h-729l-166 205h-1261l-166 -205h-729z" />
    <glyph glyph-name="uni0411" unicode="&#x411;" 
d="M729 369h1339q43 0 67 22t24 60t-24 59.5t-67 21.5h-1339v-163zM2294 0h-2212v1434h2662v-369h-2015v-164h1565q226 0 369 -125.5t143 -324.5t-143 -325t-369 -126z" />
    <glyph glyph-name="uni0412" unicode="&#x412;" 
d="M729 532v-163h1339q43 0 67 22t24 60t-24 59.5t-67 21.5h-1339zM2068 1065h-1339v-164h1339q43 0 67 22t24 60t-24 60t-67 22zM2294 0h-2212v1434h2212q232 0 372 -107.5t140 -302.5q0 -208 -178 -307q178 -99 178 -307q0 -195 -140 -302.5t-372 -107.5z" />
    <glyph glyph-name="uni0413" unicode="&#x413;" horiz-adv-x="2621" 
d="M82 0v1434h2458v-492h-1811v-942h-647z" />
    <glyph glyph-name="uni0414" unicode="&#x414;" horiz-adv-x="3317" 
d="M1141 756l-123 -264h1407v450h-993q-206 0 -291 -186zM3236 -164h-647v164h-1860v-164h-647v656h229l207 456q224 486 754 486h1800v-942h164v-656z" />
    <glyph glyph-name="uni0415" unicode="&#x415;" horiz-adv-x="2826" 
d="M82 0v1434h2662v-369h-2015v-164h2015v-369h-2015v-163h2015v-369h-2662z" />
    <glyph glyph-name="uni0416" unicode="&#x416;" horiz-adv-x="3686" 
d="M1520 985v449h647v-449l573 449h864l-915 -717l915 -717h-864l-573 449v-449h-647v449l-574 -449h-864l915 717l-915 717h864z" />
    <glyph glyph-name="uni0417" unicode="&#x417;" 
d="M2068 1065h-1249q-43 0 -66.5 -22t-23.5 -60v-41h-647v41q0 201 144 336t368 135h1700q229 0 370.5 -116.5t141.5 -313.5q0 -204 -172 -303q172 -99 172 -303q0 -197 -141.5 -313.5t-370.5 -116.5h-1700q-224 0 -368 135t-144 336v41h647v-41q0 -38 23.5 -60t66.5 -22
h1249q43 0 67 22t24 60t-24 60t-67 22h-1175v360h1175q43 0 67 22t24 60t-24 60t-67 22z" />
    <glyph glyph-name="uni0418" unicode="&#x418;" 
d="M2806 1434v-1434h-647v819l-1430 -819h-647v1434h647v-820l1430 820h647z" />
    <glyph glyph-name="uni0419" unicode="&#x419;" 
d="M2806 1434v-1434h-647v819l-1430 -819h-647v1434h647v-820l1430 820h647zM1444 1898q191 0 342.5 48t290.5 137l225 -332q-74 -49 -141 -85t-175 -79.5t-246.5 -67.5t-295.5 -24t-295.5 24t-246.5 67.5t-175 79.5t-141 85l225 332q139 -89 290.5 -137t342.5 -48z" />
    <glyph glyph-name="uni041A" unicode="&#x41a;" 
d="M82 0v1434h647v-787l1139 787h938l-1039 -717l1039 -717h-938l-570 393l-569 -393h-647z" />
    <glyph glyph-name="uni041B" unicode="&#x41b;" horiz-adv-x="3215" 
d="M1608 983l-797 -983h-729l1161 1434h729l1161 -1434h-729z" />
    <glyph glyph-name="uni041C" unicode="&#x41c;" horiz-adv-x="3518" 
d="M82 0v1434h864l797 -983l797 983h897v-1434h-648v842l-682 -842h-729l-649 801v-801h-647z" />
    <glyph glyph-name="uni041D" unicode="&#x41d;" 
d="M82 0v1434h647v-471h1430v471h647v-1434h-647v471h-1430v-471h-647z" />
    <glyph glyph-name="uni041E" unicode="&#x41e;" horiz-adv-x="3092" 
d="M799 1454h1495q193 0 359 -101.5t262 -271t96 -364.5t-96 -364.5t-262 -271t-359 -101.5h-1495q-193 0 -359 101.5t-262 271t-96 364.5t96 364.5t262 271t359 101.5zM2161 922h-1229q-85 0 -145 -60t-60 -145t60 -145t145 -60h1229q85 0 144.5 60t59.5 145t-59.5 145
t-144.5 60z" />
    <glyph glyph-name="uni041F" unicode="&#x41f;" 
d="M82 0v1434h2724v-1434h-647v942h-1430v-942h-647z" />
    <glyph glyph-name="uni0420" unicode="&#x420;" 
d="M2068 942h-1339v-164h1339q43 0 67 22t24 60t-24 60t-67 22zM729 0h-647v1434h2150q130 0 240 -49t182 -130.5t112 -184t40 -210.5t-40 -210.5t-112 -183.5t-182 -130t-240 -49h-1503v-287z" />
    <glyph glyph-name="uni0421" unicode="&#x421;" horiz-adv-x="2826" 
d="M2744 532v-532h-1945q-145 0 -278 57t-229 153t-153 229t-57 278t57 278t153 229t229 153t278 57h1945v-533h-1812q-87 0 -146 -50.5t-59 -133.5t59 -134t146 -51h1812z" />
    <glyph glyph-name="uni0422" unicode="&#x422;" 
d="M1118 0v942h-1036v492h2724v-492h-1041v-942h-647z" />
    <glyph glyph-name="uni0423" unicode="&#x423;" horiz-adv-x="2826" 
d="M729 1434v-451q0 -38 23.5 -60t66.5 -22h1278v533h647v-1024q0 -410 -409 -410h-2089v369h1769q82 0 82 82v81h-1442q-270 0 -421.5 118.5t-151.5 332.5v451h647z" />
    <glyph glyph-name="uni0424" unicode="&#x424;" horiz-adv-x="3768" 
d="M1561 778v164h-742q-43 0 -66.5 -22t-23.5 -60t23.5 -60t66.5 -22h742zM2949 942h-741v-164h741q43 0 66.5 22t23.5 60t-23.5 60t-66.5 22zM2208 287v-287h-647v287h-906q-130 0 -240 49t-181.5 130t-111.5 183.5t-40 210.5t40 210.5t111.5 184t181.5 130.5t240 49h2458
q130 0 240 -49t181.5 -130.5t111.5 -184t40 -210.5t-40 -210.5t-111.5 -183.5t-181.5 -130t-240 -49h-905z" />
    <glyph glyph-name="uni0425" unicode="&#x425;" horiz-adv-x="3104" 
d="M111 1434h913l528 -379l529 379h913l-985 -707l1014 -727h-914l-557 399l-557 -399h-913l1014 727z" />
    <glyph glyph-name="uni0426" unicode="&#x426;" horiz-adv-x="3051" 
d="M82 0v1434h647v-942h1430v942h647v-942h164v-656h-648v164h-2240z" />
    <glyph glyph-name="uni0427" unicode="&#x427;" 
d="M2159 0v369h-1360q-332 0 -524.5 192t-192.5 545v328h647v-328q0 -100 52.5 -152.5t152.5 -52.5h1225v533h647v-1434h-647z" />
    <glyph glyph-name="uni0428" unicode="&#x428;" horiz-adv-x="3502" 
d="M1430 492v942h647v-942h696v942h647v-1434h-3338v1434h647v-942h701z" />
    <glyph glyph-name="uni0429" unicode="&#x429;" horiz-adv-x="3665" 
d="M1430 492v942h647v-942h696v942h647v-942h164v-656h-647v164h-2855v1434h647v-942h701z" />
    <glyph glyph-name="uni042A" unicode="&#x42a;" horiz-adv-x="3051" 
d="M2232 655h-1339v-163h1339q43 0 66.5 21.5t23.5 59.5t-23.5 60t-66.5 22zM2396 0h-2150v942h-164v492h811v-287h1503q130 0 240 -49t182 -130.5t112 -184t40 -210.5t-40 -210.5t-112 -183.5t-182 -130t-240 -49z" />
    <glyph glyph-name="uni042B" unicode="&#x42b;" horiz-adv-x="3616" 
d="M2068 655h-1339v-163h1339q43 0 67 21.5t24 59.5t-24 60t-67 22zM2232 0h-2150v1434h647v-287h1503q130 0 240 -49t182 -130.5t112 -184t40 -210.5t-40 -210.5t-112 -183.5t-182 -130t-240 -49zM3535 0h-647v1434h647v-1434z" />
    <glyph glyph-name="uni042C" unicode="&#x42c;" 
d="M2068 655h-1339v-163h1339q43 0 67 21.5t24 59.5t-24 60t-67 22zM2232 0h-2150v1434h647v-287h1503q130 0 240 -49t182 -130.5t112 -184t40 -210.5t-40 -210.5t-112 -183.5t-182 -130t-240 -49z" />
    <glyph glyph-name="uni042D" unicode="&#x42d;" horiz-adv-x="3092" 
d="M2316 532h-1423v369h1423q-90 164 -301 164h-1196q-43 0 -66.5 -22t-23.5 -60v-41h-647v41q0 203 176 337t459 134h1577q193 0 359 -101.5t262 -271t96 -364.5t-96 -364.5t-262 -271t-359 -101.5h-1577q-283 0 -459 134t-176 337v41h647v-41q0 -38 23.5 -60t66.5 -22
h1196q212 0 301 163z" />
    <glyph glyph-name="uni042E" unicode="&#x42e;" horiz-adv-x="3821" 
d="M2890 922h-1229q-85 0 -145 -60t-60 -145t60 -145t145 -60h1229q85 0 145 60t60 145t-60 145t-145 60zM1528 1454h1495q193 0 359 -101.5t262 -271t96 -364.5t-96 -364.5t-262 -271t-359 -101.5h-1495q-245 0 -438 157.5t-254 394.5h-107v-532h-647v1434h647v-533h107
q61 237 254 395t438 158z" />
    <glyph glyph-name="uni042F" unicode="&#x42f;" 
d="M819 778h1340v164h-1340q-43 0 -66.5 -22t-23.5 -60t23.5 -60t66.5 -22zM655 1434h2151v-1434h-647v287h-840l-416 -287h-821l436 301q-199 46 -317.5 206t-118.5 353q0 108 40 210.5t111.5 184t181.5 130.5t240 49z" />
    <glyph glyph-name="uni0430" unicode="&#x430;" horiz-adv-x="3215" 
d="M1608 983l-299 -369h598zM1243 1434h729l1161 -1434h-729l-166 205h-1261l-166 -205h-729z" />
    <glyph glyph-name="uni0431" unicode="&#x431;" 
d="M729 369h1339q43 0 67 22t24 60t-24 59.5t-67 21.5h-1339v-163zM2294 0h-2212v1434h2662v-369h-2015v-164h1565q226 0 369 -125.5t143 -324.5t-143 -325t-369 -126z" />
    <glyph glyph-name="uni0432" unicode="&#x432;" 
d="M729 532v-163h1339q43 0 67 22t24 60t-24 59.5t-67 21.5h-1339zM2068 1065h-1339v-164h1339q43 0 67 22t24 60t-24 60t-67 22zM2294 0h-2212v1434h2212q232 0 372 -107.5t140 -302.5q0 -208 -178 -307q178 -99 178 -307q0 -195 -140 -302.5t-372 -107.5z" />
    <glyph glyph-name="uni0433" unicode="&#x433;" horiz-adv-x="2621" 
d="M82 0v1434h2458v-492h-1811v-942h-647z" />
    <glyph glyph-name="uni0434" unicode="&#x434;" horiz-adv-x="3317" 
d="M1141 756l-123 -264h1407v450h-993q-206 0 -291 -186zM3236 -164h-647v164h-1860v-164h-647v656h229l207 456q224 486 754 486h1800v-942h164v-656z" />
    <glyph glyph-name="uni0435" unicode="&#x435;" horiz-adv-x="2826" 
d="M82 0v1434h2662v-369h-2015v-164h2015v-369h-2015v-163h2015v-369h-2662z" />
    <glyph glyph-name="uni0436" unicode="&#x436;" horiz-adv-x="3686" 
d="M1520 985v449h647v-449l573 449h864l-915 -717l915 -717h-864l-573 449v-449h-647v449l-574 -449h-864l915 717l-915 717h864z" />
    <glyph glyph-name="uni0437" unicode="&#x437;" 
d="M2068 1065h-1249q-43 0 -66.5 -22t-23.5 -60v-41h-647v41q0 201 144 336t368 135h1700q229 0 370.5 -116.5t141.5 -313.5q0 -204 -172 -303q172 -99 172 -303q0 -197 -141.5 -313.5t-370.5 -116.5h-1700q-224 0 -368 135t-144 336v41h647v-41q0 -38 23.5 -60t66.5 -22
h1249q43 0 67 22t24 60t-24 60t-67 22h-1175v360h1175q43 0 67 22t24 60t-24 60t-67 22z" />
    <glyph glyph-name="uni0438" unicode="&#x438;" 
d="M2806 1434v-1434h-647v819l-1430 -819h-647v1434h647v-820l1430 820h647z" />
    <glyph glyph-name="uni0439" unicode="&#x439;" 
d="M2806 1434v-1434h-647v819l-1430 -819h-647v1434h647v-820l1430 820h647zM1444 1898q191 0 342.5 48t290.5 137l225 -332q-74 -49 -141 -85t-175 -79.5t-246.5 -67.5t-295.5 -24t-295.5 24t-246.5 67.5t-175 79.5t-141 85l225 332q139 -89 290.5 -137t342.5 -48z" />
    <glyph glyph-name="uni043A" unicode="&#x43a;" 
d="M82 0v1434h647v-787l1139 787h938l-1039 -717l1039 -717h-938l-570 393l-569 -393h-647z" />
    <glyph glyph-name="uni043B" unicode="&#x43b;" horiz-adv-x="3215" 
d="M1608 983l-797 -983h-729l1161 1434h729l1161 -1434h-729z" />
    <glyph glyph-name="uni043C" unicode="&#x43c;" horiz-adv-x="3518" 
d="M82 0v1434h864l797 -983l797 983h897v-1434h-648v842l-682 -842h-729l-649 801v-801h-647z" />
    <glyph glyph-name="uni043D" unicode="&#x43d;" 
d="M82 0v1434h647v-471h1430v471h647v-1434h-647v471h-1430v-471h-647z" />
    <glyph glyph-name="uni043E" unicode="&#x43e;" horiz-adv-x="3092" 
d="M799 1454h1495q193 0 359 -101.5t262 -271t96 -364.5t-96 -364.5t-262 -271t-359 -101.5h-1495q-193 0 -359 101.5t-262 271t-96 364.5t96 364.5t262 271t359 101.5zM2161 922h-1229q-85 0 -145 -60t-60 -145t60 -145t145 -60h1229q85 0 144.5 60t59.5 145t-59.5 145
t-144.5 60z" />
    <glyph glyph-name="uni043F" unicode="&#x43f;" 
d="M82 0v1434h2724v-1434h-647v942h-1430v-942h-647z" />
    <glyph glyph-name="uni0440" unicode="&#x440;" 
d="M2068 942h-1339v-164h1339q43 0 67 22t24 60t-24 60t-67 22zM729 0h-647v1434h2150q130 0 240 -49t182 -130.5t112 -184t40 -210.5t-40 -210.5t-112 -183.5t-182 -130t-240 -49h-1503v-287z" />
    <glyph glyph-name="uni0441" unicode="&#x441;" horiz-adv-x="2826" 
d="M2744 532v-532h-1945q-145 0 -278 57t-229 153t-153 229t-57 278t57 278t153 229t229 153t278 57h1945v-533h-1812q-87 0 -146 -50.5t-59 -133.5t59 -134t146 -51h1812z" />
    <glyph glyph-name="uni0442" unicode="&#x442;" 
d="M1118 0v942h-1036v492h2724v-492h-1041v-942h-647z" />
    <glyph glyph-name="uni0443" unicode="&#x443;" horiz-adv-x="2826" 
d="M729 1434v-451q0 -38 23.5 -60t66.5 -22h1278v533h647v-1024q0 -410 -409 -410h-2089v369h1769q82 0 82 82v81h-1442q-270 0 -421.5 118.5t-151.5 332.5v451h647z" />
    <glyph glyph-name="uni0444" unicode="&#x444;" horiz-adv-x="3768" 
d="M1561 778v164h-742q-43 0 -66.5 -22t-23.5 -60t23.5 -60t66.5 -22h742zM2949 942h-741v-164h741q43 0 66.5 22t23.5 60t-23.5 60t-66.5 22zM2208 287v-287h-647v287h-906q-130 0 -240 49t-181.5 130t-111.5 183.5t-40 210.5t40 210.5t111.5 184t181.5 130.5t240 49h2458
q130 0 240 -49t181.5 -130.5t111.5 -184t40 -210.5t-40 -210.5t-111.5 -183.5t-181.5 -130t-240 -49h-905z" />
    <glyph glyph-name="uni0445" unicode="&#x445;" horiz-adv-x="3104" 
d="M111 1434h913l528 -379l529 379h913l-985 -707l1014 -727h-914l-557 399l-557 -399h-913l1014 727z" />
    <glyph glyph-name="uni0446" unicode="&#x446;" horiz-adv-x="3051" 
d="M82 0v1434h647v-942h1430v942h647v-942h164v-656h-648v164h-2240z" />
    <glyph glyph-name="uni0447" unicode="&#x447;" 
d="M2159 0v369h-1360q-332 0 -524.5 192t-192.5 545v328h647v-328q0 -100 52.5 -152.5t152.5 -52.5h1225v533h647v-1434h-647z" />
    <glyph glyph-name="uni0448" unicode="&#x448;" horiz-adv-x="3502" 
d="M1430 492v942h647v-942h696v942h647v-1434h-3338v1434h647v-942h701z" />
    <glyph glyph-name="uni0449" unicode="&#x449;" horiz-adv-x="3665" 
d="M1430 492v942h647v-942h696v942h647v-942h164v-656h-647v164h-2855v1434h647v-942h701z" />
    <glyph glyph-name="uni044A" unicode="&#x44a;" horiz-adv-x="3051" 
d="M2232 655h-1339v-163h1339q43 0 66.5 21.5t23.5 59.5t-23.5 60t-66.5 22zM2396 0h-2150v942h-164v492h811v-287h1503q130 0 240 -49t182 -130.5t112 -184t40 -210.5t-40 -210.5t-112 -183.5t-182 -130t-240 -49z" />
    <glyph glyph-name="uni044B" unicode="&#x44b;" horiz-adv-x="3616" 
d="M2068 655h-1339v-163h1339q43 0 67 21.5t24 59.5t-24 60t-67 22zM2232 0h-2150v1434h647v-287h1503q130 0 240 -49t182 -130.5t112 -184t40 -210.5t-40 -210.5t-112 -183.5t-182 -130t-240 -49zM3535 0h-647v1434h647v-1434z" />
    <glyph glyph-name="uni044C" unicode="&#x44c;" 
d="M2068 655h-1339v-163h1339q43 0 67 21.5t24 59.5t-24 60t-67 22zM2232 0h-2150v1434h647v-287h1503q130 0 240 -49t182 -130.5t112 -184t40 -210.5t-40 -210.5t-112 -183.5t-182 -130t-240 -49z" />
    <glyph glyph-name="uni044D" unicode="&#x44d;" horiz-adv-x="3092" 
d="M2316 532h-1423v369h1423q-90 164 -301 164h-1196q-43 0 -66.5 -22t-23.5 -60v-41h-647v41q0 203 176 337t459 134h1577q193 0 359 -101.5t262 -271t96 -364.5t-96 -364.5t-262 -271t-359 -101.5h-1577q-283 0 -459 134t-176 337v41h647v-41q0 -38 23.5 -60t66.5 -22
h1196q212 0 301 163z" />
    <glyph glyph-name="uni044E" unicode="&#x44e;" horiz-adv-x="3821" 
d="M2890 922h-1229q-85 0 -145 -60t-60 -145t60 -145t145 -60h1229q85 0 145 60t60 145t-60 145t-145 60zM1528 1454h1495q193 0 359 -101.5t262 -271t96 -364.5t-96 -364.5t-262 -271t-359 -101.5h-1495q-245 0 -438 157.5t-254 394.5h-107v-532h-647v1434h647v-533h107
q61 237 254 395t438 158z" />
    <glyph glyph-name="uni044F" unicode="&#x44f;" 
d="M819 778h1340v164h-1340q-43 0 -66.5 -22t-23.5 -60t23.5 -60t66.5 -22zM655 1434h2151v-1434h-647v287h-840l-416 -287h-821l436 301q-199 46 -317.5 206t-118.5 353q0 108 40 210.5t111.5 184t181.5 130.5t240 49z" />
    <glyph glyph-name="uni0451" unicode="&#x451;" horiz-adv-x="2826" 
d="M82 0v1434h2662v-369h-2015v-164h2015v-369h-2015v-163h2015v-369h-2662zM594 1823q0 101 72.5 173t173.5 72h245q101 0 173.5 -72t72.5 -173t-72.5 -173.5t-173.5 -72.5h-245q-101 0 -173.5 72.5t-72.5 173.5zM1577 1823q0 101 72.5 173t173.5 72h245q101 0 173.5 -72
t72.5 -173t-72.5 -173.5t-173.5 -72.5h-245q-101 0 -173.5 72.5t-72.5 173.5z" />
    <glyph glyph-name="Wgrave" unicode="&#x1e80;" horiz-adv-x="4272" 
d="M2136 203l-164 -203h-729l-1161 1434h729l797 -983l164 202l-633 781h729l268 -332l268 332h729l-632 -781l163 -202l797 983h729l-1161 -1434h-729zM2150 2089l209 -492h-450l-406 492h647z" />
    <glyph glyph-name="wgrave" unicode="&#x1e81;" horiz-adv-x="4272" 
d="M2136 203l-164 -203h-729l-1161 1434h729l797 -983l164 202l-633 781h729l268 -332l268 332h729l-632 -781l163 -202l797 983h729l-1161 -1434h-729zM2150 2089l209 -492h-450l-406 492h647z" />
    <glyph glyph-name="Wacute" unicode="&#x1e82;" horiz-adv-x="4272" 
d="M2136 203l-164 -203h-729l-1161 1434h729l797 -983l164 202l-633 781h729l268 -332l268 332h729l-632 -781l163 -202l797 983h729l-1161 -1434h-729zM1913 1597l209 492h647l-406 -492h-450z" />
    <glyph glyph-name="wacute" unicode="&#x1e83;" horiz-adv-x="4272" 
d="M2136 203l-164 -203h-729l-1161 1434h729l797 -983l164 202l-633 781h729l268 -332l268 332h729l-632 -781l163 -202l797 983h729l-1161 -1434h-729zM1913 1597l209 492h647l-406 -492h-450z" />
    <glyph glyph-name="Wdieresis" unicode="&#x1e84;" horiz-adv-x="4272" 
d="M2136 203l-164 -203h-729l-1161 1434h729l797 -983l164 202l-633 781h729l268 -332l268 332h729l-632 -781l163 -202l797 983h729l-1161 -1434h-729zM1276 1823q0 101 72.5 173t173.5 72h245q101 0 173.5 -72t72.5 -173t-72.5 -173.5t-173.5 -72.5h-245
q-101 0 -173.5 72.5t-72.5 173.5zM2259 1823q0 101 72.5 173t173.5 72h245q101 0 173.5 -72t72.5 -173t-72.5 -173.5t-173.5 -72.5h-245q-101 0 -173.5 72.5t-72.5 173.5z" />
    <glyph glyph-name="wdieresis" unicode="&#x1e85;" horiz-adv-x="4272" 
d="M2136 203l-164 -203h-729l-1161 1434h729l797 -983l164 202l-633 781h729l268 -332l268 332h729l-632 -781l163 -202l797 983h729l-1161 -1434h-729zM1276 1823q0 101 72.5 173t173.5 72h245q101 0 173.5 -72t72.5 -173t-72.5 -173.5t-173.5 -72.5h-245
q-101 0 -173.5 72.5t-72.5 173.5zM2259 1823q0 101 72.5 173t173.5 72h245q101 0 173.5 -72t72.5 -173t-72.5 -173.5t-173.5 -72.5h-245q-101 0 -173.5 72.5t-72.5 173.5z" />
    <glyph glyph-name="Germandbls" unicode="&#x1e9e;" 
d="M729 983v-983h-647v1024q0 197 141.5 313.5t370.5 116.5h1700q229 0 370.5 -116.5t141.5 -313.5q0 -208 -178 -307q178 -99 178 -307q0 -195 -140 -302.5t-372 -107.5h-1401l-2 369h1177q43 0 67 22t24 60t-24 59.5t-67 21.5h-1177l-2 369h1179q43 0 67 22t24 60t-24 60
t-67 22h-1249q-43 0 -66.5 -22t-23.5 -60z" />
    <glyph glyph-name="uni1EBC" unicode="&#x1ebc;" horiz-adv-x="2826" 
d="M82 0v1434h2662v-369h-2015v-164h2015v-369h-2015v-163h2015v-369h-2662zM942 1638l-43 -24l-201 346l82 51q178 111 371 111q105 0 221 -35l82 -27l178 -51q65 -18 123 -18q107 0 211 61l43 25l201 -346l-82 -52q-177 -110 -371 -110q-105 0 -221 35l-82 26l-178 51
q-68 19 -123 19q-105 0 -211 -62z" />
    <glyph glyph-name="uni1EBD" unicode="&#x1ebd;" horiz-adv-x="2826" 
d="M82 0v1434h2662v-369h-2015v-164h2015v-369h-2015v-163h2015v-369h-2662zM942 1638l-43 -24l-201 346l82 51q178 111 371 111q105 0 221 -35l82 -27l178 -51q65 -18 123 -18q107 0 211 61l43 25l201 -346l-82 -52q-177 -110 -371 -110q-105 0 -221 35l-82 26l-178 51
q-68 19 -123 19q-105 0 -211 -62z" />
    <glyph glyph-name="Ygrave" unicode="&#x1ef2;" horiz-adv-x="3215" 
d="M1284 0v492l-1202 942h854l672 -529l671 529h854l-1202 -942v-492h-647zM1622 2089l209 -492h-451l-405 492h647z" />
    <glyph glyph-name="ygrave" unicode="&#x1ef3;" horiz-adv-x="3215" 
d="M1284 0v492l-1202 942h854l672 -529l671 529h854l-1202 -942v-492h-647zM1622 2089l209 -492h-451l-405 492h647z" />
    <glyph glyph-name="uni1EF8" unicode="&#x1ef8;" horiz-adv-x="3215" 
d="M1284 0v492l-1202 942h854l672 -529l671 529h854l-1202 -942v-492h-647zM1096 1638l-43 -24l-201 346l82 51q179 111 371 111q105 0 221 -35l82 -27l178 -51q64 -18 123 -18q107 0 211 61l43 25l200 -346l-82 -52q-177 -110 -370 -110q-105 0 -221 35l-82 26l-178 51
q-68 19 -123 19q-105 0 -211 -62z" />
    <glyph glyph-name="uni1EF9" unicode="&#x1ef9;" horiz-adv-x="3215" 
d="M1284 0v492l-1202 942h854l672 -529l671 529h854l-1202 -942v-492h-647zM1096 1638l-43 -24l-201 346l82 51q179 111 371 111q105 0 221 -35l82 -27l178 -51q64 -18 123 -18q107 0 211 61l43 25l200 -346l-82 -52q-177 -110 -370 -110q-105 0 -221 35l-82 26l-178 51
q-68 19 -123 19q-105 0 -211 -62z" />
    <glyph glyph-name="endash" unicode="&#x2013;" horiz-adv-x="1576" 
d="M82 512v410h1413v-410h-1413z" />
    <glyph glyph-name="emdash" unicode="&#x2014;" horiz-adv-x="2048" 
d="M82 512v410h1884v-410h-1884z" />
    <glyph glyph-name="quoteleft" unicode="&#x2018;" horiz-adv-x="901" 
d="M492 1454h81q101 0 173.5 -72.5t72.5 -173.5t-72.5 -173t-173.5 -72h-245q-101 0 -173.5 72t-72.5 173q0 65 32 120.5t85 88.5l293 201v-164z" />
    <glyph glyph-name="quoteright" unicode="&#x2019;" horiz-adv-x="901" 
d="M410 963h-82q-101 0 -173.5 72t-72.5 173t72.5 173.5t173.5 72.5h245q101 0 173.5 -72.5t72.5 -173.5q0 -65 -32 -120.5t-85 -88.5l-292 -200v164z" />
    <glyph glyph-name="quotesinglbase" unicode="&#x201a;" horiz-adv-x="901" 
d="M410 -20h-82q-101 0 -173.5 72t-72.5 173t72.5 173.5t173.5 72.5h245q101 0 173.5 -72.5t72.5 -173.5q0 -65 -32 -120.5t-85 -88.5l-292 -200v164z" />
    <glyph glyph-name="quotedblleft" unicode="&#x201c;" horiz-adv-x="1720" 
d="M492 1454h81q101 0 173.5 -72.5t72.5 -173.5t-72.5 -173t-173.5 -72h-245q-101 0 -173.5 72t-72.5 173q0 65 32 120.5t85 88.5l293 201v-164zM1311 1454h82q101 0 173 -72.5t72 -173.5t-72 -173t-173 -72h-246q-101 0 -173.5 72t-72.5 173q0 65 32 120.5t85 88.5l293 201
v-164z" />
    <glyph glyph-name="quotedblright" unicode="&#x201d;" horiz-adv-x="1720" 
d="M410 963h-82q-101 0 -173.5 72t-72.5 173t72.5 173.5t173.5 72.5h245q101 0 173.5 -72.5t72.5 -173.5q0 -65 -32 -120.5t-85 -88.5l-292 -200v164zM1229 963h-82q-101 0 -173.5 72t-72.5 173t72.5 173.5t173.5 72.5h246q101 0 173 -72.5t72 -173.5q0 -65 -31.5 -120.5
t-84.5 -88.5l-293 -200v164z" />
    <glyph glyph-name="quotedblbase" unicode="&#x201e;" horiz-adv-x="1720" 
d="M410 -20h-82q-101 0 -173.5 72t-72.5 173t72.5 173.5t173.5 72.5h245q101 0 173.5 -72.5t72.5 -173.5q0 -65 -32 -120.5t-85 -88.5l-292 -200v164zM1229 -20h-82q-101 0 -173.5 72t-72.5 173t72.5 173.5t173.5 72.5h246q101 0 173 -72.5t72 -173.5q0 -65 -31.5 -120.5
t-84.5 -88.5l-293 -200v164z" />
    <glyph glyph-name="uni201F" unicode="&#x201f;" horiz-adv-x="1720" 
d="M1638 1208q0 -101 -72 -173t-173 -72h-82v-164l-293 200q-53 33 -85 88.5t-32 120.5q0 101 72.5 173.5t173.5 72.5h246q101 0 173 -72.5t72 -173.5zM819 1208q0 -101 -72.5 -173t-173.5 -72h-81v-164l-293 200q-53 33 -85 88.5t-32 120.5q0 101 72.5 173.5t173.5 72.5
h245q101 0 173.5 -72.5t72.5 -173.5z" />
    <glyph glyph-name="bullet" unicode="&#x2022;" horiz-adv-x="1134" 
d="M82 717q0 133 95 228t229 95h323q134 0 229 -95t95 -228t-95.5 -228.5t-228.5 -95.5h-323q-134 0 -229 95.5t-95 228.5z" />
    <glyph glyph-name="ellipsis" unicode="&#x2026;" horiz-adv-x="2703" 
d="M82 225q0 101 72.5 173.5t173.5 72.5h245q101 0 173.5 -72.5t72.5 -173.5t-72.5 -173t-173.5 -72h-245q-101 0 -173.5 72t-72.5 173zM983 225q0 101 72.5 173.5t173.5 72.5h246q101 0 173 -72.5t72 -173.5t-72 -173t-173 -72h-246q-101 0 -173.5 72t-72.5 173zM1884 225
q0 101 72.5 173.5t173.5 72.5h246q101 0 173 -72.5t72 -173.5t-72 -173t-173 -72h-246q-101 0 -173.5 72t-72.5 173z" />
    <glyph glyph-name="perthousand" unicode="&#x2030;" horiz-adv-x="7260" 
d="M4250 512h-635q-43 0 -66.5 -22t-23.5 -60t23.5 -60t66.5 -22h635q43 0 66.5 22t23.5 60t-23.5 60t-66.5 22zM6441 512h-635q-43 0 -66.5 -22t-23.5 -60t23.5 -60t66.5 -22h635q43 0 66.5 22t23.5 60t-23.5 60t-66.5 22zM1454 1085h-635q-43 0 -66.5 -21.5t-23.5 -59.5
t23.5 -60t66.5 -22h635q43 0 66.5 22t23.5 60t-23.5 59.5t-66.5 21.5zM2877 430q0 201 140.5 326t371.5 125h1086q231 0 371.5 -125t140.5 -326q0 -200 -140.5 -325t-371.5 -125h-1086q-231 0 -371.5 125t-140.5 325zM5069 430q0 201 140.5 326t371.5 125h1085
q231 0 371.5 -125t140.5 -326q0 -200 -140.5 -325t-371.5 -125h-1085q-231 0 -371.5 125t-140.5 325zM82 1004q0 200 140.5 325t371.5 125h1085q231 0 371.5 -125t140.5 -325q0 -201 -140.5 -326t-371.5 -125h-1085q-231 0 -371.5 125t-140.5 326zM2832 1434h566
l-1162 -1434h-565z" />
    <glyph glyph-name="minute" unicode="&#x2032;" horiz-adv-x="1019" 
d="M82 942l209 492h647l-406 -492h-450z" />
    <glyph glyph-name="second" unicode="&#x2033;" horiz-adv-x="1748" 
d="M82 942l209 492h647l-406 -492h-450zM811 942l209 492h647l-405 -492h-451z" />
    <glyph glyph-name="guilsinglleft" unicode="&#x2039;" horiz-adv-x="901" 
d="M819 152h-409l-328 565l328 565h409l-327 -565z" />
    <glyph glyph-name="guilsinglright" unicode="&#x203a;" horiz-adv-x="901" 
d="M492 152h-410l328 565l-328 565h410l327 -565z" />
    <glyph glyph-name="Euro" unicode="&#x20ac;" horiz-adv-x="3010" 
d="M82 225v410h188q-4 54 -4 82t4 82h-188v409h379q100 106 235.5 166t286.5 60h1946v-533h-1813q-87 0 -146 -50.5t-59 -133.5t59 -134t146 -51h1813v-532h-1946q-151 0 -286.5 59.5t-235.5 165.5h-379z" />
    <glyph glyph-name="uni20BD" unicode="&#x20bd;" horiz-adv-x="3051" 
d="M893 901h1339q43 0 66.5 22t23.5 60t-23.5 60t-66.5 22h-1339v-164zM893 0h-647v82h-164v369h164v81h-164v369h164v533h2212q226 0 369 -126t143 -325t-143 -325t-369 -126h-1565v-81h1749v-369h-1749v-82z" />
    <glyph glyph-name="uni2116" unicode="&#x2116;" horiz-adv-x="5079" 
d="M4260 1085h-635q-43 0 -66.5 -21.5t-23.5 -59.5t23.5 -60t66.5 -22h635q43 0 66.5 22t23.5 60t-23.5 59.5t-66.5 21.5zM4882 61h-1884v410h1884v-410zM729 0h-647v1434h647l1430 -820v820h647v-1434h-647l-1430 819v-819zM2888 1004q0 200 140.5 325t371.5 125h1085
q231 0 371.5 -125t140.5 -325q0 -201 -140.5 -326t-371.5 -125h-1085q-231 0 -371.5 125t-140.5 326z" />
    <glyph glyph-name="trademark" unicode="&#x2122;" horiz-adv-x="2246" 
d="M82 1266v168h934v-168h-357v-324h-221v324h-356zM1071 942v492h275l272 -338l272 338h275v-492h-221v248l-201 -248h-250l-199 246v-246h-223z" />
    <glyph glyph-name="minus" unicode="&#x2212;" horiz-adv-x="1576" 
d="M82 512v410h1413v-410h-1413z" />
    <glyph glyph-name="approxequal" unicode="&#x2248;" horiz-adv-x="1695" 
d="M326 760l-43 -25l-201 346l82 52q177 110 371 110q105 0 221 -35l82 -26l178 -52q65 -18 123 -18q105 0 211 62l43 24l200 -346l-82 -51q-179 -111 -370 -111q-105 0 -221 35l-82 27l-179 51q-64 18 -122 18q-107 0 -211 -61zM346 207l-43 -25l-201 346l82 52
q177 110 371 110q105 0 221 -35l82 -26l178 -51q68 -19 123 -19q105 0 211 62l43 24l201 -346l-82 -51q-178 -111 -371 -111q-105 0 -221 35l-82 27l-178 51q-64 18 -123 18q-107 0 -211 -61z" />
    <glyph glyph-name="lessequal" unicode="&#x2264;" horiz-adv-x="1024" 
 />
    <glyph glyph-name="uni2E42" unicode="&#x2e42;" horiz-adv-x="1720" 
d="M1638 225q0 -101 -72 -173t-173 -72h-82v-164l-293 200q-53 33 -85 88.5t-32 120.5q0 101 72.5 173.5t173.5 72.5h246q101 0 173 -72.5t72 -173.5zM819 225q0 -101 -72.5 -173t-173.5 -72h-81v-164l-293 200q-53 33 -85 88.5t-32 120.5q0 101 72.5 173.5t173.5 72.5h245
q101 0 173.5 -72.5t72.5 -173.5z" />
    <glyph glyph-name="strokeshort.alt" horiz-adv-x="974" 
d="M82 512v410h811v-410h-811z" />
    </font>
</defs>
</svg>
