<?xml version="1.0" standalone="no"?>
<!DOCTYPE svg PUBLIC "-//W3C//DTD SVG 1.1//EN" "http://www.w3.org/Graphics/SVG/1.1/DTD/svg11.dtd" >
<svg xmlns="http://www.w3.org/2000/svg" xmlns:xlink="http://www.w3.org/1999/xlink" version="1.1">
<metadata>
Created by FontForge 20201107 at Tue Aug 15 22:26:02 2023
 By 
(c) 2023 grinfleim
</metadata>
<defs>
<font id="AKONY-Bold" horiz-adv-x="1410" >
  <font-face 
    font-family="AKONY"
    font-weight="700"
    font-stretch="normal"
    units-per-em="1000"
    panose-1="0 0 0 0 0 0 0 0 0 0"
    ascent="750"
    descent="-250"
    x-height="700"
    cap-height="700"
    bbox="-222 -380 3505 1057"
    underline-thickness="50"
    underline-position="-125"
    unicode-range="U+000D-2E42"
  />
<missing-glyph horiz-adv-x="250" 
 />
    <glyph glyph-name=".notdef" horiz-adv-x="250" 
 />
    <glyph glyph-name=".null" horiz-adv-x="0" 
 />
    <glyph glyph-name=".null" horiz-adv-x="0" 
 />
    <glyph glyph-name="uni000D" unicode="&#xd;" horiz-adv-x="250" 
 />
    <glyph glyph-name="space" unicode=" " horiz-adv-x="600" 
 />
    <glyph glyph-name="exclam" unicode="!" horiz-adv-x="440" 
d="M62 700h316l-38 -390h-240zM40 110q0 25 9.5 46.5t26 38t38 26t46.5 9.5h120q25 0 46.5 -9.5t38 -26t26 -38t9.5 -46.5t-9.5 -46.5t-26 -38t-38 -26t-46.5 -9.5h-120q-25 0 -46.5 9.5t-38 26t-26 38t-9.5 46.5z" />
    <glyph glyph-name="quotedbl" unicode="&#x22;" horiz-adv-x="752" 
d="M40 700h316l-38 -336h-240zM396 700h316l-38 -336h-240z" />
    <glyph glyph-name="numbersign" unicode="#" horiz-adv-x="1280" 
d="M1240 400h-140v-100h140v-240h-140v-60h-316v60h-288v-60h-316v60h-140v240h140v100h-140v240h140v60h316v-60h288v60h316v-60h140v-240zM784 300v100h-288v-100h288z" />
    <glyph glyph-name="dollar" unicode="$" horiz-adv-x="1420" 
d="M610 0h-530v240h530v60h-352q-51 0 -91.5 14.5t-68.5 40t-43 61.5t-15 79t15 80.5t43 65t68.5 43.5t91.5 16h352v80h200v-80h530v-240h-530v-60h352q51 0 91.5 -14.5t68.5 -40t43 -61.5t15 -79t-15 -80.5t-43 -65t-68.5 -43.5t-91.5 -16h-352v-80h-200v80zM610 460h-221
q-18 0 -25.5 -10.5t-7.5 -19.5t7.5 -19.5t25.5 -10.5h221v60zM1031 240q18 0 25.5 10.5t7.5 19.5t-7.5 19.5t-25.5 10.5h-221v-60h221z" />
    <glyph glyph-name="percent" unicode="%" horiz-adv-x="2475" 
d="M1765 250q-44 0 -44 -40t44 -40h310q44 0 44 40t-44 40h-310zM400 530q-44 0 -44 -40t44 -40h310q44 0 44 40t-44 40h-310zM40 490q0 49 18 89.5t50.5 69.5t78.5 45t103 16h530q57 0 103 -16t78.5 -45t50.5 -69.5t18 -89.5t-18 -89.5t-50.5 -69.5t-78.5 -45t-103 -16
h-530q-57 0 -103 16t-78.5 45t-50.5 69.5t-18 89.5zM1092 0h-276l567 700h276zM1405 210q0 49 18 89.5t50.5 69.5t78.5 45t103 16h530q57 0 103 -16t78.5 -45t50.5 -69.5t18 -89.5t-18 -89.5t-50.5 -69.5t-78.5 -45t-103 -16h-530q-57 0 -103 16t-78.5 45t-50.5 69.5
t-18 89.5z" />
    <glyph glyph-name="ampersand" unicode="&#x26;" 
d="M161 700h959q55 0 101 -16t79 -45t51.5 -69.5t18.5 -89.5t-18 -89.5t-50.5 -69.5t-78.5 -45t-103 -16h-138l77 -80h291v-180h-117l77 -80h-396l-77 80h-547q-55 0 -101 16t-79 45t-51.5 69.5t-18.5 89.5t18 89.5t50.5 69.5t78.5 45t103 16h122zM808 440h202q44 0 44 40
t-44 40h-279zM586 260h-186q-44 0 -44 -40t44 -40h263z" />
    <glyph glyph-name="quotesingle" unicode="'" horiz-adv-x="396" 
d="M40 700h316l-38 -336h-240z" />
    <glyph glyph-name="parenleft" unicode="(" horiz-adv-x="426" 
d="M40 350q0 61 10.5 118.5t27.5 108t38.5 92.5t43.5 71h226q-26 -34 -49.5 -78t-41.5 -94t-28.5 -105.5t-10.5 -112.5t10.5 -112.5t28.5 -105.5t41.5 -94t49.5 -78h-226q-22 29 -43.5 71t-38.5 92.5t-27.5 108t-10.5 118.5z" />
    <glyph glyph-name="parenright" unicode=")" horiz-adv-x="426" 
d="M386 350q0 -61 -10.5 -118.5t-27.5 -108t-38.5 -92.5t-43.5 -71h-226q26 34 49.5 78t41.5 94t28.5 105.5t10.5 112.5t-10.5 112.5t-28.5 105.5t-41.5 94t-49.5 78h226q22 -29 43.5 -71t38.5 -92.5t27.5 -108t10.5 -118.5z" />
    <glyph glyph-name="asterisk" unicode="*" horiz-adv-x="592" 
d="M206 780h180l-7 -126l118 46l55 -171l-122 -33l79 -96l-146 -106l-67 103l-67 -103l-146 106l79 96l-122 33l55 171l118 -46z" />
    <glyph glyph-name="plus" unicode="+" horiz-adv-x="770" 
d="M40 450h245v176h200v-176h245v-200h-245v-176h-200v176h-245v200z" />
    <glyph glyph-name="comma" unicode="," horiz-adv-x="440" 
d="M160 -10q-25 0 -46.5 9.5t-38 26t-26 38t-9.5 46.5t9.5 46.5t26 38t38 26t46.5 9.5h120q25 0 46.5 -9.5t38 -26t26 -38t9.5 -46.5q0 -32 -15.5 -59t-41.5 -43l-143 -98v80h-40z" />
    <glyph glyph-name="hyphen" unicode="-" horiz-adv-x="540" 
d="M40 450h460v-200h-460v200z" />
    <glyph glyph-name="period" unicode="." horiz-adv-x="440" 
d="M40 110q0 25 9.5 46.5t26 38t38 26t46.5 9.5h120q25 0 46.5 -9.5t38 -26t26 -38t9.5 -46.5t-9.5 -46.5t-26 -38t-38 -26t-46.5 -9.5h-120q-25 0 -46.5 9.5t-38 26t-26 38t-9.5 46.5z" />
    <glyph glyph-name="slash" unicode="/" horiz-adv-x="987" 
d="M316 -40h-276l631 780h276z" />
    <glyph glyph-name="zero" unicode="0" horiz-adv-x="1510" 
d="M1120 710q72 0 136 -29t111.5 -78.5t75 -115t27.5 -137.5t-27.5 -137.5t-75 -115t-111.5 -78.5t-136 -29h-730q-72 0 -136 29t-111.5 78.5t-75 115t-27.5 137.5t27.5 137.5t75 115t111.5 78.5t136 29h730zM1055 450h-600q-42 0 -71 -29t-29 -71t29 -71t71 -29h600
q42 0 71 29t29 71t-29 71t-71 29z" />
    <glyph glyph-name="one" unicode="1" horiz-adv-x="673" 
d="M633 1h-316v452l-153 -153l-124 124l277 277h316v-700z" />
    <glyph glyph-name="two" unicode="2" 
d="M40 140q0 300 300 300h670q44 0 44 40t-44 40h-930v180h1040q55 0 101 -16t79 -45t51.5 -69.5t18.5 -89.5t-18.5 -89.5t-51.5 -69.5t-79 -45t-101 -16h-704q-60 0 -60 -60v-20h974v-180h-1290v140z" />
    <glyph glyph-name="three" unicode="3" horiz-adv-x="1380" 
d="M40 520v180h1050q55 0 101 -13t79 -38.5t51.5 -62.5t18.5 -86q0 -51 -22.5 -88.5t-63.5 -61.5q41 -23 63.5 -60.5t22.5 -88.5q0 -49 -18.5 -86t-51.5 -62.5t-79 -38.5t-101 -13h-1050v180h940q44 0 44 40t-44 40h-860v179h860q44 0 44 40t-44 40h-940z" />
    <glyph glyph-name="four" unicode="4" horiz-adv-x="1460" 
d="M1420 100h-80v-100h-316v100h-984l601 600h392l-401 -400h392v200h316v-200h80v-200z" />
    <glyph glyph-name="five" unicode="5" 
d="M40 700h1290v-180h-974v-80h764q55 0 101 -16t79 -45t51.5 -69.5t18.5 -89.5t-18.5 -89.5t-51.5 -69.5t-79 -45t-101 -16h-1080v180h970q44 0 44 40t-44 40h-970v440z" />
    <glyph glyph-name="six" unicode="6" 
d="M40 280q0 60 25 119.5t69 99.5l201 201h352l-130 -130h523q75 0 130 -27t90.5 -69t52.5 -93.5t17 -100.5t-17 -100.5t-52.5 -93.5t-90.5 -69t-130 -27h-740q-75 0 -131.5 27t-94 69t-56 93.5t-18.5 100.5zM1010 240q44 0 44 40t-44 40h-610q-44 0 -44 -40t44 -40h610z
" />
    <glyph glyph-name="seven" unicode="7" horiz-adv-x="1380" 
d="M40 700h1300l-701 -700h-392l461 460h-668v240z" />
    <glyph glyph-name="eight" unicode="8" 
d="M40 500q0 49 18.5 88t51.5 66t79 41.5t101 14.5h830q55 0 101 -14.5t79 -41.5t51.5 -66t18.5 -88q0 -51 -22.5 -89t-64.5 -61q42 -23 64.5 -61t22.5 -89q0 -49 -18.5 -88t-51.5 -66t-79 -41.5t-101 -14.5h-830q-55 0 -101 14.5t-79 41.5t-51.5 66t-18.5 88q0 51 22.5 89
t64.5 61q-42 23 -64.5 61t-22.5 89zM400 520q-44 0 -44 -40t44 -40h610q44 0 44 40t-44 40h-610zM1010 180q44 0 44 40t-44 40h-610q-44 0 -44 -40t44 -40h610z" />
    <glyph glyph-name="nine" unicode="9" 
d="M1370 420q0 -60 -25 -119.5t-69 -99.5l-201 -201h-352l130 130h-523q-75 0 -130 27t-90.5 69t-52.5 93.5t-17 100.5t17 100.5t52.5 93.5t90.5 69t130 27h740q75 0 131.5 -27t94 -69t56 -93.5t18.5 -100.5zM400 460q-44 0 -44 -40t44 -40h610q44 0 44 40t-44 40h-610z" />
    <glyph glyph-name="colon" unicode=":" horiz-adv-x="440" 
d="M40 590q0 25 9.5 46.5t26 38t38 26t46.5 9.5h120q25 0 46.5 -9.5t38 -26t26 -38t9.5 -46.5t-9.5 -46.5t-26 -38t-38 -26t-46.5 -9.5h-120q-25 0 -46.5 9.5t-38 26t-26 38t-9.5 46.5zM40 110q0 25 9.5 46.5t26 38t38 26t46.5 9.5h120q25 0 46.5 -9.5t38 -26t26 -38
t9.5 -46.5t-9.5 -46.5t-26 -38t-38 -26t-46.5 -9.5h-120q-25 0 -46.5 9.5t-38 26t-26 38t-9.5 46.5z" />
    <glyph glyph-name="semicolon" unicode=";" horiz-adv-x="440" 
d="M40 590q0 25 9.5 46.5t26 38t38 26t46.5 9.5h120q25 0 46.5 -9.5t38 -26t26 -38t9.5 -46.5t-9.5 -46.5t-26 -38t-38 -26t-46.5 -9.5h-120q-25 0 -46.5 9.5t-38 26t-26 38t-9.5 46.5zM160 -10q-25 0 -46.5 9.5t-38 26t-26 38t-9.5 46.5t9.5 46.5t26 38t38 26t46.5 9.5h120
q25 0 46.5 -9.5t38 -26t26 -38t9.5 -46.5q0 -32 -15.5 -59t-41.5 -43l-143 -98v80h-40z" />
    <glyph glyph-name="less" unicode="&#x3c;" horiz-adv-x="593" 
d="M40 450l513 209v-200l-268 -109l268 -109v-200l-513 209v200z" />
    <glyph glyph-name="equal" unicode="=" horiz-adv-x="770" 
d="M40 590h690v-200h-690v200zM40 310h690v-200h-690v200z" />
    <glyph glyph-name="greater" unicode="&#x3e;" horiz-adv-x="593" 
d="M553 250l-513 -209v200l268 109l-268 109v200l513 -209v-200z" />
    <glyph glyph-name="question" unicode="?" 
d="M400 530q-21 0 -32.5 -15.5t-11.5 -34.5v-20h-316v20q0 49 18.5 91t51.5 73t79 48.5t101 17.5h830q57 0 103 -14.5t78.5 -41.5t50.5 -66t18 -88q0 -45 -19 -82t-50.5 -63t-73.5 -40.5t-87 -14.5h-555v150h425q44 0 44 40t-44 40h-610zM525 110q0 25 9.5 46.5t26 38t38 26
t46.5 9.5h120q25 0 46.5 -9.5t38 -26t26 -38t9.5 -46.5t-9.5 -46.5t-26 -38t-38 -26t-46.5 -9.5h-120q-25 0 -46.5 9.5t-38 26t-26 38t-9.5 46.5z" />
    <glyph glyph-name="at" unicode="@" horiz-adv-x="2020" 
d="M436 350q0 38 14.5 77t43.5 70.5t72 52t100 20.5h460q44 0 79.5 -12.5t62.5 -32.5v45h316v-220q0 -40 40 -40t40 40v300h-1004q-89 0 -148 -32.5t-93.5 -79.5t-48.5 -98.5t-14 -89.5t14 -89.5t48.5 -98.5t93.5 -79.5t148 -32.5h1240v-180h-1340q-113 0 -208.5 33
t-164.5 94.5t-108 151t-39 201.5q0 113 39 202t108 150.5t164.5 94.5t208.5 33h1420v-520q0 -180 -180 -180h-272q-153 0 -216 90q-29 -39 -75.5 -64.5t-110.5 -25.5h-460q-57 0 -100 20.5t-72 52t-43.5 71t-14.5 76.5zM796 390q-44 0 -44 -40t44 -40h276q44 0 44 40t-44 40
h-276z" />
    <glyph glyph-name="A" unicode="A" horiz-adv-x="1570" 
d="M1530 0h-356l-81 100h-616l-81 -100h-356l567 700h356zM931 300l-146 180l-146 -180h292z" />
    <glyph glyph-name="B" unicode="B" 
d="M40 700h1080q55 0 101 -13t79 -38.5t51.5 -62.5t18.5 -86q0 -51 -22.5 -89t-64.5 -61q42 -23 64.5 -61t22.5 -89q0 -49 -18.5 -86t-51.5 -62.5t-79 -38.5t-101 -13h-1080v700zM356 440h654q44 0 44 40t-44 40h-654v-80zM1010 180q44 0 44 40t-44 40h-654v-80h654z" />
    <glyph glyph-name="C" unicode="C" horiz-adv-x="1380" 
d="M1340 0h-950q-72 0 -136 27.5t-111.5 75t-75 111.5t-27.5 136t27.5 136t75 111.5t111.5 75t136 27.5h950v-260h-885q-42 0 -71 -24t-29 -66t29 -66t71 -24h885v-260z" />
    <glyph glyph-name="D" unicode="D" horiz-adv-x="1440" 
d="M40 0v700h1010q72 0 136 -27.5t111.5 -75t75 -111.5t27.5 -136t-27.5 -136t-75 -111.5t-111.5 -75t-136 -27.5h-1010zM355 250h625q47 0 76 28t29 72t-29 72t-76 28h-625v-200z" />
    <glyph glyph-name="E" unicode="E" horiz-adv-x="1380" 
d="M40 700h1300v-180h-984v-80h984v-180h-984v-80h984v-180h-1300v700z" />
    <glyph glyph-name="F" unicode="F" horiz-adv-x="1380" 
d="M40 700h1300v-180h-984v-80h944v-180h-944v-260h-316v700z" />
    <glyph glyph-name="G" unicode="G" horiz-adv-x="1380" 
d="M1024 350h316v-350h-950q-72 0 -136 27.5t-111.5 75t-75 111.5t-27.5 136t27.5 136t75 111.5t111.5 75t136 27.5h950v-260h-885q-42 0 -71 -24t-29 -66t29 -66t71 -24h569v90z" />
    <glyph glyph-name="H" unicode="H" 
d="M40 700h316v-230h698v230h316v-700h-316v230h-698v-230h-316v700z" />
    <glyph glyph-name="I" unicode="I" horiz-adv-x="396" 
d="M40 700h316v-700h-316v700z" />
    <glyph glyph-name="J" unicode="J" horiz-adv-x="1310" 
d="M954 360v340h316v-340q0 -72 -27.5 -137.5t-75 -115t-111.5 -78.5t-136 -29h-880v350h316v-90h498q42 0 71 29t29 71z" />
    <glyph glyph-name="K" unicode="K" 
d="M40 700h316v-384l556 384h458l-507 -350l507 -350h-458l-278 192l-278 -192h-316v700z" />
    <glyph glyph-name="L" unicode="L" horiz-adv-x="1280" 
d="M40 700h316v-460h884v-240h-1200v700z" />
    <glyph glyph-name="M" unicode="M" horiz-adv-x="1718" 
d="M40 700h422l389 -480l389 480h438v-700h-316v411l-333 -411h-356l-317 391v-391h-316v700z" />
    <glyph glyph-name="N" unicode="N" 
d="M40 700h316l698 -400v400h316v-700h-316l-698 400v-400h-316v700z" />
    <glyph glyph-name="O" unicode="O" horiz-adv-x="1510" 
d="M1120 710q72 0 136 -29t111.5 -78.5t75 -115t27.5 -137.5t-27.5 -137.5t-75 -115t-111.5 -78.5t-136 -29h-730q-72 0 -136 29t-111.5 78.5t-75 115t-27.5 137.5t27.5 137.5t75 115t111.5 78.5t136 29h730zM1055 450h-600q-42 0 -71 -29t-29 -71t29 -71t71 -29h600
q42 0 71 29t29 71t-29 71t-71 29z" />
    <glyph glyph-name="P" unicode="P" 
d="M40 700h1050q66 0 118 -24t88 -63.5t55 -89.5t19 -103q0 -52 -19 -102.5t-55 -90t-88 -63.5t-118 -24h-734v-140h-316v700zM356 460v-80h654q44 0 44 40t-44 40h-654z" />
    <glyph glyph-name="Q" unicode="Q" horiz-adv-x="1510" 
d="M1120 710q72 0 136 -29t111.5 -78.5t75 -115t27.5 -137.5q0 -67 -23.5 -127.5t-64.5 -108.5t-96.5 -80t-119.5 -41l59 -73h-276l-57 70h-502q-72 0 -136 29t-111.5 78.5t-75 115t-27.5 137.5t27.5 137.5t75 115t111.5 78.5t136 29h730zM1055 450h-600q-42 0 -71 -29
t-29 -71t29 -71t71 -29h227l-83 102l276 -1l82 -101h98q42 0 71 29t29 71t-29 71t-71 29z" />
    <glyph glyph-name="R" unicode="R" 
d="M40 700h1050q66 0 118 -24t88 -63.5t55 -89.5t19 -103q0 -45 -14.5 -89t-42 -81t-67 -64t-89.5 -39l213 -147h-408l-203 140h-403v-140h-316v700zM356 460v-80h654q44 0 44 40t-44 40h-654z" />
    <glyph glyph-name="S" unicode="S" horiz-adv-x="1420" 
d="M258 300q-51 0 -91.5 14.5t-68.5 40t-43 61.5t-15 79t15 80.5t43 65t68.5 43.5t91.5 16h1082v-240h-951q-18 0 -25.5 -10.5t-7.5 -19.5t7.5 -19.5t25.5 -10.5h773q51 0 91.5 -14.5t68.5 -40t43 -61.5t15 -79t-15 -80.5t-43 -65t-68.5 -43.5t-91.5 -16h-1082v240h951
q18 0 25.5 10.5t7.5 19.5t-7.5 19.5t-25.5 10.5h-773z" />
    <glyph glyph-name="T" unicode="T" 
d="M546 460h-506v240h1330v-240h-508v-460h-316v460z" />
    <glyph glyph-name="U" unicode="U" 
d="M1370 350q0 -72 -27.5 -137.5t-75 -115t-111.5 -78.5t-136 -29h-630q-72 0 -136 29t-111.5 78.5t-75 115t-27.5 137.5v350h316v-350q0 -42 29 -71t71 -29h498q42 0 71 29t29 71v350h316v-350z" />
    <glyph glyph-name="V" unicode="V" horiz-adv-x="1570" 
d="M963 0h-356l-567 700h356l389 -480l389 480h356z" />
    <glyph glyph-name="W" unicode="W" horiz-adv-x="2086" 
d="M963 0h-356l-567 700h356l389 -480l80 99l-309 381h356l131 -162l131 162h356l-309 -381l80 -99l389 480h356l-567 -700h-356l-80 99z" />
    <glyph glyph-name="X" unicode="X" horiz-adv-x="1516" 
d="M500 700l258 -185l258 185h446l-481 -345l495 -355h-446l-272 195l-272 -195h-446l495 355l-481 345h446z" />
    <glyph glyph-name="Y" unicode="Y" horiz-adv-x="1570" 
d="M627 240l-587 460h417l328 -258l328 258h417l-587 -460v-240h-316v240z" />
    <glyph glyph-name="Z" unicode="Z" horiz-adv-x="1330" 
d="M738 460h-698v240h1250v-240l-698 -220h698v-240h-1250v240z" />
    <glyph glyph-name="bracketleft" unicode="[" horiz-adv-x="421" 
d="M40 740h341l-1 -100h-120v-580h120l1 -100h-341v780z" />
    <glyph glyph-name="backslash" unicode="\" horiz-adv-x="987" 
d="M40 740h276l631 -780h-276z" />
    <glyph glyph-name="bracketright" unicode="]" horiz-adv-x="421" 
d="M381 -40h-341l1 100h120v580h-120l-1 100h341v-780z" />
    <glyph glyph-name="asciicircum" unicode="^" horiz-adv-x="618" 
d="M309 780l269 -269l-142 -141l-127 127l-127 -127l-142 141z" />
    <glyph glyph-name="underscore" unicode="_" horiz-adv-x="1000" 
d="M40 0h920v-200h-920v200z" />
    <glyph glyph-name="grave" unicode="`" horiz-adv-x="498" 
d="M458 780h-220l-198 240h316z" />
    <glyph glyph-name="a" unicode="a" horiz-adv-x="1570" 
d="M1530 0h-356l-81 100h-616l-81 -100h-356l567 700h356zM931 300l-146 180l-146 -180h292z" />
    <glyph glyph-name="b" unicode="b" 
d="M40 700h1080q55 0 101 -13t79 -38.5t51.5 -62.5t18.5 -86q0 -51 -22.5 -89t-64.5 -61q42 -23 64.5 -61t22.5 -89q0 -49 -18.5 -86t-51.5 -62.5t-79 -38.5t-101 -13h-1080v700zM356 440h654q44 0 44 40t-44 40h-654v-80zM1010 180q44 0 44 40t-44 40h-654v-80h654z" />
    <glyph glyph-name="c" unicode="c" horiz-adv-x="1380" 
d="M1340 0h-950q-72 0 -136 27.5t-111.5 75t-75 111.5t-27.5 136t27.5 136t75 111.5t111.5 75t136 27.5h950v-260h-885q-42 0 -71 -24t-29 -66t29 -66t71 -24h885v-260z" />
    <glyph glyph-name="d" unicode="d" horiz-adv-x="1440" 
d="M40 0v700h1010q72 0 136 -27.5t111.5 -75t75 -111.5t27.5 -136t-27.5 -136t-75 -111.5t-111.5 -75t-136 -27.5h-1010zM355 250h625q47 0 76 28t29 72t-29 72t-76 28h-625v-200z" />
    <glyph glyph-name="e" unicode="e" horiz-adv-x="1380" 
d="M40 700h1300v-180h-984v-80h984v-180h-984v-80h984v-180h-1300v700z" />
    <glyph glyph-name="f" unicode="f" horiz-adv-x="1380" 
d="M40 700h1300v-180h-984v-80h944v-180h-944v-260h-316v700z" />
    <glyph glyph-name="g" unicode="g" horiz-adv-x="1380" 
d="M1024 350h316v-350h-950q-72 0 -136 27.5t-111.5 75t-75 111.5t-27.5 136t27.5 136t75 111.5t111.5 75t136 27.5h950v-260h-885q-42 0 -71 -24t-29 -66t29 -66t71 -24h569v90z" />
    <glyph glyph-name="h" unicode="h" 
d="M40 700h316v-230h698v230h316v-700h-316v230h-698v-230h-316v700z" />
    <glyph glyph-name="i" unicode="i" horiz-adv-x="396" 
d="M40 700h316v-700h-316v700z" />
    <glyph glyph-name="j" unicode="j" horiz-adv-x="1310" 
d="M954 360v340h316v-340q0 -72 -27.5 -137.5t-75 -115t-111.5 -78.5t-136 -29h-880v350h316v-90h498q42 0 71 29t29 71z" />
    <glyph glyph-name="k" unicode="k" 
d="M40 700h316v-384l556 384h458l-507 -350l507 -350h-458l-278 192l-278 -192h-316v700z" />
    <glyph glyph-name="l" unicode="l" horiz-adv-x="1280" 
d="M40 700h316v-460h884v-240h-1200v700z" />
    <glyph glyph-name="m" unicode="m" horiz-adv-x="1718" 
d="M40 700h422l389 -480l389 480h438v-700h-316v411l-333 -411h-356l-317 391v-391h-316v700z" />
    <glyph glyph-name="n" unicode="n" 
d="M40 700h316l698 -400v400h316v-700h-316l-698 400v-400h-316v700z" />
    <glyph glyph-name="o" unicode="o" horiz-adv-x="1510" 
d="M1120 710q72 0 136 -29t111.5 -78.5t75 -115t27.5 -137.5t-27.5 -137.5t-75 -115t-111.5 -78.5t-136 -29h-730q-72 0 -136 29t-111.5 78.5t-75 115t-27.5 137.5t27.5 137.5t75 115t111.5 78.5t136 29h730zM1055 450h-600q-42 0 -71 -29t-29 -71t29 -71t71 -29h600
q42 0 71 29t29 71t-29 71t-71 29z" />
    <glyph glyph-name="p" unicode="p" 
d="M40 700h1050q66 0 118 -24t88 -63.5t55 -89.5t19 -103q0 -52 -19 -102.5t-55 -90t-88 -63.5t-118 -24h-734v-140h-316v700zM356 460v-80h654q44 0 44 40t-44 40h-654z" />
    <glyph glyph-name="q" unicode="q" horiz-adv-x="1510" 
d="M1120 710q72 0 136 -29t111.5 -78.5t75 -115t27.5 -137.5q0 -67 -23.5 -127.5t-64.5 -108.5t-96.5 -80t-119.5 -41l59 -73h-276l-57 70h-502q-72 0 -136 29t-111.5 78.5t-75 115t-27.5 137.5t27.5 137.5t75 115t111.5 78.5t136 29h730zM1055 450h-600q-42 0 -71 -29
t-29 -71t29 -71t71 -29h227l-83 102l276 -1l82 -101h98q42 0 71 29t29 71t-29 71t-71 29z" />
    <glyph glyph-name="r" unicode="r" 
d="M40 700h1050q66 0 118 -24t88 -63.5t55 -89.5t19 -103q0 -45 -14.5 -89t-42 -81t-67 -64t-89.5 -39l213 -147h-408l-203 140h-403v-140h-316v700zM356 460v-80h654q44 0 44 40t-44 40h-654z" />
    <glyph glyph-name="s" unicode="s" horiz-adv-x="1420" 
d="M258 300q-51 0 -91.5 14.5t-68.5 40t-43 61.5t-15 79t15 80.5t43 65t68.5 43.5t91.5 16h1082v-240h-951q-18 0 -25.5 -10.5t-7.5 -19.5t7.5 -19.5t25.5 -10.5h773q51 0 91.5 -14.5t68.5 -40t43 -61.5t15 -79t-15 -80.5t-43 -65t-68.5 -43.5t-91.5 -16h-1082v240h951
q18 0 25.5 10.5t7.5 19.5t-7.5 19.5t-25.5 10.5h-773z" />
    <glyph glyph-name="t" unicode="t" 
d="M546 460h-506v240h1330v-240h-508v-460h-316v460z" />
    <glyph glyph-name="u" unicode="u" 
d="M1370 350q0 -72 -27.5 -137.5t-75 -115t-111.5 -78.5t-136 -29h-630q-72 0 -136 29t-111.5 78.5t-75 115t-27.5 137.5v350h316v-350q0 -42 29 -71t71 -29h498q42 0 71 29t29 71v350h316v-350z" />
    <glyph glyph-name="v" unicode="v" horiz-adv-x="1570" 
d="M963 0h-356l-567 700h356l389 -480l389 480h356z" />
    <glyph glyph-name="w" unicode="w" horiz-adv-x="2086" 
d="M963 0h-356l-567 700h356l389 -480l80 99l-309 381h356l131 -162l131 162h356l-309 -381l80 -99l389 480h356l-567 -700h-356l-80 99z" />
    <glyph glyph-name="x" unicode="x" horiz-adv-x="1516" 
d="M500 700l258 -185l258 185h446l-481 -345l495 -355h-446l-272 195l-272 -195h-446l495 355l-481 345h446z" />
    <glyph glyph-name="y" unicode="y" horiz-adv-x="1570" 
d="M627 240l-587 460h417l328 -258l328 258h417l-587 -460v-240h-316v240z" />
    <glyph glyph-name="z" unicode="z" horiz-adv-x="1330" 
d="M738 460h-698v240h1250v-240l-698 -220h698v-240h-1250v240z" />
    <glyph glyph-name="braceleft" unicode="{" horiz-adv-x="471" 
d="M250 -40q-160 0 -160 160v90q0 60 -42 102l-38 38l38 38q42 42 42 102v90q0 160 160 160h181l-1 -100h-80q-40 0 -40 -40v-70q0 -100 -83 -155l-37 -25l37 -25q83 -55 83 -155v-70q0 -40 40 -40h80l1 -100h-181z" />
    <glyph glyph-name="bar" unicode="|" horiz-adv-x="280" 
d="M40 750h200v-800h-200v800z" />
    <glyph glyph-name="braceright" unicode="}" horiz-adv-x="471" 
d="M40 -40l1 100h80q40 0 40 40v70q0 100 83 155l37 25l-37 25q-83 55 -83 155v70q0 40 -40 40h-80l-1 100h181q160 0 160 -160v-90q0 -60 42 -102l38 -38l-38 -38q-42 -42 -42 -102v-90q0 -160 -160 -160h-181z" />
    <glyph glyph-name="asciitilde" unicode="~" horiz-adv-x="818" 
d="M138 229l-98 169l40 25q87 54 181 54q51 0 108 -17l40 -13l87 -25q32 -9 60 -9q52 0 103 30l21 12l98 -169l-40 -25q-87 -54 -181 -54q-51 0 -108 17l-40 13l-87 25q-31 9 -60 9q-52 0 -103 -30z" />
    <glyph glyph-name="exclamdown" unicode="&#xa1;" horiz-adv-x="440" 
d="M40 590q0 25 9.5 46.5t26 38t38 26t46.5 9.5h120q25 0 46.5 -9.5t38 -26t26 -38t9.5 -46.5t-9.5 -46.5t-26 -38t-38 -26t-46.5 -9.5h-120q-25 0 -46.5 9.5t-38 26t-26 38t-9.5 46.5zM100 390h240l38 -390h-316z" />
    <glyph glyph-name="cent" unicode="&#xa2;" horiz-adv-x="1380" 
d="M1340 0h-448v-80h-200v80h-302q-72 0 -136 27.5t-111.5 75t-75 111.5t-27.5 136t27.5 136t75 111.5t111.5 75t136 27.5h302v80h200v-80h448v-260h-885q-42 0 -71 -24t-29 -66t29 -66t71 -24h885v-260z" />
    <glyph glyph-name="sterling" unicode="&#xa3;" horiz-adv-x="1490" 
d="M42 180h78v80h-80v180h81q15 260 290 260h769q63 0 113 -19t85 -52t53.5 -76.5t18.5 -92.5h-316q0 9 -3 19.5t-10.5 19.5t-20 15t-30.5 6h-554q-80 0 -80 -80h618v-180h-618v-80h934v-180h-1328v180z" />
    <glyph glyph-name="currency" unicode="&#xa4;" horiz-adv-x="780" 
d="M110 349q0 36 8.5 69t24.5 62l-99 89l127 128l91 -102q29 14 61 22t67 8t67.5 -8t61.5 -22l94 105l127 -127l-103 -93q16 -29 24.5 -62t8.5 -69q0 -35 -8.5 -67.5t-23.5 -61.5l99 -89l-128 -127l-91 101q-29 -14 -61 -22t-67 -8t-67 8t-61 22l-95 -105l-127 127l103 92
q-16 29 -24.5 62t-8.5 68zM290 350q0 -42 29 -71t71 -29q21 0 39.5 8t32 21.5t21 31.5t7.5 39t-7.5 39.5t-21 32t-32 21t-39.5 7.5t-39 -7.5t-31.5 -21t-21.5 -32t-8 -39.5z" />
    <glyph glyph-name="yen" unicode="&#xa5;" horiz-adv-x="1570" 
d="M627 100h-302v200h225l-510 400h417l328 -258l328 258h417l-510 -400h225v-200h-302v-100h-316v100z" />
    <glyph glyph-name="brokenbar" unicode="&#xa6;" horiz-adv-x="280" 
d="M40 750h200v-330h-200v330zM40 280h200v-330h-200v330z" />
    <glyph glyph-name="section" unicode="&#xa7;" 
d="M40 350q0 56 32 93.5t95 54.5q-41 23 -65 57t-22 85q2 32 17 61t42.5 51t67.5 35t91 13h992v-240h-861q-18 0 -25.5 -8t-7.5 -17t7.5 -17t25.5 -8h711q114 0 172 -42.5t58 -117.5q0 -56 -32 -93.5t-95 -54.5q41 -23 65 -57t22 -85q-1 -32 -16.5 -61t-43 -51t-67.5 -35
t-91 -13h-992v240h861q18 0 25.5 8t7.5 17t-7.5 17t-25.5 8h-711q-114 0 -172 42.5t-58 117.5zM400 390q-44 0 -44 -40t44 -40h610q44 0 44 40t-44 40h-610z" />
    <glyph glyph-name="dieresis" unicode="&#xa8;" horiz-adv-x="920" 
d="M40 890q0 25 9.5 46.5t26 38t38 26t46.5 9.5h120q25 0 46.5 -9.5t38 -26t26 -38t9.5 -46.5t-9.5 -46.5t-26 -38t-38 -26t-46.5 -9.5h-120q-25 0 -46.5 9.5t-38 26t-26 38t-9.5 46.5zM520 890q0 25 9.5 46.5t26 38t38 26t46.5 9.5h120q25 0 46.5 -9.5t38 -26t26 -38
t9.5 -46.5t-9.5 -46.5t-26 -38t-38 -26t-46.5 -9.5h-120q-25 0 -46.5 9.5t-38 26t-26 38t-9.5 46.5z" />
    <glyph glyph-name="copyright" unicode="&#xa9;" horiz-adv-x="1450" 
d="M420 -50q-84 0 -153.5 35.5t-120 92.5t-78.5 128.5t-28 143.5t28 143.5t78.5 128.5t120 92.5t153.5 35.5h610q84 0 153.5 -35.5t120 -92.5t78.5 -128.5t28 -143.5t-28 -143.5t-78.5 -128.5t-120 -92.5t-153.5 -35.5h-610zM490 130h470q56 0 96 22.5t65.5 55.5t37 71.5
t11.5 70.5t-11.5 70.5t-37 71.5t-65.5 55.5t-96 22.5h-470q-56 0 -96 -22.5t-65.5 -55.5t-37 -71.5t-11.5 -70.5t11.5 -70.5t37 -71.5t65.5 -55.5t96 -22.5zM1000 189h-438q-33 0 -62.5 12.5t-51.5 34.5t-35 51.5t-13 62.5t13 62.5t35 51.5t51.5 35t62.5 13h438v-120h-408
q-20 0 -33 -11t-13 -31q0 -19 13 -30t33 -11h408v-120z" />
    <glyph glyph-name="guillemotleft" unicode="&#xab;" horiz-adv-x="720" 
d="M200 74l-160 276l160 276h200l-160 -276l160 -276h-200zM480 74l-160 276l160 276h200l-160 -276l160 -276h-200z" />
    <glyph glyph-name="registered" unicode="&#xae;" horiz-adv-x="1450" 
d="M420 -50q-84 0 -153.5 35.5t-120 92.5t-78.5 128.5t-28 143.5t28 143.5t78.5 128.5t120 92.5t153.5 35.5h610q84 0 153.5 -35.5t120 -92.5t78.5 -128.5t28 -143.5t-28 -143.5t-78.5 -128.5t-120 -92.5t-153.5 -35.5h-610zM490 130h470q56 0 96 22.5t65.5 55.5t37 71.5
t11.5 70.5t-11.5 70.5t-37 71.5t-65.5 55.5t-96 22.5h-470q-56 0 -96 -22.5t-65.5 -55.5t-37 -71.5t-11.5 -70.5t11.5 -70.5t37 -71.5t65.5 -55.5t96 -22.5zM451 505h140v-1h325q29 0 52 -10.5t39 -28t24.5 -40t8.5 -45.5q0 -40 -24.5 -75t-69.5 -46l94 -64h-178l-88 61
h-183v-61h-140v310zM591 363h289q20 0 20 17q0 18 -20 18h-289v-35z" />
    <glyph glyph-name="macron" unicode="&#xaf;" horiz-adv-x="780" 
d="M40 980h700v-200h-700v200z" />
    <glyph glyph-name="degree" unicode="&#xb0;" horiz-adv-x="960" 
d="M40 590q0 25 9.5 46.5t26 38t38 26t46.5 9.5h640q25 0 46.5 -9.5t38 -26t26 -38t9.5 -46.5t-9.5 -46.5t-26 -38t-38 -26t-46.5 -9.5h-640q-25 0 -46.5 9.5t-38 26t-26 38t-9.5 46.5zM320 590q0 -17 11.5 -28.5t28.5 -11.5h240q17 0 28.5 11.5t11.5 28.5t-11.5 28.5
t-28.5 11.5h-240q-17 0 -28.5 -11.5t-11.5 -28.5z" />
    <glyph glyph-name="acute" unicode="&#xb4;" horiz-adv-x="498" 
d="M142 1020h316l-198 -240h-220z" />
    <glyph glyph-name="paragraph" unicode="&#xb6;" horiz-adv-x="850" 
d="M330 0v240h-85q-36 0 -73 17.5t-66 48.5t-47.5 73t-18.5 91t18.5 91t47.5 73t66 48.5t73 17.5h565v-700h-200v520h-80v-520h-200z" />
    <glyph glyph-name="periodcentered" unicode="&#xb7;" horiz-adv-x="440" 
d="M40 350q0 25 9.5 46.5t26 38t38 26t46.5 9.5h120q25 0 46.5 -9.5t38 -26t26 -38t9.5 -46.5t-9.5 -46.5t-26 -38t-38 -26t-46.5 -9.5h-120q-25 0 -46.5 9.5t-38 26t-26 38t-9.5 46.5z" />
    <glyph glyph-name="cedilla" unicode="&#xb8;" horiz-adv-x="440" 
d="M40 -200h200q17 0 28.5 11.5t11.5 28.5t-11.5 28.5t-28.5 11.5h-200l138 170h146l-79 -90q43 -3 72.5 -19.5t48 -40t26.5 -50.5t8 -51q0 -25 -8.5 -56t-29 -58.5t-55 -46t-87.5 -18.5h-180v180z" />
    <glyph glyph-name="guillemotright" unicode="&#xbb;" horiz-adv-x="720" 
d="M40 74l160 276l-160 276h200l160 -276l-160 -276h-200zM320 74l160 276l-160 276h200l160 -276l-160 -276h-200z" />
    <glyph glyph-name="questiondown" unicode="&#xbf;" 
d="M885 590q0 -25 -9.5 -46.5t-26 -38t-38 -26t-46.5 -9.5h-120q-25 0 -46.5 9.5t-38 26t-26 38t-9.5 46.5t9.5 46.5t26 38t38 26t46.5 9.5h120q25 0 46.5 -9.5t38 -26t26 -38t9.5 -46.5zM1010 170q21 0 32.5 15.5t11.5 34.5v20h316v-20q0 -49 -18.5 -91t-51.5 -73
t-79 -48.5t-101 -17.5h-830q-57 0 -103 14.5t-78.5 41.5t-50.5 66t-18 88q0 45 19 82t50.5 63t73.5 40.5t87 14.5h555v-150h-425q-44 0 -44 -40t44 -40h610z" />
    <glyph glyph-name="Agrave" unicode="&#xc0;" horiz-adv-x="1570" 
d="M1530 0h-356l-81 100h-616l-81 -100h-356l567 700h356zM931 300l-146 180l-146 -180h292zM894 780h-220l-198 240h316z" />
    <glyph glyph-name="Aacute" unicode="&#xc1;" horiz-adv-x="1570" 
d="M1530 0h-356l-81 100h-616l-81 -100h-356l567 700h356zM931 300l-146 180l-146 -180h292zM778 1020h316l-198 -240h-220z" />
    <glyph glyph-name="Acircumflex" unicode="&#xc2;" horiz-adv-x="1570" 
d="M1530 0h-356l-81 100h-616l-81 -100h-356l567 700h356zM931 300l-146 180l-146 -180h292zM645 1020h280l260 -240h-280l-120 111l-120 -111h-280z" />
    <glyph glyph-name="Atilde" unicode="&#xc3;" horiz-adv-x="1570" 
d="M1530 0h-356l-81 100h-616l-81 -100h-356l567 700h356zM931 300l-146 180l-146 -180h292zM514 788l-98 169l40 25q87 54 181 54q51 0 108 -17l40 -13l87 -25q32 -9 60 -9q52 0 103 30l21 12l98 -169l-40 -25q-87 -54 -181 -54q-51 0 -108 17l-40 13l-87 25q-31 9 -60 9
q-52 0 -103 -30z" />
    <glyph glyph-name="Adieresis" unicode="&#xc4;" horiz-adv-x="1570" 
d="M1530 0h-356l-81 100h-616l-81 -100h-356l567 700h356zM931 300l-146 180l-146 -180h292zM365 890q0 25 9.5 46.5t26 38t38 26t46.5 9.5h120q25 0 46.5 -9.5t38 -26t26 -38t9.5 -46.5t-9.5 -46.5t-26 -38t-38 -26t-46.5 -9.5h-120q-25 0 -46.5 9.5t-38 26t-26 38
t-9.5 46.5zM845 890q0 25 9.5 46.5t26 38t38 26t46.5 9.5h120q25 0 46.5 -9.5t38 -26t26 -38t9.5 -46.5t-9.5 -46.5t-26 -38t-38 -26t-46.5 -9.5h-120q-25 0 -46.5 9.5t-38 26t-26 38t-9.5 46.5z" />
    <glyph glyph-name="Aring" unicode="&#xc5;" horiz-adv-x="1570" 
d="M1530 0h-356l-81 100h-616l-81 -100h-356l567 700h356zM931 300l-146 180l-146 -180h292zM345 890q0 25 9.5 46.5t26 38t38 26t46.5 9.5h640q25 0 46.5 -9.5t38 -26t26 -38t9.5 -46.5t-9.5 -46.5t-26 -38t-38 -26t-46.5 -9.5h-640q-25 0 -46.5 9.5t-38 26t-26 38
t-9.5 46.5zM625 890q0 -17 11.5 -28.5t28.5 -11.5h240q17 0 28.5 11.5t11.5 28.5t-11.5 28.5t-28.5 11.5h-240q-17 0 -28.5 -11.5t-11.5 -28.5z" />
    <glyph glyph-name="AE" unicode="&#xc6;" horiz-adv-x="2514" 
d="M1174 440v260h1300v-180h-984v-80h984v-180h-984v-80h984v-180h-1300l-81 100h-616l-81 -100h-356l567 700h356zM931 300l-146 180l-146 -180h292z" />
    <glyph glyph-name="Ccedilla" unicode="&#xc7;" horiz-adv-x="1380" 
d="M1340 0h-950q-72 0 -136 27.5t-111.5 75t-75 111.5t-27.5 136t27.5 136t75 111.5t111.5 75t136 27.5h950v-260h-885q-42 0 -71 -24t-29 -66t29 -66t71 -24h885v-260zM615 -200h200q17 0 28.5 11.5t11.5 28.5t-11.5 28.5t-28.5 11.5h-200l138 170h146l-79 -90
q43 -3 72.5 -19.5t48 -40t26.5 -50.5t8 -51q0 -25 -8.5 -56t-29 -58.5t-55 -46t-87.5 -18.5h-180v180z" />
    <glyph glyph-name="Egrave" unicode="&#xc8;" horiz-adv-x="1380" 
d="M40 700h1300v-180h-984v-80h984v-180h-984v-80h984v-180h-1300v700zM819 780h-220l-198 240h316z" />
    <glyph glyph-name="Eacute" unicode="&#xc9;" horiz-adv-x="1380" 
d="M40 700h1300v-180h-984v-80h984v-180h-984v-80h984v-180h-1300v700zM703 1020h316l-198 -240h-220z" />
    <glyph glyph-name="Ecircumflex" unicode="&#xca;" horiz-adv-x="1380" 
d="M40 700h1300v-180h-984v-80h984v-180h-984v-80h984v-180h-1300v700zM570 1020h280l260 -240h-280l-120 111l-120 -111h-280z" />
    <glyph glyph-name="Edieresis" unicode="&#xcb;" horiz-adv-x="1380" 
d="M40 700h1300v-180h-984v-80h984v-180h-984v-80h984v-180h-1300v700zM290 890q0 25 9.5 46.5t26 38t38 26t46.5 9.5h120q25 0 46.5 -9.5t38 -26t26 -38t9.5 -46.5t-9.5 -46.5t-26 -38t-38 -26t-46.5 -9.5h-120q-25 0 -46.5 9.5t-38 26t-26 38t-9.5 46.5zM770 890
q0 25 9.5 46.5t26 38t38 26t46.5 9.5h120q25 0 46.5 -9.5t38 -26t26 -38t9.5 -46.5t-9.5 -46.5t-26 -38t-38 -26t-46.5 -9.5h-120q-25 0 -46.5 9.5t-38 26t-26 38t-9.5 46.5z" />
    <glyph glyph-name="Igrave" unicode="&#xcc;" horiz-adv-x="396" 
d="M40 700h316v-700h-316v700zM307 780h-220l-198 240h316z" />
    <glyph glyph-name="Iacute" unicode="&#xcd;" horiz-adv-x="396" 
d="M40 700h316v-700h-316v700zM191 1020h316l-198 -240h-220z" />
    <glyph glyph-name="Icircumflex" unicode="&#xce;" horiz-adv-x="396" 
d="M40 700h316v-700h-316v700zM58 1020h280l260 -240h-280l-120 111l-120 -111h-280z" />
    <glyph glyph-name="Idieresis" unicode="&#xcf;" horiz-adv-x="396" 
d="M40 700h316v-700h-316v700zM-222 890q0 25 9.5 46.5t26 38t38 26t46.5 9.5h120q25 0 46.5 -9.5t38 -26t26 -38t9.5 -46.5t-9.5 -46.5t-26 -38t-38 -26t-46.5 -9.5h-120q-25 0 -46.5 9.5t-38 26t-26 38t-9.5 46.5zM258 890q0 25 9.5 46.5t26 38t38 26t46.5 9.5h120
q25 0 46.5 -9.5t38 -26t26 -38t9.5 -46.5t-9.5 -46.5t-26 -38t-38 -26t-46.5 -9.5h-120q-25 0 -46.5 9.5t-38 26t-26 38t-9.5 46.5z" />
    <glyph glyph-name="Eth" unicode="&#xd0;" horiz-adv-x="1521" 
d="M121 0v700h1010q72 0 136 -27.5t111.5 -75t75 -111.5t27.5 -136t-27.5 -136t-75 -111.5t-111.5 -75t-136 -27.5h-1010zM436 250h625q47 0 76 28t29 72t-29 72t-76 28h-625v-200zM40 450h396v-200h-396v200z" />
    <glyph glyph-name="Ntilde" unicode="&#xd1;" 
d="M40 700h316l698 -400v400h316v-700h-316l-698 400v-400h-316v700zM434 788l-98 169l40 25q87 54 181 54q51 0 108 -17l40 -13l87 -25q32 -9 60 -9q52 0 103 30l21 12l98 -169l-40 -25q-87 -54 -181 -54q-51 0 -108 17l-40 13l-87 25q-31 9 -60 9q-52 0 -103 -30z" />
    <glyph glyph-name="Ograve" unicode="&#xd2;" horiz-adv-x="1510" 
d="M1120 710q72 0 136 -29t111.5 -78.5t75 -115t27.5 -137.5t-27.5 -137.5t-75 -115t-111.5 -78.5t-136 -29h-730q-72 0 -136 29t-111.5 78.5t-75 115t-27.5 137.5t27.5 137.5t75 115t111.5 78.5t136 29h730zM1055 450h-600q-42 0 -71 -29t-29 -71t29 -71t71 -29h600
q42 0 71 29t29 71t-29 71t-71 29zM864 780h-220l-198 240h316z" />
    <glyph glyph-name="Oacute" unicode="&#xd3;" horiz-adv-x="1510" 
d="M1120 710q72 0 136 -29t111.5 -78.5t75 -115t27.5 -137.5t-27.5 -137.5t-75 -115t-111.5 -78.5t-136 -29h-730q-72 0 -136 29t-111.5 78.5t-75 115t-27.5 137.5t27.5 137.5t75 115t111.5 78.5t136 29h730zM1055 450h-600q-42 0 -71 -29t-29 -71t29 -71t71 -29h600
q42 0 71 29t29 71t-29 71t-71 29zM748 1020h316l-198 -240h-220z" />
    <glyph glyph-name="Ocircumflex" unicode="&#xd4;" horiz-adv-x="1510" 
d="M1120 710q72 0 136 -29t111.5 -78.5t75 -115t27.5 -137.5t-27.5 -137.5t-75 -115t-111.5 -78.5t-136 -29h-730q-72 0 -136 29t-111.5 78.5t-75 115t-27.5 137.5t27.5 137.5t75 115t111.5 78.5t136 29h730zM1055 450h-600q-42 0 -71 -29t-29 -71t29 -71t71 -29h600
q42 0 71 29t29 71t-29 71t-71 29zM615 1020h280l260 -240h-280l-120 111l-120 -111h-280z" />
    <glyph glyph-name="Otilde" unicode="&#xd5;" horiz-adv-x="1510" 
d="M1120 710q72 0 136 -29t111.5 -78.5t75 -115t27.5 -137.5t-27.5 -137.5t-75 -115t-111.5 -78.5t-136 -29h-730q-72 0 -136 29t-111.5 78.5t-75 115t-27.5 137.5t27.5 137.5t75 115t111.5 78.5t136 29h730zM1055 450h-600q-42 0 -71 -29t-29 -71t29 -71t71 -29h600
q42 0 71 29t29 71t-29 71t-71 29zM484 788l-98 169l40 25q87 54 181 54q51 0 108 -17l40 -13l87 -25q32 -9 60 -9q52 0 103 30l21 12l98 -169l-40 -25q-87 -54 -181 -54q-51 0 -108 17l-40 13l-87 25q-31 9 -60 9q-52 0 -103 -30z" />
    <glyph glyph-name="Odieresis" unicode="&#xd6;" horiz-adv-x="1510" 
d="M1120 710q72 0 136 -29t111.5 -78.5t75 -115t27.5 -137.5t-27.5 -137.5t-75 -115t-111.5 -78.5t-136 -29h-730q-72 0 -136 29t-111.5 78.5t-75 115t-27.5 137.5t27.5 137.5t75 115t111.5 78.5t136 29h730zM1055 450h-600q-42 0 -71 -29t-29 -71t29 -71t71 -29h600
q42 0 71 29t29 71t-29 71t-71 29zM335 890q0 25 9.5 46.5t26 38t38 26t46.5 9.5h120q25 0 46.5 -9.5t38 -26t26 -38t9.5 -46.5t-9.5 -46.5t-26 -38t-38 -26t-46.5 -9.5h-120q-25 0 -46.5 9.5t-38 26t-26 38t-9.5 46.5zM815 890q0 25 9.5 46.5t26 38t38 26t46.5 9.5h120
q25 0 46.5 -9.5t38 -26t26 -38t9.5 -46.5t-9.5 -46.5t-26 -38t-38 -26t-46.5 -9.5h-120q-25 0 -46.5 9.5t-38 26t-26 38t-9.5 46.5z" />
    <glyph glyph-name="multiply" unicode="&#xd7;" horiz-adv-x="613" 
d="M432 83l-125 125l-126 -126l-141 141l125 126l-124 124l142 141l124 -124l123 124l141 -142l-123 -123l125 -125z" />
    <glyph glyph-name="Oslash" unicode="&#xd8;" horiz-adv-x="1510" 
d="M1120 710q72 0 136 -29t111.5 -78.5t75 -115t27.5 -137.5t-27.5 -137.5t-75 -115t-111.5 -78.5t-136 -29h-730q-72 0 -136 29t-111.5 78.5t-75 115t-27.5 137.5t27.5 137.5t75 115t111.5 78.5t136 29h730zM1055 450h-600q-42 0 -71 -29t-29 -71t29 -71t71 -29h600
q42 0 71 29t29 71t-29 71t-71 29zM1241 781l-697 -861h-276l697 860z" />
    <glyph glyph-name="Ugrave" unicode="&#xd9;" 
d="M1370 350q0 -72 -27.5 -137.5t-75 -115t-111.5 -78.5t-136 -29h-630q-72 0 -136 29t-111.5 78.5t-75 115t-27.5 137.5v350h316v-350q0 -42 29 -71t71 -29h498q42 0 71 29t29 71v350h316v-350zM814 780h-220l-198 240h316z" />
    <glyph glyph-name="Uacute" unicode="&#xda;" 
d="M1370 350q0 -72 -27.5 -137.5t-75 -115t-111.5 -78.5t-136 -29h-630q-72 0 -136 29t-111.5 78.5t-75 115t-27.5 137.5v350h316v-350q0 -42 29 -71t71 -29h498q42 0 71 29t29 71v350h316v-350zM698 1020h316l-198 -240h-220z" />
    <glyph glyph-name="Ucircumflex" unicode="&#xdb;" 
d="M1370 350q0 -72 -27.5 -137.5t-75 -115t-111.5 -78.5t-136 -29h-630q-72 0 -136 29t-111.5 78.5t-75 115t-27.5 137.5v350h316v-350q0 -42 29 -71t71 -29h498q42 0 71 29t29 71v350h316v-350zM565 1020h280l260 -240h-280l-120 111l-120 -111h-280z" />
    <glyph glyph-name="Udieresis" unicode="&#xdc;" 
d="M1370 350q0 -72 -27.5 -137.5t-75 -115t-111.5 -78.5t-136 -29h-630q-72 0 -136 29t-111.5 78.5t-75 115t-27.5 137.5v350h316v-350q0 -42 29 -71t71 -29h498q42 0 71 29t29 71v350h316v-350zM285 890q0 25 9.5 46.5t26 38t38 26t46.5 9.5h120q25 0 46.5 -9.5t38 -26
t26 -38t9.5 -46.5t-9.5 -46.5t-26 -38t-38 -26t-46.5 -9.5h-120q-25 0 -46.5 9.5t-38 26t-26 38t-9.5 46.5zM765 890q0 25 9.5 46.5t26 38t38 26t46.5 9.5h120q25 0 46.5 -9.5t38 -26t26 -38t9.5 -46.5t-9.5 -46.5t-26 -38t-38 -26t-46.5 -9.5h-120q-25 0 -46.5 9.5t-38 26
t-26 38t-9.5 46.5z" />
    <glyph glyph-name="Yacute" unicode="&#xdd;" horiz-adv-x="1570" 
d="M627 240l-587 460h417l328 -258l328 258h417l-587 -460v-240h-316v240zM778 1020h316l-198 -240h-220z" />
    <glyph glyph-name="Thorn" unicode="&#xde;" 
d="M40 700h316v-70h734q66 0 118 -24t88 -63.5t55 -89.5t19 -103q0 -52 -19 -102.5t-55 -90t-88 -63.5t-118 -24h-734v-70h-316v700zM356 390v-80h654q44 0 44 40t-44 40h-654z" />
    <glyph glyph-name="germandbls" unicode="&#xdf;" 
d="M356 0h-316v500q0 49 18.5 88t51.5 66t79 41.5t101 14.5h830q55 0 101 -14.5t79 -41.5t51.5 -66t18.5 -88q0 -51 -22.5 -89t-64.5 -61q42 -23 64.5 -61t22.5 -89q0 -49 -18.5 -86t-51.5 -62.5t-79 -38.5t-101 -13h-684l-1 180h575q44 0 44 40t-44 40h-575l-1 180h576
q44 0 44 40t-44 40h-610q-44 0 -44 -40v-480z" />
    <glyph glyph-name="agrave" unicode="&#xe0;" horiz-adv-x="1570" 
d="M1530 0h-356l-81 100h-616l-81 -100h-356l567 700h356zM931 300l-146 180l-146 -180h292zM894 780h-220l-198 240h316z" />
    <glyph glyph-name="aacute" unicode="&#xe1;" horiz-adv-x="1570" 
d="M1530 0h-356l-81 100h-616l-81 -100h-356l567 700h356zM931 300l-146 180l-146 -180h292zM778 1020h316l-198 -240h-220z" />
    <glyph glyph-name="acircumflex" unicode="&#xe2;" horiz-adv-x="1570" 
d="M1530 0h-356l-81 100h-616l-81 -100h-356l567 700h356zM931 300l-146 180l-146 -180h292zM645 1020h280l260 -240h-280l-120 111l-120 -111h-280z" />
    <glyph glyph-name="atilde" unicode="&#xe3;" horiz-adv-x="1570" 
d="M1530 0h-356l-81 100h-616l-81 -100h-356l567 700h356zM931 300l-146 180l-146 -180h292zM514 788l-98 169l40 25q87 54 181 54q51 0 108 -17l40 -13l87 -25q32 -9 60 -9q52 0 103 30l21 12l98 -169l-40 -25q-87 -54 -181 -54q-51 0 -108 17l-40 13l-87 25q-31 9 -60 9
q-52 0 -103 -30z" />
    <glyph glyph-name="adieresis" unicode="&#xe4;" horiz-adv-x="1570" 
d="M1530 0h-356l-81 100h-616l-81 -100h-356l567 700h356zM931 300l-146 180l-146 -180h292zM365 890q0 25 9.5 46.5t26 38t38 26t46.5 9.5h120q25 0 46.5 -9.5t38 -26t26 -38t9.5 -46.5t-9.5 -46.5t-26 -38t-38 -26t-46.5 -9.5h-120q-25 0 -46.5 9.5t-38 26t-26 38
t-9.5 46.5zM845 890q0 25 9.5 46.5t26 38t38 26t46.5 9.5h120q25 0 46.5 -9.5t38 -26t26 -38t9.5 -46.5t-9.5 -46.5t-26 -38t-38 -26t-46.5 -9.5h-120q-25 0 -46.5 9.5t-38 26t-26 38t-9.5 46.5z" />
    <glyph glyph-name="aring" unicode="&#xe5;" horiz-adv-x="1570" 
d="M1530 0h-356l-81 100h-616l-81 -100h-356l567 700h356zM931 300l-146 180l-146 -180h292zM345 890q0 25 9.5 46.5t26 38t38 26t46.5 9.5h640q25 0 46.5 -9.5t38 -26t26 -38t9.5 -46.5t-9.5 -46.5t-26 -38t-38 -26t-46.5 -9.5h-640q-25 0 -46.5 9.5t-38 26t-26 38
t-9.5 46.5zM625 890q0 -17 11.5 -28.5t28.5 -11.5h240q17 0 28.5 11.5t11.5 28.5t-11.5 28.5t-28.5 11.5h-240q-17 0 -28.5 -11.5t-11.5 -28.5z" />
    <glyph glyph-name="ae" unicode="&#xe6;" horiz-adv-x="2514" 
d="M1174 440v260h1300v-180h-984v-80h984v-180h-984v-80h984v-180h-1300l-81 100h-616l-81 -100h-356l567 700h356zM931 300l-146 180l-146 -180h292z" />
    <glyph glyph-name="ccedilla" unicode="&#xe7;" horiz-adv-x="1380" 
d="M1340 0h-950q-72 0 -136 27.5t-111.5 75t-75 111.5t-27.5 136t27.5 136t75 111.5t111.5 75t136 27.5h950v-260h-885q-42 0 -71 -24t-29 -66t29 -66t71 -24h885v-260zM615 -200h200q17 0 28.5 11.5t11.5 28.5t-11.5 28.5t-28.5 11.5h-200l138 170h146l-79 -90
q43 -3 72.5 -19.5t48 -40t26.5 -50.5t8 -51q0 -25 -8.5 -56t-29 -58.5t-55 -46t-87.5 -18.5h-180v180z" />
    <glyph glyph-name="egrave" unicode="&#xe8;" horiz-adv-x="1380" 
d="M40 700h1300v-180h-984v-80h984v-180h-984v-80h984v-180h-1300v700zM819 780h-220l-198 240h316z" />
    <glyph glyph-name="eacute" unicode="&#xe9;" horiz-adv-x="1380" 
d="M40 700h1300v-180h-984v-80h984v-180h-984v-80h984v-180h-1300v700zM703 1020h316l-198 -240h-220z" />
    <glyph glyph-name="ecircumflex" unicode="&#xea;" horiz-adv-x="1380" 
d="M40 700h1300v-180h-984v-80h984v-180h-984v-80h984v-180h-1300v700zM570 1020h280l260 -240h-280l-120 111l-120 -111h-280z" />
    <glyph glyph-name="edieresis" unicode="&#xeb;" horiz-adv-x="1380" 
d="M40 700h1300v-180h-984v-80h984v-180h-984v-80h984v-180h-1300v700zM290 890q0 25 9.5 46.5t26 38t38 26t46.5 9.5h120q25 0 46.5 -9.5t38 -26t26 -38t9.5 -46.5t-9.5 -46.5t-26 -38t-38 -26t-46.5 -9.5h-120q-25 0 -46.5 9.5t-38 26t-26 38t-9.5 46.5zM770 890
q0 25 9.5 46.5t26 38t38 26t46.5 9.5h120q25 0 46.5 -9.5t38 -26t26 -38t9.5 -46.5t-9.5 -46.5t-26 -38t-38 -26t-46.5 -9.5h-120q-25 0 -46.5 9.5t-38 26t-26 38t-9.5 46.5z" />
    <glyph glyph-name="igrave" unicode="&#xec;" horiz-adv-x="396" 
d="M40 700h316v-700h-316v700zM307 780h-220l-198 240h316z" />
    <glyph glyph-name="iacute" unicode="&#xed;" horiz-adv-x="396" 
d="M40 700h316v-700h-316v700zM191 1020h316l-198 -240h-220z" />
    <glyph glyph-name="icircumflex" unicode="&#xee;" horiz-adv-x="396" 
d="M40 700h316v-700h-316v700zM58 1020h280l260 -240h-280l-120 111l-120 -111h-280z" />
    <glyph glyph-name="idieresis" unicode="&#xef;" horiz-adv-x="396" 
d="M40 700h316v-700h-316v700zM-222 890q0 25 9.5 46.5t26 38t38 26t46.5 9.5h120q25 0 46.5 -9.5t38 -26t26 -38t9.5 -46.5t-9.5 -46.5t-26 -38t-38 -26t-46.5 -9.5h-120q-25 0 -46.5 9.5t-38 26t-26 38t-9.5 46.5zM258 890q0 25 9.5 46.5t26 38t38 26t46.5 9.5h120
q25 0 46.5 -9.5t38 -26t26 -38t9.5 -46.5t-9.5 -46.5t-26 -38t-38 -26t-46.5 -9.5h-120q-25 0 -46.5 9.5t-38 26t-26 38t-9.5 46.5z" />
    <glyph glyph-name="eth" unicode="&#xf0;" horiz-adv-x="1521" 
d="M121 0v700h1010q72 0 136 -27.5t111.5 -75t75 -111.5t27.5 -136t-27.5 -136t-75 -111.5t-111.5 -75t-136 -27.5h-1010zM436 250h625q47 0 76 28t29 72t-29 72t-76 28h-625v-200zM40 450h396v-200h-396v200z" />
    <glyph glyph-name="ntilde" unicode="&#xf1;" 
d="M40 700h316l698 -400v400h316v-700h-316l-698 400v-400h-316v700zM434 788l-98 169l40 25q87 54 181 54q51 0 108 -17l40 -13l87 -25q32 -9 60 -9q52 0 103 30l21 12l98 -169l-40 -25q-87 -54 -181 -54q-51 0 -108 17l-40 13l-87 25q-31 9 -60 9q-52 0 -103 -30z" />
    <glyph glyph-name="ograve" unicode="&#xf2;" horiz-adv-x="1510" 
d="M1120 710q72 0 136 -29t111.5 -78.5t75 -115t27.5 -137.5t-27.5 -137.5t-75 -115t-111.5 -78.5t-136 -29h-730q-72 0 -136 29t-111.5 78.5t-75 115t-27.5 137.5t27.5 137.5t75 115t111.5 78.5t136 29h730zM1055 450h-600q-42 0 -71 -29t-29 -71t29 -71t71 -29h600
q42 0 71 29t29 71t-29 71t-71 29zM864 780h-220l-198 240h316z" />
    <glyph glyph-name="oacute" unicode="&#xf3;" horiz-adv-x="1510" 
d="M1120 710q72 0 136 -29t111.5 -78.5t75 -115t27.5 -137.5t-27.5 -137.5t-75 -115t-111.5 -78.5t-136 -29h-730q-72 0 -136 29t-111.5 78.5t-75 115t-27.5 137.5t27.5 137.5t75 115t111.5 78.5t136 29h730zM1055 450h-600q-42 0 -71 -29t-29 -71t29 -71t71 -29h600
q42 0 71 29t29 71t-29 71t-71 29zM748 1020h316l-198 -240h-220z" />
    <glyph glyph-name="ocircumflex" unicode="&#xf4;" horiz-adv-x="1510" 
d="M1120 710q72 0 136 -29t111.5 -78.5t75 -115t27.5 -137.5t-27.5 -137.5t-75 -115t-111.5 -78.5t-136 -29h-730q-72 0 -136 29t-111.5 78.5t-75 115t-27.5 137.5t27.5 137.5t75 115t111.5 78.5t136 29h730zM1055 450h-600q-42 0 -71 -29t-29 -71t29 -71t71 -29h600
q42 0 71 29t29 71t-29 71t-71 29zM615 1020h280l260 -240h-280l-120 111l-120 -111h-280z" />
    <glyph glyph-name="otilde" unicode="&#xf5;" horiz-adv-x="1510" 
d="M1120 710q72 0 136 -29t111.5 -78.5t75 -115t27.5 -137.5t-27.5 -137.5t-75 -115t-111.5 -78.5t-136 -29h-730q-72 0 -136 29t-111.5 78.5t-75 115t-27.5 137.5t27.5 137.5t75 115t111.5 78.5t136 29h730zM1055 450h-600q-42 0 -71 -29t-29 -71t29 -71t71 -29h600
q42 0 71 29t29 71t-29 71t-71 29zM484 788l-98 169l40 25q87 54 181 54q51 0 108 -17l40 -13l87 -25q32 -9 60 -9q52 0 103 30l21 12l98 -169l-40 -25q-87 -54 -181 -54q-51 0 -108 17l-40 13l-87 25q-31 9 -60 9q-52 0 -103 -30z" />
    <glyph glyph-name="odieresis" unicode="&#xf6;" horiz-adv-x="1510" 
d="M1120 710q72 0 136 -29t111.5 -78.5t75 -115t27.5 -137.5t-27.5 -137.5t-75 -115t-111.5 -78.5t-136 -29h-730q-72 0 -136 29t-111.5 78.5t-75 115t-27.5 137.5t27.5 137.5t75 115t111.5 78.5t136 29h730zM1055 450h-600q-42 0 -71 -29t-29 -71t29 -71t71 -29h600
q42 0 71 29t29 71t-29 71t-71 29zM335 890q0 25 9.5 46.5t26 38t38 26t46.5 9.5h120q25 0 46.5 -9.5t38 -26t26 -38t9.5 -46.5t-9.5 -46.5t-26 -38t-38 -26t-46.5 -9.5h-120q-25 0 -46.5 9.5t-38 26t-26 38t-9.5 46.5zM815 890q0 25 9.5 46.5t26 38t38 26t46.5 9.5h120
q25 0 46.5 -9.5t38 -26t26 -38t9.5 -46.5t-9.5 -46.5t-26 -38t-38 -26t-46.5 -9.5h-120q-25 0 -46.5 9.5t-38 26t-26 38t-9.5 46.5z" />
    <glyph glyph-name="divide" unicode="&#xf7;" horiz-adv-x="770" 
d="M205 590q0 25 9.5 46.5t26 38t38 26t46.5 9.5h120q25 0 46.5 -9.5t38 -26t26 -38t9.5 -46.5t-9.5 -46.5t-26 -38t-38 -26t-46.5 -9.5h-120q-25 0 -46.5 9.5t-38 26t-26 38t-9.5 46.5zM40 450h690v-200h-690v200zM205 110q0 25 9.5 46.5t26 38t38 26t46.5 9.5h120
q25 0 46.5 -9.5t38 -26t26 -38t9.5 -46.5t-9.5 -46.5t-26 -38t-38 -26t-46.5 -9.5h-120q-25 0 -46.5 9.5t-38 26t-26 38t-9.5 46.5z" />
    <glyph glyph-name="oslash" unicode="&#xf8;" horiz-adv-x="1510" 
d="M1120 710q72 0 136 -29t111.5 -78.5t75 -115t27.5 -137.5t-27.5 -137.5t-75 -115t-111.5 -78.5t-136 -29h-730q-72 0 -136 29t-111.5 78.5t-75 115t-27.5 137.5t27.5 137.5t75 115t111.5 78.5t136 29h730zM1055 450h-600q-42 0 -71 -29t-29 -71t29 -71t71 -29h600
q42 0 71 29t29 71t-29 71t-71 29zM1241 781l-697 -861h-276l697 860z" />
    <glyph glyph-name="ugrave" unicode="&#xf9;" 
d="M1370 350q0 -72 -27.5 -137.5t-75 -115t-111.5 -78.5t-136 -29h-630q-72 0 -136 29t-111.5 78.5t-75 115t-27.5 137.5v350h316v-350q0 -42 29 -71t71 -29h498q42 0 71 29t29 71v350h316v-350zM814 780h-220l-198 240h316z" />
    <glyph glyph-name="uacute" unicode="&#xfa;" 
d="M1370 350q0 -72 -27.5 -137.5t-75 -115t-111.5 -78.5t-136 -29h-630q-72 0 -136 29t-111.5 78.5t-75 115t-27.5 137.5v350h316v-350q0 -42 29 -71t71 -29h498q42 0 71 29t29 71v350h316v-350zM698 1020h316l-198 -240h-220z" />
    <glyph glyph-name="ucircumflex" unicode="&#xfb;" 
d="M1370 350q0 -72 -27.5 -137.5t-75 -115t-111.5 -78.5t-136 -29h-630q-72 0 -136 29t-111.5 78.5t-75 115t-27.5 137.5v350h316v-350q0 -42 29 -71t71 -29h498q42 0 71 29t29 71v350h316v-350zM565 1020h280l260 -240h-280l-120 111l-120 -111h-280z" />
    <glyph glyph-name="udieresis" unicode="&#xfc;" 
d="M1370 350q0 -72 -27.5 -137.5t-75 -115t-111.5 -78.5t-136 -29h-630q-72 0 -136 29t-111.5 78.5t-75 115t-27.5 137.5v350h316v-350q0 -42 29 -71t71 -29h498q42 0 71 29t29 71v350h316v-350zM285 890q0 25 9.5 46.5t26 38t38 26t46.5 9.5h120q25 0 46.5 -9.5t38 -26
t26 -38t9.5 -46.5t-9.5 -46.5t-26 -38t-38 -26t-46.5 -9.5h-120q-25 0 -46.5 9.5t-38 26t-26 38t-9.5 46.5zM765 890q0 25 9.5 46.5t26 38t38 26t46.5 9.5h120q25 0 46.5 -9.5t38 -26t26 -38t9.5 -46.5t-9.5 -46.5t-26 -38t-38 -26t-46.5 -9.5h-120q-25 0 -46.5 9.5t-38 26
t-26 38t-9.5 46.5z" />
    <glyph glyph-name="yacute" unicode="&#xfd;" horiz-adv-x="1570" 
d="M627 240l-587 460h417l328 -258l328 258h417l-587 -460v-240h-316v240zM778 1020h316l-198 -240h-220z" />
    <glyph glyph-name="thorn" unicode="&#xfe;" 
d="M40 700h316v-70h734q66 0 118 -24t88 -63.5t55 -89.5t19 -103q0 -52 -19 -102.5t-55 -90t-88 -63.5t-118 -24h-734v-70h-316v700zM356 390v-80h654q44 0 44 40t-44 40h-654z" />
    <glyph glyph-name="ydieresis" unicode="&#xff;" horiz-adv-x="1570" 
d="M627 240l-587 460h417l328 -258l328 258h417l-587 -460v-240h-316v240zM365 890q0 25 9.5 46.5t26 38t38 26t46.5 9.5h120q25 0 46.5 -9.5t38 -26t26 -38t9.5 -46.5t-9.5 -46.5t-26 -38t-38 -26t-46.5 -9.5h-120q-25 0 -46.5 9.5t-38 26t-26 38t-9.5 46.5zM845 890
q0 25 9.5 46.5t26 38t38 26t46.5 9.5h120q25 0 46.5 -9.5t38 -26t26 -38t9.5 -46.5t-9.5 -46.5t-26 -38t-38 -26t-46.5 -9.5h-120q-25 0 -46.5 9.5t-38 26t-26 38t-9.5 46.5z" />
    <glyph glyph-name="Amacron" unicode="&#x100;" horiz-adv-x="1570" 
d="M1530 0h-356l-81 100h-616l-81 -100h-356l567 700h356zM931 300l-146 180l-146 -180h292zM435 980h700v-200h-700v200z" />
    <glyph glyph-name="amacron" unicode="&#x101;" horiz-adv-x="1570" 
d="M1530 0h-356l-81 100h-616l-81 -100h-356l567 700h356zM931 300l-146 180l-146 -180h292zM435 980h700v-200h-700v200z" />
    <glyph glyph-name="Abreve" unicode="&#x102;" horiz-adv-x="1570" 
d="M1530 0h-356l-81 100h-616l-81 -100h-356l567 700h356zM931 300l-146 180l-146 -180h292zM785 967q99 0 173 25t136 65l110 -162q-28 -19 -66.5 -40.5t-89.5 -40.5t-116.5 -31.5t-146.5 -12.5t-146.5 12.5t-116.5 31.5t-89.5 40.5t-66.5 40.5l110 162q62 -40 136 -65
t173 -25z" />
    <glyph glyph-name="abreve" unicode="&#x103;" horiz-adv-x="1570" 
d="M1530 0h-356l-81 100h-616l-81 -100h-356l567 700h356zM931 300l-146 180l-146 -180h292zM785 967q99 0 173 25t136 65l110 -162q-28 -19 -66.5 -40.5t-89.5 -40.5t-116.5 -31.5t-146.5 -12.5t-146.5 12.5t-116.5 31.5t-89.5 40.5t-66.5 40.5l110 162q62 -40 136 -65
t173 -25z" />
    <glyph glyph-name="Aogonek" unicode="&#x104;" horiz-adv-x="1570" 
d="M1530 0h-356l-81 100h-616l-81 -100h-356l567 700h356zM931 300l-146 180l-146 -180h292zM1352 14q-15 -10 -23.5 -21.5t-8.5 -28.5t11.5 -28.5t28.5 -11.5h170v-180h-190q-40 0 -71.5 15t-53.5 39.5t-33.5 55t-11.5 60.5q0 31 9.5 55.5t25.5 44.5h147z" />
    <glyph glyph-name="aogonek" unicode="&#x105;" horiz-adv-x="1570" 
d="M1530 0h-356l-81 100h-616l-81 -100h-356l567 700h356zM931 300l-146 180l-146 -180h292zM1352 14q-15 -10 -23.5 -21.5t-8.5 -28.5t11.5 -28.5t28.5 -11.5h170v-180h-190q-40 0 -71.5 15t-53.5 39.5t-33.5 55t-11.5 60.5q0 31 9.5 55.5t25.5 44.5h147z" />
    <glyph glyph-name="Cacute" unicode="&#x106;" horiz-adv-x="1380" 
d="M1340 0h-950q-72 0 -136 27.5t-111.5 75t-75 111.5t-27.5 136t27.5 136t75 111.5t111.5 75t136 27.5h950v-260h-885q-42 0 -71 -24t-29 -66t29 -66t71 -24h885v-260zM763 1020h316l-198 -240h-220z" />
    <glyph glyph-name="cacute" unicode="&#x107;" horiz-adv-x="1380" 
d="M1340 0h-950q-72 0 -136 27.5t-111.5 75t-75 111.5t-27.5 136t27.5 136t75 111.5t111.5 75t136 27.5h950v-260h-885q-42 0 -71 -24t-29 -66t29 -66t71 -24h885v-260zM763 1020h316l-198 -240h-220z" />
    <glyph glyph-name="Ccircumflex" unicode="&#x108;" horiz-adv-x="1380" 
d="M1340 0h-950q-72 0 -136 27.5t-111.5 75t-75 111.5t-27.5 136t27.5 136t75 111.5t111.5 75t136 27.5h950v-260h-885q-42 0 -71 -24t-29 -66t29 -66t71 -24h885v-260zM630 1020h280l260 -240h-280l-120 111l-120 -111h-280z" />
    <glyph glyph-name="ccircumflex" unicode="&#x109;" horiz-adv-x="1380" 
d="M1340 0h-950q-72 0 -136 27.5t-111.5 75t-75 111.5t-27.5 136t27.5 136t75 111.5t111.5 75t136 27.5h950v-260h-885q-42 0 -71 -24t-29 -66t29 -66t71 -24h885v-260zM630 1020h280l260 -240h-280l-120 111l-120 -111h-280z" />
    <glyph glyph-name="Cdotaccent" unicode="&#x10a;" horiz-adv-x="1380" 
d="M1340 0h-950q-72 0 -136 27.5t-111.5 75t-75 111.5t-27.5 136t27.5 136t75 111.5t111.5 75t136 27.5h950v-260h-885q-42 0 -71 -24t-29 -66t29 -66t71 -24h885v-260zM590 890q0 25 9.5 46.5t26 38t38 26t46.5 9.5h120q25 0 46.5 -9.5t38 -26t26 -38t9.5 -46.5t-9.5 -46.5
t-26 -38t-38 -26t-46.5 -9.5h-120q-25 0 -46.5 9.5t-38 26t-26 38t-9.5 46.5z" />
    <glyph glyph-name="cdotaccent" unicode="&#x10b;" horiz-adv-x="1380" 
d="M1340 0h-950q-72 0 -136 27.5t-111.5 75t-75 111.5t-27.5 136t27.5 136t75 111.5t111.5 75t136 27.5h950v-260h-885q-42 0 -71 -24t-29 -66t29 -66t71 -24h885v-260zM590 890q0 25 9.5 46.5t26 38t38 26t46.5 9.5h120q25 0 46.5 -9.5t38 -26t26 -38t9.5 -46.5t-9.5 -46.5
t-26 -38t-38 -26t-46.5 -9.5h-120q-25 0 -46.5 9.5t-38 26t-26 38t-9.5 46.5z" />
    <glyph glyph-name="Ccaron" unicode="&#x10c;" horiz-adv-x="1380" 
d="M1340 0h-950q-72 0 -136 27.5t-111.5 75t-75 111.5t-27.5 136t27.5 136t75 111.5t111.5 75t136 27.5h950v-260h-885q-42 0 -71 -24t-29 -66t29 -66t71 -24h885v-260zM370 1020h280l120 -111l120 111h280l-260 -240h-280z" />
    <glyph glyph-name="ccaron" unicode="&#x10d;" horiz-adv-x="1380" 
d="M1340 0h-950q-72 0 -136 27.5t-111.5 75t-75 111.5t-27.5 136t27.5 136t75 111.5t111.5 75t136 27.5h950v-260h-885q-42 0 -71 -24t-29 -66t29 -66t71 -24h885v-260zM370 1020h280l120 -111l120 111h280l-260 -240h-280z" />
    <glyph glyph-name="Dcaron" unicode="&#x10e;" horiz-adv-x="1440" 
d="M40 0v700h1010q72 0 136 -27.5t111.5 -75t75 -111.5t27.5 -136t-27.5 -136t-75 -111.5t-111.5 -75t-136 -27.5h-1010zM355 250h625q47 0 76 28t29 72t-29 72t-76 28h-625v-200zM290 1020h280l120 -111l120 111h280l-260 -240h-280z" />
    <glyph glyph-name="dcaron" unicode="&#x10f;" horiz-adv-x="1440" 
d="M40 0v700h1010q72 0 136 -27.5t111.5 -75t75 -111.5t27.5 -136t-27.5 -136t-75 -111.5t-111.5 -75t-136 -27.5h-1010zM355 250h625q47 0 76 28t29 72t-29 72t-76 28h-625v-200zM290 1020h280l120 -111l120 111h280l-260 -240h-280z" />
    <glyph glyph-name="Dcroat" unicode="&#x110;" horiz-adv-x="1521" 
d="M121 0v700h1010q72 0 136 -27.5t111.5 -75t75 -111.5t27.5 -136t-27.5 -136t-75 -111.5t-111.5 -75t-136 -27.5h-1010zM436 250h625q47 0 76 28t29 72t-29 72t-76 28h-625v-200zM40 450h396v-200h-396v200z" />
    <glyph glyph-name="dcroat" unicode="&#x111;" horiz-adv-x="1521" 
d="M121 0v700h1010q72 0 136 -27.5t111.5 -75t75 -111.5t27.5 -136t-27.5 -136t-75 -111.5t-111.5 -75t-136 -27.5h-1010zM436 250h625q47 0 76 28t29 72t-29 72t-76 28h-625v-200zM40 450h396v-200h-396v200z" />
    <glyph glyph-name="Emacron" unicode="&#x112;" horiz-adv-x="1380" 
d="M40 700h1300v-180h-984v-80h984v-180h-984v-80h984v-180h-1300v700zM360 980h700v-200h-700v200z" />
    <glyph glyph-name="emacron" unicode="&#x113;" horiz-adv-x="1380" 
d="M40 700h1300v-180h-984v-80h984v-180h-984v-80h984v-180h-1300v700zM360 980h700v-200h-700v200z" />
    <glyph glyph-name="Ebreve" unicode="&#x114;" horiz-adv-x="1380" 
d="M40 700h1300v-180h-984v-80h984v-180h-984v-80h984v-180h-1300v700zM710 967q99 0 173 25t136 65l110 -162q-28 -19 -66.5 -40.5t-89.5 -40.5t-116.5 -31.5t-146.5 -12.5t-146.5 12.5t-116.5 31.5t-89.5 40.5t-66.5 40.5l110 162q62 -40 136 -65t173 -25z" />
    <glyph glyph-name="ebreve" unicode="&#x115;" horiz-adv-x="1380" 
d="M40 700h1300v-180h-984v-80h984v-180h-984v-80h984v-180h-1300v700zM710 967q99 0 173 25t136 65l110 -162q-28 -19 -66.5 -40.5t-89.5 -40.5t-116.5 -31.5t-146.5 -12.5t-146.5 12.5t-116.5 31.5t-89.5 40.5t-66.5 40.5l110 162q62 -40 136 -65t173 -25z" />
    <glyph glyph-name="Edotaccent" unicode="&#x116;" horiz-adv-x="1380" 
d="M40 700h1300v-180h-984v-80h984v-180h-984v-80h984v-180h-1300v700zM530 890q0 25 9.5 46.5t26 38t38 26t46.5 9.5h120q25 0 46.5 -9.5t38 -26t26 -38t9.5 -46.5t-9.5 -46.5t-26 -38t-38 -26t-46.5 -9.5h-120q-25 0 -46.5 9.5t-38 26t-26 38t-9.5 46.5z" />
    <glyph glyph-name="edotaccent" unicode="&#x117;" horiz-adv-x="1380" 
d="M40 700h1300v-180h-984v-80h984v-180h-984v-80h984v-180h-1300v700zM530 890q0 25 9.5 46.5t26 38t38 26t46.5 9.5h120q25 0 46.5 -9.5t38 -26t26 -38t9.5 -46.5t-9.5 -46.5t-26 -38t-38 -26t-46.5 -9.5h-120q-25 0 -46.5 9.5t-38 26t-26 38t-9.5 46.5z" />
    <glyph glyph-name="Eogonek" unicode="&#x118;" horiz-adv-x="1380" 
d="M40 700h1300v-180h-984v-80h984v-180h-984v-80h984v-180h-1300v700zM1162 10q-15 -10 -23.5 -21.5t-8.5 -28.5t11.5 -28.5t28.5 -11.5h170v-180h-190q-40 0 -71.5 15t-53.5 39.5t-33.5 55t-11.5 60.5q0 31 9.5 55.5t25.5 44.5h147z" />
    <glyph glyph-name="eogonek" unicode="&#x119;" horiz-adv-x="1380" 
d="M40 700h1300v-180h-984v-80h984v-180h-984v-80h984v-180h-1300v700zM1162 10q-15 -10 -23.5 -21.5t-8.5 -28.5t11.5 -28.5t28.5 -11.5h170v-180h-190q-40 0 -71.5 15t-53.5 39.5t-33.5 55t-11.5 60.5q0 31 9.5 55.5t25.5 44.5h147z" />
    <glyph glyph-name="Ecaron" unicode="&#x11a;" horiz-adv-x="1380" 
d="M40 700h1300v-180h-984v-80h984v-180h-984v-80h984v-180h-1300v700zM310 1020h280l120 -111l120 111h280l-260 -240h-280z" />
    <glyph glyph-name="ecaron" unicode="&#x11b;" horiz-adv-x="1380" 
d="M40 700h1300v-180h-984v-80h984v-180h-984v-80h984v-180h-1300v700zM310 1020h280l120 -111l120 111h280l-260 -240h-280z" />
    <glyph glyph-name="Gcircumflex" unicode="&#x11c;" horiz-adv-x="1380" 
d="M1024 350h316v-350h-950q-72 0 -136 27.5t-111.5 75t-75 111.5t-27.5 136t27.5 136t75 111.5t111.5 75t136 27.5h950v-260h-885q-42 0 -71 -24t-29 -66t29 -66t71 -24h569v90zM600 1020h280l260 -240h-280l-120 111l-120 -111h-280z" />
    <glyph glyph-name="gcircumflex" unicode="&#x11d;" horiz-adv-x="1380" 
d="M1024 350h316v-350h-950q-72 0 -136 27.5t-111.5 75t-75 111.5t-27.5 136t27.5 136t75 111.5t111.5 75t136 27.5h950v-260h-885q-42 0 -71 -24t-29 -66t29 -66t71 -24h569v90zM600 1020h280l260 -240h-280l-120 111l-120 -111h-280z" />
    <glyph glyph-name="Gbreve" unicode="&#x11e;" horiz-adv-x="1380" 
d="M1024 350h316v-350h-950q-72 0 -136 27.5t-111.5 75t-75 111.5t-27.5 136t27.5 136t75 111.5t111.5 75t136 27.5h950v-260h-885q-42 0 -71 -24t-29 -66t29 -66t71 -24h569v90zM740 967q99 0 173 25t136 65l110 -162q-28 -19 -66.5 -40.5t-89.5 -40.5t-116.5 -31.5
t-146.5 -12.5t-146.5 12.5t-116.5 31.5t-89.5 40.5t-66.5 40.5l110 162q62 -40 136 -65t173 -25z" />
    <glyph glyph-name="gbreve" unicode="&#x11f;" horiz-adv-x="1380" 
d="M1024 350h316v-350h-950q-72 0 -136 27.5t-111.5 75t-75 111.5t-27.5 136t27.5 136t75 111.5t111.5 75t136 27.5h950v-260h-885q-42 0 -71 -24t-29 -66t29 -66t71 -24h569v90zM740 967q99 0 173 25t136 65l110 -162q-28 -19 -66.5 -40.5t-89.5 -40.5t-116.5 -31.5
t-146.5 -12.5t-146.5 12.5t-116.5 31.5t-89.5 40.5t-66.5 40.5l110 162q62 -40 136 -65t173 -25z" />
    <glyph glyph-name="Gdotaccent" unicode="&#x120;" horiz-adv-x="1380" 
d="M1024 350h316v-350h-950q-72 0 -136 27.5t-111.5 75t-75 111.5t-27.5 136t27.5 136t75 111.5t111.5 75t136 27.5h950v-260h-885q-42 0 -71 -24t-29 -66t29 -66t71 -24h569v90zM560 890q0 25 9.5 46.5t26 38t38 26t46.5 9.5h120q25 0 46.5 -9.5t38 -26t26 -38t9.5 -46.5
t-9.5 -46.5t-26 -38t-38 -26t-46.5 -9.5h-120q-25 0 -46.5 9.5t-38 26t-26 38t-9.5 46.5z" />
    <glyph glyph-name="gdotaccent" unicode="&#x121;" horiz-adv-x="1380" 
d="M1024 350h316v-350h-950q-72 0 -136 27.5t-111.5 75t-75 111.5t-27.5 136t27.5 136t75 111.5t111.5 75t136 27.5h950v-260h-885q-42 0 -71 -24t-29 -66t29 -66t71 -24h569v90zM560 890q0 25 9.5 46.5t26 38t38 26t46.5 9.5h120q25 0 46.5 -9.5t38 -26t26 -38t9.5 -46.5
t-9.5 -46.5t-26 -38t-38 -26t-46.5 -9.5h-120q-25 0 -46.5 9.5t-38 26t-26 38t-9.5 46.5z" />
    <glyph glyph-name="uni0122" unicode="&#x122;" horiz-adv-x="1380" 
d="M1024 350h316v-350h-950q-72 0 -136 27.5t-111.5 75t-75 111.5t-27.5 136t27.5 136t75 111.5t111.5 75t136 27.5h950v-260h-885q-42 0 -71 -24t-29 -66t29 -66t71 -24h569v90zM582 -80h316l-198 -240h-220z" />
    <glyph glyph-name="uni0123" unicode="&#x123;" horiz-adv-x="1380" 
d="M1024 350h316v-350h-950q-72 0 -136 27.5t-111.5 75t-75 111.5t-27.5 136t27.5 136t75 111.5t111.5 75t136 27.5h950v-260h-885q-42 0 -71 -24t-29 -66t29 -66t71 -24h569v90zM582 -80h316l-198 -240h-220z" />
    <glyph glyph-name="Hcircumflex" unicode="&#x124;" 
d="M40 700h316v-230h698v230h316v-700h-316v230h-698v-230h-316v700zM565 1020h280l260 -240h-280l-120 111l-120 -111h-280z" />
    <glyph glyph-name="hcircumflex" unicode="&#x125;" 
d="M40 700h316v-230h698v230h316v-700h-316v230h-698v-230h-316v700zM565 1020h280l260 -240h-280l-120 111l-120 -111h-280z" />
    <glyph glyph-name="Hbar" unicode="&#x126;" horiz-adv-x="1570" 
d="M120 700h316v-230h698v230h316v-700h-316v230h-698v-230h-316v700zM1530 612v-200h-320v200h320zM40 612h320v-200h-320v200z" />
    <glyph glyph-name="hbar" unicode="&#x127;" horiz-adv-x="1570" 
d="M120 700h316v-230h698v230h316v-700h-316v230h-698v-230h-316v700zM1530 612v-200h-320v200h320zM40 612h320v-200h-320v200z" />
    <glyph glyph-name="Itilde" unicode="&#x128;" horiz-adv-x="396" 
d="M40 700h316v-700h-316v700zM-73 788l-98 169l40 25q87 54 181 54q51 0 108 -17l40 -13l87 -25q32 -9 60 -9q52 0 103 30l21 12l98 -169l-40 -25q-87 -54 -181 -54q-51 0 -108 17l-40 13l-87 25q-31 9 -60 9q-52 0 -103 -30z" />
    <glyph glyph-name="itilde" unicode="&#x129;" horiz-adv-x="396" 
d="M40 700h316v-700h-316v700zM-73 788l-98 169l40 25q87 54 181 54q51 0 108 -17l40 -13l87 -25q32 -9 60 -9q52 0 103 30l21 12l98 -169l-40 -25q-87 -54 -181 -54q-51 0 -108 17l-40 13l-87 25q-31 9 -60 9q-52 0 -103 -30z" />
    <glyph glyph-name="Imacron" unicode="&#x12a;" horiz-adv-x="396" 
d="M40 700h316v-700h-316v700zM-152 980h700v-200h-700v200z" />
    <glyph glyph-name="imacron" unicode="&#x12b;" horiz-adv-x="396" 
d="M40 700h316v-700h-316v700zM-152 980h700v-200h-700v200z" />
    <glyph glyph-name="Ibreve" unicode="&#x12c;" horiz-adv-x="396" 
d="M40 700h316v-700h-316v700zM198 967q99 0 173 25t136 65l110 -162q-28 -19 -66.5 -40.5t-89.5 -40.5t-116.5 -31.5t-146.5 -12.5t-146.5 12.5t-116.5 31.5t-89.5 40.5t-66.5 40.5l110 162q62 -40 136 -65t173 -25z" />
    <glyph glyph-name="ibreve" unicode="&#x12d;" horiz-adv-x="396" 
d="M40 700h316v-700h-316v700zM198 967q99 0 173 25t136 65l110 -162q-28 -19 -66.5 -40.5t-89.5 -40.5t-116.5 -31.5t-146.5 -12.5t-146.5 12.5t-116.5 31.5t-89.5 40.5t-66.5 40.5l110 162q62 -40 136 -65t173 -25z" />
    <glyph glyph-name="Iogonek" unicode="&#x12e;" horiz-adv-x="396" 
d="M40 700h316v-700h-316v700zM285 10q-15 -10 -23.5 -21.5t-8.5 -28.5t11.5 -28.5t28.5 -11.5h170v-180h-190q-40 0 -71.5 15t-53.5 39.5t-33.5 55t-11.5 60.5q0 31 9.5 55.5t25.5 44.5h147z" />
    <glyph glyph-name="iogonek" unicode="&#x12f;" horiz-adv-x="396" 
d="M40 700h316v-700h-316v700zM285 10q-15 -10 -23.5 -21.5t-8.5 -28.5t11.5 -28.5t28.5 -11.5h170v-180h-190q-40 0 -71.5 15t-53.5 39.5t-33.5 55t-11.5 60.5q0 31 9.5 55.5t25.5 44.5h147z" />
    <glyph glyph-name="Idotaccent" unicode="&#x130;" horiz-adv-x="396" 
d="M40 700h316v-700h-316v700zM18 890q0 25 9.5 46.5t26 38t38 26t46.5 9.5h120q25 0 46.5 -9.5t38 -26t26 -38t9.5 -46.5t-9.5 -46.5t-26 -38t-38 -26t-46.5 -9.5h-120q-25 0 -46.5 9.5t-38 26t-26 38t-9.5 46.5z" />
    <glyph glyph-name="dotlessi" unicode="&#x131;" horiz-adv-x="396" 
d="M40 700h316v-700h-316v700z" />
    <glyph glyph-name="IJ" unicode="&#x132;" horiz-adv-x="1706" 
d="M40 700h316v-700h-316v700zM436 350h316v-90h498q42 0 71 29t29 71v340h316v-340q0 -72 -27.5 -137.5t-75 -115t-111.5 -78.5t-136 -29h-880v350z" />
    <glyph glyph-name="ij" unicode="&#x133;" horiz-adv-x="1706" 
d="M40 700h316v-700h-316v700zM436 350h316v-90h498q42 0 71 29t29 71v340h316v-340q0 -72 -27.5 -137.5t-75 -115t-111.5 -78.5t-136 -29h-880v350z" />
    <glyph glyph-name="Jcircumflex" unicode="&#x134;" horiz-adv-x="1310" 
d="M954 360v340h316v-340q0 -72 -27.5 -137.5t-75 -115t-111.5 -78.5t-136 -29h-880v350h316v-90h498q42 0 71 29t29 71zM972 1020h280l260 -240h-280l-120 111l-120 -111h-280z" />
    <glyph glyph-name="jcircumflex" unicode="&#x135;" horiz-adv-x="1310" 
d="M954 360v340h316v-340q0 -72 -27.5 -137.5t-75 -115t-111.5 -78.5t-136 -29h-880v350h316v-90h498q42 0 71 29t29 71zM972 1020h280l260 -240h-280l-120 111l-120 -111h-280z" />
    <glyph glyph-name="uni0136" unicode="&#x136;" 
d="M40 700h316v-384l556 384h458l-507 -350l507 -350h-458l-278 192l-278 -192h-316v700zM467 -80h316l-198 -240h-220z" />
    <glyph glyph-name="uni0137" unicode="&#x137;" 
d="M40 700h316v-384l556 384h458l-507 -350l507 -350h-458l-278 192l-278 -192h-316v700zM467 -80h316l-198 -240h-220z" />
    <glyph glyph-name="kgreenlandic" unicode="&#x138;" 
d="M40 700h316v-384l556 384h458l-507 -350l507 -350h-458l-278 192l-278 -192h-316v700z" />
    <glyph glyph-name="Lacute" unicode="&#x139;" horiz-adv-x="1280" 
d="M40 700h316v-460h884v-240h-1200v700zM191 1020h316l-198 -240h-220z" />
    <glyph glyph-name="lacute" unicode="&#x13a;" horiz-adv-x="1280" 
d="M40 700h316v-460h884v-240h-1200v700zM191 1020h316l-198 -240h-220z" />
    <glyph glyph-name="uni013B" unicode="&#x13b;" horiz-adv-x="1280" 
d="M40 700h316v-460h884v-240h-1200v700zM482 -80h316l-198 -240h-220z" />
    <glyph glyph-name="uni013C" unicode="&#x13c;" horiz-adv-x="1280" 
d="M40 700h316v-460h884v-240h-1200v700zM482 -80h316l-198 -240h-220z" />
    <glyph glyph-name="Lcaron" unicode="&#x13d;" horiz-adv-x="1280" 
d="M40 700h316v-460h884v-240h-1200v700zM924 700h316l-198 -240h-220z" />
    <glyph glyph-name="lcaron" unicode="&#x13e;" horiz-adv-x="1280" 
d="M40 700h316v-460h884v-240h-1200v700zM924 700h316l-198 -240h-220z" />
    <glyph glyph-name="Ldot" unicode="&#x13f;" horiz-adv-x="1280" 
d="M40 700h316v-460h884v-240h-1200v700zM560 460q0 25 9.5 46.5t26 38t38 26t46.5 9.5h120q25 0 46.5 -9.5t38 -26t26 -38t9.5 -46.5t-9.5 -46.5t-26 -38t-38 -26t-46.5 -9.5h-120q-25 0 -46.5 9.5t-38 26t-26 38t-9.5 46.5z" />
    <glyph glyph-name="ldot" unicode="&#x140;" horiz-adv-x="1280" 
d="M40 700h316v-460h884v-240h-1200v700zM560 460q0 25 9.5 46.5t26 38t38 26t46.5 9.5h120q25 0 46.5 -9.5t38 -26t26 -38t9.5 -46.5t-9.5 -46.5t-26 -38t-38 -26t-46.5 -9.5h-120q-25 0 -46.5 9.5t-38 26t-26 38t-9.5 46.5z" />
    <glyph glyph-name="Lslash" unicode="&#x141;" horiz-adv-x="1357" 
d="M117 700h316v-460h884v-240h-1200v700zM509 388l-469 -271v256l469 271v-256z" />
    <glyph glyph-name="lslash" unicode="&#x142;" horiz-adv-x="1357" 
d="M117 700h316v-460h884v-240h-1200v700zM509 388l-469 -271v256l469 271v-256z" />
    <glyph glyph-name="Nacute" unicode="&#x143;" 
d="M40 700h316l698 -400v400h316v-700h-316l-698 400v-400h-316v700zM698 1020h316l-198 -240h-220z" />
    <glyph glyph-name="nacute" unicode="&#x144;" 
d="M40 700h316l698 -400v400h316v-700h-316l-698 400v-400h-316v700zM698 1020h316l-198 -240h-220z" />
    <glyph glyph-name="uni0145" unicode="&#x145;" 
d="M40 700h316l698 -400v400h316v-700h-316l-698 400v-400h-316v700zM547 -80h316l-198 -240h-220z" />
    <glyph glyph-name="uni0146" unicode="&#x146;" 
d="M40 700h316l698 -400v400h316v-700h-316l-698 400v-400h-316v700zM547 -80h316l-198 -240h-220z" />
    <glyph glyph-name="Ncaron" unicode="&#x147;" 
d="M40 700h316l698 -400v400h316v-700h-316l-698 400v-400h-316v700zM305 1020h280l120 -111l120 111h280l-260 -240h-280z" />
    <glyph glyph-name="ncaron" unicode="&#x148;" 
d="M40 700h316l698 -400v400h316v-700h-316l-698 400v-400h-316v700zM305 1020h280l120 -111l120 111h280l-260 -240h-280z" />
    <glyph glyph-name="napostrophe" unicode="&#x149;" horiz-adv-x="1859" 
d="M489 700h316l698 -400v400h316v-700h-316l-698 400v-400h-316v700zM142 700h316l-198 -240h-220z" />
    <glyph glyph-name="Eng" unicode="&#x14a;" 
d="M40 700h316l698 -400v400h316v-700q0 -145 -72.5 -212.5t-217.5 -67.5h-370v180h244q42 0 71 29t29 71l-698 400v-400h-316v700z" />
    <glyph glyph-name="eng" unicode="&#x14b;" 
d="M40 700h316l698 -400v400h316v-700q0 -145 -72.5 -212.5t-217.5 -67.5h-370v180h244q42 0 71 29t29 71l-698 400v-400h-316v700z" />
    <glyph glyph-name="Omacron" unicode="&#x14c;" horiz-adv-x="1510" 
d="M1120 710q72 0 136 -29t111.5 -78.5t75 -115t27.5 -137.5t-27.5 -137.5t-75 -115t-111.5 -78.5t-136 -29h-730q-72 0 -136 29t-111.5 78.5t-75 115t-27.5 137.5t27.5 137.5t75 115t111.5 78.5t136 29h730zM1055 450h-600q-42 0 -71 -29t-29 -71t29 -71t71 -29h600
q42 0 71 29t29 71t-29 71t-71 29zM405 980h700v-200h-700v200z" />
    <glyph glyph-name="omacron" unicode="&#x14d;" horiz-adv-x="1510" 
d="M1120 710q72 0 136 -29t111.5 -78.5t75 -115t27.5 -137.5t-27.5 -137.5t-75 -115t-111.5 -78.5t-136 -29h-730q-72 0 -136 29t-111.5 78.5t-75 115t-27.5 137.5t27.5 137.5t75 115t111.5 78.5t136 29h730zM1055 450h-600q-42 0 -71 -29t-29 -71t29 -71t71 -29h600
q42 0 71 29t29 71t-29 71t-71 29zM405 980h700v-200h-700v200z" />
    <glyph glyph-name="Obreve" unicode="&#x14e;" horiz-adv-x="1510" 
d="M1120 710q72 0 136 -29t111.5 -78.5t75 -115t27.5 -137.5t-27.5 -137.5t-75 -115t-111.5 -78.5t-136 -29h-730q-72 0 -136 29t-111.5 78.5t-75 115t-27.5 137.5t27.5 137.5t75 115t111.5 78.5t136 29h730zM1055 450h-600q-42 0 -71 -29t-29 -71t29 -71t71 -29h600
q42 0 71 29t29 71t-29 71t-71 29zM755 967q99 0 173 25t136 65l110 -162q-28 -19 -66.5 -40.5t-89.5 -40.5t-116.5 -31.5t-146.5 -12.5t-146.5 12.5t-116.5 31.5t-89.5 40.5t-66.5 40.5l110 162q62 -40 136 -65t173 -25z" />
    <glyph glyph-name="obreve" unicode="&#x14f;" horiz-adv-x="1510" 
d="M1120 710q72 0 136 -29t111.5 -78.5t75 -115t27.5 -137.5t-27.5 -137.5t-75 -115t-111.5 -78.5t-136 -29h-730q-72 0 -136 29t-111.5 78.5t-75 115t-27.5 137.5t27.5 137.5t75 115t111.5 78.5t136 29h730zM1055 450h-600q-42 0 -71 -29t-29 -71t29 -71t71 -29h600
q42 0 71 29t29 71t-29 71t-71 29zM755 967q99 0 173 25t136 65l110 -162q-28 -19 -66.5 -40.5t-89.5 -40.5t-116.5 -31.5t-146.5 -12.5t-146.5 12.5t-116.5 31.5t-89.5 40.5t-66.5 40.5l110 162q62 -40 136 -65t173 -25z" />
    <glyph glyph-name="Ohungarumlaut" unicode="&#x150;" horiz-adv-x="1510" 
d="M1120 710q72 0 136 -29t111.5 -78.5t75 -115t27.5 -137.5t-27.5 -137.5t-75 -115t-111.5 -78.5t-136 -29h-730q-72 0 -136 29t-111.5 78.5t-75 115t-27.5 137.5t27.5 137.5t75 115t111.5 78.5t136 29h730zM1055 450h-600q-42 0 -71 -29t-29 -71t29 -71t71 -29h600
q42 0 71 29t29 71t-29 71t-71 29zM570 1020h316l-198 -240h-220zM926 1020h316l-198 -240h-220z" />
    <glyph glyph-name="ohungarumlaut" unicode="&#x151;" horiz-adv-x="1510" 
d="M1120 710q72 0 136 -29t111.5 -78.5t75 -115t27.5 -137.5t-27.5 -137.5t-75 -115t-111.5 -78.5t-136 -29h-730q-72 0 -136 29t-111.5 78.5t-75 115t-27.5 137.5t27.5 137.5t75 115t111.5 78.5t136 29h730zM1055 450h-600q-42 0 -71 -29t-29 -71t29 -71t71 -29h600
q42 0 71 29t29 71t-29 71t-71 29zM570 1020h316l-198 -240h-220zM926 1020h316l-198 -240h-220z" />
    <glyph glyph-name="OE" unicode="&#x152;" horiz-adv-x="2483" 
d="M1459 180h984v-180h-2053q-72 0 -136 27.5t-111.5 75t-75 111.5t-27.5 136t27.5 136t75 111.5t111.5 75t136 27.5h2053v-180h-984v-80h984v-180h-984v-80zM1055 450h-600q-42 0 -71 -29t-29 -71t29 -71t71 -29h600q42 0 71 29t29 71t-29 71t-71 29z" />
    <glyph glyph-name="oe" unicode="&#x153;" horiz-adv-x="2483" 
d="M1459 180h984v-180h-2053q-72 0 -136 27.5t-111.5 75t-75 111.5t-27.5 136t27.5 136t75 111.5t111.5 75t136 27.5h2053v-180h-984v-80h984v-180h-984v-80zM1055 450h-600q-42 0 -71 -29t-29 -71t29 -71t71 -29h600q42 0 71 29t29 71t-29 71t-71 29z" />
    <glyph glyph-name="Racute" unicode="&#x154;" 
d="M40 700h1050q66 0 118 -24t88 -63.5t55 -89.5t19 -103q0 -45 -14.5 -89t-42 -81t-67 -64t-89.5 -39l213 -147h-408l-203 140h-403v-140h-316v700zM356 460v-80h654q44 0 44 40t-44 40h-654zM648 1020h316l-198 -240h-220z" />
    <glyph glyph-name="racute" unicode="&#x155;" 
d="M40 700h1050q66 0 118 -24t88 -63.5t55 -89.5t19 -103q0 -45 -14.5 -89t-42 -81t-67 -64t-89.5 -39l213 -147h-408l-203 140h-403v-140h-316v700zM356 460v-80h654q44 0 44 40t-44 40h-654zM648 1020h316l-198 -240h-220z" />
    <glyph glyph-name="uni0156" unicode="&#x156;" 
d="M40 700h1050q66 0 118 -24t88 -63.5t55 -89.5t19 -103q0 -45 -14.5 -89t-42 -81t-67 -64t-89.5 -39l213 -147h-408l-203 140h-403v-140h-316v700zM356 460v-80h654q44 0 44 40t-44 40h-654zM497 -80h316l-198 -240h-220z" />
    <glyph glyph-name="uni0157" unicode="&#x157;" 
d="M40 700h1050q66 0 118 -24t88 -63.5t55 -89.5t19 -103q0 -45 -14.5 -89t-42 -81t-67 -64t-89.5 -39l213 -147h-408l-203 140h-403v-140h-316v700zM356 460v-80h654q44 0 44 40t-44 40h-654zM497 -80h316l-198 -240h-220z" />
    <glyph glyph-name="Rcaron" unicode="&#x158;" 
d="M40 700h1050q66 0 118 -24t88 -63.5t55 -89.5t19 -103q0 -45 -14.5 -89t-42 -81t-67 -64t-89.5 -39l213 -147h-408l-203 140h-403v-140h-316v700zM356 460v-80h654q44 0 44 40t-44 40h-654zM255 1020h280l120 -111l120 111h280l-260 -240h-280z" />
    <glyph glyph-name="rcaron" unicode="&#x159;" 
d="M40 700h1050q66 0 118 -24t88 -63.5t55 -89.5t19 -103q0 -45 -14.5 -89t-42 -81t-67 -64t-89.5 -39l213 -147h-408l-203 140h-403v-140h-316v700zM356 460v-80h654q44 0 44 40t-44 40h-654zM255 1020h280l120 -111l120 111h280l-260 -240h-280z" />
    <glyph glyph-name="Sacute" unicode="&#x15a;" horiz-adv-x="1420" 
d="M258 300q-51 0 -91.5 14.5t-68.5 40t-43 61.5t-15 79t15 80.5t43 65t68.5 43.5t91.5 16h1082v-240h-951q-18 0 -25.5 -10.5t-7.5 -19.5t7.5 -19.5t25.5 -10.5h773q51 0 91.5 -14.5t68.5 -40t43 -61.5t15 -79t-15 -80.5t-43 -65t-68.5 -43.5t-91.5 -16h-1082v240h951
q18 0 25.5 10.5t7.5 19.5t-7.5 19.5t-25.5 10.5h-773zM703 1020h316l-198 -240h-220z" />
    <glyph glyph-name="sacute" unicode="&#x15b;" horiz-adv-x="1420" 
d="M258 300q-51 0 -91.5 14.5t-68.5 40t-43 61.5t-15 79t15 80.5t43 65t68.5 43.5t91.5 16h1082v-240h-951q-18 0 -25.5 -10.5t-7.5 -19.5t7.5 -19.5t25.5 -10.5h773q51 0 91.5 -14.5t68.5 -40t43 -61.5t15 -79t-15 -80.5t-43 -65t-68.5 -43.5t-91.5 -16h-1082v240h951
q18 0 25.5 10.5t7.5 19.5t-7.5 19.5t-25.5 10.5h-773zM703 1020h316l-198 -240h-220z" />
    <glyph glyph-name="Scircumflex" unicode="&#x15c;" horiz-adv-x="1420" 
d="M258 300q-51 0 -91.5 14.5t-68.5 40t-43 61.5t-15 79t15 80.5t43 65t68.5 43.5t91.5 16h1082v-240h-951q-18 0 -25.5 -10.5t-7.5 -19.5t7.5 -19.5t25.5 -10.5h773q51 0 91.5 -14.5t68.5 -40t43 -61.5t15 -79t-15 -80.5t-43 -65t-68.5 -43.5t-91.5 -16h-1082v240h951
q18 0 25.5 10.5t7.5 19.5t-7.5 19.5t-25.5 10.5h-773zM570 1020h280l260 -240h-280l-120 111l-120 -111h-280z" />
    <glyph glyph-name="scircumflex" unicode="&#x15d;" horiz-adv-x="1420" 
d="M258 300q-51 0 -91.5 14.5t-68.5 40t-43 61.5t-15 79t15 80.5t43 65t68.5 43.5t91.5 16h1082v-240h-951q-18 0 -25.5 -10.5t-7.5 -19.5t7.5 -19.5t25.5 -10.5h773q51 0 91.5 -14.5t68.5 -40t43 -61.5t15 -79t-15 -80.5t-43 -65t-68.5 -43.5t-91.5 -16h-1082v240h951
q18 0 25.5 10.5t7.5 19.5t-7.5 19.5t-25.5 10.5h-773zM570 1020h280l260 -240h-280l-120 111l-120 -111h-280z" />
    <glyph glyph-name="Scedilla" unicode="&#x15e;" horiz-adv-x="1420" 
d="M258 300q-51 0 -91.5 14.5t-68.5 40t-43 61.5t-15 79t15 80.5t43 65t68.5 43.5t91.5 16h1082v-240h-951q-18 0 -25.5 -10.5t-7.5 -19.5t7.5 -19.5t25.5 -10.5h773q51 0 91.5 -14.5t68.5 -40t43 -61.5t15 -79t-15 -80.5t-43 -65t-68.5 -43.5t-91.5 -16h-1082v240h951
q18 0 25.5 10.5t7.5 19.5t-7.5 19.5t-25.5 10.5h-773zM545 -200h200q17 0 28.5 11.5t11.5 28.5t-11.5 28.5t-28.5 11.5h-200l138 170h146l-79 -90q43 -3 72.5 -19.5t48 -40t26.5 -50.5t8 -51q0 -25 -8.5 -56t-29 -58.5t-55 -46t-87.5 -18.5h-180v180z" />
    <glyph glyph-name="scedilla" unicode="&#x15f;" horiz-adv-x="1420" 
d="M258 300q-51 0 -91.5 14.5t-68.5 40t-43 61.5t-15 79t15 80.5t43 65t68.5 43.5t91.5 16h1082v-240h-951q-18 0 -25.5 -10.5t-7.5 -19.5t7.5 -19.5t25.5 -10.5h773q51 0 91.5 -14.5t68.5 -40t43 -61.5t15 -79t-15 -80.5t-43 -65t-68.5 -43.5t-91.5 -16h-1082v240h951
q18 0 25.5 10.5t7.5 19.5t-7.5 19.5t-25.5 10.5h-773zM545 -200h200q17 0 28.5 11.5t11.5 28.5t-11.5 28.5t-28.5 11.5h-200l138 170h146l-79 -90q43 -3 72.5 -19.5t48 -40t26.5 -50.5t8 -51q0 -25 -8.5 -56t-29 -58.5t-55 -46t-87.5 -18.5h-180v180z" />
    <glyph glyph-name="Scaron" unicode="&#x160;" horiz-adv-x="1420" 
d="M258 300q-51 0 -91.5 14.5t-68.5 40t-43 61.5t-15 79t15 80.5t43 65t68.5 43.5t91.5 16h1082v-240h-951q-18 0 -25.5 -10.5t-7.5 -19.5t7.5 -19.5t25.5 -10.5h773q51 0 91.5 -14.5t68.5 -40t43 -61.5t15 -79t-15 -80.5t-43 -65t-68.5 -43.5t-91.5 -16h-1082v240h951
q18 0 25.5 10.5t7.5 19.5t-7.5 19.5t-25.5 10.5h-773zM310 1020h280l120 -111l120 111h280l-260 -240h-280z" />
    <glyph glyph-name="scaron" unicode="&#x161;" horiz-adv-x="1420" 
d="M258 300q-51 0 -91.5 14.5t-68.5 40t-43 61.5t-15 79t15 80.5t43 65t68.5 43.5t91.5 16h1082v-240h-951q-18 0 -25.5 -10.5t-7.5 -19.5t7.5 -19.5t25.5 -10.5h773q51 0 91.5 -14.5t68.5 -40t43 -61.5t15 -79t-15 -80.5t-43 -65t-68.5 -43.5t-91.5 -16h-1082v240h951
q18 0 25.5 10.5t7.5 19.5t-7.5 19.5t-25.5 10.5h-773zM310 1020h280l120 -111l120 111h280l-260 -240h-280z" />
    <glyph glyph-name="uni0162" unicode="&#x162;" 
d="M546 460h-506v240h1330v-240h-508v-460h-316v460zM538 -200h200q17 0 28.5 11.5t11.5 28.5t-11.5 28.5t-28.5 11.5h-200l138 170h146l-79 -90q43 -3 72.5 -19.5t48 -40t26.5 -50.5t8 -51q0 -25 -8.5 -56t-29 -58.5t-55 -46t-87.5 -18.5h-180v180z" />
    <glyph glyph-name="uni0163" unicode="&#x163;" 
d="M546 460h-506v240h1330v-240h-508v-460h-316v460zM538 -200h200q17 0 28.5 11.5t11.5 28.5t-11.5 28.5t-28.5 11.5h-200l138 170h146l-79 -90q43 -3 72.5 -19.5t48 -40t26.5 -50.5t8 -51q0 -25 -8.5 -56t-29 -58.5t-55 -46t-87.5 -18.5h-180v180z" />
    <glyph glyph-name="Tcaron" unicode="&#x164;" 
d="M546 460h-506v240h1330v-240h-508v-460h-316v460zM305 1020h280l120 -111l120 111h280l-260 -240h-280z" />
    <glyph glyph-name="tcaron" unicode="&#x165;" 
d="M546 460h-506v240h1330v-240h-508v-460h-316v460zM305 1020h280l120 -111l120 111h280l-260 -240h-280z" />
    <glyph glyph-name="Tbar" unicode="&#x166;" 
d="M546 460h-506v240h1330v-240h-508v-460h-316v460zM467 341h476v-200h-476v200z" />
    <glyph glyph-name="tbar" unicode="&#x167;" 
d="M546 460h-506v240h1330v-240h-508v-460h-316v460zM467 341h476v-200h-476v200z" />
    <glyph glyph-name="Utilde" unicode="&#x168;" 
d="M1370 350q0 -72 -27.5 -137.5t-75 -115t-111.5 -78.5t-136 -29h-630q-72 0 -136 29t-111.5 78.5t-75 115t-27.5 137.5v350h316v-350q0 -42 29 -71t71 -29h498q42 0 71 29t29 71v350h316v-350zM434 788l-98 169l40 25q87 54 181 54q51 0 108 -17l40 -13l87 -25
q32 -9 60 -9q52 0 103 30l21 12l98 -169l-40 -25q-87 -54 -181 -54q-51 0 -108 17l-40 13l-87 25q-31 9 -60 9q-52 0 -103 -30z" />
    <glyph glyph-name="utilde" unicode="&#x169;" 
d="M446 788l-98 169l40 25q87 54 181 54q51 0 108 -17l40 -13l87 -25q32 -9 60 -9q52 0 103 30l21 12l98 -169l-40 -25q-87 -54 -181 -54q-51 0 -108 17l-40 13l-87 25q-31 9 -60 9q-52 0 -103 -30zM1370 350q0 -72 -27.5 -137.5t-75 -115t-111.5 -78.5t-136 -29h-630
q-72 0 -136 29t-111.5 78.5t-75 115t-27.5 137.5v350h316v-350q0 -42 29 -71t71 -29h498q42 0 71 29t29 71v350h316v-350z" />
    <glyph glyph-name="Umacron" unicode="&#x16a;" 
d="M1370 350q0 -72 -27.5 -137.5t-75 -115t-111.5 -78.5t-136 -29h-630q-72 0 -136 29t-111.5 78.5t-75 115t-27.5 137.5v350h316v-350q0 -42 29 -71t71 -29h498q42 0 71 29t29 71v350h316v-350zM355 980h700v-200h-700v200z" />
    <glyph glyph-name="umacron" unicode="&#x16b;" 
d="M1370 350q0 -72 -27.5 -137.5t-75 -115t-111.5 -78.5t-136 -29h-630q-72 0 -136 29t-111.5 78.5t-75 115t-27.5 137.5v350h316v-350q0 -42 29 -71t71 -29h498q42 0 71 29t29 71v350h316v-350zM355 980h700v-200h-700v200z" />
    <glyph glyph-name="Ubreve" unicode="&#x16c;" 
d="M1370 350q0 -72 -27.5 -137.5t-75 -115t-111.5 -78.5t-136 -29h-630q-72 0 -136 29t-111.5 78.5t-75 115t-27.5 137.5v350h316v-350q0 -42 29 -71t71 -29h498q42 0 71 29t29 71v350h316v-350zM705 967q99 0 173 25t136 65l110 -162q-28 -19 -66.5 -40.5t-89.5 -40.5
t-116.5 -31.5t-146.5 -12.5t-146.5 12.5t-116.5 31.5t-89.5 40.5t-66.5 40.5l110 162q62 -40 136 -65t173 -25z" />
    <glyph glyph-name="ubreve" unicode="&#x16d;" 
d="M1370 350q0 -72 -27.5 -137.5t-75 -115t-111.5 -78.5t-136 -29h-630q-72 0 -136 29t-111.5 78.5t-75 115t-27.5 137.5v350h316v-350q0 -42 29 -71t71 -29h498q42 0 71 29t29 71v350h316v-350zM705 967q99 0 173 25t136 65l110 -162q-28 -19 -66.5 -40.5t-89.5 -40.5
t-116.5 -31.5t-146.5 -12.5t-146.5 12.5t-116.5 31.5t-89.5 40.5t-66.5 40.5l110 162q62 -40 136 -65t173 -25z" />
    <glyph glyph-name="Uring" unicode="&#x16e;" 
d="M1370 350q0 -72 -27.5 -137.5t-75 -115t-111.5 -78.5t-136 -29h-630q-72 0 -136 29t-111.5 78.5t-75 115t-27.5 137.5v350h316v-350q0 -42 29 -71t71 -29h498q42 0 71 29t29 71v350h316v-350zM265 890q0 25 9.5 46.5t26 38t38 26t46.5 9.5h640q25 0 46.5 -9.5t38 -26
t26 -38t9.5 -46.5t-9.5 -46.5t-26 -38t-38 -26t-46.5 -9.5h-640q-25 0 -46.5 9.5t-38 26t-26 38t-9.5 46.5zM545 890q0 -17 11.5 -28.5t28.5 -11.5h240q17 0 28.5 11.5t11.5 28.5t-11.5 28.5t-28.5 11.5h-240q-17 0 -28.5 -11.5t-11.5 -28.5z" />
    <glyph glyph-name="uring" unicode="&#x16f;" 
d="M1370 350q0 -72 -27.5 -137.5t-75 -115t-111.5 -78.5t-136 -29h-630q-72 0 -136 29t-111.5 78.5t-75 115t-27.5 137.5v350h316v-350q0 -42 29 -71t71 -29h498q42 0 71 29t29 71v350h316v-350zM265 890q0 25 9.5 46.5t26 38t38 26t46.5 9.5h640q25 0 46.5 -9.5t38 -26
t26 -38t9.5 -46.5t-9.5 -46.5t-26 -38t-38 -26t-46.5 -9.5h-640q-25 0 -46.5 9.5t-38 26t-26 38t-9.5 46.5zM545 890q0 -17 11.5 -28.5t28.5 -11.5h240q17 0 28.5 11.5t11.5 28.5t-11.5 28.5t-28.5 11.5h-240q-17 0 -28.5 -11.5t-11.5 -28.5z" />
    <glyph glyph-name="Uhungarumlaut" unicode="&#x170;" 
d="M1370 350q0 -72 -27.5 -137.5t-75 -115t-111.5 -78.5t-136 -29h-630q-72 0 -136 29t-111.5 78.5t-75 115t-27.5 137.5v350h316v-350q0 -42 29 -71t71 -29h498q42 0 71 29t29 71v350h316v-350zM520 1020h316l-198 -240h-220zM876 1020h316l-198 -240h-220z" />
    <glyph glyph-name="uhungarumlaut" unicode="&#x171;" 
d="M1370 350q0 -72 -27.5 -137.5t-75 -115t-111.5 -78.5t-136 -29h-630q-72 0 -136 29t-111.5 78.5t-75 115t-27.5 137.5v350h316v-350q0 -42 29 -71t71 -29h498q42 0 71 29t29 71v350h316v-350zM520 1020h316l-198 -240h-220zM876 1020h316l-198 -240h-220z" />
    <glyph glyph-name="Uogonek" unicode="&#x172;" 
d="M1370 350q0 -72 -27.5 -137.5t-75 -115t-111.5 -78.5t-136 -29h-630q-72 0 -136 29t-111.5 78.5t-75 115t-27.5 137.5v350h316v-350q0 -42 29 -71t71 -29h498q42 0 71 29t29 71v350h316v-350zM792 10q-15 -10 -23.5 -21.5t-8.5 -28.5t11.5 -28.5t28.5 -11.5h170v-180
h-190q-40 0 -71.5 15t-53.5 39.5t-33.5 55t-11.5 60.5q0 31 9.5 55.5t25.5 44.5h147z" />
    <glyph glyph-name="uogonek" unicode="&#x173;" 
d="M1370 350q0 -72 -27.5 -137.5t-75 -115t-111.5 -78.5t-136 -29h-630q-72 0 -136 29t-111.5 78.5t-75 115t-27.5 137.5v350h316v-350q0 -42 29 -71t71 -29h498q42 0 71 29t29 71v350h316v-350zM792 10q-15 -10 -23.5 -21.5t-8.5 -28.5t11.5 -28.5t28.5 -11.5h170v-180
h-190q-40 0 -71.5 15t-53.5 39.5t-33.5 55t-11.5 60.5q0 31 9.5 55.5t25.5 44.5h147z" />
    <glyph glyph-name="Wcircumflex" unicode="&#x174;" horiz-adv-x="2086" 
d="M963 0h-356l-567 700h356l389 -480l80 99l-309 381h356l131 -162l131 162h356l-309 -381l80 -99l389 480h356l-567 -700h-356l-80 99zM903 1020h280l260 -240h-280l-120 111l-120 -111h-280z" />
    <glyph glyph-name="wcircumflex" unicode="&#x175;" horiz-adv-x="2086" 
d="M963 0h-356l-567 700h356l389 -480l80 99l-309 381h356l131 -162l131 162h356l-309 -381l80 -99l389 480h356l-567 -700h-356l-80 99zM903 1020h280l260 -240h-280l-120 111l-120 -111h-280z" />
    <glyph glyph-name="Ycircumflex" unicode="&#x176;" horiz-adv-x="1570" 
d="M627 240l-587 460h417l328 -258l328 258h417l-587 -460v-240h-316v240zM645 1020h280l260 -240h-280l-120 111l-120 -111h-280z" />
    <glyph glyph-name="ycircumflex" unicode="&#x177;" horiz-adv-x="1570" 
d="M627 240l-587 460h417l328 -258l328 258h417l-587 -460v-240h-316v240zM645 1020h280l260 -240h-280l-120 111l-120 -111h-280z" />
    <glyph glyph-name="Ydieresis" unicode="&#x178;" horiz-adv-x="1570" 
d="M627 240l-587 460h417l328 -258l328 258h417l-587 -460v-240h-316v240zM365 890q0 25 9.5 46.5t26 38t38 26t46.5 9.5h120q25 0 46.5 -9.5t38 -26t26 -38t9.5 -46.5t-9.5 -46.5t-26 -38t-38 -26t-46.5 -9.5h-120q-25 0 -46.5 9.5t-38 26t-26 38t-9.5 46.5zM845 890
q0 25 9.5 46.5t26 38t38 26t46.5 9.5h120q25 0 46.5 -9.5t38 -26t26 -38t9.5 -46.5t-9.5 -46.5t-26 -38t-38 -26t-46.5 -9.5h-120q-25 0 -46.5 9.5t-38 26t-26 38t-9.5 46.5z" />
    <glyph glyph-name="Zacute" unicode="&#x179;" horiz-adv-x="1330" 
d="M738 460h-698v240h1250v-240l-698 -220h698v-240h-1250v240zM658 1020h316l-198 -240h-220z" />
    <glyph glyph-name="zacute" unicode="&#x17a;" horiz-adv-x="1330" 
d="M738 460h-698v240h1250v-240l-698 -220h698v-240h-1250v240zM658 1020h316l-198 -240h-220z" />
    <glyph glyph-name="Zdotaccent" unicode="&#x17b;" horiz-adv-x="1330" 
d="M738 460h-698v240h1250v-240l-698 -220h698v-240h-1250v240zM485 890q0 25 9.5 46.5t26 38t38 26t46.5 9.5h120q25 0 46.5 -9.5t38 -26t26 -38t9.5 -46.5t-9.5 -46.5t-26 -38t-38 -26t-46.5 -9.5h-120q-25 0 -46.5 9.5t-38 26t-26 38t-9.5 46.5z" />
    <glyph glyph-name="zdotaccent" unicode="&#x17c;" horiz-adv-x="1330" 
d="M738 460h-698v240h1250v-240l-698 -220h698v-240h-1250v240zM485 890q0 25 9.5 46.5t26 38t38 26t46.5 9.5h120q25 0 46.5 -9.5t38 -26t26 -38t9.5 -46.5t-9.5 -46.5t-26 -38t-38 -26t-46.5 -9.5h-120q-25 0 -46.5 9.5t-38 26t-26 38t-9.5 46.5z" />
    <glyph glyph-name="Zcaron" unicode="&#x17d;" horiz-adv-x="1330" 
d="M738 460h-698v240h1250v-240l-698 -220h698v-240h-1250v240zM265 1020h280l120 -111l120 111h280l-260 -240h-280z" />
    <glyph glyph-name="zcaron" unicode="&#x17e;" horiz-adv-x="1330" 
d="M738 460h-698v240h1250v-240l-698 -220h698v-240h-1250v240zM265 1020h280l120 -111l120 111h280l-260 -240h-280z" />
    <glyph glyph-name="uni0218" unicode="&#x218;" horiz-adv-x="1420" 
d="M258 300q-51 0 -91.5 14.5t-68.5 40t-43 61.5t-15 79t15 80.5t43 65t68.5 43.5t91.5 16h1082v-240h-951q-18 0 -25.5 -10.5t-7.5 -19.5t7.5 -19.5t25.5 -10.5h773q51 0 91.5 -14.5t68.5 -40t43 -61.5t15 -79t-15 -80.5t-43 -65t-68.5 -43.5t-91.5 -16h-1082v240h951
q18 0 25.5 10.5t7.5 19.5t-7.5 19.5t-25.5 10.5h-773zM502 -80h316l-198 -240h-220z" />
    <glyph glyph-name="uni0219" unicode="&#x219;" horiz-adv-x="1420" 
d="M258 300q-51 0 -91.5 14.5t-68.5 40t-43 61.5t-15 79t15 80.5t43 65t68.5 43.5t91.5 16h1082v-240h-951q-18 0 -25.5 -10.5t-7.5 -19.5t7.5 -19.5t25.5 -10.5h773q51 0 91.5 -14.5t68.5 -40t43 -61.5t15 -79t-15 -80.5t-43 -65t-68.5 -43.5t-91.5 -16h-1082v240h951
q18 0 25.5 10.5t7.5 19.5t-7.5 19.5t-25.5 10.5h-773zM502 -80h316l-198 -240h-220z" />
    <glyph glyph-name="uni021A" unicode="&#x21a;" 
d="M546 460h-506v240h1330v-240h-508v-460h-316v460zM545 -80h316l-198 -240h-220z" />
    <glyph glyph-name="uni021B" unicode="&#x21b;" 
d="M546 460h-506v240h1330v-240h-508v-460h-316v460zM545 -80h316l-198 -240h-220z" />
    <glyph glyph-name="circumflex" unicode="&#x2c6;" horiz-adv-x="880" 
d="M300 1020h280l260 -240h-280l-120 111l-120 -111h-280z" />
    <glyph glyph-name="caron" unicode="&#x2c7;" horiz-adv-x="880" 
d="M40 1020h280l120 -111l120 111h280l-260 -240h-280z" />
    <glyph glyph-name="breve" unicode="&#x2d8;" horiz-adv-x="918" 
d="M459 967q99 0 173 25t136 65l110 -162q-28 -19 -66.5 -40.5t-89.5 -40.5t-116.5 -31.5t-146.5 -12.5t-146.5 12.5t-116.5 31.5t-89.5 40.5t-66.5 40.5l110 162q62 -40 136 -65t173 -25z" />
    <glyph glyph-name="dotaccent" unicode="&#x2d9;" horiz-adv-x="440" 
d="M40 890q0 25 9.5 46.5t26 38t38 26t46.5 9.5h120q25 0 46.5 -9.5t38 -26t26 -38t9.5 -46.5t-9.5 -46.5t-26 -38t-38 -26t-46.5 -9.5h-120q-25 0 -46.5 9.5t-38 26t-26 38t-9.5 46.5z" />
    <glyph glyph-name="ring" unicode="&#x2da;" horiz-adv-x="960" 
d="M40 890q0 25 9.5 46.5t26 38t38 26t46.5 9.5h640q25 0 46.5 -9.5t38 -26t26 -38t9.5 -46.5t-9.5 -46.5t-26 -38t-38 -26t-46.5 -9.5h-640q-25 0 -46.5 9.5t-38 26t-26 38t-9.5 46.5zM320 890q0 -17 11.5 -28.5t28.5 -11.5h240q17 0 28.5 11.5t11.5 28.5t-11.5 28.5
t-28.5 11.5h-240q-17 0 -28.5 -11.5t-11.5 -28.5z" />
    <glyph glyph-name="ogonek" unicode="&#x2db;" horiz-adv-x="440" 
d="M222 10q-15 -10 -23.5 -21.5t-8.5 -28.5t11.5 -28.5t28.5 -11.5h170v-180h-190q-40 0 -71.5 15t-53.5 39.5t-33.5 55t-11.5 60.5q0 31 9.5 55.5t25.5 44.5h147z" />
    <glyph glyph-name="tilde" unicode="&#x2dc;" horiz-adv-x="818" 
d="M138 788l-98 169l40 25q87 54 181 54q51 0 108 -17l40 -13l87 -25q32 -9 60 -9q52 0 103 30l21 12l98 -169l-40 -25q-87 -54 -181 -54q-51 0 -108 17l-40 13l-87 25q-31 9 -60 9q-52 0 -103 -30z" />
    <glyph glyph-name="hungarumlaut" unicode="&#x2dd;" horiz-adv-x="854" 
d="M142 1020h316l-198 -240h-220zM498 1020h316l-198 -240h-220z" />
    <glyph glyph-name="acutecomb" unicode="&#x301;" horiz-adv-x="498" 
d="M142 700h316l-198 -240h-220z" />
    <glyph glyph-name="uni0326" unicode="&#x326;" horiz-adv-x="498" 
d="M142 -80h316l-198 -240h-220z" />
    <glyph glyph-name="uni0335" unicode="&#x335;" horiz-adv-x="556" 
d="M40 450h476v-200h-476v200z" />
    <glyph glyph-name="uni0336" unicode="&#x336;" horiz-adv-x="1570" 
d="M1530 612v-200h-320v200h320zM40 612h320v-200h-320v200z" />
    <glyph glyph-name="uni0337" unicode="&#x337;" horiz-adv-x="549" 
d="M509 345l-469 -271v256l469 271v-256z" />
    <glyph glyph-name="uni0338" unicode="&#x338;" horiz-adv-x="1053" 
d="M1013 781l-697 -861h-276l697 860z" />
    <glyph glyph-name="uni0401" unicode="&#x401;" horiz-adv-x="1380" 
d="M40 700h1300v-180h-984v-80h984v-180h-984v-80h984v-180h-1300v700zM290 890q0 25 9.5 46.5t26 38t38 26t46.5 9.5h120q25 0 46.5 -9.5t38 -26t26 -38t9.5 -46.5t-9.5 -46.5t-26 -38t-38 -26t-46.5 -9.5h-120q-25 0 -46.5 9.5t-38 26t-26 38t-9.5 46.5zM770 890
q0 25 9.5 46.5t26 38t38 26t46.5 9.5h120q25 0 46.5 -9.5t38 -26t26 -38t9.5 -46.5t-9.5 -46.5t-26 -38t-38 -26t-46.5 -9.5h-120q-25 0 -46.5 9.5t-38 26t-26 38t-9.5 46.5z" />
    <glyph glyph-name="uni0410" unicode="&#x410;" horiz-adv-x="1570" 
d="M1530 0h-356l-81 100h-616l-81 -100h-356l567 700h356zM931 300l-146 180l-146 -180h292z" />
    <glyph glyph-name="uni0411" unicode="&#x411;" 
d="M40 700h1300v-180h-984v-80h764q55 0 101 -16t79 -45t51.5 -69.5t18.5 -89.5t-18.5 -89.5t-51.5 -69.5t-79 -45t-101 -16h-1080v700zM1010 180q44 0 44 40t-44 40h-654v-80h654z" />
    <glyph glyph-name="uni0412" unicode="&#x412;" 
d="M40 700h1080q55 0 101 -13t79 -38.5t51.5 -62.5t18.5 -86q0 -51 -22.5 -89t-64.5 -61q42 -23 64.5 -61t22.5 -89q0 -49 -18.5 -86t-51.5 -62.5t-79 -38.5t-101 -13h-1080v700zM356 440h654q44 0 44 40t-44 40h-654v-80zM1010 180q44 0 44 40t-44 40h-654v-80h654z" />
    <glyph glyph-name="uni0413" unicode="&#x413;" horiz-adv-x="1280" 
d="M40 700h1200v-240h-884v-460h-316v700z" />
    <glyph glyph-name="uni0414" unicode="&#x414;" horiz-adv-x="1620" 
d="M1264 0h-908v-80h-316v320h112l101 223q109 237 368 237h879v-460h80v-320h-316v80zM497 240h687v220h-485q-100 0 -142 -91z" />
    <glyph glyph-name="uni0415" unicode="&#x415;" horiz-adv-x="1380" 
d="M40 700h1300v-180h-984v-80h984v-180h-984v-80h984v-180h-1300v700z" />
    <glyph glyph-name="uni0416" unicode="&#x416;" horiz-adv-x="1800" 
d="M742 700h316v-219l280 219h422l-447 -350l447 -350h-422l-280 219v-219h-316v219l-280 -219h-422l447 350l-447 350h422l280 -219v219z" />
    <glyph glyph-name="uni0417" unicode="&#x417;" 
d="M400 520q-44 0 -44 -40v-20h-316v20q0 49 18.5 91t51.5 73t79 48.5t101 17.5h830q55 0 101 -14.5t79 -41.5t51.5 -66t18.5 -88q0 -51 -22 -88t-62 -60q40 -23 62 -60t22 -88q0 -49 -18.5 -88t-51.5 -66t-79 -41.5t-101 -14.5h-830q-55 0 -101 17.5t-79 48.5t-51.5 73
t-18.5 91v20h316v-20q0 -40 44 -40h610q44 0 44 40t-44 40h-574v176h574q44 0 44 40t-44 40h-610z" />
    <glyph glyph-name="uni0418" unicode="&#x418;" 
d="M1370 0h-316v400l-698 -400h-316v700h316v-400l698 400h316v-700z" />
    <glyph glyph-name="uni0419" unicode="&#x419;" 
d="M1370 0h-316v400l-698 -400h-316v700h316v-400l698 400h316v-700zM705 927q99 0 173 25t136 65l110 -162q-28 -19 -66.5 -40.5t-89.5 -40.5t-116.5 -31.5t-146.5 -12.5t-146.5 12.5t-116.5 31.5t-89.5 40.5t-66.5 40.5l110 162q62 -40 136 -65t173 -25z" />
    <glyph glyph-name="uni041A" unicode="&#x41a;" 
d="M40 700h316v-384l556 384h458l-507 -350l507 -350h-458l-278 192l-278 -192h-316v700z" />
    <glyph glyph-name="uni041B" unicode="&#x41b;" horiz-adv-x="1570" 
d="M396 0h-356l567 700h356l567 -700h-356l-389 480z" />
    <glyph glyph-name="uni041C" unicode="&#x41c;" horiz-adv-x="1718" 
d="M40 700h422l389 -480l389 480h438v-700h-316v411l-333 -411h-356l-317 391v-391h-316v700z" />
    <glyph glyph-name="uni041D" unicode="&#x41d;" 
d="M40 700h316v-230h698v230h316v-700h-316v230h-698v-230h-316v700z" />
    <glyph glyph-name="uni041E" unicode="&#x41e;" horiz-adv-x="1510" 
d="M1120 710q72 0 136 -29t111.5 -78.5t75 -115t27.5 -137.5t-27.5 -137.5t-75 -115t-111.5 -78.5t-136 -29h-730q-72 0 -136 29t-111.5 78.5t-75 115t-27.5 137.5t27.5 137.5t75 115t111.5 78.5t136 29h730zM1055 450h-600q-42 0 -71 -29t-29 -71t29 -71t71 -29h600
q42 0 71 29t29 71t-29 71t-71 29z" />
    <glyph glyph-name="uni041F" unicode="&#x41f;" 
d="M40 700h1330v-700h-316v460h-698v-460h-316v700z" />
    <glyph glyph-name="uni0420" unicode="&#x420;" 
d="M40 700h1050q66 0 118 -24t88 -63.5t55 -89.5t19 -103q0 -52 -19 -102.5t-55 -90t-88 -63.5t-118 -24h-734v-140h-316v700zM356 460v-80h654q44 0 44 40t-44 40h-654z" />
    <glyph glyph-name="uni0421" unicode="&#x421;" horiz-adv-x="1380" 
d="M1340 0h-950q-72 0 -136 27.5t-111.5 75t-75 111.5t-27.5 136t27.5 136t75 111.5t111.5 75t136 27.5h950v-260h-885q-42 0 -71 -24t-29 -66t29 -66t71 -24h885v-260z" />
    <glyph glyph-name="uni0422" unicode="&#x422;" 
d="M546 460h-506v240h1330v-240h-508v-460h-316v460z" />
    <glyph glyph-name="uni0423" unicode="&#x423;" horiz-adv-x="1380" 
d="M356 480q0 -40 44 -40h624v260h316v-500q0 -200 -200 -200h-1020v180h864q40 0 40 40v40h-704q-132 0 -206 57t-74 163v220h316v-220z" />
    <glyph glyph-name="uni0424" unicode="&#x424;" horiz-adv-x="1840" 
d="M762 0v140h-442q-66 0 -118 24t-88 63.5t-55 90t-19 102.5q0 53 19 103t55 89.5t88 63.5t118 24h1200q66 0 118 -24t88 -63.5t55 -89.5t19 -103q0 -52 -19 -102.5t-55 -90t-88 -63.5t-118 -24h-442v-140h-316zM1078 380h362q44 0 44 40t-44 40h-362v-80zM400 460
q-44 0 -44 -40t44 -40h362v80h-362z" />
    <glyph glyph-name="uni0425" unicode="&#x425;" horiz-adv-x="1516" 
d="M500 700l258 -185l258 185h446l-481 -345l495 -355h-446l-272 195l-272 -195h-446l495 355l-481 345h446z" />
    <glyph glyph-name="uni0426" unicode="&#x426;" horiz-adv-x="1490" 
d="M40 700h316v-460h698v460h316v-460h80v-320h-316v80h-1094v700z" />
    <glyph glyph-name="uni0427" unicode="&#x427;" 
d="M1054 180h-664q-80 0 -144.5 23.5t-110.5 69t-70.5 113t-24.5 154.5v160h316v-160q0 -100 100 -100h598v260h316v-700h-316v180z" />
    <glyph glyph-name="uni0428" unicode="&#x428;" horiz-adv-x="1710" 
d="M698 700h316v-460h340v460h316v-700h-1630v700h316v-460h342v460z" />
    <glyph glyph-name="uni0429" unicode="&#x429;" horiz-adv-x="1790" 
d="M698 700h316v-460h340v460h316v-460h80v-320h-316v80h-1394v700h316v-460h342v460z" />
    <glyph glyph-name="uni042A" unicode="&#x42a;" horiz-adv-x="1490" 
d="M120 460h-80v240h396v-140h734q66 0 118 -24t88 -63.5t55 -89.5t19 -103q0 -52 -19 -102.5t-55 -90t-88 -63.5t-118 -24h-1050v460zM436 320v-80h654q44 0 44 40t-44 40h-654z" />
    <glyph glyph-name="uni042B" unicode="&#x42b;" horiz-adv-x="1766" 
d="M40 700h316v-140h734q66 0 118 -24t88 -63.5t55 -89.5t19 -103q0 -52 -19 -102.5t-55 -90t-88 -63.5t-118 -24h-1050v700zM1410 700h316v-700h-316v700zM356 320v-80h654q44 0 44 40t-44 40h-654z" />
    <glyph glyph-name="uni042C" unicode="&#x42c;" 
d="M40 700h316v-140h734q66 0 118 -24t88 -63.5t55 -89.5t19 -103q0 -52 -19 -102.5t-55 -90t-88 -63.5t-118 -24h-1050v700zM356 320v-80h654q44 0 44 40t-44 40h-654z" />
    <glyph glyph-name="uni042D" unicode="&#x42d;" horiz-adv-x="1510" 
d="M436 260v180h695q-17 32 -52 56t-95 24h-584q-44 0 -44 -40v-20h-316v20q0 49 22 91t62.5 73t98 48.5t127.5 17.5h770q72 0 136 -29t111.5 -78.5t75 -115t27.5 -137.5t-27.5 -137.5t-75 -115t-111.5 -78.5t-136 -29h-770q-70 0 -127.5 17.5t-98 48.5t-62.5 73t-22 91v20
h316v-20q0 -40 44 -40h584q60 0 95 24t52 56h-695z" />
    <glyph glyph-name="uni042E" unicode="&#x42e;" horiz-adv-x="1866" 
d="M1476 710q72 0 136 -29t111.5 -78.5t75 -115t27.5 -137.5t-27.5 -137.5t-75 -115t-111.5 -78.5t-136 -29h-730q-61 0 -116 21t-99.5 57t-76 85.5t-46.5 106.5h-52v-260h-316v700h316v-260h52q15 57 46.5 106.5t76 85.5t99.5 57t116 21h730zM1411 450h-600q-42 0 -71 -29
t-29 -71t29 -71t71 -29h600q42 0 71 29t29 71t-29 71t-71 29z" />
    <glyph glyph-name="uni042F" unicode="&#x42f;" 
d="M1370 0h-316v140h-410l-203 -140h-401l213 147q-50 12 -89.5 39t-67 64t-42 81t-14.5 89q0 53 19 103t55 89.5t88 63.5t118 24h1050v-700zM1054 460h-654q-44 0 -44 -40t44 -40h654v80z" />
    <glyph glyph-name="uni0430" unicode="&#x430;" horiz-adv-x="1570" 
d="M1530 0h-356l-81 100h-616l-81 -100h-356l567 700h356zM931 300l-146 180l-146 -180h292z" />
    <glyph glyph-name="uni0431" unicode="&#x431;" 
d="M40 700h1300v-180h-984v-80h764q55 0 101 -16t79 -45t51.5 -69.5t18.5 -89.5t-18.5 -89.5t-51.5 -69.5t-79 -45t-101 -16h-1080v700zM1010 180q44 0 44 40t-44 40h-654v-80h654z" />
    <glyph glyph-name="uni0432" unicode="&#x432;" 
d="M40 700h1080q55 0 101 -13t79 -38.5t51.5 -62.5t18.5 -86q0 -51 -22.5 -89t-64.5 -61q42 -23 64.5 -61t22.5 -89q0 -49 -18.5 -86t-51.5 -62.5t-79 -38.5t-101 -13h-1080v700zM356 440h654q44 0 44 40t-44 40h-654v-80zM1010 180q44 0 44 40t-44 40h-654v-80h654z" />
    <glyph glyph-name="uni0433" unicode="&#x433;" horiz-adv-x="1280" 
d="M40 700h1200v-240h-884v-460h-316v700z" />
    <glyph glyph-name="uni0434" unicode="&#x434;" horiz-adv-x="1620" 
d="M1264 0h-908v-80h-316v320h112l101 223q109 237 368 237h879v-460h80v-320h-316v80zM497 240h687v220h-485q-100 0 -142 -91z" />
    <glyph glyph-name="uni0435" unicode="&#x435;" horiz-adv-x="1380" 
d="M40 700h1300v-180h-984v-80h984v-180h-984v-80h984v-180h-1300v700z" />
    <glyph glyph-name="uni0436" unicode="&#x436;" horiz-adv-x="1800" 
d="M742 700h316v-219l280 219h422l-447 -350l447 -350h-422l-280 219v-219h-316v219l-280 -219h-422l447 350l-447 350h422l280 -219v219z" />
    <glyph glyph-name="uni0437" unicode="&#x437;" 
d="M400 520q-44 0 -44 -40v-20h-316v20q0 49 18.5 91t51.5 73t79 48.5t101 17.5h830q55 0 101 -14.5t79 -41.5t51.5 -66t18.5 -88q0 -51 -22 -88t-62 -60q40 -23 62 -60t22 -88q0 -49 -18.5 -88t-51.5 -66t-79 -41.5t-101 -14.5h-830q-55 0 -101 17.5t-79 48.5t-51.5 73
t-18.5 91v20h316v-20q0 -40 44 -40h610q44 0 44 40t-44 40h-574v176h574q44 0 44 40t-44 40h-610z" />
    <glyph glyph-name="uni0438" unicode="&#x438;" 
d="M1370 0h-316v400l-698 -400h-316v700h316v-400l698 400h316v-700z" />
    <glyph glyph-name="uni0439" unicode="&#x439;" 
d="M1370 0h-316v400l-698 -400h-316v700h316v-400l698 400h316v-700zM705 927q99 0 173 25t136 65l110 -162q-28 -19 -66.5 -40.5t-89.5 -40.5t-116.5 -31.5t-146.5 -12.5t-146.5 12.5t-116.5 31.5t-89.5 40.5t-66.5 40.5l110 162q62 -40 136 -65t173 -25z" />
    <glyph glyph-name="uni043A" unicode="&#x43a;" 
d="M40 700h316v-384l556 384h458l-507 -350l507 -350h-458l-278 192l-278 -192h-316v700z" />
    <glyph glyph-name="uni043B" unicode="&#x43b;" horiz-adv-x="1570" 
d="M396 0h-356l567 700h356l567 -700h-356l-389 480z" />
    <glyph glyph-name="uni043C" unicode="&#x43c;" horiz-adv-x="1718" 
d="M40 700h422l389 -480l389 480h438v-700h-316v411l-333 -411h-356l-317 391v-391h-316v700z" />
    <glyph glyph-name="uni043D" unicode="&#x43d;" 
d="M40 700h316v-230h698v230h316v-700h-316v230h-698v-230h-316v700z" />
    <glyph glyph-name="uni043E" unicode="&#x43e;" horiz-adv-x="1510" 
d="M1120 710q72 0 136 -29t111.5 -78.5t75 -115t27.5 -137.5t-27.5 -137.5t-75 -115t-111.5 -78.5t-136 -29h-730q-72 0 -136 29t-111.5 78.5t-75 115t-27.5 137.5t27.5 137.5t75 115t111.5 78.5t136 29h730zM1055 450h-600q-42 0 -71 -29t-29 -71t29 -71t71 -29h600
q42 0 71 29t29 71t-29 71t-71 29z" />
    <glyph glyph-name="uni043F" unicode="&#x43f;" 
d="M40 700h1330v-700h-316v460h-698v-460h-316v700z" />
    <glyph glyph-name="uni0440" unicode="&#x440;" 
d="M40 700h1050q66 0 118 -24t88 -63.5t55 -89.5t19 -103q0 -52 -19 -102.5t-55 -90t-88 -63.5t-118 -24h-734v-140h-316v700zM356 460v-80h654q44 0 44 40t-44 40h-654z" />
    <glyph glyph-name="uni0441" unicode="&#x441;" horiz-adv-x="1380" 
d="M1340 0h-950q-72 0 -136 27.5t-111.5 75t-75 111.5t-27.5 136t27.5 136t75 111.5t111.5 75t136 27.5h950v-260h-885q-42 0 -71 -24t-29 -66t29 -66t71 -24h885v-260z" />
    <glyph glyph-name="uni0442" unicode="&#x442;" 
d="M546 460h-506v240h1330v-240h-508v-460h-316v460z" />
    <glyph glyph-name="uni0443" unicode="&#x443;" horiz-adv-x="1380" 
d="M356 480q0 -40 44 -40h624v260h316v-500q0 -200 -200 -200h-1020v180h864q40 0 40 40v40h-704q-132 0 -206 57t-74 163v220h316v-220z" />
    <glyph glyph-name="uni0444" unicode="&#x444;" horiz-adv-x="1840" 
d="M762 0v140h-442q-66 0 -118 24t-88 63.5t-55 90t-19 102.5q0 53 19 103t55 89.5t88 63.5t118 24h1200q66 0 118 -24t88 -63.5t55 -89.5t19 -103q0 -52 -19 -102.5t-55 -90t-88 -63.5t-118 -24h-442v-140h-316zM1078 380h362q44 0 44 40t-44 40h-362v-80zM400 460
q-44 0 -44 -40t44 -40h362v80h-362z" />
    <glyph glyph-name="uni0445" unicode="&#x445;" horiz-adv-x="1516" 
d="M500 700l258 -185l258 185h446l-481 -345l495 -355h-446l-272 195l-272 -195h-446l495 355l-481 345h446z" />
    <glyph glyph-name="uni0446" unicode="&#x446;" horiz-adv-x="1490" 
d="M40 700h316v-460h698v460h316v-460h80v-320h-316v80h-1094v700z" />
    <glyph glyph-name="uni0447" unicode="&#x447;" 
d="M1054 180h-664q-80 0 -144.5 23.5t-110.5 69t-70.5 113t-24.5 154.5v160h316v-160q0 -100 100 -100h598v260h316v-700h-316v180z" />
    <glyph glyph-name="uni0448" unicode="&#x448;" horiz-adv-x="1710" 
d="M698 700h316v-460h340v460h316v-700h-1630v700h316v-460h342v460z" />
    <glyph glyph-name="uni0449" unicode="&#x449;" horiz-adv-x="1790" 
d="M698 700h316v-460h340v460h316v-460h80v-320h-316v80h-1394v700h316v-460h342v460z" />
    <glyph glyph-name="uni044A" unicode="&#x44a;" horiz-adv-x="1490" 
d="M120 460h-80v240h396v-140h734q66 0 118 -24t88 -63.5t55 -89.5t19 -103q0 -52 -19 -102.5t-55 -90t-88 -63.5t-118 -24h-1050v460zM436 320v-80h654q44 0 44 40t-44 40h-654z" />
    <glyph glyph-name="uni044B" unicode="&#x44b;" horiz-adv-x="1766" 
d="M40 700h316v-140h734q66 0 118 -24t88 -63.5t55 -89.5t19 -103q0 -52 -19 -102.5t-55 -90t-88 -63.5t-118 -24h-1050v700zM1410 700h316v-700h-316v700zM356 320v-80h654q44 0 44 40t-44 40h-654z" />
    <glyph glyph-name="uni044C" unicode="&#x44c;" 
d="M40 700h316v-140h734q66 0 118 -24t88 -63.5t55 -89.5t19 -103q0 -52 -19 -102.5t-55 -90t-88 -63.5t-118 -24h-1050v700zM356 320v-80h654q44 0 44 40t-44 40h-654z" />
    <glyph glyph-name="uni044D" unicode="&#x44d;" horiz-adv-x="1510" 
d="M436 260v180h695q-17 32 -52 56t-95 24h-584q-44 0 -44 -40v-20h-316v20q0 49 22 91t62.5 73t98 48.5t127.5 17.5h770q72 0 136 -29t111.5 -78.5t75 -115t27.5 -137.5t-27.5 -137.5t-75 -115t-111.5 -78.5t-136 -29h-770q-70 0 -127.5 17.5t-98 48.5t-62.5 73t-22 91v20
h316v-20q0 -40 44 -40h584q60 0 95 24t52 56h-695z" />
    <glyph glyph-name="uni044E" unicode="&#x44e;" horiz-adv-x="1866" 
d="M1476 710q72 0 136 -29t111.5 -78.5t75 -115t27.5 -137.5t-27.5 -137.5t-75 -115t-111.5 -78.5t-136 -29h-730q-61 0 -116 21t-99.5 57t-76 85.5t-46.5 106.5h-52v-260h-316v700h316v-260h52q15 57 46.5 106.5t76 85.5t99.5 57t116 21h730zM1411 450h-600q-42 0 -71 -29
t-29 -71t29 -71t71 -29h600q42 0 71 29t29 71t-29 71t-71 29z" />
    <glyph glyph-name="uni044F" unicode="&#x44f;" 
d="M1370 0h-316v140h-410l-203 -140h-401l213 147q-50 12 -89.5 39t-67 64t-42 81t-14.5 89q0 53 19 103t55 89.5t88 63.5t118 24h1050v-700zM1054 460h-654q-44 0 -44 -40t44 -40h654v80z" />
    <glyph glyph-name="uni0451" unicode="&#x451;" horiz-adv-x="1380" 
d="M40 700h1300v-180h-984v-80h984v-180h-984v-80h984v-180h-1300v700zM290 890q0 25 9.5 46.5t26 38t38 26t46.5 9.5h120q25 0 46.5 -9.5t38 -26t26 -38t9.5 -46.5t-9.5 -46.5t-26 -38t-38 -26t-46.5 -9.5h-120q-25 0 -46.5 9.5t-38 26t-26 38t-9.5 46.5zM770 890
q0 25 9.5 46.5t26 38t38 26t46.5 9.5h120q25 0 46.5 -9.5t38 -26t26 -38t9.5 -46.5t-9.5 -46.5t-26 -38t-38 -26t-46.5 -9.5h-120q-25 0 -46.5 9.5t-38 26t-26 38t-9.5 46.5z" />
    <glyph glyph-name="Wgrave" unicode="&#x1e80;" horiz-adv-x="2086" 
d="M963 0h-356l-567 700h356l389 -480l80 99l-309 381h356l131 -162l131 162h356l-309 -381l80 -99l389 480h356l-567 -700h-356l-80 99zM1152 780h-220l-198 240h316z" />
    <glyph glyph-name="wgrave" unicode="&#x1e81;" horiz-adv-x="2086" 
d="M963 0h-356l-567 700h356l389 -480l80 99l-309 381h356l131 -162l131 162h356l-309 -381l80 -99l389 480h356l-567 -700h-356l-80 99zM1152 780h-220l-198 240h316z" />
    <glyph glyph-name="Wacute" unicode="&#x1e82;" horiz-adv-x="2086" 
d="M963 0h-356l-567 700h356l389 -480l80 99l-309 381h356l131 -162l131 162h356l-309 -381l80 -99l389 480h356l-567 -700h-356l-80 99zM1036 1020h316l-198 -240h-220z" />
    <glyph glyph-name="wacute" unicode="&#x1e83;" horiz-adv-x="2086" 
d="M963 0h-356l-567 700h356l389 -480l80 99l-309 381h356l131 -162l131 162h356l-309 -381l80 -99l389 480h356l-567 -700h-356l-80 99zM1036 1020h316l-198 -240h-220z" />
    <glyph glyph-name="Wdieresis" unicode="&#x1e84;" horiz-adv-x="2086" 
d="M963 0h-356l-567 700h356l389 -480l80 99l-309 381h356l131 -162l131 162h356l-309 -381l80 -99l389 480h356l-567 -700h-356l-80 99zM623 890q0 25 9.5 46.5t26 38t38 26t46.5 9.5h120q25 0 46.5 -9.5t38 -26t26 -38t9.5 -46.5t-9.5 -46.5t-26 -38t-38 -26t-46.5 -9.5
h-120q-25 0 -46.5 9.5t-38 26t-26 38t-9.5 46.5zM1103 890q0 25 9.5 46.5t26 38t38 26t46.5 9.5h120q25 0 46.5 -9.5t38 -26t26 -38t9.5 -46.5t-9.5 -46.5t-26 -38t-38 -26t-46.5 -9.5h-120q-25 0 -46.5 9.5t-38 26t-26 38t-9.5 46.5z" />
    <glyph glyph-name="wdieresis" unicode="&#x1e85;" horiz-adv-x="2086" 
d="M963 0h-356l-567 700h356l389 -480l80 99l-309 381h356l131 -162l131 162h356l-309 -381l80 -99l389 480h356l-567 -700h-356l-80 99zM623 890q0 25 9.5 46.5t26 38t38 26t46.5 9.5h120q25 0 46.5 -9.5t38 -26t26 -38t9.5 -46.5t-9.5 -46.5t-26 -38t-38 -26t-46.5 -9.5
h-120q-25 0 -46.5 9.5t-38 26t-26 38t-9.5 46.5zM1103 890q0 25 9.5 46.5t26 38t38 26t46.5 9.5h120q25 0 46.5 -9.5t38 -26t26 -38t9.5 -46.5t-9.5 -46.5t-26 -38t-38 -26t-46.5 -9.5h-120q-25 0 -46.5 9.5t-38 26t-26 38t-9.5 46.5z" />
    <glyph glyph-name="Germandbls" unicode="&#x1e9e;" 
d="M356 0h-316v500q0 49 18.5 88t51.5 66t79 41.5t101 14.5h830q55 0 101 -14.5t79 -41.5t51.5 -66t18.5 -88q0 -51 -22.5 -89t-64.5 -61q42 -23 64.5 -61t22.5 -89q0 -49 -18.5 -86t-51.5 -62.5t-79 -38.5t-101 -13h-684l-1 180h575q44 0 44 40t-44 40h-575l-1 180h576
q44 0 44 40t-44 40h-610q-44 0 -44 -40v-480z" />
    <glyph glyph-name="uni1EBC" unicode="&#x1ebc;" horiz-adv-x="1380" 
d="M40 700h1300v-180h-984v-80h984v-180h-984v-80h984v-180h-1300v700zM439 788l-98 169l40 25q87 54 181 54q51 0 108 -17l40 -13l87 -25q32 -9 60 -9q52 0 103 30l21 12l98 -169l-40 -25q-87 -54 -181 -54q-51 0 -108 17l-40 13l-87 25q-31 9 -60 9q-52 0 -103 -30z" />
    <glyph glyph-name="uni1EBD" unicode="&#x1ebd;" horiz-adv-x="1380" 
d="M40 700h1300v-180h-984v-80h984v-180h-984v-80h984v-180h-1300v700zM439 788l-98 169l40 25q87 54 181 54q51 0 108 -17l40 -13l87 -25q32 -9 60 -9q52 0 103 30l21 12l98 -169l-40 -25q-87 -54 -181 -54q-51 0 -108 17l-40 13l-87 25q-31 9 -60 9q-52 0 -103 -30z" />
    <glyph glyph-name="Ygrave" unicode="&#x1ef2;" horiz-adv-x="1570" 
d="M627 240l-587 460h417l328 -258l328 258h417l-587 -460v-240h-316v240zM894 780h-220l-198 240h316z" />
    <glyph glyph-name="ygrave" unicode="&#x1ef3;" horiz-adv-x="1570" 
d="M627 240l-587 460h417l328 -258l328 258h417l-587 -460v-240h-316v240zM894 780h-220l-198 240h316z" />
    <glyph glyph-name="uni1EF8" unicode="&#x1ef8;" horiz-adv-x="1570" 
d="M627 240l-587 460h417l328 -258l328 258h417l-587 -460v-240h-316v240zM514 788l-98 169l40 25q87 54 181 54q51 0 108 -17l40 -13l87 -25q32 -9 60 -9q52 0 103 30l21 12l98 -169l-40 -25q-87 -54 -181 -54q-51 0 -108 17l-40 13l-87 25q-31 9 -60 9q-52 0 -103 -30z
" />
    <glyph glyph-name="uni1EF9" unicode="&#x1ef9;" horiz-adv-x="1570" 
d="M627 240l-587 460h417l328 -258l328 258h417l-587 -460v-240h-316v240zM514 788l-98 169l40 25q87 54 181 54q51 0 108 -17l40 -13l87 -25q32 -9 60 -9q52 0 103 30l21 12l98 -169l-40 -25q-87 -54 -181 -54q-51 0 -108 17l-40 13l-87 25q-31 9 -60 9q-52 0 -103 -30z
" />
    <glyph glyph-name="endash" unicode="&#x2013;" horiz-adv-x="770" 
d="M40 450h690v-200h-690v200z" />
    <glyph glyph-name="emdash" unicode="&#x2014;" horiz-adv-x="1000" 
d="M40 450h920v-200h-920v200z" />
    <glyph glyph-name="quoteleft" unicode="&#x2018;" horiz-adv-x="440" 
d="M280 710q25 0 46.5 -9.5t38 -26t26 -38t9.5 -46.5t-9.5 -46.5t-26 -38t-38 -26t-46.5 -9.5h-120q-25 0 -46.5 9.5t-38 26t-26 38t-9.5 46.5q0 32 15.5 59t41.5 43l143 98v-80h40z" />
    <glyph glyph-name="quoteright" unicode="&#x2019;" horiz-adv-x="440" 
d="M160 470q-25 0 -46.5 9.5t-38 26t-26 38t-9.5 46.5t9.5 46.5t26 38t38 26t46.5 9.5h120q25 0 46.5 -9.5t38 -26t26 -38t9.5 -46.5q0 -32 -15.5 -59t-41.5 -43l-143 -98v80h-40z" />
    <glyph glyph-name="quotesinglbase" unicode="&#x201a;" horiz-adv-x="440" 
d="M160 -10q-25 0 -46.5 9.5t-38 26t-26 38t-9.5 46.5t9.5 46.5t26 38t38 26t46.5 9.5h120q25 0 46.5 -9.5t38 -26t26 -38t9.5 -46.5q0 -32 -15.5 -59t-41.5 -43l-143 -98v80h-40z" />
    <glyph glyph-name="quotedblleft" unicode="&#x201c;" horiz-adv-x="840" 
d="M280 710q25 0 46.5 -9.5t38 -26t26 -38t9.5 -46.5t-9.5 -46.5t-26 -38t-38 -26t-46.5 -9.5h-120q-25 0 -46.5 9.5t-38 26t-26 38t-9.5 46.5q0 32 15.5 59t41.5 43l143 98v-80h40zM680 710q25 0 46.5 -9.5t38 -26t26 -38t9.5 -46.5t-9.5 -46.5t-26 -38t-38 -26t-46.5 -9.5
h-120q-25 0 -46.5 9.5t-38 26t-26 38t-9.5 46.5q0 32 15.5 59t41.5 43l143 98v-80h40z" />
    <glyph glyph-name="quotedblright" unicode="&#x201d;" horiz-adv-x="840" 
d="M160 470q-25 0 -46.5 9.5t-38 26t-26 38t-9.5 46.5t9.5 46.5t26 38t38 26t46.5 9.5h120q25 0 46.5 -9.5t38 -26t26 -38t9.5 -46.5q0 -32 -15.5 -59t-41.5 -43l-143 -98v80h-40zM560 470q-25 0 -46.5 9.5t-38 26t-26 38t-9.5 46.5t9.5 46.5t26 38t38 26t46.5 9.5h120
q25 0 46.5 -9.5t38 -26t26 -38t9.5 -46.5q0 -32 -15.5 -59t-41.5 -43l-143 -98v80h-40z" />
    <glyph glyph-name="quotedblbase" unicode="&#x201e;" horiz-adv-x="840" 
d="M160 -10q-25 0 -46.5 9.5t-38 26t-26 38t-9.5 46.5t9.5 46.5t26 38t38 26t46.5 9.5h120q25 0 46.5 -9.5t38 -26t26 -38t9.5 -46.5q0 -32 -15.5 -59t-41.5 -43l-143 -98v80h-40zM560 -10q-25 0 -46.5 9.5t-38 26t-26 38t-9.5 46.5t9.5 46.5t26 38t38 26t46.5 9.5h120
q25 0 46.5 -9.5t38 -26t26 -38t9.5 -46.5q0 -32 -15.5 -59t-41.5 -43l-143 -98v80h-40z" />
    <glyph glyph-name="uni201F" unicode="&#x201f;" horiz-adv-x="840" 
d="M800 590q0 -25 -9.5 -46.5t-26 -38t-38 -26t-46.5 -9.5h-40v-80l-143 98q-26 16 -41.5 43t-15.5 59q0 25 9.5 46.5t26 38t38 26t46.5 9.5h120q25 0 46.5 -9.5t38 -26t26 -38t9.5 -46.5zM400 590q0 -25 -9.5 -46.5t-26 -38t-38 -26t-46.5 -9.5h-40v-80l-143 98
q-26 16 -41.5 43t-15.5 59q0 25 9.5 46.5t26 38t38 26t46.5 9.5h120q25 0 46.5 -9.5t38 -26t26 -38t9.5 -46.5z" />
    <glyph glyph-name="bullet" unicode="&#x2022;" horiz-adv-x="554" 
d="M40 350q0 33 12.5 61.5t34 50t50 34t61.5 12.5h158q33 0 61.5 -12.5t50 -34t34 -50t12.5 -61.5t-12.5 -61.5t-34 -50t-50 -34t-61.5 -12.5h-158q-33 0 -61.5 12.5t-50 34t-34 50t-12.5 61.5z" />
    <glyph glyph-name="ellipsis" unicode="&#x2026;" horiz-adv-x="1320" 
d="M40 110q0 25 9.5 46.5t26 38t38 26t46.5 9.5h120q25 0 46.5 -9.5t38 -26t26 -38t9.5 -46.5t-9.5 -46.5t-26 -38t-38 -26t-46.5 -9.5h-120q-25 0 -46.5 9.5t-38 26t-26 38t-9.5 46.5zM480 110q0 25 9.5 46.5t26 38t38 26t46.5 9.5h120q25 0 46.5 -9.5t38 -26t26 -38
t9.5 -46.5t-9.5 -46.5t-26 -38t-38 -26t-46.5 -9.5h-120q-25 0 -46.5 9.5t-38 26t-26 38t-9.5 46.5zM920 110q0 25 9.5 46.5t26 38t38 26t46.5 9.5h120q25 0 46.5 -9.5t38 -26t26 -38t9.5 -46.5t-9.5 -46.5t-26 -38t-38 -26t-46.5 -9.5h-120q-25 0 -46.5 9.5t-38 26t-26 38
t-9.5 46.5z" />
    <glyph glyph-name="perthousand" unicode="&#x2030;" horiz-adv-x="3545" 
d="M40 490q0 49 18 89.5t50.5 69.5t78.5 45t103 16h530q57 0 103 -16t78.5 -45t50.5 -69.5t18 -89.5t-18 -89.5t-50.5 -69.5t-78.5 -45t-103 -16h-530q-57 0 -103 16t-78.5 45t-50.5 69.5t-18 89.5zM1092 0h-276l567 700h276zM400 530q-44 0 -44 -40t44 -40h310q44 0 44 40
t-44 40h-310zM1405 210q0 49 18 89.5t50.5 69.5t78.5 45t103 16h530q57 0 103 -16t78.5 -45t50.5 -69.5t18 -89.5t-18 -89.5t-50.5 -69.5t-78.5 -45t-103 -16h-530q-57 0 -103 16t-78.5 45t-50.5 69.5t-18 89.5zM2475 210q0 49 18 89.5t50.5 69.5t78.5 45t103 16h530
q57 0 103 -16t78.5 -45t50.5 -69.5t18 -89.5t-18 -89.5t-50.5 -69.5t-78.5 -45t-103 -16h-530q-57 0 -103 16t-78.5 45t-50.5 69.5t-18 89.5zM1765 250q-44 0 -44 -40t44 -40h310q44 0 44 40t-44 40h-310zM2835 250q-44 0 -44 -40t44 -40h310q44 0 44 40t-44 40h-310z" />
    <glyph glyph-name="minute" unicode="&#x2032;" horiz-adv-x="498" 
d="M142 700h316l-198 -240h-220z" />
    <glyph glyph-name="second" unicode="&#x2033;" horiz-adv-x="854" 
d="M142 700h316l-198 -240h-220zM498 700h316l-198 -240h-220z" />
    <glyph glyph-name="guilsinglleft" unicode="&#x2039;" horiz-adv-x="440" 
d="M200 74l-160 276l160 276h200l-160 -276l160 -276h-200z" />
    <glyph glyph-name="guilsinglright" unicode="&#x203a;" horiz-adv-x="440" 
d="M40 74l160 276l-160 276h200l160 -276l-160 -276h-200z" />
    <glyph glyph-name="Euro" unicode="&#x20ac;" horiz-adv-x="1470" 
d="M40 310h92q-1 10 -1.5 19.5t-0.5 20.5t0.5 20.5t1.5 19.5h-92v200h185q48 51 114 80.5t141 29.5h950v-260h-885q-42 0 -71 -24t-29 -66t29 -66t71 -24h885v-260h-950q-75 0 -141 29.5t-114 80.5h-185v200z" />
    <glyph glyph-name="uni20BD" unicode="&#x20bd;" horiz-adv-x="1490" 
d="M120 40h-80v180h80v40h-80v180h80v260h1080q55 0 101 -16t79 -45t51.5 -69.5t18.5 -89.5t-18.5 -89.5t-51.5 -69.5t-79 -45t-101 -16h-764v-40h854v-180h-854v-40h-316v40zM1090 440q44 0 44 40t-44 40h-654v-80h654z" />
    <glyph glyph-name="uni2116" unicode="&#x2116;" horiz-adv-x="2480" 
d="M1410 490q0 49 18 89.5t50.5 69.5t78.5 45t103 16h530q57 0 103 -16t78.5 -45t50.5 -69.5t18 -89.5t-18 -89.5t-50.5 -69.5t-78.5 -45t-103 -16h-530q-57 0 -103 16t-78.5 45t-50.5 69.5t-18 89.5zM40 700h316l698 -400v400h316v-700h-316l-698 400v-400h-316v700z
M1770 530q-44 0 -44 -40t44 -40h310q44 0 44 40t-44 40h-310zM1464 230h920v-200h-920v200z" />
    <glyph glyph-name="trademark" unicode="&#x2122;" horiz-adv-x="1097" 
d="M40 700h456v-82h-174v-158h-108v158h-174v82zM523 700h134l133 -165l133 165h134v-240h-108v121l-98 -121h-122l-97 120v-120h-109v240z" />
    <glyph glyph-name="minus" unicode="&#x2212;" horiz-adv-x="770" 
d="M40 450h690v-200h-690v200z" />
    <glyph glyph-name="approxequal" unicode="&#x2248;" horiz-adv-x="828" 
d="M138 359l-98 169l40 25q87 54 181 54q51 0 108 -17l40 -13l87 -25q32 -9 60 -9q52 0 103 30l21 12l98 -169l-40 -25q-87 -54 -181 -54q-51 0 -108 17l-40 13l-87 25q-31 9 -60 9q-52 0 -103 -30zM148 89l-98 169l40 25q87 54 181 54q51 0 108 -17l40 -13l87 -25
q32 -9 60 -9q52 0 103 30l21 12l98 -169l-40 -25q-87 -54 -181 -54q-51 0 -108 17l-40 13l-87 25q-31 9 -60 9q-52 0 -103 -30z" />
    <glyph glyph-name="lessequal" unicode="&#x2264;" horiz-adv-x="500" 
 />
    <glyph glyph-name="uni2E42" unicode="&#x2e42;" horiz-adv-x="840" 
d="M800 110q0 -25 -9.5 -46.5t-26 -38t-38 -26t-46.5 -9.5h-40v-80l-143 98q-26 16 -41.5 43t-15.5 59q0 25 9.5 46.5t26 38t38 26t46.5 9.5h120q25 0 46.5 -9.5t38 -26t26 -38t9.5 -46.5zM400 110q0 -25 -9.5 -46.5t-26 -38t-38 -26t-46.5 -9.5h-40v-80l-143 98
q-26 16 -41.5 43t-15.5 59q0 25 9.5 46.5t26 38t38 26t46.5 9.5h120q25 0 46.5 -9.5t38 -26t26 -38t9.5 -46.5z" />
    <glyph glyph-name="strokeshort.alt" horiz-adv-x="476" 
d="M40 450h396v-200h-396v200z" />
    </font>
</defs>
</svg>
